<svg xmlns="http://www.w3.org/2000/svg" xmlns:xlink="http://www.w3.org/1999/xlink" width="24" height="24" viewBox="0 0 24 24">
    <defs>
        <path id="a" d="M11 .5C16.776.5 21.5 5.224 21.5 11S16.776 21.5 11 21.5.5 16.776.5 11 5.224.5 11 .5zm0 1c-5.224 0-9.5 4.276-9.5 9.5s4.276 9.5 9.5 9.5 9.5-4.276 9.5-9.5-4.276-9.5-9.5-9.5zm4.2 13.7L10 12V6h1.5v5.2l4.5 2.7-.8 1.3z"/>
    </defs>
    <g fill="none" fill-rule="evenodd" transform="translate(1 1)">
        <mask id="b" fill="#fff">
            <use xlink:href="#a"/>
        </mask>
        <use fill="#0F0F0F" fill-rule="nonzero" xlink:href="#a"/>
        <g mask="url(#b)">
            <path fill="#ED1C24" d="M-1-1h24v24H-1z"/>
        </g>
    </g>
</svg>
