<?xml version="1.0" encoding="utf-8"?>
<!-- Generator: Adobe Illustrator 16.2.0, SVG Export Plug-In . SVG Version: 6.00 Build 0)  -->
<!DOCTYPE svg PUBLIC "-//W3C//DTD SVG 1.1//EN" "http://www.w3.org/Graphics/SVG/1.1/DTD/svg11.dtd">
<svg version="1.1" id="Слой_1" xmlns="http://www.w3.org/2000/svg" xmlns:xlink="http://www.w3.org/1999/xlink" x="0px" y="0px"
	 width="24px" height="24px" viewBox="0 0 24 24" enable-background="new 0 0 24 24" xml:space="preserve">
<g transform="translate(1 1)">
	<g>
		<path id="a_1_" fill="#B2B6BA" d="M11,0.5c5.775,0,10.5,4.724,10.5,10.5c0,5.775-4.725,10.5-10.5,10.5
			C5.224,21.5,0.5,16.775,0.5,11C0.5,5.224,5.224,0.5,11,0.5z M11,1.5c-5.224,0-9.5,4.276-9.5,9.5c0,5.225,4.276,9.5,9.5,9.5
			c5.225,0,9.5-4.275,9.5-9.5C20.5,5.776,16.225,1.5,11,1.5z M15.2,15.2L10,12V6h1.5v5.2l4.5,2.7L15.2,15.2z"/>
	</g>
</g>
</svg>
