<?xml version="1.0" encoding="UTF-8"?>
<svg width="24px" height="24px" viewBox="0 0 24 24" version="1.1" xmlns="http://www.w3.org/2000/svg" xmlns:xlink="http://www.w3.org/1999/xlink">
    <!-- Generator: Sketch 50.2 (55047) - http://www.bohemiancoding.com/sketch -->
    <title>Icon / Basic / ClockGr</title>
    <desc>Created with Sketch.</desc>
    <defs></defs>
    <g id="Icon-/-Basic-/-ClockGr" stroke="none" stroke-width="1" fill="none" fill-rule="evenodd">
        <polygon id="Shape" fill="#B2B6BA" fill-rule="nonzero" points="16.256 15.729 11.167 12.876 11.167 7 12.167 7 12.167 12.29 16.744 14.855"></polygon>
        <path d="M12,21.662 C6.672,21.662 2.338,17.327 2.338,11.999 C2.338,6.672 6.672,2.338 12,2.338 C17.328,2.338 21.662,6.672 21.662,11.999 C21.662,17.327 17.328,21.662 12,21.662 Z M12,3.338 C7.224,3.338 3.338,7.223 3.338,11.999 C3.338,16.775 7.224,20.662 12,20.662 C16.775,20.662 20.662,16.775 20.662,11.999 C20.662,7.224 16.775,3.338 12,3.338 Z" id="Shape" fill="#B2B6BA" fill-rule="nonzero"></path>
        <rect id="Rectangle-2" x="0" y="0" width="24" height="24"></rect>
    </g>
</svg>