<?xml version="1.0" encoding="utf-8"?>
<!-- Generator: Adobe Illustrator 16.2.0, SVG Export Plug-In . SVG Version: 6.00 Build 0)  -->
<!DOCTYPE svg PUBLIC "-//W3C//DTD SVG 1.1//EN" "http://www.w3.org/Graphics/SVG/1.1/DTD/svg11.dtd">
<svg version="1.1" id="Слой_1" xmlns="http://www.w3.org/2000/svg" xmlns:xlink="http://www.w3.org/1999/xlink" x="0px" y="0px"
	 width="24px" height="24px" viewBox="0 0 24 24" enable-background="new 0 0 24 24" xml:space="preserve">
<g>
	<path fill="none" d="M2,2h20v20H2V2z"/>
	<g transform="translate(2 2)">
		<g>
			<path id="a_1_" fill="#ED1C24" d="M10,19c4.971,0,9-4.029,9-9s-4.029-9-9-9s-9,4.029-9,9S5.029,19,10,19z M10,20
				C4.477,20,0,15.523,0,10C0,4.477,4.477,0,10,0c5.523,0,10,4.477,10,10C20,15.523,15.523,20,10,20z M10.598,15.91v-5.23h1.479
				l0.196-1.801h-1.676L10.6,7.977c0-0.47,0.047-0.721,0.738-0.721h0.926V5.455h-1.48c-1.777,0-2.402,0.874-2.402,2.343V8.88H7.273
				v1.802H8.38v5.228L10.598,15.91L10.598,15.91z"/>
		</g>
	</g>
</g>
</svg>
