<svg xmlns="http://www.w3.org/2000/svg" xmlns:xlink="http://www.w3.org/1999/xlink" width="24" height="24" viewBox="0 0 24 24">
    <defs>
        <path id="a" d="M12.83 6.896c-.035.558-.165 1.09-.388 1.683a7.788 7.788 0 0 1-.673 1.315c-.254.42-.52.81-.946 1.408l-.237.33c-.918 1.283-1.34 1.958-1.695 2.816-.372.908-.686 1.81-.943 2.728-.32 1.171-.506 2.083-.594 3.045l-.042.454H6.03l-.042-.454c-.086-.947-.27-1.826-.602-3.042a23.053 23.053 0 0 0-.944-2.732c-.356-.87-.78-1.548-1.72-2.858l-.205-.287c-.433-.605-.696-.99-.95-1.404a8.514 8.514 0 0 1-.67-1.33c-.23-.612-.36-1.127-.384-1.67a5.821 5.821 0 0 1 .753-3.31C2.013 2.291 3.19 1.331 4.676.831c.283-.101.56-.175.833-.219.293-.055.615-.093.977-.112h.398c.334.02.656.057.94.11.273.046.546.119.833.218 1.492.502 2.662 1.46 3.41 2.76.559.966.832 2.07.763 3.308zM6.67 20.158l.185-.016v-.467h-.37v.467l.185.016zm.314-3.249c.268-.96.594-1.897.982-2.842.394-.95.845-1.674 1.806-3.016l.236-.33c.413-.58.667-.953.912-1.357.23-.357.422-.734.59-1.148.186-.496.293-.934.32-1.378.059-1.039-.167-1.95-.63-2.75C10.575 2.998 9.6 2.2 8.335 1.774a4.175 4.175 0 0 0-.685-.18 6.446 6.446 0 0 0-.793-.094h-.342a6.49 6.49 0 0 0-.833.097c-.222.036-.44.094-.677.179-1.264.425-2.247 1.226-2.87 2.309a4.83 4.83 0 0 0-.623 2.758c.02.43.125.851.317 1.363.168.416.36.796.59 1.167.24.392.492.76.912 1.347l.206.287c.983 1.37 1.437 2.096 1.83 3.057.376.895.701 1.837.984 2.848.125.459.23.873.318 1.263.088-.397.193-.814.317-1.266zm-.32-8.78c.926 0 1.67-.709 1.67-1.566 0-.856-.741-1.558-1.67-1.558-.925 0-1.66.7-1.66 1.558 0 .86.737 1.566 1.66 1.566zm0 1c-1.465 0-2.66-1.144-2.66-2.566 0-1.421 1.193-2.558 2.66-2.558 1.47 0 2.67 1.138 2.67 2.558s-1.202 2.566-2.67 2.566z"/>
    </defs>
    <g fill="none" fill-rule="evenodd" transform="translate(5 1)">
        <mask id="b" fill="#fff">
            <use xlink:href="#a"/>
        </mask>
        <use fill="#ed1c24" fill-rule="nonzero" xlink:href="#a"/>
        <g mask="url(#b)">
            <path fill="#ed1c24" d="M-5-1h25v25H-5z"/>
        </g>
    </g>
</svg>
