<?xml version="1.0" encoding="UTF-8"?>
<svg width="16px" height="24px" viewBox="0 0 16 24" version="1.1" xmlns="http://www.w3.org/2000/svg" xmlns:xlink="http://www.w3.org/1999/xlink">
    <!-- Generator: Sketch 50.2 (55047) - http://www.bohemiancoding.com/sketch -->
    <title>geo@1x</title>
    <desc>Created with Sketch.</desc>
    <defs></defs>
    <g id="Informacion" stroke="none" stroke-width="1" fill="none" fill-rule="evenodd">
        <g id="geo" fill="#ED1C24" fill-rule="nonzero">
            <path d="M8.493,23.068 L7.498,23.026 C7.497,22.998 7.331,20.164 5.981,17.282 C5.344,15.925 4.529,14.772 3.74,13.657 C2.316,11.645 0.97,9.744 0.97,7.036 C0.97,3.432 4.133,0.5 8.02,0.5 C11.907,0.5 15.071,3.432 15.071,7.036 C15.071,9.006 13.83,11.014 12.515,13.138 C11.773,14.338 11.006,15.578 10.38,16.915 C8.929,20.021 8.498,23.039 8.493,23.068 Z M8.021,1.5 C4.685,1.5 1.971,3.983 1.971,7.036 C1.971,9.426 3.17,11.119 4.558,13.08 C5.372,14.23 6.214,15.42 6.888,16.858 C7.466,18.09 7.838,19.3 8.077,20.315 C8.382,19.212 8.831,17.867 9.475,16.491 C10.125,15.101 10.909,13.836 11.665,12.612 C12.956,10.524 14.071,8.721 14.071,7.035 C14.071,3.983 11.356,1.5 8.021,1.5 Z" id="Shape"></path>
            <path d="M7.945,10.295 C6.355,10.295 5.061,9.001 5.061,7.41 C5.061,5.82 6.355,4.526 7.945,4.526 C9.535,4.526 10.829,5.819 10.829,7.41 C10.829,9.001 9.535,10.295 7.945,10.295 Z M7.945,5.527 C6.906,5.527 6.061,6.372 6.061,7.411 C6.061,8.45 6.906,9.296 7.945,9.296 C8.984,9.296 9.829,8.45 9.829,7.411 C9.829,6.372 8.984,5.527 7.945,5.527 Z" id="Shape"></path>
        </g>
    </g>
</svg>