<svg xmlns="http://www.w3.org/2000/svg" width="156" height="64" viewBox="0 0 156 64">
    <g fill="none" fill-rule="nonzero">
        <path fill="#F04100" d="M0 0h64v64H0V0zm2 2v60h60V2H2z"/>
        <path fill="#212121" d="M26.8 35.09c0 1.94-.695 3.47-2.085 4.59-1.39 1.12-3.305 1.68-5.745 1.68-1.84 0-3.46-.415-4.86-1.245-1.4-.83-2.45-1.995-3.15-3.495l3.57-2.52c1.12 1.68 2.59 2.52 4.41 2.52.86 0 1.545-.155 2.055-.465.51-.31.765-.765.765-1.365 0-.5-.2-.895-.6-1.185-.4-.29-.96-.435-1.68-.435h-2.79v-4.14h2.19c.66 0 1.18-.155 1.56-.465.38-.31.57-.715.57-1.215 0-.54-.205-.97-.615-1.29-.41-.32-.955-.48-1.635-.48-1.56 0-2.77.84-3.63 2.52l-3.57-2.52c1.48-3.16 4-4.74 7.56-4.74 2.16 0 3.855.525 5.085 1.575 1.23 1.05 1.845 2.525 1.845 4.425 0 1.62-.6 2.92-1.8 3.9 1.7.94 2.55 2.39 2.55 4.35zm16.05-2.79V41h-4.71v-1.23c-1.12 1.06-2.56 1.59-4.32 1.59-1.58 0-2.835-.445-3.765-1.335-.93-.89-1.395-1.995-1.395-3.315 0-1.4.525-2.495 1.575-3.285 1.05-.79 2.485-1.185 4.305-1.185h3.15V32c0-1.28-.76-1.92-2.28-1.92-.66 0-1.265.14-1.815.42-.55.28-1.195.75-1.935 1.41l-2.4-3.27c1.98-2 4.24-3 6.78-3 2.12 0 3.785.575 4.995 1.725 1.21 1.15 1.815 2.795 1.815 4.935zm-5.16 3.21v-.12h-2.43c-.92 0-1.38.38-1.38 1.14 0 .36.135.645.405.855.27.21.645.315 1.125.315.68 0 1.23-.2 1.65-.6.42-.4.63-.93.63-1.59zM62.5 41h-6.03l-5.1-7.5V41h-5.16V26h5.16v6.81L56.41 26h5.73l-5.28 6.87L62.5 41zm15.09-8.7V41h-4.71v-1.23c-1.12 1.06-2.56 1.59-4.32 1.59-1.58 0-2.835-.445-3.765-1.335-.93-.89-1.395-1.995-1.395-3.315 0-1.4.525-2.495 1.575-3.285 1.05-.79 2.485-1.185 4.305-1.185h3.15V32c0-1.28-.76-1.92-2.28-1.92-.66 0-1.265.14-1.815.42-.55.28-1.195.75-1.935 1.41L64 28.64c1.98-2 4.24-3 6.78-3 2.12 0 3.785.575 4.995 1.725 1.21 1.15 1.815 2.795 1.815 4.935zm-5.16 3.21v-.12H70c-.92 0-1.38.38-1.38 1.14 0 .36.135.645.405.855.27.21.645.315 1.125.315.68 0 1.23-.2 1.65-.6.42-.4.63-.93.63-1.59zm20.85 1.02c0 3.22-2.16 4.83-6.48 4.83-3.1 0-5.4-.91-6.9-2.73l2.76-3.09c.98.98 2.23 1.47 3.75 1.47 1.28 0 1.92-.31 1.92-.93 0-.56-.46-.84-1.38-.84h-2.16v-3.6h1.86c.72 0 1.08-.27 1.08-.81 0-.56-.45-.84-1.35-.84-1.28 0-2.42.44-3.42 1.32l-2.76-3.09c1.54-1.72 3.71-2.58 6.51-2.58 1.94 0 3.43.395 4.47 1.185 1.04.79 1.56 1.925 1.56 3.405 0 1.22-.45 2.26-1.35 3.12 1.26.82 1.89 1.88 1.89 3.18zM104.47 26h5.16v15h-5.16v-4.89c-.7.26-1.66.39-2.88.39-2.02 0-3.58-.615-4.68-1.845-1.1-1.23-1.65-2.935-1.65-5.115V26h5.16v3.12c0 1.82.75 2.73 2.25 2.73.72 0 1.32-.07 1.8-.21V26zm21.81-.36h1.65V41h-5.16v-6.75l-7.89 7.11h-1.65V26h5.16v6.75l7.89-7.11zM147.82 41h-6.03l-5.1-7.5V41h-5.16V26h5.16v6.81l5.04-6.81h5.73l-5.28 6.87 5.64 8.13zm1.8-9.6c-.64-.64-.96-1.44-.96-2.4s.32-1.76.96-2.4c.64-.64 1.46-.96 2.46-.96.96 0 1.755.32 2.385.96.63.64.945 1.44.945 2.4s-.315 1.76-.945 2.4c-.63.64-1.425.96-2.385.96-1 0-1.82-.32-2.46-.96zm0 9c-.64-.64-.96-1.44-.96-2.4s.32-1.76.96-2.4c.64-.64 1.46-.96 2.46-.96.96 0 1.755.32 2.385.96.63.64.945 1.44.945 2.4s-.315 1.76-.945 2.4c-.63.64-1.425.96-2.385.96-1 0-1.82-.32-2.46-.96z"/>
    </g>
</svg>
