<svg xmlns="http://www.w3.org/2000/svg" width="93" height="22" viewBox="0 0 93 22">
    <g fill="none" fill-rule="evenodd">
        <path fill="#F2F2F2" fill-rule="nonzero" d="M34.38 5.76h5.726V15h-1.092V6.74h-3.612c-.075 2.184-.21 3.845-.406 4.984-.205 1.185-.502 2.044-.889 2.576s-.903.798-1.547.798a1.3 1.3 0 0 1-.546-.098v-.952c.084.028.21.042.378.042.663 0 1.141-.555 1.435-1.666.294-1.11.469-2.87.525-5.278l.028-1.386zM42.64 15V5.76h1.092V15H42.64zm2.646-4.956L49.794 15h-1.386l-4.55-4.956 4.158-4.284h1.4l-4.13 4.284zm4.914.336c-.028-1.316.436-2.445 1.393-3.388.957-.943 2.093-1.405 3.409-1.386.812 0 1.556.177 2.233.532.677.355 1.211.84 1.603 1.456l-.812.644c-.756-1.083-1.76-1.624-3.01-1.624-1.045 0-1.92.36-2.625 1.078-.705.719-1.057 1.615-1.057 2.688 0 1.073.352 1.97 1.057 2.688.705.719 1.58 1.078 2.625 1.078 1.25 0 2.254-.541 3.01-1.624l.812.644a4.133 4.133 0 0 1-1.603 1.456 4.736 4.736 0 0 1-2.233.532c-1.316.019-2.452-.443-3.409-1.386-.957-.943-1.421-2.072-1.393-3.388zm15.988 3.64h4.354V15h-6.426v-.28l3.29-3.5c.597-.625 1.017-1.136 1.26-1.533.243-.397.364-.805.364-1.225 0-.523-.163-.961-.49-1.316-.327-.355-.756-.532-1.288-.532-.56 0-1.008.187-1.344.56-.336.383-.504.83-.504 1.344 0 .261.028.518.084.77h-1.12a3.024 3.024 0 0 1-.098-.812c0-.765.28-1.435.84-2.009.56-.574 1.274-.861 2.142-.861.84 0 1.535.268 2.086.805.55.537.826 1.202.826 1.995 0 .439-.089.85-.266 1.232a5.408 5.408 0 0 1-.616 1.022 16.31 16.31 0 0 1-1.05 1.204l-2.044 2.156zm6.874-.224c-.56-.915-.84-2.081-.84-3.5s.285-2.553.854-3.402c.579-.859 1.423-1.288 2.534-1.288 1.12 0 1.96.43 2.52 1.288.57.85.854 1.983.854 3.402s-.28 2.585-.84 3.5c-.56.905-1.405 1.358-2.534 1.358-1.13 0-1.979-.453-2.548-1.358zm4.788-3.486c0-2.464-.747-3.696-2.24-3.696-1.503 0-2.254 1.232-2.254 3.696 0 1.213.187 2.156.56 2.828.373.672.938 1.008 1.694 1.008s1.318-.336 1.687-1.008c.369-.672.553-1.615.553-2.828zm5.446-4.55h.406V15H82.61V7.048l-2.016.63-.266-.938 2.968-.98zm8.918 2.968c0 .355-.056.695-.168 1.022-.093.299-.22.57-.378.812-.15.252-.392.62-.728 1.106L88.644 15h-1.288l2.352-3.388a2.228 2.228 0 0 1-.784.126c-.812 0-1.517-.294-2.114-.882a2.893 2.893 0 0 1-.896-2.142c0-.877.308-1.615.924-2.212.616-.597 1.363-.896 2.24-.896.868 0 1.608.301 2.219.903.611.602.917 1.342.917 2.219zM91.136 8.7c0-.597-.196-1.097-.588-1.498-.392-.401-.882-.602-1.47-.602s-1.083.2-1.484.602c-.401.401-.602.9-.602 1.498 0 .588.2 1.087.602 1.498.401.41.896.616 1.484.616s1.078-.205 1.47-.616c.392-.41.588-.91.588-1.498z"/>
        <path stroke="#F2F2F2" d="M.5.5h21v21H.5z"/>
        <path fill="#F04100" fill-rule="nonzero" d="M6 8l5 3.582L16 8v2.418L11 14l-5-3.582z"/>
    </g>
</svg>
