<svg xmlns="http://www.w3.org/2000/svg" width="11" height="173" viewBox="0 0 11 173">
    <path fill="#F04100" fill-rule="nonzero" d="M9.648 7.09c0 .85-.305 1.547-.915 2.093-.61.545-1.39.817-2.34.817h-4.41V.1h3.51c.92 0 1.672.257 2.257.773.585.515.878 1.177.878 1.987 0 .73-.245 1.325-.735 1.785 1.17.43 1.755 1.245 1.755 2.445zm-4.32-5.25H3.933v2.265h1.395c.41 0 .727-.1.952-.3.225-.2.338-.48.338-.84 0-.35-.113-.625-.338-.825-.225-.2-.542-.3-.952-.3zm2.325 5.175c0-.38-.125-.682-.375-.907-.25-.226-.595-.338-1.035-.338h-2.31v2.49h2.31c.44 0 .784-.11 1.035-.33.25-.22.375-.525.375-.915zM.67 23.05c-.02-1.42.495-2.637 1.545-3.652 1.05-1.016 2.295-1.508 3.735-1.478.94 0 1.792.217 2.558.653a4.754 4.754 0 0 1 1.807 1.807l-1.53 1.08c-.71-1.11-1.655-1.665-2.835-1.665-.92 0-1.682.31-2.287.93-.606.62-.908 1.4-.908 2.34s.302 1.715.908 2.325c.605.61 1.367.915 2.287.915 1.18 0 2.125-.555 2.835-1.665l1.53 1.08a4.634 4.634 0 0 1-1.8 1.808c-.77.435-1.63.652-2.58.652-1.45.03-2.697-.462-3.742-1.477C1.147 25.687.64 24.47.67 23.05zM2.343 46v-9.9h6.66v1.83H4.368v2.01h3.405v1.725H4.368v2.505h4.815V46h-6.84zm5.812 26.1h2.16L6.94 79.51c-.47.98-.92 1.662-1.35 2.048-.43.385-1.07.587-1.92.607-.37 0-.745-.055-1.125-.165v-1.725c.25.03.515.045.795.045.6 0 1.065-.21 1.395-.63l-3.69-7.59H3.31l2.52 5.385L8.155 72.1zM.67 95.05c-.02-1.42.495-2.637 1.545-3.652 1.05-1.016 2.295-1.508 3.735-1.478.94 0 1.792.217 2.558.653a4.754 4.754 0 0 1 1.807 1.807l-1.53 1.08c-.71-1.11-1.655-1.665-2.835-1.665-.92 0-1.682.31-2.287.93-.606.62-.908 1.4-.908 2.34s.302 1.715.908 2.325c.605.61 1.367.915 2.287.915 1.18 0 2.125-.555 2.835-1.665l1.53 1.08a4.634 4.634 0 0 1-1.8 1.808c-.77.435-1.63.652-2.58.652-1.45.03-2.697-.462-3.742-1.477C1.147 97.687.64 96.47.67 95.05zm1.928 13.05h6.795v9.9H7.368v-8.07h-2.85c-.04 2.11-.183 3.765-.428 4.965-.245 1.2-.585 2.037-1.02 2.513-.435.475-1.017.722-1.747.742-.3 0-.585-.05-.856-.15v-1.725c.08.02.215.03.406.03.6 0 1.027-.495 1.282-1.485.255-.99.397-2.62.428-4.89l.015-1.83zm5.407 18h2.16l-3.375 7.41c-.47.98-.92 1.662-1.35 2.048-.43.385-1.07.587-1.92.607-.37 0-.745-.055-1.125-.165v-1.725c.25.03.515.045.795.045.6 0 1.065-.21 1.395-.63l-3.69-7.59H3.16l2.52 5.385 2.325-5.385zM2.71 154v-9.9h6.36v1.83H4.735V154H2.71zm6.368 7.92h.675V172H7.728v-6.135l-5.805 6.315h-.66V162.1h2.025v6.075l5.79-6.255z" opacity=".6"/>
</svg>
