<svg xmlns="http://www.w3.org/2000/svg" xmlns:xlink="http://www.w3.org/1999/xlink" width="24" height="24" viewBox="0 0 24 24">
    <defs>
        <path id="a" d="M10 19a9 9 0 1 0 0-18 9 9 0 0 0 0 18zm0 1C4.477 20 0 15.523 0 10S4.477 0 10 0s10 4.477 10 10-4.477 10-10 10zm2.789-14.545H7.21c-.968 0-1.756.787-1.756 1.756v5.578c0 .969.788 1.756 1.756 1.756h5.578c.968 0 1.756-.787 1.756-1.756V7.21c0-.969-.788-1.756-1.756-1.756zm.504 1.048l.2-.001v1.54l-1.536.005-.005-1.54 1.34-.004zm-4.59 2.564c.29-.403.763-.667 1.297-.667.534 0 1.006.264 1.297.667.19.263.303.585.303.933 0 .882-.718 1.6-1.6 1.6-.882 0-1.6-.718-1.6-1.6 0-.348.114-.67.303-.933zm4.957 3.722c0 .48-.391.87-.871.87H7.21a.872.872 0 0 1-.87-.87V9.067h1.357a2.468 2.468 0 0 0-.183.933A2.489 2.489 0 0 0 10 12.486 2.489 2.489 0 0 0 12.486 10c0-.33-.067-.645-.183-.933h1.357v3.722z"/>
    </defs>
    <g fill="none" fill-rule="evenodd">
        <path d="M2 2h20v20H2z"/>
        <g transform="translate(2 2)">
            <mask id="b" fill="#fff">
                <use xlink:href="#a"/>
            </mask>
            <use fill="#000" fill-rule="nonzero" xlink:href="#a"/>
            <g mask="url(#b)">
                <path fill="#ED1C24" d="M-2-2h24v24H-2z"/>
            </g>
        </g>
    </g>
</svg>
