<?xml version="1.0" encoding="utf-8"?>
<!-- Generator: Adobe Illustrator 16.2.0, SVG Export Plug-In . SVG Version: 6.00 Build 0)  -->
<!DOCTYPE svg PUBLIC "-//W3C//DTD SVG 1.1//EN" "http://www.w3.org/Graphics/SVG/1.1/DTD/svg11.dtd">
<svg version="1.1" id="Слой_1" xmlns="http://www.w3.org/2000/svg" xmlns:xlink="http://www.w3.org/1999/xlink" x="0px" y="0px"
	 width="24px" height="24px" viewBox="0 0 24 24" enable-background="new 0 0 24 24" xml:space="preserve">
<g>
	<path fill="#ED1C24" d="M21.914,3.086l-1-1.001c-0.002-0.001-0.002-0.002-0.004-0.004c-0.781-0.779-2.045-0.777-2.824,0.004
		L16.9,3.284V3.2c0-0.939-0.762-1.7-1.7-1.7h-12c-0.939,0-1.7,0.761-1.7,1.7v17.6c0,0.938,0.761,1.7,1.7,1.7h12
		c0.938,0,1.7-0.762,1.7-1.7v-9.929l5.012-4.955c0.002-0.002,0.004-0.004,0.006-0.006C22.697,5.129,22.695,3.865,21.914,3.086z
		 M11.641,14.663l-0.194-0.388c-0.048-0.096-0.126-0.174-0.223-0.224l-0.38-0.188L19,5.707l0.846,0.846L11.641,14.663z M6.978,17.07
		L6.93,17.021L8.34,13.5h0.85l0.363,0.725c0.048,0.096,0.127,0.174,0.224,0.224l0.85,0.426l0.266,0.53l-0.172,0.17L6.978,17.07z
		 M10.137,13.156l-0.19-0.381C9.862,12.607,9.689,12.5,9.5,12.5H9.198l8.249-8.346L18.293,5L10.137,13.156z M15.9,20.8
		c0,0.388-0.314,0.7-0.7,0.7h-12c-0.387,0-0.7-0.313-0.7-0.7V3.2c0-0.387,0.313-0.7,0.7-0.7h1.5v0.771C4.464,3.434,4.3,3.692,4.3,4
		c0,0.497,0.403,0.9,0.9,0.9c0.497,0,0.9-0.403,0.9-0.9c0-0.308-0.164-0.566-0.4-0.729V2.5h3v0.771C8.464,3.434,8.3,3.692,8.3,4
		c0,0.497,0.403,0.9,0.9,0.9c0.497,0,0.9-0.403,0.9-0.9c0-0.308-0.164-0.566-0.4-0.729V2.5h3v0.752
		c-0.099,0.066-0.183,0.15-0.249,0.249c-0.276,0.413-0.165,0.972,0.249,1.248c0.413,0.276,0.972,0.165,1.248-0.248
		c0.276-0.414,0.165-0.972-0.248-1.249V2.5h1.5c0.386,0,0.7,0.313,0.7,0.7v1.096l-8.256,8.353l-0.025,0.039
		c-0.032,0.039-0.062,0.078-0.081,0.125l-0.002,0.002l-2,5c-0.048,0.119-0.048,0.252,0,0.371c0.103,0.256,0.394,0.381,0.65,0.278
		l5-2l0.166-0.108l4.548-4.497V20.8z M21.207,5.208l-0.65,0.643L18.15,3.443l0.645-0.652c0.001,0,0.002-0.001,0.002-0.002
		c0.391-0.388,1.021-0.387,1.41,0.004l1,1c0.002,0.002,0.004,0.003,0.005,0.005C21.6,4.189,21.598,4.82,21.207,5.208z"/>
	<path fill="#FFFFFF" d="M15.2,22.625h-12c-1.006,0-1.825-0.818-1.825-1.825V3.2c0-1.006,0.819-1.825,1.825-1.825h12
		c0.936,0,1.71,0.708,1.813,1.617l0.983-0.995c0.401-0.403,0.936-0.624,1.503-0.624c0.561,0,1.089,0.216,1.488,0.609l1.015,1.016
		c0.828,0.826,0.83,2.172,0.004,3.001l-4.981,4.925V20.8C17.025,21.807,16.207,22.625,15.2,22.625z M3.2,1.625
		c-0.869,0-1.575,0.707-1.575,1.575v17.6c0,0.868,0.707,1.575,1.575,1.575h12c0.868,0,1.575-0.707,1.575-1.575v-9.981l5.049-4.992
		c0.734-0.736,0.732-1.924,0.002-2.653l-1.014-1.016c-0.344-0.342-0.813-0.536-1.313-0.536c-0.5,0-0.972,0.195-1.325,0.55
		l-1.399,1.415V3.2c0-0.869-0.707-1.575-1.575-1.575H3.2z M15.2,21.625h-12c-0.455,0-0.825-0.37-0.825-0.825V3.2
		c0-0.455,0.37-0.825,0.825-0.825h1.625v0.961L4.771,3.374C4.551,3.526,4.425,3.754,4.425,4c0,0.427,0.348,0.775,0.775,0.775
		c0.427,0,0.775-0.348,0.775-0.775c0-0.246-0.126-0.474-0.346-0.626L5.575,3.336V2.375h3.25v0.961L8.771,3.374
		C8.551,3.526,8.425,3.754,8.425,4c0,0.427,0.348,0.775,0.775,0.775c0.427,0,0.775-0.348,0.775-0.775
		c0-0.246-0.126-0.474-0.346-0.626L9.575,3.336V2.375h3.25v0.944L12.77,3.356c-0.085,0.057-0.157,0.129-0.215,0.215
		c-0.115,0.172-0.156,0.378-0.115,0.581s0.157,0.378,0.33,0.493c0.346,0.23,0.847,0.13,1.075-0.213
		c0.236-0.355,0.141-0.838-0.214-1.076l-0.056-0.037V2.375H15.2c0.455,0,0.825,0.37,0.825,0.825v1.147l-8.301,8.408
		c-0.039,0.048-0.059,0.075-0.071,0.104l-0.011,0.025l-1.99,4.977c-0.037,0.09-0.037,0.188,0,0.277
		c0.075,0.188,0.298,0.283,0.488,0.209l5-2l0.144-0.097l4.742-4.691v9.24C16.025,21.255,15.655,21.625,15.2,21.625z M3.2,2.625
		c-0.317,0-0.575,0.258-0.575,0.575v17.6c0,0.317,0.258,0.575,0.575,0.575h12c0.317,0,0.575-0.258,0.575-0.575v-8.642l-4.335,4.286
		l-0.186,0.124L6.232,18.58c-0.313,0.125-0.686-0.035-0.812-0.348c-0.061-0.149-0.061-0.315,0-0.465l2.013-5.027
		c0.025-0.053,0.059-0.096,0.089-0.132l0.016-0.027l8.237-8.336V3.2c0-0.317-0.258-0.575-0.575-0.575h-1.375v0.563
		c0.424,0.326,0.527,0.932,0.227,1.382c-0.19,0.285-0.509,0.456-0.853,0.456c-0.203,0-0.399-0.06-0.568-0.173
		c-0.228-0.152-0.383-0.384-0.437-0.652c-0.054-0.269,0-0.542,0.153-0.769c0.063-0.094,0.14-0.176,0.228-0.244V2.625h-2.75v0.583
		c0.255,0.199,0.4,0.484,0.4,0.792c0,0.565-0.46,1.025-1.025,1.025c-0.565,0-1.025-0.46-1.025-1.025c0-0.308,0.145-0.594,0.4-0.792
		V2.625h-2.75v0.583C6.08,3.407,6.225,3.692,6.225,4c0,0.565-0.46,1.025-1.025,1.025c-0.565,0-1.025-0.46-1.025-1.025
		c0-0.308,0.145-0.594,0.4-0.792V2.625H3.2z M6.947,17.218l-0.164-0.167l1.472-3.676h1.012l0.398,0.794
		c0.035,0.07,0.095,0.13,0.169,0.168l0.886,0.444l0.325,0.648l-0.278,0.261L6.947,17.218z M8.424,13.625l-1.302,3.253l3.529-1.41
		l0.089-0.089l-0.207-0.412L9.721,14.56c-0.122-0.063-0.22-0.161-0.279-0.279l-0.329-0.655H8.424z M11.606,14.873l-0.271-0.542
		c-0.036-0.072-0.094-0.13-0.168-0.168l-0.535-0.265l0.123-0.124L19,5.53l1.023,1.023l-0.09,0.088L11.606,14.873z M11.055,13.828
		l0.225,0.111c0.123,0.063,0.219,0.16,0.279,0.28l0.117,0.233l7.992-7.9L19,5.884L11.055,13.828z M10.103,13.367l-0.268-0.536
		C9.771,12.706,9.64,12.625,9.5,12.625H8.899l8.547-8.648L18.47,5l-0.088,0.088L10.103,13.367z M9.498,12.375H9.5
		c0.237,0,0.451,0.132,0.558,0.344l0.113,0.227L18.116,5l-0.668-0.669L9.498,12.375z M20.556,6.027l-2.581-2.584l0.771-0.777
		c0.428-0.391,1.141-0.375,1.551,0.039l1.014,1.014c0.427,0.44,0.421,1.145-0.015,1.578L20.556,6.027z M18.326,3.442l2.231,2.232
		l0.562-0.556c0.341-0.338,0.343-0.892,0.004-1.233L21.108,3.87l-0.99-0.989c-0.316-0.317-0.861-0.335-1.196-0.038v0.071
		l-0.074,0.001L18.326,3.442z"/>
</g>
</svg>
