<svg xmlns="http://www.w3.org/2000/svg" xmlns:xlink="http://www.w3.org/1999/xlink" width="24" height="24" viewBox="0 0 24 24">
    <defs>
        <path id="a" d="M18 4.707l-8.156 8.156.38.19a.5.5 0 0 1 .223.223l.5 1a.5.5 0 0 1-.894.448l-.426-.851-.85-.426a.5.5 0 0 1-.224-.223L8.19 12.5H7a.5.5 0 1 1 0-1h1.5a.5.5 0 0 1 .447.276l.19.38L17.293 4l-1.147-1.146a.5.5 0 0 1 .708-.707l3 3a.5.5 0 0 1-.708.707L18 4.707zm-2.1-1.205a.5.5 0 1 1-1 0V2.2a.7.7 0 0 0-.7-.7h-12a.7.7 0 0 0-.7.7v17.6a.7.7 0 0 0 .7.7h12a.7.7 0 0 0 .7-.7V9.662a.5.5 0 1 1 1 0V19.8a1.7 1.7 0 0 1-1.7 1.7h-12a1.7 1.7 0 0 1-1.7-1.7V2.2A1.7 1.7 0 0 1 2.2.5h12a1.7 1.7 0 0 1 1.7 1.7v1.302zM5.046 16.554a.5.5 0 0 1 .708-.707l.4.4a.5.5 0 0 1-.708.707l-.4-.4zm5.306-1.198l-.166.108-5 2a.5.5 0 0 1-.65-.65l2-5 .108-.165L17.086 1.085a1.997 1.997 0 0 1 2.828 0l1 1.001a1.997 1.997 0 0 1-.002 2.83l-10.56 10.44zm-.632-.783L20.207 4.208a.997.997 0 0 0 0-1.415l-1-1a.997.997 0 0 0-1.412-.002L7.427 12.28l-1.53 3.823 3.823-1.53zm.632.783l-.166.108-5 2a.5.5 0 0 1-.65-.65l2-5 .108-.165L17.086 1.085a1.997 1.997 0 0 1 2.828 0l1 1.001a1.997 1.997 0 0 1-.002 2.83l-10.56 10.44zm-.632-.783L20.207 4.208a.997.997 0 0 0 0-1.415l-1-1a.997.997 0 0 0-1.412-.002L7.427 12.28l-1.53 3.823 3.823-1.53zM5.1 3a.9.9 0 1 1-1.8 0 .9.9 0 0 1 1.8 0zm3.6 0a.5.5 0 0 1-1 0V1a.5.5 0 0 1 1 0v2zm.4 0a.9.9 0 1 1-1.8 0 .9.9 0 0 1 1.8 0zM4.7 3a.5.5 0 0 1-1 0V1a.5.5 0 0 1 1 0v2zm7-.748V1a.5.5 0 1 1 1 0v1.252a.9.9 0 1 1-1 0z"/>
    </defs>
    <g fill="none" fill-rule="evenodd" transform="translate(1 1)">
        <mask id="b" fill="#fff">
            <use xlink:href="#a"/>
        </mask>
        <use fill="#303C42" fill-rule="nonzero" xlink:href="#a"/>
        <g mask="url(#b)">
            <path fill="#ED1C24" d="M-1-1h24v24H-1z"/>
        </g>
    </g>
</svg>
