<?xml version="1.0" encoding="utf-8"?>
<!-- Generator: Adobe Illustrator 16.2.0, SVG Export Plug-In . SVG Version: 6.00 Build 0)  -->
<!DOCTYPE svg PUBLIC "-//W3C//DTD SVG 1.1//EN" "http://www.w3.org/Graphics/SVG/1.1/DTD/svg11.dtd">
<svg version="1.1" id="Слой_1" xmlns="http://www.w3.org/2000/svg" xmlns:xlink="http://www.w3.org/1999/xlink" x="0px" y="0px"
	 width="24px" height="24px" viewBox="0 0 24 24" enable-background="new 0 0 24 24" xml:space="preserve">
<path fill="#ED1C24" d="M21.914,3.086l-1-1.001c-0.002-0.001-0.002-0.002-0.004-0.004c-0.781-0.779-2.045-0.777-2.824,0.004
	L16.9,3.284V3.2c0-0.939-0.762-1.7-1.7-1.7h-12c-0.939,0-1.7,0.761-1.7,1.7v17.6c0,0.938,0.761,1.7,1.7,1.7h12
	c0.938,0,1.7-0.762,1.7-1.7v-9.929l5.012-4.955c0.002-0.002,0.004-0.004,0.006-0.006C22.697,5.129,22.695,3.865,21.914,3.086z
	 M11.641,14.663l-0.194-0.388c-0.048-0.096-0.126-0.174-0.223-0.223l-0.38-0.189L19,5.707l0.846,0.846L11.641,14.663z M6.978,17.071
	l-0.048-0.049l1.41-3.522H9.19l0.363,0.725c0.048,0.096,0.127,0.174,0.224,0.223l0.85,0.426l0.266,0.53l-0.172,0.17L6.978,17.071z
	 M10.137,13.156l-0.19-0.381C9.862,12.607,9.689,12.5,9.5,12.5H9.198l8.249-8.346L18.293,5L10.137,13.156z M15.9,20.8
	c0,0.387-0.314,0.7-0.7,0.7h-12c-0.387,0-0.7-0.313-0.7-0.7V3.2c0-0.387,0.313-0.7,0.7-0.7h1.5v0.771C4.464,3.434,4.3,3.692,4.3,4
	c0,0.497,0.403,0.9,0.9,0.9S6.1,4.497,6.1,4c0-0.308-0.164-0.566-0.4-0.729V2.5h3v0.771C8.464,3.434,8.3,3.692,8.3,4
	c0,0.497,0.403,0.9,0.9,0.9s0.9-0.403,0.9-0.9c0-0.308-0.164-0.566-0.4-0.729V2.5h3v0.752c-0.099,0.066-0.183,0.15-0.249,0.249
	c-0.276,0.413-0.165,0.972,0.249,1.248c0.413,0.276,0.972,0.165,1.248-0.248c0.276-0.414,0.165-0.972-0.248-1.249V2.5h1.5
	c0.386,0,0.7,0.313,0.7,0.7v1.096l-8.256,8.353l-0.025,0.038c-0.032,0.039-0.062,0.078-0.081,0.125l-0.002,0.003l-2,5
	c-0.048,0.119-0.048,0.252,0,0.371c0.103,0.256,0.394,0.381,0.65,0.278l5-2l0.166-0.108l4.548-4.497V20.8z M21.207,5.208
	l-0.65,0.643L18.15,3.443l0.645-0.652c0.001,0,0.002-0.001,0.002-0.002c0.391-0.388,1.021-0.387,1.41,0.004l1,1
	c0.002,0.002,0.004,0.003,0.005,0.005C21.6,4.189,21.598,4.82,21.207,5.208z"/>
</svg>
