<?xml version="1.0" encoding="UTF-8"?>
<svg width="20px" height="19px" viewBox="0 0 20 19" version="1.1" xmlns="http://www.w3.org/2000/svg" xmlns:xlink="http://www.w3.org/1999/xlink">
    <!-- Generator: Sketch 50.2 (55047) - http://www.bohemiancoding.com/sketch -->
    <title>like_red@1x</title>
    <desc>Created with Sketch.</desc>
    <defs></defs>
    <g id="Informacion" stroke="none" stroke-width="1" fill="none" fill-rule="evenodd">
        <g id="like_red" fill="#ED1C24" fill-rule="nonzero">
            <path d="M18.868,7.046 C18.379,6.632 17.76,6.403 17.117,6.4 L12.87,6.4 L12.87,3.376 C12.87,2.105 12.494,1.189 11.748,0.65 C10.571,-0.202 8.951,0.284 8.882,0.308 C8.682,0.369 8.544,0.553 8.542,0.762 L8.542,4.145 C8.542,5.249 8.009,6.185 6.953,6.931 C6.165,7.488 5.36,7.731 5.275,7.759 L5.157,7.787 C4.976,7.485 4.649,7.3 4.296,7.301 L1.156,7.301 C0.608,7.298 0.161,7.738 0.156,8.285 L0.156,17.385 C0.156,17.926 0.605,18.369 1.156,18.369 L4.305,18.369 C4.611,18.369 4.891,18.229 5.073,18.015 C5.594,18.565 6.315,18.872 7.07,18.874 L15.471,18.874 C17.326,18.874 18.513,17.918 18.722,16.246 L19.81,9.597 C19.961,8.64 19.604,7.675 18.868,7.046 Z M4.474,17.408 C4.474,17.423 4.461,17.434 4.445,17.434 L1.146,17.434 C1.129,17.434 1.117,17.42 1.117,17.408 L1.117,8.338 C1.117,8.323 1.13,8.311 1.146,8.311 L4.447,8.311 C4.464,8.311 4.477,8.323 4.477,8.338 L4.477,17.407 L4.474,17.408 Z M18.858,9.444 L17.785,16.101 C17.785,16.105 17.785,16.113 17.781,16.121 C17.633,17.312 16.871,17.916 15.511,17.916 L7.186,17.916 C6.332,17.916 5.591,17.284 5.458,16.447 C5.453,16.421 5.446,16.391 5.438,16.365 L5.438,8.735 L5.647,8.688 C5.654,8.688 5.658,8.684 5.667,8.684 C5.707,8.671 6.656,8.405 7.614,7.728 C8.925,6.805 9.614,5.566 9.614,4.148 L9.614,1.153 C10.031,1.085 10.744,1.049 11.261,1.432 C11.732,1.779 11.974,2.437 11.974,3.383 L11.974,6.878 C11.974,7.141 12.191,7.356 12.454,7.356 L17.147,7.356 C17.543,7.356 17.939,7.504 18.256,7.774 C18.73,8.175 18.963,8.816 18.858,9.444 Z" id="a_1_"></path>
        </g>
    </g>
</svg>