<svg xmlns="http://www.w3.org/2000/svg" width="48" height="14" viewBox="0 0 48 14">
    <g fill="none" fill-rule="nonzero">
        <path fill="#000" d="M12.769 4.248v9.547h2.959V.588zM14.313.588h-3.63L0 13.795h3.63l7.724-9.547 2.96-3.66zM33.044 10.858c-1.871-.13-3.325-1.73-3.325-3.66 0-1.93 1.454-3.53 3.325-3.66h12.498L47.923.6H33.044c-3.433.153-6.14 3.062-6.14 6.599 0 3.536 2.707 6.445 6.14 6.599h4.143l2.385-2.937-6.528-.004z"/>
        <path fill="#F04100" d="M25.461 13.795l-5.303-6.602L25.461.588H21.88l-5.303 6.605 5.303 6.602z"/>
    </g>
</svg>
