<svg xmlns="http://www.w3.org/2000/svg" xmlns:xlink="http://www.w3.org/1999/xlink" width="24" height="24" viewBox="0 0 24 24">
    <defs>
        <path id="a" d="M6.225 8.182l1.149.739c.633.406 1.123.721 1.464.944l.243.161a5.396 5.396 0 0 0 .553.34c.086.048.162.08.229.101a.463.463 0 0 0 .131.025.47.47 0 0 0 .144-.025c.066-.02.142-.053.228-.1a5.474 5.474 0 0 0 .553-.34c.115-.078.2-.135.244-.163l2.611-1.679a2.06 2.06 0 0 0 .55-.511.8.8 0 0 0 .176-.484c0-.085-.028-.146-.103-.215a.4.4 0 0 0-.29-.111H5.893c-.148 0-.229.032-.283.095a.498.498 0 0 0-.11.345c0 .088.057.22.196.39.171.212.348.374.53.488zm-1.307.141c-.27-.335-.418-.673-.418-1.02 0-.384.117-.724.353-.997.255-.296.615-.442 1.04-.442h8.214c.367 0 .696.127.966.374.278.255.427.582.427.952 0 .383-.127.745-.37 1.076-.22.298-.491.551-.814.76l-2.61 1.677-.23.154c-.127.085-.231.152-.316.205a6.438 6.438 0 0 1-.315.183c-.142.077-.28.137-.413.178a1.443 1.443 0 0 1-.426.069c-.15 0-.292-.024-.438-.069a2.244 2.244 0 0 1-.413-.178 6.361 6.361 0 0 1-.63-.388l-.232-.154c-.34-.22-.828-.536-1.46-.94L5.69 9.026a3.18 3.18 0 0 1-.772-.704zm.768.701l.008.005a2.615 2.615 0 0 1-.008-.005zm6.259 1.984c-.22.15-.398.267-.537.352a3.756 3.756 0 0 1-.61.288 2.21 2.21 0 0 1-.792.16c-.266 0-.531-.055-.805-.16a3.758 3.758 0 0 1-.609-.288c-.14-.086-.317-.202-.536-.351-.471-.32-1.326-.87-2.556-1.645v3.1c0 .087.028.15.102.218.082.075.17.11.29.11h8.215c.12 0 .21-.035.291-.11.074-.069.102-.131.102-.217V9.367c-1.115.7-1.968 1.248-2.555 1.641zm2.696-2.992l.859-.887v5.336c0 .368-.147.695-.423.95-.268.249-.6.376-.97.376H5.893c-.37 0-.702-.127-.97-.376a1.266 1.266 0 0 1-.423-.95V7.13l.859.885c.134.14.29.263.47.375 1.35.849 2.28 1.446 2.79 1.792.207.141.372.25.496.325.102.063.252.133.445.208.165.063.31.093.434.093.136 0 .281-.03.446-.093a2.83 2.83 0 0 0 .446-.208c.123-.076.288-.184.499-.327.636-.427 1.566-1.023 2.79-1.79.18-.113.334-.238.466-.374zM10 19a9 9 0 1 0 0-18 9 9 0 0 0 0 18zm0 1C4.477 20 0 15.523 0 10S4.477 0 10 0s10 4.477 10 10-4.477 10-10 10z"/>
    </defs>
    <g fill="none" fill-rule="evenodd" transform="translate(2 2)">
        <mask id="b" fill="#fff">
            <use xlink:href="#a"/>
        </mask>
        <use fill="#030303" fill-rule="nonzero" xlink:href="#a"/>
        <g mask="url(#b)">
            <path fill="#ED1C24" d="M-2-2h24v24H-2z"/>
        </g>
    </g>
</svg>
