<?xml version="1.0" encoding="utf-8"?>
<!-- Generator: Adobe Illustrator 16.2.0, SVG Export Plug-In . SVG Version: 6.00 Build 0)  -->
<!DOCTYPE svg PUBLIC "-//W3C//DTD SVG 1.1//EN" "http://www.w3.org/Graphics/SVG/1.1/DTD/svg11.dtd">
<svg version="1.1" id="Слой_1" xmlns="http://www.w3.org/2000/svg" xmlns:xlink="http://www.w3.org/1999/xlink" x="0px" y="0px"
	 width="24px" height="24px" viewBox="13 13 24 24" enable-background="new 13 13 24 24" xml:space="preserve">
<g>
	<path fill="#B2B6BA" d="M22.319,26.343c0,0.451,0,0.894,0,1.34c1.115,0,2.226,0,3.344,0c0,0.449,0,0.891,0,1.342
		c-1.113,0-2.228,0-3.345,0c0,0.896,0,1.783,0,2.677c-0.448,0-0.891,0-1.34,0c0-0.891,0-1.778,0-2.674c-0.449,0-0.891,0-1.337,0
		c0-0.448,0-0.891,0-1.342c0.442,0,0.886,0,1.332,0c0-0.45,0-0.892,0-1.341c-0.442,0-0.886,0-1.333,0c0-0.449,0-0.893,0-1.339
		c0.444,0,0.885,0,1.334,0c0-2.236,0-4.466,0-6.7c0.026-0.001,0.045-0.003,0.065-0.003c1.787,0,3.574-0.009,5.362,0.003
		c1.031,0.007,1.929,0.384,2.682,1.088c0.633,0.59,1.041,1.311,1.201,2.162c0.223,1.186-0.037,2.265-0.771,3.223
		c-0.503,0.658-1.156,1.113-1.942,1.372c-0.385,0.126-0.78,0.192-1.185,0.192c-1.328,0-2.654,0-3.981,0
		C22.377,26.343,22.35,26.343,22.319,26.343z M22.321,19.642c0,1.792,0,3.575,0,5.362c0.021,0,0.035,0,0.051,0
		c1.34,0,2.68,0.003,4.021-0.004c0.207-0.002,0.419-0.033,0.619-0.085c1.419-0.376,2.261-1.769,1.938-3.192
		c-0.273-1.215-1.358-2.08-2.605-2.08c-1.313,0-2.625,0-3.939,0C22.379,19.642,22.352,19.642,22.321,19.642z"/>
</g>
<path fill="#B2B6BA" d="M25,36.25c-6.203,0-11.25-5.047-11.25-11.25S18.797,13.75,25,13.75S36.25,18.797,36.25,25
	S31.203,36.25,25,36.25z M25,14.75c-5.652,0-10.25,4.598-10.25,10.25c0,5.652,4.598,10.25,10.25,10.25
	c5.652,0,10.25-4.598,10.25-10.25C35.25,19.348,30.652,14.75,25,14.75z"/>
</svg>
