<?xml version="1.0" encoding="utf-8"?>
<!-- Generator: Adobe Illustrator 16.2.0, SVG Export Plug-In . SVG Version: 6.00 Build 0)  -->
<!DOCTYPE svg PUBLIC "-//W3C//DTD SVG 1.1//EN" "http://www.w3.org/Graphics/SVG/1.1/DTD/svg11.dtd">
<svg version="1.1" id="Слой_1" xmlns="http://www.w3.org/2000/svg" xmlns:xlink="http://www.w3.org/1999/xlink" x="0px" y="0px"
	 width="50px" height="50px" viewBox="-13 -13 50 50" enable-background="new -13 -13 50 50" xml:space="preserve">
<g>
	<path fill="#ed1c24" d="M3.001,16.511c0,1.512,0,2.997,0,4.498c3.744,0,7.475,0,11.226,0c0,1.507,0,2.989,0,4.503
		c-3.737,0-7.477,0-11.23,0c0,3.008,0,5.989,0,8.988c-1.502,0-2.991,0-4.5,0c0-2.989,0-5.971,0-8.978c-1.509,0-2.992,0-4.489,0
		c0-1.504,0-2.991,0-4.503c1.486,0,2.975,0,4.472,0c0-1.512,0-2.994,0-4.503c-1.485,0-2.975,0-4.477,0c0-1.509,0-2.997,0-4.498
		c1.492,0,2.972,0,4.479,0c0-7.508,0-14.996,0-22.498c0.089-0.005,0.153-0.01,0.219-0.01c5.999,0,12-0.031,18.001,0.01
		c3.464,0.025,6.477,1.29,9.006,3.655c2.125,1.981,3.496,4.402,4.033,7.26c0.747,3.981-0.125,7.605-2.587,10.822
		c-1.688,2.209-3.884,3.737-6.523,4.606c-1.292,0.423-2.618,0.647-3.976,0.647c-4.457,0-8.913,0-13.369,0
		C3.194,16.511,3.105,16.511,3.001,16.511z M3.008-5.99c0,6.015,0,12.004,0,18.006c0.069,0,0.117,0,0.171,0
		c4.5,0,9,0.008,13.501-0.016c0.697-0.005,1.407-0.109,2.081-0.286c4.762-1.262,7.589-5.94,6.508-10.72
		c-0.921-4.079-4.561-6.984-8.748-6.984c-4.409,0-8.816,0-13.229,0C3.2-5.99,3.111-5.99,3.008-5.99z"/>
</g>
</svg>
