<?xml version="1.0" encoding="UTF-8"?>
<svg width="24px" height="24px" viewBox="0 0 24 24" version="1.1" xmlns="http://www.w3.org/2000/svg" xmlns:xlink="http://www.w3.org/1999/xlink">
    <!-- Generator: Sketch 50.2 (55047) - http://www.bohemiancoding.com/sketch -->
    <title>Icon / Basic / Rub</title>
    <desc>Created with Sketch.</desc>
    <defs></defs>
    <g id="Icon-/-Basic-/-Rub" stroke="none" stroke-width="1" fill="none" fill-rule="evenodd">
        <path d="M18.344,11.396 C19.352,10.079 19.708,8.588 19.405,6.967 C19.188,5.818 18.634,4.821 17.757,4.003 C16.705,3.019 15.467,2.516 14.077,2.508 C12.969,2.5 6.471,2.502 6.471,2.502 L6.471,12.46 L4.489,12.46 L4.489,13.545 L6.468,13.545 L6.468,16.441 L4.489,16.441 L4.489,17.53 L6.477,17.53 L6.477,21.503 L7.562,21.503 L7.562,17.527 L12.531,17.527 L12.531,16.438 L7.563,16.438 L7.563,13.542 L14.058,13.542 C14.602,13.542 15.147,13.453 15.676,13.279 C16.763,12.922 17.66,12.289 18.344,11.396 Z M15.103,12.31 C14.759,12.399 14.403,12.448 14.072,12.451 C13.004,12.457 11.938,12.458 10.872,12.458 L7.566,12.457 L7.566,3.588 L13.998,3.588 C16.048,3.588 17.86,5.036 18.309,7.031 C18.84,9.374 17.433,11.693 15.103,12.31 Z" id="Shape" fill="#ED1C24" fill-rule="nonzero"></path>
        <rect id="Rectangle-2" x="0" y="0" width="24" height="24"></rect>
    </g>
</svg>