<?xml version="1.0" encoding="UTF-8"?>
<svg width="24px" height="24px" viewBox="0 0 24 24" version="1.1" xmlns="http://www.w3.org/2000/svg" xmlns:xlink="http://www.w3.org/1999/xlink">
    <!-- Generator: Sketch 50.2 (55047) - http://www.bohemiancoding.com/sketch -->
    <title>Icon / Basic / RubGr</title>
    <desc>Created with Sketch.</desc>
    <defs></defs>
    <g id="Icon-/-Basic-/-RubGr" stroke="none" stroke-width="1" fill="none" fill-rule="evenodd">
        <path d="M16.107,11.718 C16.769,10.856 17.003,9.877 16.802,8.812 C16.66,8.056 16.297,7.4 15.721,6.864 C15.033,6.218 14.219,5.888 13.303,5.884 C12.605,5.879 11.907,5.877 11.208,5.877 L8.371,5.88 L8.371,12.13 L7.127,12.13 L7.127,13.129 L8.369,13.129 L8.369,14.629 L7.127,14.629 L7.127,15.629 L8.375,15.629 L8.375,18.123 L9.374,18.123 L9.374,15.627 L12.493,15.627 L12.493,14.627 L9.374,14.627 L9.374,13.127 L9.499,13.127 C9.529,13.127 9.557,13.127 9.584,13.127 L13.291,13.127 C13.645,13.127 14.004,13.07 14.355,12.955 C15.068,12.721 15.658,12.305 16.107,11.718 Z M13.906,12.042 C13.698,12.095 13.493,12.123 13.297,12.125 C12.624,12.129 11.951,12.13 11.277,12.13 L9.375,12.129 L9.375,6.879 L13.253,6.879 C14.465,6.879 15.537,7.735 15.804,8.916 C16.117,10.303 15.284,11.676 13.906,12.042 Z" id="Shape" fill="#B2B6BA" fill-rule="nonzero"></path>
        <path d="M12,21.662 C6.673,21.662 2.339,17.328 2.339,12 C2.339,6.672 6.673,2.338 12,2.338 C17.327,2.338 21.661,6.672 21.661,12 C21.661,17.328 17.327,21.662 12,21.662 Z M12,3.338 C7.224,3.338 3.339,7.224 3.339,12 C3.339,16.775 7.224,20.662 12,20.662 C16.775,20.662 20.661,16.775 20.661,12 C20.661,7.225 16.775,3.338 12,3.338 Z" id="Shape" fill="#B2B6BA" fill-rule="nonzero"></path>
        <rect id="Rectangle-2" x="0" y="0" width="24" height="24"></rect>
    </g>
</svg>