<?xml version="1.0" encoding="utf-8"?>
<!-- Generator: Adobe Illustrator 16.2.0, SVG Export Plug-In . SVG Version: 6.00 Build 0)  -->
<!DOCTYPE svg PUBLIC "-//W3C//DTD SVG 1.1//EN" "http://www.w3.org/Graphics/SVG/1.1/DTD/svg11.dtd">
<svg version="1.1" id="Слой_1" xmlns="http://www.w3.org/2000/svg" xmlns:xlink="http://www.w3.org/1999/xlink" x="0px" y="0px"
	 width="24px" height="24px" viewBox="0 0 24 24" enable-background="new 0 0 24 24" xml:space="preserve">
<g>
	<g>
		<path fill="#ED1C24" d="M9.499,13.251c0,0.421,0,0.833,0,1.25c1.04,0,2.076,0,3.119,0c0,0.418,0,0.831,0,1.251
			c-1.038,0-2.077,0-3.119,0c0,0.836,0,1.663,0,2.496c-0.418,0-0.831,0-1.249,0c0-0.831,0-1.658,0-2.494c-0.419,0-0.831,0-1.248,0
			c0-0.417,0-0.83,0-1.251c0.413,0,0.827,0,1.242,0c0-0.419,0-0.831,0-1.249c-0.412,0-0.826,0-1.242,0c0-0.419,0-0.833,0-1.249
			c0.414,0,0.825,0,1.244,0c0-2.085,0-4.164,0-6.246C8.27,5.757,8.288,5.755,8.306,5.755c1.666,0,3.333-0.009,4.999,0.004
			c0.962,0.005,1.8,0.356,2.502,1.014c0.589,0.549,0.97,1.222,1.119,2.016c0.208,1.105-0.034,2.111-0.719,3.005
			c-0.47,0.614-1.077,1.038-1.812,1.279c-0.358,0.117-0.727,0.179-1.104,0.179c-1.237,0-2.474,0-3.712,0
			C9.553,13.251,9.528,13.251,9.499,13.251z M9.5,7.004c0,1.67,0,3.333,0,4.999c0.02,0,0.033,0,0.048,0
			c1.249,0,2.499,0.003,3.748-0.004c0.194-0.002,0.392-0.031,0.578-0.079c1.323-0.351,2.108-1.649,1.808-2.977
			c-0.256-1.133-1.268-1.939-2.429-1.939c-1.225,0-2.447,0-3.673,0C9.555,7.004,9.53,7.004,9.5,7.004z"/>
		<path fill="#FFFFFF" d="M9.664,18.413H8.084v-2.494H6.837v-1.581h1.242v-0.919H6.837V11.84h1.244V5.607l0.152-0.013
			C8.268,5.591,8.287,5.59,8.306,5.59l2.902-0.003c0.7,0,1.398,0.001,2.098,0.007c0.989,0.005,1.869,0.361,2.614,1.059
			c0.621,0.58,1.015,1.289,1.168,2.105c0.216,1.149-0.036,2.204-0.75,3.136c-0.484,0.633-1.12,1.082-1.891,1.336
			c-0.38,0.124-0.769,0.187-1.156,0.187H9.664v0.92h3.119v1.581H9.664V18.413z M8.415,18.083h0.919v-2.496h3.119v-0.921H9.333v-1.58
			h3.958c0.353,0,0.707-0.058,1.053-0.171c0.706-0.231,1.289-0.643,1.732-1.222c0.654-0.855,0.886-1.822,0.688-2.875
			c-0.141-0.747-0.5-1.395-1.069-1.925c-0.683-0.639-1.486-0.965-2.391-0.97c-0.698-0.005-1.397-0.007-2.096-0.007L8.411,5.92v6.25
			H7.167v0.919h1.242v1.579H7.167v0.921h1.248V18.083z M11.278,12.168l-1.942,0V6.839h3.918c1.229,0,2.319,0.87,2.59,2.068
			c0.318,1.408-0.527,2.801-1.927,3.172c-0.211,0.054-0.419,0.083-0.618,0.084C12.624,12.167,11.951,12.168,11.278,12.168z
			 M9.666,11.838l1.612,0c0.673,0,1.345,0,2.018-0.004c0.172-0.001,0.354-0.026,0.538-0.074c1.226-0.325,1.968-1.546,1.688-2.78
			c-0.236-1.049-1.19-1.811-2.268-1.811H9.666V11.838z"/>
	</g>
</g>
<path fill="#FFFFFF" stroke="#000000" stroke-miterlimit="10" d="M31.761,16.016"/>
<path fill="#ED1C24" d="M12,21.661c-5.327,0-9.661-4.334-9.661-9.661c0-5.328,4.334-9.662,9.661-9.662S21.661,6.672,21.661,12
	C21.661,17.327,17.327,21.661,12,21.661z M12,3.338c-4.776,0-8.661,3.886-8.661,8.662c0,4.775,3.885,8.661,8.661,8.661
	c4.775,0,8.661-3.886,8.661-8.661C20.661,7.224,16.775,3.338,12,3.338z"/>
</svg>
