<?xml version="1.0" encoding="utf-8"?>
<!-- Generator: Adobe Illustrator 16.2.0, SVG Export Plug-In . SVG Version: 6.00 Build 0)  -->
<!DOCTYPE svg PUBLIC "-//W3C//DTD SVG 1.1//EN" "http://www.w3.org/Graphics/SVG/1.1/DTD/svg11.dtd">
<svg version="1.1" id="Слой_1" xmlns="http://www.w3.org/2000/svg" xmlns:xlink="http://www.w3.org/1999/xlink" x="0px" y="0px"
	 width="24px" height="24px" viewBox="0 0 24 24" enable-background="new 0 0 24 24" xml:space="preserve">
<g transform="translate(2 2)">
	<g>
		<path id="a_1_" fill="#ED1C24" d="M19.486,1.64C19.773,1.643,20.004,1.879,20,2.166c0,0.001,0,0.002,0,0.004v14.073
			C20,18.316,18.355,20,16.329,20H3.671C1.645,20,0,18.316,0,16.243V0.53C0,0.24,0.233,0,0.518,0h16.208
			c0.285,0,0.519,0.239,0.519,0.53v14.188c0,0.292-0.233,0.53-0.519,0.53c-0.289-0.004-0.521-0.241-0.519-0.53V1.061H1.036v15.187
			c0,1.484,1.18,2.695,2.635,2.695h12.662c1.451,0,2.635-1.207,2.635-2.695V2.17C18.968,1.878,19.201,1.64,19.486,1.64z
			 M14.223,4.12H2.924C2.635,4.116,2.403,3.878,2.406,3.589c0-0.292,0.233-0.53,0.518-0.53h11.299c0.284,0,0.518,0.238,0.518,0.53
			S14.507,4.119,14.223,4.12L14.223,4.12z M14.223,13.87c0.284,0,0.512,0.237,0.512,0.53c0,0.291-0.232,0.529-0.518,0.529H2.924
			c-0.289-0.004-0.52-0.24-0.518-0.529c0-0.293,0.233-0.53,0.518-0.53H14.223z M14.223,16.588c0.284,0,0.518,0.239,0.518,0.53
			c0,0.292-0.233,0.53-0.518,0.53H4.716c-0.289-0.005-0.52-0.241-0.518-0.53c0-0.291,0.233-0.53,0.518-0.53H14.223z M2.232,5.97
			c0-0.291,0.234-0.53,0.519-0.53h5.627c0.285,0,0.519,0.239,0.519,0.53v5.737c0,0.292-0.234,0.529-0.519,0.529H2.751
			c-0.289-0.004-0.52-0.24-0.518-0.529V5.971L2.232,5.97z M3.269,6.5v4.677H7.86V6.502H3.27L3.269,6.5z M14.498,5.97
			c0.29,0,0.518,0.239,0.518,0.53c0,0.292-0.232,0.531-0.518,0.531H10.77c-0.289-0.005-0.52-0.241-0.518-0.53
			c0-0.292,0.233-0.53,0.518-0.53h3.728L14.498,5.97z M14.498,8.366c0.29,0,0.518,0.239,0.518,0.53c0,0.292-0.232,0.53-0.518,0.53
			H10.77c-0.289-0.004-0.52-0.241-0.518-0.53c0-0.291,0.233-0.53,0.518-0.53H14.498L14.498,8.366z M15.016,11.441
			c0,0.293-0.229,0.531-0.518,0.531H10.77c-0.289-0.005-0.52-0.242-0.518-0.531c0-0.291,0.233-0.529,0.518-0.529h3.728
			C14.782,10.912,15.016,11.15,15.016,11.441L15.016,11.441z"/>
	</g>
</g>
</svg>
