<svg xmlns="http://www.w3.org/2000/svg" xmlns:xlink="http://www.w3.org/1999/xlink" width="24" height="24" viewBox="0 0 24 24">
    <defs>
        <path id="a" d="M19.486 1.64a.52.52 0 0 1 .514.53v14.073C20 18.316 18.355 20 16.329 20H3.671C1.645 20 0 18.316 0 16.243V.53C0 .24.233 0 .518 0h16.208c.285 0 .519.239.519.53v14.188c0 .292-.234.53-.519.53a.526.526 0 0 1-.518-.53V1.061H1.036v15.187c0 1.485 1.18 2.696 2.635 2.696h12.662c1.451 0 2.635-1.207 2.635-2.696V2.17c0-.292.233-.53.518-.53zm-5.264 2.48H2.924a.526.526 0 0 1-.518-.531c0-.292.233-.53.518-.53h11.298c.285 0 .518.238.518.53 0 .292-.233.53-.518.53zm0 9.75c.285 0 .513.238.513.53 0 .292-.233.53-.518.53H2.924a.526.526 0 0 1-.518-.53c0-.292.233-.53.518-.53h11.298zm0 2.718c.285 0 .518.239.518.53 0 .292-.233.53-.518.53H4.716a.526.526 0 0 1-.518-.53c0-.291.233-.53.518-.53h9.506zM2.232 5.97c0-.291.234-.53.519-.53h5.627c.285 0 .519.239.519.53v5.737c0 .292-.234.53-.519.53H2.751a.526.526 0 0 1-.518-.53V5.971zm1.037.53v4.677H7.86V6.502H3.27zm11.229-.53c.29 0 .518.239.518.53 0 .292-.233.531-.518.531H10.77a.526.526 0 0 1-.518-.53c0-.292.233-.53.518-.53h3.727zm0 2.396c.29 0 .518.239.518.53 0 .292-.233.53-.518.53H10.77a.526.526 0 0 1-.518-.53c0-.291.233-.53.518-.53h3.727zm.518 3.076c0 .292-.229.53-.518.53H10.77a.526.526 0 0 1-.518-.53c0-.292.233-.53.518-.53h3.727c.285 0 .518.238.518.53z"/>
    </defs>
    <g fill="none" fill-rule="evenodd" transform="translate(2 2)">
        <mask id="b" fill="#fff">
            <use xlink:href="#a"/>
        </mask>
        <use fill="#000" xlink:href="#a"/>
        <g mask="url(#b)">
            <path fill="#ED1C24" d="M-2-2h24v24H-2z"/>
        </g>
    </g>
</svg>
