<svg xmlns="http://www.w3.org/2000/svg" width="130" height="135" viewBox="0 0 130 135">
    <g fill="none" fill-rule="nonzero">
        <path fill="#F04100" d="M0 0h64v64H0V0zm2 2v60h60V2H2z"/>
        <path fill="#212121" d="M36.5 35.9c0 3.367-1.267 6.158-3.8 8.375-2.533 2.217-5.667 3.325-9.4 3.325-2.9 0-5.475-.7-7.725-2.1-2.25-1.4-3.942-3.333-5.075-5.8l5.95-4.2c1 1.5 1.992 2.575 2.975 3.225.983.65 2.158.975 3.525.975 1.433 0 2.583-.325 3.45-.975.867-.65 1.3-1.558 1.3-2.725 0-2.233-1.9-3.35-5.7-3.35h-7.85V14H34.6v7.75H22.3v3.85c1.167-.233 2.217-.35 3.15-.35 2.867-.067 5.442.917 7.725 2.95 2.283 2.033 3.392 4.6 3.325 7.7zm4.5-5.65c0-5.033 1.192-9.1 3.575-12.2 2.383-3.1 5.758-4.65 10.125-4.65s7.742 1.55 10.125 4.65c2.383 3.1 3.575 7.167 3.575 12.2 0 5.1-1.2 9.267-3.6 12.5-2.4 3.233-5.767 4.85-10.1 4.85-4.333 0-7.7-1.617-10.1-4.85-2.4-3.233-3.6-7.4-3.6-12.5zm18.6.05c0-3.1-.4-5.375-1.2-6.825-.8-1.45-2.033-2.175-3.7-2.175-1.667 0-2.9.725-3.7 2.175-.8 1.45-1.2 3.725-1.2 6.825 0 6.267 1.633 9.4 4.9 9.4 3.267 0 4.9-3.133 4.9-9.4zm13.8-.05c0-5.033 1.192-9.1 3.575-12.2 2.383-3.1 5.758-4.65 10.125-4.65s7.742 1.55 10.125 4.65c2.383 3.1 3.575 7.167 3.575 12.2 0 5.1-1.2 9.267-3.6 12.5-2.4 3.233-5.767 4.85-10.1 4.85-4.333 0-7.7-1.617-10.1-4.85-2.4-3.233-3.6-7.4-3.6-12.5zm18.6.05c0-3.1-.4-5.375-1.2-6.825-.8-1.45-2.033-2.175-3.7-2.175-1.667 0-2.9.725-3.7 2.175-.8 1.45-1.2 3.725-1.2 6.825 0 6.267 1.633 9.4 4.9 9.4 3.267 0 4.9-3.133 4.9-9.4zm21.3 12.5v-8.4h-8.15v-7.2h8.15v-8.4h8.1v8.4h8.1v7.2h-8.1v8.4h-8.1zM8.4 109.045c0 .97-.347 1.735-1.043 2.295-.695.56-1.652.84-2.872.84-.92 0-1.73-.207-2.43-.623A3.9 3.9 0 0 1 .48 109.81l1.785-1.26c.56.84 1.295 1.26 2.205 1.26.43 0 .772-.077 1.027-.233a.75.75 0 0 0 .383-.682c0-.25-.1-.447-.3-.593-.2-.145-.48-.217-.84-.217H3.345v-2.07H4.44c.33 0 .59-.077.78-.233a.747.747 0 0 0 .285-.607.776.776 0 0 0-.308-.645c-.205-.16-.477-.24-.817-.24-.78 0-1.385.42-1.815 1.26L.78 104.29c.74-1.58 2-2.37 3.78-2.37 1.08 0 1.927.262 2.543.787.615.526.922 1.263.922 2.213 0 .81-.3 1.46-.9 1.95.85.47 1.275 1.195 1.275 2.175zM15.96 112l-.36-.825h-3.555l-.36.825H8.91l4.5-10.08h.825l4.5 10.08H15.96zm-1.275-2.895l-.855-2.295-.87 2.295h1.725zM29.16 112H26.1l-3.765-4.935V112h-2.58v-9.9h2.58v4.485l3.27-4.485h3l-3.405 4.71 3.96 5.19zm1.875-9.9h7.23v9.9h-2.58v-7.575H33.48c-.01 2.01-.145 3.59-.405 4.74-.26 1.15-.615 1.935-1.065 2.355-.45.42-1.05.64-1.8.66-.34 0-.68-.06-1.02-.18v-2.19c.1.02.235.03.405.03.51 0 .877-.425 1.103-1.275.225-.85.337-2.31.337-4.38V102.1zm23.16 4.95c.02 1.41-.495 2.625-1.545 3.645-1.05 1.02-2.285 1.515-3.705 1.485-1.26 0-2.362-.39-3.307-1.17a4.814 4.814 0 0 1-1.733-2.97h-1.08V112h-2.58v-9.9h2.58v3.615h1.155c.29-1.12.89-2.032 1.8-2.737.91-.706 1.965-1.058 3.165-1.058 1.42-.03 2.657.465 3.712 1.485 1.056 1.02 1.568 2.235 1.538 3.645zm-3.39 1.995c.5-.52.75-1.185.75-1.995s-.25-1.472-.75-1.987c-.5-.516-1.12-.773-1.86-.773s-1.36.257-1.86.772c-.5.516-.75 1.178-.75 1.988s.25 1.472.75 1.987c.5.516 1.12.773 1.86.773s1.36-.255 1.86-.765zm10.29-6.945h2.58v9.9h-2.58v-3.435a5.34 5.34 0 0 1-1.86.315c-1.23 0-2.197-.352-2.902-1.057-.706-.706-1.058-1.693-1.058-2.963v-2.76h2.58v2.505c0 .65.15 1.13.45 1.44.3.31.785.465 1.455.465.52 0 .965-.07 1.335-.21v-4.2zm4.56 9.9v-9.9h6.87v2.325h-4.29v1.365h3.06v2.16h-3.06v1.725h4.47V112h-7.05zm8.655 0v-9.9h2.58v3.615h3.615V102.1h2.58v9.9h-2.58v-3.96H76.89V112h-2.58zm18.705-10.08h.825V112h-2.58v-5.145l-5.37 5.325h-.825V102.1h2.58v5.085l5.37-5.265zm10.755 0h.825V112h-2.58v-5.145l-5.37 5.325h-.825V102.1h2.58v5.085l5.37-5.265zm-5.865-3.435v-.135h2.025v.21c0 .6.255.9.765.9s.765-.3.765-.9v-.21h2.025v.135c0 .82-.26 1.49-.78 2.01-.52.52-1.19.78-2.01.78-.82 0-1.49-.26-2.01-.78-.52-.52-.78-1.19-.78-2.01zM8.955 129.06c0 .85-.317 1.552-.953 2.107-.635.556-1.432.833-2.392.833H.99v-9.9h3.57c.96 0 1.757.272 2.393.818.635.545.952 1.247.952 2.107 0 .67-.2 1.225-.6 1.665 1.1.45 1.65 1.24 1.65 2.37zm-4.56-4.785h-.93v1.74h.93c.31 0 .552-.08.728-.24a.813.813 0 0 0 .262-.63c0-.26-.087-.47-.263-.63-.175-.16-.417-.24-.727-.24zm1.05 5.55c.66 0 .99-.29.99-.87 0-.58-.33-.87-.99-.87h-1.98v1.74h1.98zm18.36-7.905h.825V132h-2.58v-4.155l-2.055 2.4h-.825l-2.04-2.385V132h-2.58v-10.08h.825l4.215 5.145 4.215-5.145zM26.61 132v-9.9h6.87v2.325h-4.29v1.365h3.06v2.16h-3.06v1.725h4.47V132h-7.05zm8.145-4.95c-.02-1.42.5-2.637 1.56-3.653 1.06-1.015 2.325-1.507 3.795-1.477.99 0 1.88.232 2.67.698a4.909 4.909 0 0 1 1.86 1.957l-1.965 1.335c-.64-1.08-1.5-1.62-2.58-1.62-.79 0-1.437.255-1.942.765-.506.51-.758 1.18-.758 2.01 0 .81.25 1.475.75 1.995.52.5 1.17.75 1.95.75 1.08 0 1.94-.54 2.58-1.62l1.965 1.335a4.909 4.909 0 0 1-1.86 1.957c-.79.466-1.685.698-2.685.698-1.46.02-2.722-.475-3.788-1.485-1.065-1.01-1.582-2.225-1.552-3.645zm15.36-4.95h3.615v9.9h-2.58v-2.91h-.84L48.3 132h-2.73l2.34-3.39c-.6-.3-1.065-.715-1.395-1.245a3.308 3.308 0 0 1-.495-1.785c0-1.02.38-1.855 1.14-2.505.76-.65 1.745-.975 2.955-.975zm1.035 4.74v-2.49h-1.14c-.4 0-.727.115-.982.345-.256.23-.383.53-.383.9s.127.67.383.9c.255.23.582.345.982.345h1.14zm12 7.275V132h-7.44v-9.9h2.58v7.575h3.315V122.1h2.58v7.575h1.395v4.44h-2.43z"/>
    </g>
</svg>
