<svg xmlns="http://www.w3.org/2000/svg" width="129" height="123" viewBox="0 0 129 123">
    <g fill="none" fill-rule="nonzero">
        <path fill="#F04100" d="M0 0h64v64H0V0zm2 2v60h60V2H2z"/>
        <path fill="#212121" d="M35.85 36c0 3.3-1.242 6.058-3.725 8.275-2.483 2.217-5.542 3.325-9.175 3.325-2.833 0-5.35-.7-7.55-2.1-2.2-1.4-3.867-3.333-5-5.8l5.95-4.2c1 1.5 1.975 2.575 2.925 3.225.95.65 2.058.975 3.325.975 1.333 0 2.408-.325 3.225-.975.817-.65 1.225-1.542 1.225-2.675 0-2.267-1.9-3.4-5.7-3.4h-4.7v-2.2l5.85-8.7h-9.4V14h22.25v2.25L28.8 26c2.1.8 3.8 2.083 5.1 3.85 1.3 1.767 1.95 3.817 1.95 6.15zm4.5-5.75c0-5.033 1.192-9.1 3.575-12.2 2.383-3.1 5.758-4.65 10.125-4.65s7.742 1.55 10.125 4.65c2.383 3.1 3.575 7.167 3.575 12.2 0 5.1-1.2 9.267-3.6 12.5-2.4 3.233-5.767 4.85-10.1 4.85-4.333 0-7.7-1.617-10.1-4.85-2.4-3.233-3.6-7.4-3.6-12.5zm18.6.05c0-3.1-.4-5.375-1.2-6.825-.8-1.45-2.033-2.175-3.7-2.175-1.667 0-2.9.725-3.7 2.175-.8 1.45-1.2 3.725-1.2 6.825 0 6.267 1.633 9.4 4.9 9.4 3.267 0 4.9-3.133 4.9-9.4zm13.8-.05c0-5.033 1.192-9.1 3.575-12.2 2.383-3.1 5.758-4.65 10.125-4.65s7.742 1.55 10.125 4.65c2.383 3.1 3.575 7.167 3.575 12.2 0 5.1-1.2 9.267-3.6 12.5-2.4 3.233-5.767 4.85-10.1 4.85-4.333 0-7.7-1.617-10.1-4.85-2.4-3.233-3.6-7.4-3.6-12.5zm18.6.05c0-3.1-.4-5.375-1.2-6.825-.8-1.45-2.033-2.175-3.7-2.175-1.667 0-2.9.725-3.7 2.175-.8 1.45-1.2 3.725-1.2 6.825 0 6.267 1.633 9.4 4.9 9.4 3.267 0 4.9-3.133 4.9-9.4zm21.3 12.5v-8.4h-8.15v-7.2h8.15v-8.4h8.1v8.4h8.1v7.2h-8.1v8.4h-8.1zM.99 122v-9.9h8.625v9.9h-2.58v-7.575H3.57V122H.99zm10.605 0v-9.9h3.885c1.11 0 2.025.312 2.745.938.72.625 1.08 1.447 1.08 2.467 0 1-.365 1.82-1.095 2.46-.73.64-1.64.96-2.73.96h-1.305V122h-2.58zm2.58-5.325h1.32c.36 0 .647-.107.863-.322.215-.216.322-.498.322-.848s-.107-.63-.322-.84c-.216-.21-.503-.315-.863-.315h-1.32v2.325zm6.015.375c-.03-1.41.487-2.625 1.552-3.645 1.066-1.02 2.323-1.515 3.773-1.485 1.45-.03 2.712.465 3.787 1.485 1.076 1.02 1.598 2.235 1.568 3.645.03 1.42-.492 2.635-1.568 3.645-1.075 1.01-2.337 1.505-3.787 1.485-1.46.02-2.72-.475-3.78-1.485-1.06-1.01-1.575-2.225-1.545-3.645zm8.04 0c0-.81-.257-1.472-.773-1.987-.515-.516-1.157-.773-1.927-.773-.8 0-1.45.255-1.95.765s-.75 1.175-.75 1.995c0 .82.25 1.49.75 2.01.5.5 1.15.75 1.95.75.78 0 1.425-.255 1.935-.765s.765-1.175.765-1.995zm4.11 4.95v-9.9h6.87v2.325h-4.29v1.365h3.06v2.16h-3.06v1.725h4.47V122h-7.05zm18.06 0h-3.06l-3.765-4.935V122h-2.58v-9.9h2.58v4.485l3.27-4.485h3l-3.405 4.71L50.4 122zm3.15 0v-7.575h-2.97V112.1h8.52v2.325h-2.97V122h-2.58zm6.18-4.95c-.03-1.41.487-2.625 1.553-3.645 1.065-1.02 2.322-1.515 3.772-1.485 1.45-.03 2.712.465 3.787 1.485 1.076 1.02 1.598 2.235 1.568 3.645.03 1.42-.492 2.635-1.567 3.645-1.076 1.01-2.338 1.505-3.788 1.485-1.46.02-2.72-.475-3.78-1.485-1.06-1.01-1.575-2.225-1.545-3.645zm8.04 0c0-.81-.257-1.472-.772-1.987-.516-.516-1.158-.773-1.928-.773-.8 0-1.45.255-1.95.765s-.75 1.175-.75 1.995c0 .82.25 1.49.75 2.01.5.5 1.15.75 1.95.75.78 0 1.425-.255 1.935-.765s.765-1.175.765-1.995zm12.075 2.01c0 .85-.317 1.552-.953 2.108-.635.555-1.432.832-2.392.832h-4.62v-9.9h3.57c.96 0 1.757.272 2.392.818.636.545.953 1.247.953 2.107 0 .67-.2 1.225-.6 1.665 1.1.45 1.65 1.24 1.65 2.37zm-4.56-4.785h-.93v1.74h.93c.31 0 .552-.08.728-.24a.813.813 0 0 0 .262-.63c0-.26-.087-.47-.263-.63-.175-.16-.417-.24-.727-.24zm1.05 5.55c.66 0 .99-.29.99-.87 0-.58-.33-.87-.99-.87h-1.98v1.74h1.98z"/>
    </g>
</svg>
