<?xml version="1.0" encoding="utf-8"?>
<!-- Generator: Adobe Illustrator 16.2.0, SVG Export Plug-In . SVG Version: 6.00 Build 0)  -->
<!DOCTYPE svg PUBLIC "-//W3C//DTD SVG 1.1//EN" "http://www.w3.org/Graphics/SVG/1.1/DTD/svg11.dtd">
<svg version="1.1" id="Слой_1" xmlns="http://www.w3.org/2000/svg" xmlns:xlink="http://www.w3.org/1999/xlink" x="0px" y="0px"
	 width="24px" height="24px" viewBox="0 0 24 24" enable-background="new 0 0 24 24" xml:space="preserve">
<g transform="translate(2 3)">
	<g>
		<path id="a_1_" fill="#B2B6BA" d="M17.313,2.684C19.038,4.397,20.006,6.729,20,9.16c0,2.445-0.95,4.747-2.684,6.479
			c-1.717,1.723-4.051,2.689-6.484,2.686c-2.434,0.006-4.769-0.96-6.486-2.686C2.621,13.924,1.654,11.592,1.66,9.16v-0.1
			L0.846,9.873c-0.204,0.184-0.517,0.166-0.699-0.037c-0.169-0.188-0.169-0.473-0.001-0.661l1.658-1.657
			c0.193-0.193,0.506-0.193,0.7,0l1.654,1.657C4.351,9.368,4.35,9.682,4.157,9.874c-0.193,0.192-0.506,0.192-0.699-0.001L2.644,9.06
			v0.102c0,4.509,3.67,8.175,8.185,8.175c4.514,0,8.185-3.666,8.185-8.175c0-4.508-3.671-8.175-8.185-8.17
			c-2.207-0.008-4.323,0.882-5.86,2.466c-0.192,0.193-0.504,0.197-0.7,0.008C4.075,3.274,4.072,2.963,4.261,2.767
			C5.983,0.991,8.354-0.008,10.828,0C13.262-0.006,15.596,0.96,17.313,2.684z M13.453,5.828c0.193-0.193,0.505-0.195,0.699-0.004
			c0.193,0.192,0.193,0.504,0.002,0.697c0,0.001,0,0.001-0.002,0.002L8.087,12.58c-0.193,0.191-0.506,0.191-0.7,0
			c-0.194-0.191-0.194-0.504-0.002-0.697c0,0,0.001-0.001,0.002-0.002L13.453,5.828L13.453,5.828z M11.865,9.904
			c0.701-0.678,1.82-0.659,2.498,0.043c0.66,0.684,0.662,1.768,0.004,2.453c-0.332,0.332-0.781,0.519-1.251,0.518
			c-0.976-0.001-1.767-0.793-1.765-1.77C11.352,10.684,11.536,10.234,11.865,9.904z M13.667,11.705
			c0.304-0.305,0.304-0.798-0.001-1.102c-0.305-0.307-0.798-0.307-1.102,0c-0.307,0.305-0.307,0.799,0,1.103
			C12.869,12.01,13.363,12.01,13.667,11.705z M8.557,5.388c0.976,0.001,1.766,0.794,1.764,1.77c-0.001,0.976-0.794,1.766-1.77,1.764
			c-0.467,0-0.915-0.187-1.246-0.517c-0.333-0.331-0.52-0.781-0.518-1.25c0-0.472,0.185-0.916,0.518-1.249
			C7.636,5.573,8.086,5.387,8.557,5.388L8.557,5.388z M9.107,7.706c0.146-0.146,0.228-0.344,0.227-0.55
			c0.002-0.207-0.08-0.405-0.226-0.551c-0.306-0.301-0.797-0.301-1.103,0c-0.301,0.305-0.301,0.796,0,1.101
			C8.311,8.007,8.802,8.007,9.107,7.706L9.107,7.706z"/>
	</g>
</g>
</svg>
