<?xml version="1.0" encoding="UTF-8"?>
<svg width="24px" height="24px" viewBox="0 0 24 24" version="1.1" xmlns="http://www.w3.org/2000/svg" xmlns:xlink="http://www.w3.org/1999/xlink">
    <!-- Generator: Sketch 50.2 (55047) - http://www.bohemiancoding.com/sketch -->
    <title>icon / basic/ percent</title>
    <desc>Created with Sketch.</desc>
    <defs></defs>
    <g id="icon-/-basic/-percent" stroke="none" stroke-width="1" fill="none" fill-rule="evenodd">
        <path d="M19.711,5.331 C21.53,7.137 22.551,9.596 22.545,12.16 C22.545,14.738 21.542,17.166 19.715,18.991 C17.904,20.808 15.444,21.828 12.877,21.824 C10.31,21.831 7.848,20.812 6.038,18.991 C4.219,17.183 3.199,14.724 3.205,12.16 L3.205,12.055 L2.347,12.912 C2.132,13.105 1.802,13.087 1.61,12.873 C1.432,12.675 1.432,12.373 1.609,12.175 L3.358,10.428 C3.562,10.225 3.892,10.225 4.096,10.428 L5.841,12.175 C6.042,12.379 6.042,12.71 5.838,12.913 C5.634,13.115 5.304,13.115 5.101,12.912 L4.243,12.055 L4.243,12.162 C4.243,16.917 8.113,20.782 12.874,20.782 C17.634,20.782 21.504,16.917 21.504,12.162 C21.504,7.408 17.634,3.541 12.874,3.547 C10.546,3.538 8.315,4.477 6.694,6.147 C6.492,6.351 6.163,6.354 5.956,6.155 C5.752,5.953 5.748,5.625 5.947,5.418 C7.764,3.546 10.264,2.492 12.873,2.5 C15.438,2.495 17.9,3.513 19.711,5.331 Z M15.641,8.646 C15.845,8.442 16.173,8.44 16.378,8.642 C16.582,8.845 16.582,9.174 16.38,9.377 C16.38,9.378 16.38,9.378 16.378,9.379 L9.982,15.767 C9.779,15.968 9.449,15.968 9.244,15.767 C9.039,15.565 9.039,15.236 9.242,15.032 C9.242,15.032 9.243,15.031 9.244,15.03 L15.641,8.646 Z M13.967,12.944 C14.706,12.229 15.886,12.249 16.601,12.99 C17.297,13.711 17.299,14.853 16.605,15.577 C16.255,15.927 15.782,16.124 15.286,16.123 C14.258,16.122 13.424,15.286 13.426,14.257 C13.425,13.767 13.619,13.293 13.967,12.944 Z M15.866,14.844 C16.186,14.523 16.186,14.002 15.865,13.682 C15.544,13.358 15.024,13.358 14.704,13.682 C14.379,14.003 14.379,14.525 14.704,14.845 C15.025,15.165 15.546,15.165 15.866,14.844 Z M10.478,8.183 C11.507,8.184 12.34,9.02 12.338,10.049 C12.337,11.078 11.5,11.911 10.471,11.909 C9.979,11.909 9.506,11.712 9.158,11.364 C8.807,11.015 8.609,10.54 8.611,10.045 C8.611,9.547 8.806,9.08 9.157,8.729 C9.506,8.377 9.981,8.182 10.478,8.183 Z M11.058,10.626 C11.212,10.472 11.299,10.263 11.298,10.046 C11.299,9.829 11.213,9.62 11.059,9.466 C10.736,9.149 10.219,9.149 9.896,9.466 C9.579,9.788 9.579,10.305 9.896,10.627 C10.218,10.944 10.736,10.944 11.058,10.626 Z" id="a_1_" fill="#B2B6BA" fill-rule="nonzero"></path>
        <rect id="Rectangle-2" x="0" y="0" width="24" height="24"></rect>
    </g>
</svg>