<?xml version="1.0" encoding="UTF-8"?>
<svg width="22px" height="20px" viewBox="0 0 22 20" version="1.1" xmlns="http://www.w3.org/2000/svg" xmlns:xlink="http://www.w3.org/1999/xlink">
    <!-- Generator: Sketch 50.2 (55047) - http://www.bohemiancoding.com/sketch -->
    <title>percentage@1x</title>
    <desc>Created with Sketch.</desc>
    <defs></defs>
    <g id="Informacion" stroke="none" stroke-width="1" fill="none" fill-rule="evenodd">
        <g id="percentage" fill="#ED1C24" fill-rule="nonzero">
            <path d="M18.711,3.331 C20.53,5.137 21.551,7.597 21.545,10.161 C21.545,12.739 20.543,15.167 18.715,16.993 C16.904,18.809 14.444,19.829 11.877,19.825 C9.31,19.831 6.848,18.812 5.037,16.993 C3.218,15.184 2.198,12.725 2.204,10.161 L2.204,10.054 L1.346,10.912 C1.131,11.105 0.801,11.087 0.609,10.872 C0.431,10.675 0.431,10.373 0.608,10.175 L2.357,8.428 C2.561,8.224 2.89,8.224 3.095,8.428 L4.84,10.175 C5.042,10.379 5.042,10.71 4.838,10.913 C4.634,11.115 4.304,11.115 4.101,10.912 L3.242,10.054 L3.242,10.162 C3.242,14.917 7.112,18.783 11.874,18.783 C16.634,18.783 20.505,14.917 20.505,10.162 C20.505,5.408 16.634,1.541 11.874,1.546 C9.546,1.537 7.314,2.476 5.693,4.146 C5.492,4.35 5.162,4.354 4.956,4.155 C4.752,3.952 4.748,3.625 4.948,3.418 C6.763,1.545 9.264,0.492 11.873,0.5 C14.439,0.494 16.9,1.513 18.711,3.331 Z M14.641,6.646 C14.845,6.442 15.173,6.44 15.378,6.642 C15.582,6.844 15.582,7.173 15.38,7.377 C15.38,7.378 15.38,7.378 15.378,7.379 L8.982,13.767 C8.778,13.968 8.449,13.968 8.244,13.767 C8.039,13.565 8.039,13.236 8.242,13.032 C8.242,13.032 8.243,13.031 8.244,13.03 L14.641,6.646 Z M12.967,10.944 C13.706,10.229 14.887,10.249 15.601,10.99 C16.297,11.711 16.299,12.853 15.606,13.577 C15.255,13.928 14.782,14.124 14.286,14.123 C13.258,14.122 12.424,13.287 12.426,12.257 C12.425,11.767 12.62,11.292 12.967,10.944 Z M14.866,12.844 C15.187,12.524 15.187,12.003 14.865,11.682 C14.545,11.36 14.024,11.36 13.703,11.682 C13.381,12.004 13.381,12.526 13.703,12.845 C14.025,13.166 14.547,13.166 14.866,12.844 Z M9.478,6.182 C10.508,6.183 11.341,7.019 11.338,8.049 C11.337,9.078 10.502,9.911 9.472,9.909 C8.98,9.909 8.507,9.712 8.159,9.364 C7.807,9.015 7.609,8.54 7.611,8.045 C7.611,7.548 7.806,7.08 8.157,6.729 C8.506,6.377 8.981,6.181 9.478,6.182 Z M10.058,8.626 C10.212,8.472 10.299,8.263 10.298,8.046 C10.299,7.829 10.213,7.62 10.059,7.465 C9.736,7.148 9.219,7.148 8.896,7.465 C8.579,7.787 8.579,8.304 8.896,8.626 C9.218,8.944 9.736,8.944 10.058,8.626 Z" id="a_1_"></path>
        </g>
    </g>
</svg>