<svg xmlns="http://www.w3.org/2000/svg" xmlns:xlink="http://www.w3.org/1999/xlink" width="24" height="24" viewBox="0 0 24 24">
    <defs>
        <path id="a" d="M17.313 2.684A9.098 9.098 0 0 1 20 9.16c0 2.446-.95 4.747-2.683 6.478a9.12 9.12 0 0 1-6.485 2.684 9.12 9.12 0 0 1-6.486-2.684A9.098 9.098 0 0 1 1.66 9.16V9.06l-.814.813a.495.495 0 0 1-.7-.698l1.658-1.657a.495.495 0 0 1 .7 0l1.654 1.657a.493.493 0 1 1-.7.698l-.814-.813v.102c0 4.509 3.67 8.175 8.185 8.175 4.514 0 8.184-3.666 8.184-8.175 0-4.508-3.67-8.175-8.184-8.17a8.128 8.128 0 0 0-5.86 2.466.499.499 0 0 1-.7.008.497.497 0 0 1-.008-.699A9.106 9.106 0 0 1 10.828 0a9.12 9.12 0 0 1 6.485 2.684zm-3.86 3.144a.498.498 0 0 1 .7-.004.493.493 0 0 1 0 .699L8.087 12.58a.496.496 0 0 1-.7 0 .493.493 0 0 1 0-.699l6.066-6.054zm-1.588 4.077a1.767 1.767 0 0 1 2.502 2.495 1.76 1.76 0 0 1-1.251.518 1.767 1.767 0 0 1-1.251-3.013zm1.802 1.8a.778.778 0 1 0-1.103-1.101.778.778 0 1 0 1.103 1.101zm-5.11-6.317a1.767 1.767 0 1 1-1.252 3.017 1.756 1.756 0 0 1-.518-1.25c0-.472.185-.916.518-1.249a1.76 1.76 0 0 1 1.251-.518zm.55 2.318a.774.774 0 0 0 .227-.55.767.767 0 0 0-.226-.551.786.786 0 0 0-1.103 0 .784.784 0 0 0 0 1.101.786.786 0 0 0 1.103 0z"/>
    </defs>
    <g fill="none" fill-rule="evenodd" transform="translate(2 3)">
        <mask id="b" fill="#fff">
            <use xlink:href="#a"/>
        </mask>
        <use fill="#ED1C24" xlink:href="#a"/>
        <g mask="url(#b)">
            <path fill="#ED1C24" d="M-2-3h24v24H-2z"/>
        </g>
    </g>
</svg>
