<?xml version="1.0" encoding="utf-8"?>
<!-- Generator: Adobe Illustrator 16.2.0, SVG Export Plug-In . SVG Version: 6.00 Build 0)  -->
<!DOCTYPE svg PUBLIC "-//W3C//DTD SVG 1.1//EN" "http://www.w3.org/Graphics/SVG/1.1/DTD/svg11.dtd">
<svg version="1.1" id="Слой_1" xmlns="http://www.w3.org/2000/svg" xmlns:xlink="http://www.w3.org/1999/xlink" x="0px" y="0px"
	 width="24px" height="24px" viewBox="0 0 24 24" enable-background="new 0 0 24 24" xml:space="preserve">
<g transform="translate(2 2)">
	<g>
		<path id="a_1_" fill="#ed1c24" d="M17.066,2.93C15.195,1.048,12.65-0.007,9.998,0C7.345-0.007,4.799,1.048,2.929,2.93
			C1.048,4.801-0.007,7.347,0,10c0,2.67,1.04,5.182,2.93,7.07C4.8,18.951,7.345,20.006,9.997,20c1.551,0,2.966-0.288,4.09-0.827
			c1.065-0.515,1.839-1.251,2.181-2.069c0.407-0.984,0.176-2.009-0.631-2.815l-0.027-0.029c0.012-0.016,0.029-0.028,0.041-0.04
			c0.576-0.605,0.576-1.4-0.008-1.984l-1.425-1.424c-0.28-0.287-0.616-0.444-0.975-0.444s-0.7,0.153-0.987,0.44l-0.74,0.74
			c-0.035-0.02-0.07-0.037-0.107-0.053c-0.084-0.04-0.164-0.084-0.243-0.133c-0.753-0.477-1.435-1.103-2.09-1.904
			C8.828,9.156,8.616,8.829,8.442,8.481C8.627,8.309,8.8,8.131,8.968,7.959c0.07-0.074,0.144-0.144,0.218-0.218
			c0.605-0.605,0.605-1.387,0-1.992L8.483,5.045c-0.082-0.082-0.16-0.16-0.239-0.243c-0.156-0.16-0.317-0.325-0.49-0.485
			c-0.28-0.276-0.612-0.42-0.966-0.42s-0.691,0.144-0.98,0.42L5.8,4.325L4.916,5.21C4.562,5.564,4.356,6,4.315,6.502
			C4.253,7.284,4.48,8.008,4.656,8.482c0.424,1.144,1.058,2.206,2,3.341c1.122,1.35,2.519,2.444,4.098,3.21
			c0.605,0.287,1.415,0.625,2.329,0.687c0.058,0.005,0.115,0.005,0.173,0.005c0.637,0,1.176-0.23,1.596-0.688l0.017-0.016
			c0.013-0.018,0.03-0.033,0.046-0.051l0.023,0.025c0.527,0.527,0.672,1.127,0.416,1.74c-0.473,1.123-2.312,2.275-5.356,2.275
			c-4.97,0-9.01-4.039-9.01-9.012c0-4.971,4.04-9.012,9.01-9.012c4.97,0,9.01,4.04,9.01,9.012c0,0.818-0.11,1.626-0.325,2.402
			c-0.072,0.264,0.082,0.537,0.346,0.61s0.537-0.082,0.609-0.346C19.877,11.799,20,10.901,20,10
			C20.004,7.347,18.947,4.801,17.066,2.93z M14.121,14.366c-0.234,0.251-0.498,0.362-0.864,0.362c-0.036,0-0.075,0-0.112-0.004
			c-0.74-0.051-1.439-0.342-1.961-0.593c-1.452-0.704-2.735-1.71-3.766-2.95C6.55,10.136,5.97,9.169,5.583,8.132
			c-0.23-0.626-0.317-1.103-0.284-1.556c0.025-0.267,0.124-0.485,0.317-0.675l0.885-0.88c0.07-0.066,0.177-0.144,0.292-0.144
			c0.115,0,0.214,0.074,0.276,0.14l0.012,0.012c0.156,0.144,0.304,0.296,0.46,0.457c0.083,0.082,0.165,0.168,0.248,0.25L8.492,6.44
			c0.218,0.218,0.218,0.379,0,0.597L8.27,7.259C8.052,7.477,7.85,7.687,7.628,7.885C7.62,7.889,7.616,7.897,7.608,7.905
			c-0.31,0.309-0.202,0.63-0.17,0.737c0.005,0.012,0.009,0.02,0.013,0.033c0.19,0.457,0.453,0.885,0.856,1.395l0.004,0.004
			c0.724,0.893,1.485,1.584,2.33,2.119c0.109,0.07,0.221,0.127,0.328,0.181c0.09,0.046,0.174,0.087,0.243,0.132
			c0.11,0.067,0.237,0.103,0.366,0.104c0.18,0,0.35-0.074,0.494-0.223l0.884-0.885c0.069-0.07,0.173-0.152,0.288-0.152
			c0.107,0,0.206,0.078,0.268,0.145l0.008,0.008l1.424,1.424c0.201,0.202,0.201,0.387-0.008,0.605l-0.004,0.004
			c-0.096,0.104-0.197,0.201-0.309,0.309C14.458,14.004,14.285,14.173,14.121,14.366z"/>
	</g>
</g>
</svg>
