<svg xmlns="http://www.w3.org/2000/svg" xmlns:xlink="http://www.w3.org/1999/xlink" width="24" height="24" viewBox="0 0 24 24">
    <defs>
        <path id="a" d="M17.066 2.93A9.93 9.93 0 0 0 9.998 0a9.93 9.93 0 0 0-7.069 2.93A9.934 9.934 0 0 0 0 10c0 2.67 1.04 5.181 2.93 7.07A9.93 9.93 0 0 0 9.997 20c1.551 0 2.966-.288 4.09-.827 1.065-.515 1.839-1.251 2.18-2.07.408-.984.177-2.008-.63-2.815l-.028-.029c.012-.016.029-.029.041-.04.576-.606.576-1.4-.008-1.984l-1.424-1.424c-.28-.288-.617-.445-.975-.445s-.7.153-.987.44l-.74.741a1.296 1.296 0 0 0-.108-.053 2.587 2.587 0 0 1-.243-.132c-.753-.477-1.435-1.103-2.09-1.905a5.23 5.23 0 0 1-.633-.976c.185-.172.358-.35.526-.522.07-.074.144-.144.218-.218.605-.605.605-1.387 0-1.992l-.703-.704c-.082-.082-.16-.16-.239-.243-.156-.16-.317-.325-.49-.485-.28-.276-.612-.42-.966-.42s-.691.144-.98.42l-.008.008-.884.885c-.354.354-.56.79-.601 1.292-.062.782.165 1.506.341 1.98.424 1.144 1.058 2.205 2 3.341a12.301 12.301 0 0 0 4.098 3.21c.605.288 1.415.625 2.329.687.057.004.115.004.173.004.637 0 1.176-.23 1.596-.687l.016-.016c.013-.017.03-.033.046-.05l.024.025c.527.527.671 1.127.416 1.74-.473 1.124-2.312 2.276-5.357 2.276-4.97 0-9.01-4.04-9.01-9.012 0-4.971 4.04-9.012 9.01-9.012s9.01 4.04 9.01 9.012c0 .819-.11 1.626-.325 2.403a.495.495 0 1 0 .955.264A10.02 10.02 0 0 0 20 10a9.955 9.955 0 0 0-2.934-7.07zm-2.945 11.436c-.235.251-.498.362-.864.362-.037 0-.075 0-.112-.004-.74-.05-1.44-.341-1.962-.592a11.316 11.316 0 0 1-3.765-2.95c-.868-1.046-1.448-2.013-1.835-3.05-.23-.626-.317-1.103-.284-1.556.025-.267.124-.485.317-.675l.885-.88c.07-.066.177-.144.292-.144.115 0 .214.074.276.14l.012.012c.156.144.304.296.46.457.083.082.165.168.248.25l.703.704c.218.218.218.379 0 .597l-.222.222c-.218.218-.42.428-.642.626-.008.004-.012.012-.02.02-.31.309-.202.63-.17.737.005.012.009.02.013.033.19.457.453.885.856 1.395l.004.004c.724.893 1.485 1.584 2.329 2.12.11.07.222.127.329.18.09.046.173.087.243.132a.709.709 0 0 0 .366.103c.18 0 .35-.074.494-.222l.884-.885c.07-.07.173-.152.288-.152.107 0 .206.078.268.144l.008.008 1.423 1.424c.202.202.202.387-.008.605l-.004.004c-.095.103-.197.202-.308.309-.165.16-.338.329-.502.522z"/>
    </defs>
    <g fill="none" fill-rule="evenodd" transform="translate(2 2)">
        <mask id="b" fill="#fff">
            <use xlink:href="#a"/>
        </mask>
        <use fill="#39B54A" xlink:href="#a"/>
        <g mask="url(#b)">
            <path fill="#ED1C24" d="M-2-2h24v24H-2z"/>
        </g>
    </g>
</svg>
