<?xml version="1.0" encoding="utf-8"?>
<!-- Generator: Adobe Illustrator 16.2.0, SVG Export Plug-In . SVG Version: 6.00 Build 0)  -->
<!DOCTYPE svg PUBLIC "-//W3C//DTD SVG 1.1//EN" "http://www.w3.org/Graphics/SVG/1.1/DTD/svg11.dtd">
<svg version="1.1" id="Слой_1" xmlns="http://www.w3.org/2000/svg" xmlns:xlink="http://www.w3.org/1999/xlink" x="0px" y="0px"
	 width="24px" height="24px" viewBox="0 0 24 24" enable-background="new 0 0 24 24" xml:space="preserve">
<g>
	<path fill="#39B54A" d="M9.213,8.433L8.66,10.98c-0.031,0.14,0,0.287,0.085,0.402c0.163,0.223,0.476,0.271,0.699,0.108l1.866-1.366
		l2.124,1.381c0.125,0.082,0.279,0.103,0.422,0.059c0.265-0.083,0.41-0.363,0.328-0.626l-0.787-2.525l2.021-1.774
		c0.094-0.082,0.153-0.196,0.168-0.32c0.031-0.274-0.166-0.522-0.44-0.553L12.546,5.47l-0.783-2.142
		c-0.051-0.138-0.16-0.247-0.298-0.298c-0.259-0.095-0.546,0.039-0.641,0.298L10.039,5.47L7.444,5.765
		C7.32,5.779,7.206,5.838,7.124,5.933C6.941,6.14,6.962,6.456,7.17,6.638L9.213,8.433z M8.679,6.631l1.78-0.202
		c0.188-0.021,0.349-0.146,0.414-0.324l0.42-1.15l0.42,1.149c0.065,0.178,0.225,0.304,0.413,0.325l1.782,0.203l-1.416,1.243
		c-0.148,0.13-0.206,0.336-0.147,0.525l0.471,1.511l-1.25-0.814c-0.175-0.114-0.401-0.107-0.569,0.017l-1.08,0.79l0.336-1.547
		c0.039-0.178-0.022-0.362-0.159-0.482L8.679,6.631L8.679,6.631z"/>
	<path fill="#39B54A" d="M17.852,16.693c-0.106-0.471-0.225-0.961-0.349-1.465c-0.228-0.918-0.471-1.84-0.715-2.722
		c-0.085-0.309-0.165-0.59-0.235-0.839l-0.09-0.31c-0.014-0.045-0.039-0.083-0.063-0.121c0.828-1.074,1.324-2.416,1.324-3.876
		C17.725,3.848,14.877,1,11.362,1C7.849,1,5,3.848,5,7.362v0.001c0,1.792,0.744,3.408,1.937,4.564
		c-0.31,1.097-0.612,2.195-0.887,3.302c-0.126,0.504-0.242,0.994-0.35,1.465c-0.446,1.971-0.7,3.5-0.7,4.461
		c0,0.132,0.052,0.259,0.145,0.353c0.194,0.196,0.511,0.198,0.707,0.003c0.285-0.285,0.643-0.574,1.055-0.859
		c0.485-0.336,0.99-0.639,1.513-0.911l1.484,2.37c0.084,0.136,0.228,0.222,0.386,0.233c0.275,0.021,0.516-0.186,0.537-0.461
		c0.035-0.437,0.074-0.871,0.119-1.306c0.097-0.962,0.22-1.92,0.369-2.875c0.142-0.885,0.298-1.655,0.462-2.27
		c0.191,0.748,0.345,1.504,0.461,2.269c0.146,0.914,0.269,1.896,0.37,2.876c0.045,0.435,0.084,0.869,0.119,1.306
		c0.012,0.159,0.1,0.304,0.233,0.388c0.233,0.146,0.543,0.074,0.688-0.16l1.482-2.373c0.521,0.273,1.027,0.578,1.512,0.912
		c0.377,0.256,0.73,0.543,1.058,0.859c0.094,0.094,0.219,0.145,0.351,0.145c0.276,0.002,0.501-0.223,0.501-0.498
		C18.551,20.193,18.298,18.664,17.852,16.693z M6,7.362C6,4.4,8.401,2,11.362,2c2.961,0,5.363,2.4,5.363,5.362
		c0,2.962-2.399,5.363-5.362,5.363c-1.252,0-2.389-0.447-3.302-1.167c-0.373-0.292-0.373-0.292-0.61-0.549
		C6.558,10.051,6,8.775,6,7.362z M10.327,17.542c-0.141,0.888-0.261,1.832-0.361,2.78L9.027,18.82
		c-0.134-0.215-0.407-0.295-0.636-0.188c-0.805,0.39-1.575,0.849-2.3,1.37c0.108-0.82,0.308-1.868,0.585-3.088
		c0.105-0.465,0.22-0.948,0.344-1.447c0.237-0.953,0.497-1.9,0.76-2.849c0.934,0.638,2.047,1.024,3.247,1.089
		c0.395-0.036,0.221,0.163,0.18,0.282C10.858,14.771,10.577,15.975,10.327,17.542z M15.161,18.632
		c-0.229-0.106-0.502-0.026-0.636,0.188l-0.94,1.502c-0.099-0.948-0.219-1.893-0.36-2.78c-0.25-1.567-0.752-3.28-0.878-3.552
		c-0.126-0.272-0.126-0.271,0.201-0.381c1.171-0.221,2.227-0.764,3.075-1.53c0.319,1.126,0.629,2.254,0.911,3.39
		c0.124,0.498,0.236,0.981,0.344,1.446c0.275,1.22,0.479,2.267,0.585,3.087C16.736,19.479,15.967,19.021,15.161,18.632z"/>
</g>
</svg>
