<?xml version="1.0" encoding="utf-8"?>
<!-- Generator: Adobe Illustrator 16.2.0, SVG Export Plug-In . SVG Version: 6.00 Build 0)  -->
<!DOCTYPE svg PUBLIC "-//W3C//DTD SVG 1.1//EN" "http://www.w3.org/Graphics/SVG/1.1/DTD/svg11.dtd">
<svg version="1.1" id="Слой_1" xmlns="http://www.w3.org/2000/svg" xmlns:xlink="http://www.w3.org/1999/xlink" x="0px" y="0px"
	 width="24px" height="24px" viewBox="0 0 24 24" enable-background="new 0 0 24 24" xml:space="preserve">
<g transform="translate(2 2)">
	<g>
		<path id="a_1_" fill="#FFFFFF" d="M10,20C4.477,20,0,15.523,0,10C0,4.477,4.477,0,10,0c5.523,0,10,4.477,10,10
			C20,15.523,15.523,20,10,20z M10,19.048c4.997,0.001,9.049-4.049,9.05-9.046S15,0.953,10.003,0.952c-0.001,0-0.002,0-0.003,0
			c-4.997,0.001-9.047,4.053-9.046,9.05C0.955,14.998,5.004,19.047,10,19.048z M15.588,4.286L12.17,16.538l-4.357-4.13l4.292-4.53
			l-5.754,3.978l-3.97-0.965L15.588,4.286z M7.285,13.184v3.991l1.883-2.178L7.285,13.184z"/>
	</g>
</g>
</svg>
