<svg xmlns="http://www.w3.org/2000/svg" width="22" height="25" viewBox="0 0 22 25">
    <path fill="#39B54A" fill-rule="evenodd" d="M18.773 3.525C16.696 1.253 13.935 0 10.998 0 8.06 0 5.3 1.253 3.222 3.525 1.145 5.798 0 8.818 0 12.031c0 3.214 1.145 6.234 3.222 8.506 2.078 2.273 4.838 3.526 7.776 3.526 1.706 0 3.263-.347 4.498-.996 1.173-.619 2.023-1.505 2.4-2.49.447-1.183.194-2.416-.693-3.387l-.032-.034c.014-.02.032-.035.045-.05.634-.728.634-1.683-.009-2.386l-1.566-1.713c-.308-.347-.679-.535-1.072-.535-.394 0-.77.183-1.087.53l-.814.89a1.381 1.381 0 0 0-.118-.063c-.1-.055-.19-.104-.267-.159-.828-.574-1.58-1.327-2.299-2.292a6.389 6.389 0 0 1-.697-1.174c.204-.208.394-.42.58-.629.076-.089.158-.173.24-.262.664-.728.664-1.668 0-2.396l-.775-.847c-.09-.099-.176-.193-.262-.292a15.812 15.812 0 0 0-.539-.584c-.308-.332-.674-.505-1.063-.505-.39 0-.76.173-1.078.505l-.009.01-.973 1.064c-.389.426-.615.95-.66 1.555-.068.94.18 1.812.375 2.381.466 1.377 1.163 2.654 2.2 4.02 1.258 1.644 2.774 2.947 4.507 3.862.666.347 1.557.753 2.562.827.063.005.127.005.19.005.702 0 1.295-.277 1.756-.827.005-.005.014-.014.018-.02.014-.02.032-.039.05-.059l.027.03c.58.634.738 1.357.457 2.094-.52 1.352-2.543 2.738-5.892 2.738-5.467 0-9.912-4.862-9.912-10.843 0-5.98 4.445-10.843 9.912-10.843 5.467 0 9.911 4.862 9.911 10.843 0 .986-.122 1.956-.357 2.892-.082.317.09.643.38.732.29.09.588-.099.67-.415.262-1.04.398-2.12.398-3.209-.005-3.213-1.15-6.233-3.227-8.506zm-3.24 13.76a1.15 1.15 0 0 1-.95.435c-.042 0-.082 0-.123-.005-.815-.06-1.584-.41-2.159-.713-1.588-.842-2.982-2.035-4.141-3.55-.955-1.257-1.593-2.42-2.018-3.669-.254-.752-.349-1.326-.313-1.871.027-.322.136-.584.349-.812l.973-1.06c.077-.079.194-.173.321-.173s.235.09.303.168l.014.015c.172.174.335.357.507.55.09.099.18.203.271.302l.774.847c.24.262.24.455 0 .717l-.244.268c-.24.262-.462.515-.706.752-.01.005-.014.015-.023.025-.34.371-.222.758-.185.886l.013.04c.208.55.498 1.064.942 1.678l.004.005c.797 1.075 1.634 1.907 2.562 2.55.122.084.244.154.362.218.1.055.19.104.267.158.013.01.032.02.05.03a.726.726 0 0 0 .353.094c.199 0 .384-.089.543-.267l.973-1.065c.077-.084.19-.183.317-.183.117 0 .226.094.294.174l.009.01 1.566 1.713c.222.242.222.465-.01.727l-.004.005c-.104.124-.217.243-.34.372a8.93 8.93 0 0 0-.551.628z"/>
</svg>
