<svg xmlns="http://www.w3.org/2000/svg" xmlns:xlink="http://www.w3.org/1999/xlink" width="24" height="24" viewBox="0 0 24 24">
    <defs>
        <path id="a" d="M10 1.25c-.534 0-1.061.1-1.582.303-.52.202-.99.459-1.406.771A4.493 4.493 0 0 0 6.006 3.34c-.254.364-.381.71-.381 1.035V7.5c0 .612.153 1.393.459 2.344.306.95.784 1.686 1.436 2.207a1.24 1.24 0 0 1 .469 1.133c-.04.208-.121.4-.245.576-.124.176-.283.309-.478.4l-5.489 2.598a1.368 1.368 0 0 0-.322.185c-.137.098-.205.277-.205.537v1.27l17.48-.02v-1.21c0-.339-.08-.55-.244-.635a2.041 2.041 0 0 0-.263-.127l-5.45-2.578a1.265 1.265 0 0 1-.634-1.631c.084-.202.211-.368.38-.498.678-.521 1.156-1.26 1.436-2.217.28-.957.42-1.735.42-2.334V4.375c0-.339-.13-.69-.39-1.055-.261-.364-.596-.7-1.006-1.006a5.808 5.808 0 0 0-1.407-.761A4.374 4.374 0 0 0 10 1.25zM10 0c.69 0 1.37.13 2.041.39.67.261 1.27.6 1.797 1.016.527.417.957.886 1.289 1.407.332.52.498 1.041.498 1.562V7.5c0 .378-.04.814-.117 1.309-.078.494-.209.999-.39 1.513a7.441 7.441 0 0 1-.723 1.485c-.3.475-.665.882-1.094 1.22l5.449 2.598.615.342c.41.228.615.524.615.888v1.895c0 .339-.12.628-.36.87-.242.24-.531.36-.87.36H1.25c-.352 0-.648-.12-.889-.36-.24-.242-.361-.531-.361-.87v-1.895c0-.338.208-.628.625-.869l.625-.361 5.488-2.598a4.74 4.74 0 0 1-1.113-1.27c-.3-.494-.544-.999-.732-1.513a8.067 8.067 0 0 1-.4-1.504 8.062 8.062 0 0 1-.118-1.24V4.375c0-.52.163-1.042.488-1.563a5.53 5.53 0 0 1 1.28-1.406A6.868 6.868 0 0 1 7.949.391C8.626.13 9.31 0 10 0z"/>
    </defs>
    <g fill="none" fill-rule="evenodd" transform="translate(2 2)">
        <mask id="b" fill="#fff">
            <use xlink:href="#a"/>
        </mask>
        <use fill="#453937" fill-opacity=".3" xlink:href="#a"/>
        <g mask="url(#b)">
            <path fill="#ED1C24" d="M-2-2h24v24H-2z"/>
        </g>
    </g>
</svg>
