<?xml version="1.0" encoding="utf-8"?>
<!-- Generator: Adobe Illustrator 16.2.0, SVG Export Plug-In . SVG Version: 6.00 Build 0)  -->
<!DOCTYPE svg PUBLIC "-//W3C//DTD SVG 1.1//EN" "http://www.w3.org/Graphics/SVG/1.1/DTD/svg11.dtd">
<svg version="1.1" id="Слой_1" xmlns="http://www.w3.org/2000/svg" xmlns:xlink="http://www.w3.org/1999/xlink" x="0px" y="0px"
	 width="24px" height="24px" viewBox="0 0 24 24" enable-background="new 0 0 24 24" xml:space="preserve">
<g transform="translate(2 2)">
	<g>
		<path id="a_1_" fill="#ED1C24" d="M10,1.25c-0.534,0-1.061,0.1-1.582,0.303c-0.52,0.202-0.99,0.459-1.406,0.771
			C6.625,2.607,6.285,2.95,6.006,3.34C5.752,3.704,5.625,4.05,5.625,4.375V7.5c0,0.612,0.153,1.393,0.459,2.344
			c0.306,0.95,0.784,1.687,1.436,2.207c0.345,0.269,0.523,0.699,0.469,1.133c-0.04,0.209-0.121,0.4-0.245,0.576
			s-0.283,0.309-0.478,0.4l-5.489,2.598c-0.115,0.047-0.224,0.109-0.322,0.186C1.318,17.041,1.25,17.22,1.25,17.48v1.27l17.48-0.02
			V17.52c0-0.338-0.08-0.55-0.244-0.635c-0.085-0.049-0.173-0.091-0.264-0.127l-5.449-2.578c-0.614-0.286-0.895-1.005-0.635-1.631
			c0.084-0.201,0.211-0.367,0.381-0.498c0.678-0.521,1.155-1.26,1.436-2.217c0.279-0.957,0.42-1.735,0.42-2.334V4.375
			c0-0.339-0.13-0.69-0.391-1.055c-0.26-0.364-0.596-0.7-1.006-1.006c-0.432-0.317-0.904-0.573-1.406-0.761
			C11.071,1.356,10.538,1.253,10,1.25z M10,0c0.689,0,1.37,0.13,2.041,0.39c0.67,0.261,1.27,0.6,1.797,1.016
			c0.527,0.417,0.957,0.886,1.289,1.407c0.332,0.52,0.498,1.041,0.498,1.562V7.5c0,0.378-0.04,0.814-0.117,1.309
			c-0.078,0.494-0.209,0.999-0.39,1.513c-0.186,0.52-0.428,1.018-0.724,1.484c-0.299,0.476-0.664,0.883-1.094,1.221l5.449,2.598
			l0.615,0.342c0.41,0.229,0.615,0.524,0.615,0.889v1.895c0,0.339-0.121,0.628-0.36,0.87c-0.242,0.239-0.531,0.36-0.87,0.36H1.25
			c-0.352,0-0.648-0.121-0.889-0.36C0.121,19.378,0,19.089,0,18.75v-1.895c0-0.338,0.208-0.629,0.625-0.869l0.625-0.361l5.488-2.598
			c-0.444-0.354-0.821-0.783-1.113-1.271c-0.3-0.493-0.544-0.999-0.732-1.513c-0.182-0.487-0.315-0.991-0.4-1.504
			C4.422,8.33,4.382,7.916,4.375,7.5V4.375c0-0.52,0.163-1.042,0.488-1.563c0.342-0.539,0.775-1.015,1.28-1.406
			c0.547-0.428,1.156-0.77,1.806-1.015C8.626,0.13,9.31,0,10,0z"/>
	</g>
</g>
</svg>
