<?xml version="1.0" encoding="utf-8"?>
<!-- Generator: Adobe Illustrator 16.2.0, SVG Export Plug-In . SVG Version: 6.00 Build 0)  -->
<!DOCTYPE svg PUBLIC "-//W3C//DTD SVG 1.1//EN" "http://www.w3.org/Graphics/SVG/1.1/DTD/svg11.dtd">
<svg version="1.1" id="Слой_1" xmlns="http://www.w3.org/2000/svg" xmlns:xlink="http://www.w3.org/1999/xlink" x="0px" y="0px"
	 width="24px" height="24px" viewBox="0 0 24 24" enable-background="new 0 0 24 24" xml:space="preserve">
<g transform="translate(2 2)">
	<g>
		<path id="a_1_" fill="#FFFFFF" d="M10,20C4.477,20,0,15.523,0,10C0,4.477,4.477,0,10,0c5.523,0,10,4.477,10,10
			C20,15.523,15.523,20,10,20z M10,19.048c4.997,0.001,9.049-4.049,9.05-9.046S15,0.953,10.003,0.952c-0.001,0-0.002,0-0.003,0
			c-4.997,0.001-9.047,4.053-9.046,9.05C0.955,14.998,5.004,19.047,10,19.048z M15.044,4.722c-0.346-0.325-1.744-1.364-4.858-1.378
			c0,0-3.67-0.227-5.46,1.454C3.728,5.818,3.378,7.31,3.34,9.16c-0.036,1.852-0.084,5.32,3.181,6.26l0.003,0.001l-0.001,1.435
			c0,0-0.02,0.582,0.352,0.701c0.452,0.143,0.718-0.3,1.15-0.775c0.236-0.26,0.563-0.645,0.81-0.938
			c2.233,0.192,3.951-0.247,4.146-0.312c0.451-0.15,3.004-0.485,3.418-3.953C16.827,8.002,16.191,5.741,15.044,4.722 M15.43,11.32
			c-0.352,2.896-2.421,3.078-2.803,3.203c-0.162,0.055-1.671,0.438-3.568,0.311l-2.057,2.28L7,14.488l-0.016-0.006
			c-2.763-0.784-2.67-3.729-2.638-5.275c0.03-1.546,0.314-2.813,1.157-3.664C7.018,4.14,10.137,4.35,10.137,4.35
			c2.632,0.012,3.896,0.823,4.188,1.095C15.297,6.297,15.792,8.335,15.43,11.32L15.43,11.32z M13.051,11.752
			c-0.203-0.175-0.412-0.346-0.623-0.511c-0.216-0.157-0.439-0.304-0.67-0.438c-0.308-0.175-0.621-0.064-0.752,0.107l-0.27,0.347
			c-0.137,0.175-0.35,0.146-0.406,0.136c-0.398-0.101-0.822-0.351-1.255-0.77C8.637,10.2,8.371,9.757,8.277,9.298L8.27,9.268
			c-0.029-0.141,0-0.288,0.083-0.406L8.368,8.85C8.55,8.681,8.887,8.475,8.932,8.279c0.133-0.34-0.443-1.051-0.525-1.177
			c0,0-0.419-0.554-0.568-0.66c-0.183-0.164-0.452-0.187-0.66-0.056l-0.014,0.01C6.444,6.884,6.182,7.164,6.254,7.583l0.037,0.169
			c0.366,1.153,1.072,2.383,2.126,3.479c1.042,1.082,2.17,1.729,3.281,2.178c0.288,0.096,0.588,0.013,0.895-0.249l0.005-0.004
			c0.236-0.22,0.422-0.455,0.562-0.707l0.001-0.005C13.296,12.176,13.25,11.923,13.051,11.752L13.051,11.752z M11.32,9.226h0.005
			c0.046-0.003,0.081-0.043,0.079-0.09c-0.018-0.34-0.113-0.607-0.286-0.79c-0.175-0.184-0.427-0.286-0.75-0.304
			c-0.046-0.002-0.086,0.034-0.088,0.08l0,0c-0.003,0.046,0.032,0.086,0.078,0.09c0,0,0.001,0,0.001,0
			c0.28,0.016,0.497,0.1,0.64,0.252c0.144,0.153,0.226,0.382,0.239,0.681C11.24,9.19,11.277,9.225,11.32,9.226L11.32,9.226z
			 M12.143,9.508c0.046,0,0.083-0.037,0.084-0.083c0.014-0.62-0.17-1.145-0.543-1.562c-0.371-0.416-0.895-0.651-1.558-0.701
			c-0.046-0.003-0.086,0.032-0.089,0.079c0,0,0,0,0,0c-0.003,0.046,0.031,0.086,0.077,0.09c0.31,0.024,0.59,0.09,0.83,0.197
			c0.24,0.107,0.447,0.258,0.617,0.45c0.344,0.384,0.513,0.869,0.5,1.443c-0.002,0.047,0.035,0.086,0.08,0.087H12.143z
			 M12.984,9.845c0.047,0,0.084-0.038,0.084-0.085c0,0,0,0,0-0.001c0.003-0.484-0.078-0.966-0.239-1.423
			c-0.15-0.411-0.388-0.784-0.697-1.094C11.52,6.63,10.748,6.317,9.838,6.311c-0.046,0-0.083,0.038-0.083,0.084
			c0,0.047,0.036,0.085,0.082,0.086c0.433,0.003,0.836,0.079,1.198,0.225c0.359,0.147,0.689,0.368,0.98,0.657
			c0.291,0.29,0.512,0.638,0.658,1.033c0.148,0.398,0.225,0.857,0.229,1.365C12.902,9.808,12.939,9.845,12.984,9.845z"/>
	</g>
</g>
</svg>
