<svg xmlns="http://www.w3.org/2000/svg" xmlns:xlink="http://www.w3.org/1999/xlink" width="24" height="24" viewBox="0 0 24 24">
    <defs>
        <path id="a" d="M10 20C4.477 20 0 15.523 0 10S4.477 0 10 0s10 4.477 10 10-4.477 10-10 10zm0-.952A9.048 9.048 0 1 0 10 .952a9.048 9.048 0 0 0 0 18.096zm5.044-14.326c-.346-.325-1.744-1.364-4.858-1.378 0 0-3.67-.227-5.46 1.454C3.728 5.818 3.378 7.31 3.34 9.16c-.036 1.852-.084 5.32 3.181 6.26l.003.001-.001 1.435s-.02.581.352.7c.452.143.718-.299 1.15-.775.236-.26.563-.644.81-.938 2.233.192 3.951-.247 4.146-.312.451-.15 3.003-.485 3.418-3.953.428-3.576-.208-5.837-1.356-6.857m.386 6.599c-.351 2.896-2.42 3.079-2.802 3.204-.162.054-1.671.438-3.568.31l-2.057 2.28-.002-2.626-.016-.005c-2.763-.785-2.67-3.73-2.638-5.276.03-1.546.314-2.813 1.157-3.664C7.018 4.14 10.137 4.35 10.137 4.35c2.633.012 3.896.823 4.188 1.095.972.852 1.467 2.89 1.105 5.876zm-2.378.432a18.938 18.938 0 0 0-.623-.511 7.984 7.984 0 0 0-.67-.438c-.308-.175-.622-.065-.752.107l-.27.347c-.137.175-.35.146-.406.135-.398-.1-.822-.35-1.255-.769-.438-.423-.704-.866-.798-1.325l-.007-.03a.524.524 0 0 1 .083-.406l.015-.012c.182-.169.519-.375.564-.571.133-.34-.443-1.051-.525-1.177 0 0-.419-.554-.568-.66a.55.55 0 0 0-.66-.056l-.014.01c-.721.488-.983.768-.911 1.187l.037.169c.366 1.153 1.072 2.383 2.126 3.478 1.042 1.082 2.17 1.73 3.281 2.178.289.096.588.013.895-.249l.005-.004c.236-.22.422-.455.561-.707l.001-.005c.136-.267.09-.52-.11-.691zm-1.73-2.526h.004a.085.085 0 0 0 .079-.09c-.017-.34-.113-.607-.286-.79-.174-.184-.426-.286-.75-.304a.084.084 0 0 0-.088.08.084.084 0 0 0 .079.09c.28.016.496.1.64.252.144.153.225.382.24.681.001.045.038.08.082.08zm.822.282a.084.084 0 0 0 .083-.083c.014-.62-.169-1.145-.542-1.562-.371-.416-.895-.651-1.558-.701a.084.084 0 0 0-.089.079.084.084 0 0 0 .077.09c.31.024.59.09.83.197.239.107.446.258.617.45.344.384.512.869.499 1.443-.001.047.035.086.08.087h.003zm.842.337a.084.084 0 0 0 .083-.086 4.197 4.197 0 0 0-.239-1.423 3.01 3.01 0 0 0-.697-1.094c-.613-.612-1.384-.925-2.294-.931a.084.084 0 0 0-.083.084c0 .047.036.085.082.086.433.003.836.079 1.198.225.36.147.69.368.981.657.29.29.511.638.658 1.033.148.398.224.857.228 1.365 0 .047.037.084.083.084z"/>
    </defs>
    <g fill="none" fill-rule="evenodd" transform="translate(2 2)">
        <mask id="b" fill="#fff">
            <use xlink:href="#a"/>
        </mask>
        <use fill="#050505" fill-rule="nonzero" xlink:href="#a"/>
        <g mask="url(#b)">
            <path fill="#FFFFFF" d="M-2-2h24v24H-2z"/>
        </g>
    </g>
</svg>
