<svg xmlns="http://www.w3.org/2000/svg" xmlns:xlink="http://www.w3.org/1999/xlink" width="24" height="24" viewBox="0 0 24 24">
    <defs>
        <path id="a" d="M10 19a9 9 0 1 0 0-18 9 9 0 0 0 0 18zm0 1C4.477 20 0 15.523 0 10S4.477 0 10 0s10 4.477 10 10-4.477 10-10 10zm.33-6.395s.205-.022.31-.133c.096-.101.093-.293.093-.293s-.013-.894.41-1.026c.417-.13.952.865 1.52 1.247.43.29.755.226.755.226l1.518-.02s.794-.049.417-.662c-.03-.05-.22-.453-1.128-1.281-.952-.867-.824-.727.322-2.227.698-.913.977-1.47.89-1.709-.083-.228-.597-.167-.597-.167l-1.708.01s-.127-.017-.22.038a.474.474 0 0 0-.152.18s-.27.707-.63 1.308c-.762 1.268-1.066 1.335-1.19 1.256-.29-.183-.218-.737-.218-1.13 0-1.23.19-1.742-.37-1.875-.185-.044-.322-.073-.797-.078-.61-.006-1.125.003-1.418.143-.194.093-.344.302-.252.314.112.014.368.067.504.248.175.234.169.76.169.76s.1 1.446-.236 1.626c-.23.123-.545-.129-1.224-1.28-.347-.588-.61-1.24-.61-1.24s-.05-.122-.14-.187c-.11-.08-.263-.104-.263-.104l-1.624.01s-.244.007-.333.111c-.08.093-.006.284-.006.284s1.27 2.92 2.71 4.39c1.32 1.35 2.819 1.261 2.819 1.261h.679z"/>
    </defs>
    <g fill="none" fill-rule="evenodd">
        <path d="M2 2h20v20H2z"/>
        <g transform="translate(2 2)">
            <mask id="b" fill="#fff">
                <use xlink:href="#a"/>
            </mask>
            <use fill="#000" fill-rule="nonzero" xlink:href="#a"/>
            <g mask="url(#b)">
                <path fill="#ED1C24" d="M-2-2h24v24H-2z"/>
            </g>
        </g>
    </g>
</svg>
