<?xml version="1.0" encoding="utf-8"?>
<!-- Generator: Adobe Illustrator 16.2.0, SVG Export Plug-In . SVG Version: 6.00 Build 0)  -->
<!DOCTYPE svg PUBLIC "-//W3C//DTD SVG 1.1//EN" "http://www.w3.org/Graphics/SVG/1.1/DTD/svg11.dtd">
<svg version="1.1" id="Слой_1" xmlns="http://www.w3.org/2000/svg" xmlns:xlink="http://www.w3.org/1999/xlink" x="0px" y="0px"
	 width="24px" height="24px" viewBox="0 0 24 24" enable-background="new 0 0 24 24" xml:space="preserve">
<g>
	<path fill="none" d="M2,2h20v20H2V2z"/>
	<g transform="translate(2 2)">
		<g>
			<path id="a_1_" fill="#ED1C24" d="M10,19c4.971,0,9-4.029,9-9s-4.029-9-9-9s-9,4.029-9,9S5.029,19,10,19z M10,20
				C4.477,20,0,15.523,0,10C0,4.477,4.477,0,10,0c5.523,0,10,4.477,10,10C20,15.523,15.523,20,10,20z M10.33,13.605
				c0,0,0.205-0.022,0.311-0.133c0.096-0.102,0.092-0.293,0.092-0.293s-0.012-0.895,0.41-1.027c0.418-0.129,0.953,0.865,1.521,1.248
				c0.43,0.289,0.755,0.226,0.755,0.226l1.518-0.021c0,0,0.795-0.049,0.418-0.662c-0.03-0.049-0.221-0.452-1.129-1.28
				c-0.951-0.867-0.824-0.728,0.322-2.227c0.698-0.913,0.977-1.47,0.891-1.709C15.354,7.499,14.84,7.56,14.84,7.56l-1.708,0.01
				c0,0-0.127-0.017-0.22,0.038c-0.064,0.046-0.117,0.108-0.152,0.18c0,0-0.27,0.707-0.63,1.308
				c-0.762,1.268-1.065,1.335-1.19,1.256c-0.289-0.183-0.217-0.737-0.217-1.13c0-1.23,0.189-1.742-0.371-1.875
				c-0.185-0.044-0.322-0.073-0.797-0.078C8.945,7.263,8.43,7.272,8.137,7.412C7.943,7.505,7.793,7.714,7.885,7.726
				C7.997,7.74,8.253,7.793,8.389,7.974c0.175,0.234,0.169,0.76,0.169,0.76s0.1,1.446-0.236,1.626
				c-0.23,0.123-0.545-0.129-1.224-1.28c-0.347-0.588-0.61-1.24-0.61-1.24s-0.05-0.122-0.14-0.187
				c-0.11-0.08-0.263-0.104-0.263-0.104l-1.624,0.01c0,0-0.244,0.007-0.333,0.111c-0.08,0.093-0.006,0.284-0.006,0.284
				s1.27,2.92,2.71,4.39c1.32,1.35,2.819,1.262,2.819,1.262H10.33z"/>
		</g>
	</g>
</g>
</svg>
