<?xml version="1.0" encoding="utf-8"?>
<!-- Generator: Adobe Illustrator 16.2.0, SVG Export Plug-In . SVG Version: 6.00 Build 0)  -->
<!DOCTYPE svg PUBLIC "-//W3C//DTD SVG 1.1//EN" "http://www.w3.org/Graphics/SVG/1.1/DTD/svg11.dtd">
<svg version="1.1" id="Слой_1" xmlns="http://www.w3.org/2000/svg" xmlns:xlink="http://www.w3.org/1999/xlink" x="0px" y="0px"
	 width="24px" height="24px" viewBox="0 0 24 24" enable-background="new 0 0 24 24" xml:space="preserve">
<g transform="translate(2 2)">
	<g>
		<path id="a_1_" fill="#FFFFFF" d="M10,20C4.477,20,0,15.523,0,10C0,4.477,4.477,0,10,0c5.523,0,10,4.477,10,10
			C20,15.523,15.523,20,10,20z M10,19.048c4.997,0.001,9.049-4.049,9.05-9.046S15,0.953,10.003,0.952c-0.001,0-0.002,0-0.003,0
			c-4.997,0.001-9.047,4.053-9.046,9.05C0.955,14.998,5.004,19.047,10,19.048z M9.394,6.075L9.386,6.079
			C9.393,6.094,9.402,6.107,9.412,6.12C9.406,6.105,9.4,6.09,9.394,6.075z M9.008,6.19c-0.39,0-0.913,0.592-0.913,1.191
			c0,0.636,0.876,2.182,1.608,2.915c0.734,0.733,2.279,1.609,2.916,1.609c0.6,0,1.189-0.523,1.189-0.913v-0.432l-0.115-0.058
			l-0.498-0.249l-0.024-0.012l-0.362-0.184c-0.025-0.012-0.053-0.019-0.08-0.018c-0.168,0-0.437,0.168-0.686,0.414l-0.22,0.217
			l-0.287-0.112c-0.479-0.18-0.914-0.458-1.279-0.815C9.9,9.378,9.623,8.942,9.442,8.465L9.329,8.177l0.218-0.22
			c0.31-0.314,0.467-0.625,0.396-0.763c-0.242-0.47-0.405-0.79-0.5-1.004H9.008z M13.895,10.6c0.008,0.006,0.018,0.011,0.026,0.016
			l-0.015-0.008L13.895,10.6z M12.727,9.088c0.181,0,0.355,0.04,0.516,0.122c0.1,0.052,0.22,0.113,0.357,0.181l0.022,0.012
			l0.494,0.246l0.225,0.11c0.259,0.127,0.421,0.39,0.421,0.678v0.555c0,0.943-1.041,1.865-2.143,1.865
			c-0.939,0-2.694-0.993-3.589-1.888c-0.894-0.895-1.887-2.647-1.887-3.589c0-1.101,0.92-2.143,1.865-2.143h0.556
			c0.3,0,0.571,0.178,0.691,0.452l0.04,0.082l0.139,0.28c0.136,0.275,0.259,0.522,0.356,0.707c0.287,0.56,0.09,1.107-0.344,1.625
			c0.125,0.248,0.287,0.487,0.486,0.686c0.197,0.2,0.438,0.36,0.687,0.484c0.345-0.285,0.711-0.466,1.11-0.466H12.727z M3.81,9.048
			c0.004-3.943,3.199-7.139,7.142-7.143c3.943,0.003,7.14,3.199,7.144,7.143c-0.005,3.943-3.201,7.138-7.144,7.142
			c-1.254,0.001-2.486-0.33-3.57-0.959L4.82,16.146c-0.393,0.139-0.826-0.066-0.965-0.46c-0.06-0.169-0.058-0.353,0.005-0.521
			l0.95-2.471C4.154,11.592,3.808,10.332,3.81,9.048z M7.49,14.182l0.196,0.12c0.983,0.613,2.11,0.937,3.266,0.937
			c3.417-0.005,6.186-2.773,6.19-6.19c-0.005-3.417-2.773-6.186-6.19-6.19c-3.417,0.004-6.186,2.773-6.19,6.19
			C4.76,10.232,5.1,11.392,5.74,12.389l0.13,0.202l-0.086,0.226l-0.88,2.287L7.49,14.182L7.49,14.182z"/>
	</g>
</g>
</svg>
