<svg xmlns="http://www.w3.org/2000/svg" xmlns:xlink="http://www.w3.org/1999/xlink" width="24" height="24" viewBox="0 0 24 24">
    <defs>
        <path id="a" d="M10 20C4.477 20 0 15.523 0 10S4.477 0 10 0s10 4.477 10 10-4.477 10-10 10zm0-.952A9.048 9.048 0 1 0 10 .952a9.048 9.048 0 0 0 0 18.096zM9.394 6.075l-.008.004a.2.2 0 0 0 .026.041 2.538 2.538 0 0 1-.018-.045zm-.386.115c-.39 0-.913.592-.913 1.191 0 .636.876 2.182 1.608 2.915.734.733 2.28 1.609 2.916 1.609.6 0 1.19-.523 1.19-.913v-.432l-.115-.057-.499-.249-.024-.012-.363-.184a.173.173 0 0 0-.08-.018c-.167 0-.436.168-.685.414l-.22.217-.287-.112a3.694 3.694 0 0 1-1.279-.816 3.702 3.702 0 0 1-.815-1.278l-.113-.288.218-.22c.31-.314.467-.625.396-.763-.242-.47-.405-.79-.5-1.004h-.435zm4.886 4.409a.202.202 0 0 0 .027.016l-.015-.008-.012-.008zm-1.167-1.511c.18 0 .355.04.515.122.1.052.22.113.357.181l.023.012.494.246.225.11c.258.127.421.39.421.678v.555c0 .944-1.042 1.865-2.143 1.865-.94 0-2.694-.993-3.589-1.887-.894-.895-1.887-2.648-1.887-3.589 0-1.101.92-2.143 1.865-2.143h.556a.754.754 0 0 1 .691.452l.04.082.139.28c.137.275.26.522.356.707.287.56.09 1.107-.344 1.625.124.248.286.487.485.686.198.2.438.36.687.484.345-.285.711-.466 1.11-.466zm-8.917-.04a7.15 7.15 0 0 1 7.142-7.143 7.15 7.15 0 0 1 7.143 7.143 7.15 7.15 0 0 1-7.143 7.142 7.108 7.108 0 0 1-3.57-.96l-2.562.916a.756.756 0 0 1-.96-.98l.95-2.471a7.113 7.113 0 0 1-1-3.647zm3.68 5.133l.196.121c.983.613 2.11.936 3.266.936a6.198 6.198 0 0 0 6.19-6.19 6.198 6.198 0 0 0-6.19-6.19 6.198 6.198 0 0 0-6.19 6.19 6.16 6.16 0 0 0 .978 3.34l.13.203-.086.225-.88 2.288 2.587-.923z"/>
    </defs>
    <g fill="none" fill-rule="evenodd" transform="translate(2 2)">
        <mask id="b" fill="#fff">
            <use xlink:href="#a"/>
        </mask>
        <use fill="#000" fill-rule="nonzero" xlink:href="#a"/>
        <g mask="url(#b)">
            <path fill="#FFFFFF" d="M-2-2h24v24H-2z"/>
        </g>
    </g>
</svg>
