<?xml version="1.0" encoding="utf-8"?>
<!-- Generator: Adobe Illustrator 16.2.0, SVG Export Plug-In . SVG Version: 6.00 Build 0)  -->
<!DOCTYPE svg PUBLIC "-//W3C//DTD SVG 1.1//EN" "http://www.w3.org/Graphics/SVG/1.1/DTD/svg11.dtd">
<svg version="1.1" id="Слой_1" xmlns="http://www.w3.org/2000/svg" xmlns:xlink="http://www.w3.org/1999/xlink" x="0px" y="0px"
	 width="24px" height="24px" viewBox="0 0 24 24" enable-background="new 0 0 24 24" xml:space="preserve">
<g>
	<path fill="none" d="M2,2h20v19.557H2V2z"/>
	<g transform="translate(2 2)">
		<g>
			<path id="a_1_" fill="#ED1C24" d="M10,18.782c4.977,0,9-3.935,9-8.778c0-4.842-4.023-8.777-9-8.777c-4.976,0-9,3.935-9,8.777
				C1,14.848,5.024,18.782,10,18.782z M10,19.782c-5.523,0-10-4.378-10-9.778c0-5.4,4.477-9.777,10-9.777c5.523,0,10,4.377,10,9.777
				C20,15.404,15.523,19.782,10,19.782z M7.239,12.452l0.007-1.8l0.345-0.004l0.343-0.004L7.93,10.366l-0.004-0.277l-0.993-0.004
				L5.94,10.081v0.562l0.336,0.006l0.336,0.004l0.004,1.785c0.002,0.981,0.007,1.793,0.01,1.805
				c0.006,0.014,0.076,0.018,0.306,0.015l0.3-0.004L7.239,12.452L7.239,12.452z M12.968,12.325
				c-0.007-0.171,0.001-0.343,0.024-0.513c0.044-0.142,0.136-0.209,0.281-0.209c0.121,0,0.199,0.045,0.25,0.147
				c0.033,0.065,0.037,0.093,0.041,0.334l0.006,0.263h-0.297C13.018,12.348,12.977,12.345,12.968,12.325z M13.521,14.266
				c0.275-0.066,0.494-0.277,0.567-0.551c0.013-0.046,0.028-0.18,0.033-0.296l0.008-0.211h-0.56l-0.006,0.188
				c-0.008,0.215-0.031,0.289-0.11,0.357c-0.086,0.073-0.242,0.079-0.343,0.012c-0.121-0.08-0.15-0.216-0.146-0.654l0.005-0.312
				l0.579-0.003l0.58-0.004l-0.008-0.463c-0.011-0.518-0.021-0.596-0.108-0.779c-0.17-0.347-0.637-0.523-1.025-0.384
				c-0.293,0.104-0.465,0.294-0.534,0.586c-0.024,0.103-0.027,0.195-0.027,0.951c0,0.927,0.003,0.965,0.101,1.155
				C12.699,14.195,13.13,14.373,13.521,14.266z M11.229,13.736c0.037-0.025,0.063-0.063,0.076-0.106
				c0.023-0.067,0.026-0.153,0.022-0.948c-0.003-0.828-0.005-0.877-0.032-0.932c-0.07-0.139-0.247-0.152-0.408-0.03l-0.054,0.04
				v1.889l0.054,0.039C11.006,13.777,11.137,13.796,11.229,13.736L11.229,13.736z M11.578,14.271
				c0.107-0.045,0.195-0.127,0.242-0.233c0.093-0.2,0.093-0.205,0.093-1.334c0-0.927-0.003-1.04-0.026-1.142
				c-0.076-0.319-0.24-0.459-0.52-0.439c-0.155,0.012-0.278,0.072-0.426,0.212c-0.039,0.04-0.082,0.077-0.127,0.11
				c-0.006,0-0.01-0.307-0.01-0.682v-0.683h-0.546v4.179h0.544v-0.14c0-0.095,0.006-0.142,0.018-0.142
				c0.009,0,0.07,0.049,0.136,0.109C11.167,14.284,11.35,14.338,11.578,14.271z M8.685,14.257c0.108-0.04,0.236-0.126,0.343-0.233
				c0.05-0.049,0.099-0.09,0.11-0.09c0.014,0,0.02,0.041,0.02,0.164v0.162H9.7v-3.097H9.156v2.389l-0.117,0.114
				c-0.093,0.09-0.132,0.118-0.19,0.134c-0.096,0.026-0.158,0.009-0.198-0.06c-0.03-0.051-0.031-0.073-0.035-1.314l-0.004-1.263
				H8.07v1.341c0,1.461,0.001,1.493,0.084,1.635C8.246,14.292,8.459,14.34,8.685,14.257L8.685,14.257z M8.915,15.549
				c-0.31-0.004-0.619-0.012-0.928-0.02c-1.06-0.038-1.788-0.078-1.933-0.107c-0.222-0.05-0.423-0.169-0.573-0.34
				c-0.215-0.26-0.33-0.575-0.386-1.061c-0.13-1.125-0.126-2.438,0.008-3.525c0.059-0.476,0.205-0.82,0.45-1.06
				c0.124-0.128,0.282-0.218,0.455-0.259c0.39-0.097,3.434-0.175,5.286-0.135c1.069,0.024,2.226,0.072,2.533,0.106
				c0.397,0.045,0.676,0.247,0.87,0.63c0.145,0.289,0.191,0.514,0.251,1.207c0.046,0.551,0.058,0.893,0.05,1.526
				c-0.01,0.759-0.061,1.427-0.133,1.802c-0.078,0.396-0.262,0.734-0.5,0.918c-0.182,0.142-0.377,0.205-0.686,0.222l-0.257,0.016
				c-0.177,0.015-1.125,0.052-1.646,0.065C11.004,15.555,9.651,15.563,8.915,15.549z M7.961,8.667
				c-0.013-0.02-0.01-1.24,0.002-1.412C7.98,7.033,7.943,6.859,7.78,6.414C7.707,6.208,7.637,6,7.57,5.792
				C7.112,4.363,7.136,4.447,7.18,4.446c0.302-0.002,0.674,0,0.678,0.004c0.003,0.003,0.1,0.351,0.218,0.775l0.217,0.784
				c0.002,0.007,0.07-0.24,0.152-0.549c0.171-0.647,0.267-1.005,0.27-1.008c0.008-0.007,0.093-0.008,0.371-0.007l0.308,0.002
				L9.387,4.495c-0.006,0.04-0.216,0.73-0.435,1.433L8.816,6.373c-0.05,0.167-0.112,0.365-0.137,0.44L8.635,6.952V7.81
				c0,0.804-0.002,0.858-0.026,0.865C8.554,8.69,7.971,8.683,7.961,8.667z M11.936,8.719c-0.152-0.02-0.24-0.078-0.302-0.196
				c-0.075-0.148-0.075-0.147-0.075-1.624V5.52h0.611l0.006,1.27c0.008,1.38,0.006,1.348,0.09,1.369
				c0.077,0.018,0.164-0.022,0.27-0.129l0.102-0.103l0.004-1.204l0.004-1.204l0.307-0.004l0.306-0.004v3.154l-0.042,0.009
				c-0.05,0.01-0.514,0.01-0.551-0.001c-0.023-0.006-0.027-0.027-0.027-0.15V8.381L12.55,8.464
				C12.35,8.654,12.135,8.744,11.936,8.719L11.936,8.719z M10.393,8.116c0.105-0.078,0.106-0.085,0.111-0.971
				c0.005-0.69,0.002-0.807-0.019-0.9c-0.029-0.128-0.079-0.188-0.178-0.214c-0.127-0.033-0.243,0.038-0.284,0.175
				c-0.031,0.105-0.03,1.668,0,1.773c0.024,0.079,0.1,0.165,0.156,0.177C10.253,8.171,10.33,8.157,10.393,8.116z M10.153,8.718
				c-0.274-0.033-0.526-0.19-0.647-0.407c-0.123-0.22-0.135-0.334-0.127-1.303c0.005-0.75,0.007-0.796,0.038-0.904
				C9.472,5.87,9.629,5.673,9.846,5.568c0.288-0.145,0.631-0.125,0.9,0.053c0.179,0.114,0.287,0.278,0.345,0.523
				c0.026,0.107,0.029,0.19,0.029,0.948c0,0.92-0.005,0.974-0.101,1.173c-0.109,0.205-0.297,0.357-0.521,0.421
				C10.386,8.714,10.269,8.725,10.153,8.718z"/>
		</g>
	</g>
</g>
</svg>
