<svg xmlns="http://www.w3.org/2000/svg" xmlns:xlink="http://www.w3.org/1999/xlink" width="24" height="24" viewBox="0 0 24 24">
    <defs>
        <path id="a" d="M10 18.782c4.976 0 9-3.935 9-8.778 0-4.842-4.024-8.777-9-8.777s-9 3.935-9 8.777c0 4.843 4.024 8.778 9 8.778zm0 1c-5.523 0-10-4.378-10-9.778S4.477.227 10 .227s10 4.377 10 9.777c0 5.4-4.477 9.778-10 9.778zm-2.761-7.33l.007-1.8.345-.004.343-.004-.004-.278-.004-.277-.993-.004-.993-.004v.562l.336.005.336.004.004 1.785c.002.982.007 1.794.01 1.805.006.014.076.018.306.015l.3-.004.007-1.8zm5.729-.127a2.782 2.782 0 0 1 .024-.512c.044-.142.136-.21.282-.21.12 0 .198.045.25.148.032.065.036.093.04.334l.006.263h-.297c-.255 0-.297-.003-.305-.023zm.554 1.94a.773.773 0 0 0 .567-.55c.013-.046.028-.18.033-.296l.008-.211h-.56l-.006.189c-.008.215-.031.289-.11.357-.086.073-.242.079-.343.012-.121-.08-.15-.216-.145-.654l.005-.312.579-.003.58-.004-.008-.463c-.01-.517-.02-.595-.109-.779-.169-.347-.636-.523-1.024-.384-.293.105-.465.294-.535.586-.024.103-.027.195-.027.951 0 .927.003.965.1 1.155.172.337.603.514.995.406zm-2.294-.528a.2.2 0 0 0 .077-.107c.023-.068.026-.153.022-.948-.003-.829-.005-.877-.032-.932-.07-.138-.247-.152-.408-.03l-.054.04V13.648l.053.04c.12.09.251.108.342.048zm.35.534a.455.455 0 0 0 .243-.233c.092-.2.092-.205.092-1.334 0-.927-.003-1.04-.026-1.141-.076-.32-.241-.46-.52-.44-.155.012-.278.072-.425.212a1.01 1.01 0 0 1-.128.11c-.006 0-.01-.307-.01-.682v-.682h-.545v4.179h.544v-.14c0-.094.006-.142.017-.142.009 0 .07.05.136.11.211.196.394.25.622.183zm-2.893-.014c.108-.04.236-.126.343-.233.05-.05.099-.09.11-.09.014 0 .02.04.02.163v.163H9.7v-3.097h-.544V13.552l-.117.114c-.093.09-.132.118-.19.134-.096.026-.158.008-.198-.06-.03-.05-.031-.073-.035-1.314l-.004-1.263H8.07v1.341c0 1.461.001 1.493.084 1.634.092.154.305.202.53.12zm.23 1.292a68.504 68.504 0 0 1-.928-.02c-1.06-.038-1.788-.078-1.933-.107a1.076 1.076 0 0 1-.573-.34c-.215-.26-.33-.575-.386-1.06-.13-1.125-.126-2.439.008-3.526.059-.476.205-.82.45-1.06a.935.935 0 0 1 .455-.259c.39-.097 3.434-.175 5.286-.135 1.07.024 2.226.072 2.533.106.397.045.676.247.87.63.145.289.192.514.251 1.207.046.55.058.892.05 1.526-.01.758-.06 1.427-.133 1.802-.078.396-.261.734-.5.917-.182.142-.377.205-.685.222l-.257.016c-.177.014-1.125.051-1.646.065-.773.022-2.126.029-2.862.016zm-.954-6.882c-.013-.02-.01-1.24.002-1.412.017-.222-.02-.396-.183-.841a20.83 20.83 0 0 1-.21-.622c-.458-1.429-.434-1.345-.39-1.346.302-.002.674 0 .678.004.003.003.1.351.218.775l.217.784c.002.007.07-.24.152-.549.171-.647.267-1.005.27-1.008.008-.007.093-.008.371-.007l.308.002-.007.048c-.006.04-.216.73-.435 1.433l-.136.445c-.05.167-.112.365-.137.44l-.044.139v.858c0 .804-.002.858-.026.865-.055.015-.638.008-.648-.008zm3.974.052c-.152-.02-.24-.078-.301-.196-.076-.148-.076-.147-.076-1.624V5.52h.612l.006 1.27c.007 1.38.005 1.348.09 1.369.077.018.163-.022.269-.129l.102-.102.004-1.204.004-1.204.306-.004.306-.004v3.154l-.042.009c-.05.01-.514.01-.551-.001-.023-.006-.027-.027-.027-.15v-.143l-.087.083c-.2.19-.415.28-.615.254zm-1.542-.603c.105-.078.106-.085.111-.971.005-.69.002-.807-.019-.9-.029-.128-.079-.188-.178-.214-.127-.033-.243.038-.284.175-.031.105-.03 1.668 0 1.773.024.079.1.165.156.177a.29.29 0 0 0 .214-.04zm-.24.602c-.274-.033-.526-.19-.647-.407-.123-.22-.135-.334-.127-1.303.005-.75.007-.796.038-.904a.797.797 0 0 1 .429-.536.898.898 0 0 1 .9.053c.179.114.287.278.345.523.026.107.029.19.029.948 0 .92-.005.974-.101 1.173a.853.853 0 0 1-.52.421 1.179 1.179 0 0 1-.346.032z"/>
    </defs>
    <g fill="none" fill-rule="evenodd">
        <path d="M2 2h20v19.556H2z"/>
        <g transform="translate(2 2)">
            <mask id="b" fill="#fff">
                <use xlink:href="#a"/>
            </mask>
            <use fill="#000" fill-rule="nonzero" xlink:href="#a"/>
            <g mask="url(#b)">
                <path fill="#FFFFFF" d="M-2-2h24v24H-2z"/>
            </g>
        </g>
    </g>
</svg>
