<svg xmlns="http://www.w3.org/2000/svg" width="180" height="120" viewBox="0 0 180 120">
    <g fill="none" fill-rule="evenodd">
        <path fill-rule="nonzero" stroke="#F2F2F2" d="M.5.5h179v119H.5z" opacity=".2"/>
        <g fill="#F2F2F2">
            <path d="M52.348 85.691c0-.65-.133-1.129-.403-1.426-.268-.3-.867-.449-1.796-.449H48.17c-.86 0-1.436.166-1.723.49-.29.323-.432.787-.432 1.385v2.697c0 .6.141 1.061.432 1.39.287.328.863.49 1.723.49h1.98c.928 0 1.519-.15 1.777-.448.25-.301.392-.767.421-1.409v-2.72zm2.665 6.39c-.581.59-1.657.878-3.231.878h-5.164c-1.563 0-2.646-.279-3.245-.847-.613-.563-.918-1.415-.918-2.56v-5.024c0-1.146.305-1.992.918-2.563.6-.563 1.682-.846 3.245-.846h5.164c1.574 0 2.65.292 3.23.878.582.586.866 1.428.866 2.53v5.024c0 1.108-.284 1.945-.865 2.53zM70.485 92.082c-.575.59-1.653.877-3.225.877h-5.163c-1.563 0-2.647-.28-3.251-.848-.61-.563-.91-1.414-.91-2.56v-5.023c0-1.147.3-1.992.91-2.563.604-.563 1.688-.846 3.251-.846h5.163c1.572 0 2.65.291 3.225.877.581.587.872 1.43.872 2.532v1.163h-3.536c0-.65-.134-1.129-.404-1.423-.268-.303-.866-.452-1.793-.452h-1.978c-.86 0-1.436.166-1.727.49-.284.323-.432.79-.432 1.385v2.696c0 .601.148 1.062.432 1.391.291.324.867.49 1.727.49h1.978c.927 0 1.525-.152 1.793-.452.27-.297.404-.775.404-1.429h3.536v1.164c0 1.108-.29 1.945-.872 2.53M83.282 81.12v4.53h-6.337v-4.53h-3.51l-.02 3.409v5.023l.02 3.408h3.51v-4.612h6.337v4.612h3.55V81.12h-3.55M93.431 88.348h-1.008c.012.624.163 1.102.453 1.431.291.324.863.49 1.727.49h7.71v2.691h-9.262c-1.563 0-2.65-.28-3.252-.848-.604-.562-.906-1.417-.906-2.563v-5.02c0-1.143.302-1.992.906-2.563.602-.563 1.689-.846 3.252-.846h9.262v2.694h-7.71c-.864 0-1.436.17-1.727.493-.29.323-.441.77-.453 1.34h9.89v2.7h-8.882M133.848 81.12h-9.242v2.7h4.847v9.14h3.51v-9.14h5.044v-2.7h-4.159M107.761 87.062c0-1.476 1.227-1.321 1.227-1.321h3.562v2.505h-3.589s-1.2.046-1.2-1.184zm11.87 1.184h-3.589v-2.505h3.562s1.224-.155 1.224 1.32c0 1.231-1.198 1.185-1.198 1.185zm1.868-5.003h-5.457v-2.164h-3.48v2.164h-5.585s-3.173.095-3.173 3.714c0 3.621 3.26 3.648 3.26 3.648h5.497v2.344h3.481v-2.344h5.37s3.26-.027 3.26-3.648c0-3.619-3.173-3.714-3.173-3.714zM35.717 86.183h-5.204v-2.367h5.204c.65 0 1.177.53 1.177 1.184a1.18 1.18 0 0 1-1.177 1.183zm3.818-4.187c-.581-.586-1.657-.877-3.228-.877H27v11.843h3.513v-4.085h5.794c1.571 0 2.647-.291 3.228-.874.578-.586.866-1.435.866-2.534v-.941c0-1.1-.288-1.945-.866-2.532zM149.476 89.084c0 .65-.53 1.181-1.177 1.181h-5.204v-2.368h5.204c.648 0 1.177.528 1.177 1.187zm3.506.47v-.943c0-1.101-.29-1.947-.865-2.536-.582-.58-1.656-.872-3.234-.872h-5.788l-.002-4.085h-3.51v11.84h9.3c1.578 0 2.652-.288 3.234-.874.575-.589.865-1.431.865-2.53z"/>
            <g>
                <path d="M82.178 71.867h4.617v-23.15h-4.617zM87.646 71.867h4.62V43.94h-4.62zM93.12 71.867h4.614v-23.15H93.12zM75.847 49.628L71.233 45.5V33.633h4.614v15.995M81.321 54.79l-4.62-4.56V28.39h4.62V54.79M82.178 47.996h4.617V23.231h-4.617zM87.646 42.923h4.62V18.07h-4.62zM104.063 49.628l4.614-4.128V33.633h-4.614v15.995M98.588 54.79l4.617-4.56V28.39h-4.617V54.79M93.12 47.996h4.614V23.231H93.12z"/>
            </g>
        </g>
    </g>
</svg>
