<svg xmlns="http://www.w3.org/2000/svg" width="180" height="120" viewBox="0 0 180 120">
    <g fill="none" fill-rule="evenodd">
        <path fill-rule="nonzero" stroke="#F2F2F2" d="M.5.5h179v119H.5z" opacity=".2"/>
        <g fill="#F2F2F2">
            <path d="M94.252 61.246h4.922l8.814 6.657v-6.657h4.049V74.37h-4.253l-9.57-7.227v7.227h-3.962V61.246zm-74.197 5.21C9.02 50.763 31.78 49.147 27.187 35c11.197 16.548-9.732 15.112-7.132 31.457zm100.974.084h7.638v2.509h-7.638v2.785h10.299v2.509h-10.3v.026h-6.07V61.246h16.37v2.509h-10.3v2.785zm18.986.24h6.48v2.51h-6.48v5.08h-6.071V61.245h29.828v2.509h-5.011v10.614h-6.072V63.755h-12.674v3.026zM42.414 61.246h16.094v2.509h-5.012v10.614h-6.07V63.755h-5.012v-2.509zm-16.23 13.51c-11.037-15.696 11.723-17.312 7.13-31.457 11.198 16.548-9.73 15.111-7.13 31.456zm60.718-11.001v10.614h-6.07V63.755H75.82v-2.509h16.093v2.509h-5.01zm-23.946 5.982h5.79l-2.89-5.417-2.9 5.417zm7.13 2.51h-8.473l-1.137 2.122h-3.678l7.026-13.123h6.464l7.001 13.123h-6.071l-1.133-2.123z"/>
        </g>
    </g>
</svg>
