<svg xmlns="http://www.w3.org/2000/svg" width="130" height="26" viewBox="0 0 130 26">
    <g fill="none" fill-rule="evenodd">
        <path d="M0-26h130v77H0z"/>
        <g fill="#F2F2F2" fill-rule="nonzero">
            <path d="M51.815 11.285v1.432c.137-.277 1.007-1.755 2.792-1.755h.55v2.448h-.55c-1.602 0-2.517 1.202-2.517 2.68v5.498h-2.885V11.285h2.61zM81.665 16.32c0-1.57-1.282-2.817-2.885-2.817-1.556 0-2.838 1.201-2.838 2.726a2.819 2.819 0 0 0 2.838 2.91h2.885v-2.818zm.229-3.787v-1.248h2.61v13.999h-2.885v-3.65h-2.976c-3.022 0-5.402-2.402-5.402-5.359 0-3.05 2.472-5.359 5.219-5.359 2.29 0 3.434 1.617 3.434 1.617zM46.321 11.285v10.349h-2.884V11.285h2.884zm0-3.834v2.495h-2.884V7.45h2.884zM35.516 9.945c-1.831 0-3.342 1.433-3.342 3.188v1.479h5.174V9.945h-1.832zm1.877 11.689v-4.712H32.22v4.666h-2.93v-8.224c0-3.28 2.793-5.913 6.226-5.913h4.762v14.137h-2.885v.046zM71.227 7.45v2.496h-2.885V7.45h2.885zm0 3.835v10.349h-2.885V11.285h2.885zM103.09 7.45v2.496h-2.883V7.45h2.884zm0 3.835v10.349h-2.883V11.285h2.884zM87.067 11.285h2.884v5.775c0 1.571 1.145 2.403 2.29 2.403 1.098 0 2.335-.74 2.335-2.403v-5.775h2.884v10.349h-2.655v-1.247l-.046.046c-.824.97-2.015 1.524-3.388 1.524-2.198 0-4.304-1.848-4.304-4.481v-6.19zM62.665 7.45v11.69h3.754v2.494h-6.638V7.45zM113.53 16.598c0 1.571-1.283 2.819-2.885 2.819-1.557 0-2.793-1.202-2.839-2.726a2.819 2.819 0 0 1 2.839-2.911h2.884v2.818zm.274 3.743v1.247h2.61V7.45h-2.885v3.788h-2.976c-3.021 0-5.402 2.403-5.402 5.36 0 3.049 2.472 5.358 5.219 5.358 2.244 0 3.434-1.616 3.434-1.616zM121.22 15.49h5.86c-.411-1.294-1.373-2.172-2.838-2.172s-2.564.924-3.021 2.172zm3.068 6.467c-3.205 0-5.814-2.448-5.814-5.497 0-3.05 2.61-5.498 5.814-5.498 3.205 0 5.585 2.448 5.585 5.498 0 .277 0 .6-.046.924h-8.607c.413 1.293 1.557 2.217 3.022 2.217 1.373 0 2.198-.416 2.884-1.247l2.06 1.34c-1.098 1.386-2.792 2.263-4.898 2.263zM12.488.244H.08v12.52c0 6.93 5.54 12.52 12.407 12.52s12.407-5.59 12.407-12.52c0-6.884-5.54-12.52-12.407-12.52zm8.79 21.39h-8.79c-4.853 0-8.79-3.973-8.79-8.87 0-4.898 3.937-8.87 8.79-8.87s8.79 3.972 8.79 8.87v8.87zM12.488 7.45c2.884 0 5.265 2.356 5.265 5.313v5.267h-5.265c-2.885 0-5.265-2.357-5.265-5.314 0-2.864 2.38-5.266 5.265-5.266z"/>
        </g>
    </g>
</svg>
