<svg xmlns="http://www.w3.org/2000/svg" width="280" height="280" viewBox="0 0 280 280">
    <g fill="none" fill-rule="nonzero">
        <path fill="#FFF" d="M0 0h280v280H0z"/>
        <path fill="#F04100" d="M30 30h64v64H30V30zm2 2v60h60V32H32z"/>
        <path fill="#212121" d="M54 44h2.75v33h-8.6V54.2l-5.6 1.85-2.05-7.6L54 44zm9.25 16.25c0-5.033 1.192-9.1 3.575-12.2 2.383-3.1 5.758-4.65 10.125-4.65s7.742 1.55 10.125 4.65c2.383 3.1 3.575 7.167 3.575 12.2 0 5.1-1.2 9.267-3.6 12.5-2.4 3.233-5.767 4.85-10.1 4.85-4.333 0-7.7-1.617-10.1-4.85-2.4-3.233-3.6-7.4-3.6-12.5zm18.6.05c0-3.1-.4-5.375-1.2-6.825-.8-1.45-2.033-2.175-3.7-2.175-1.667 0-2.9.725-3.7 2.175-.8 1.45-1.2 3.725-1.2 6.825 0 6.267 1.633 9.4 4.9 9.4 3.267 0 4.9-3.133 4.9-9.4zm13.8-.05c0-5.033 1.192-9.1 3.575-12.2 2.383-3.1 5.758-4.65 10.125-4.65s7.742 1.55 10.125 4.65c2.383 3.1 3.575 7.167 3.575 12.2 0 5.1-1.2 9.267-3.6 12.5-2.4 3.233-5.767 4.85-10.1 4.85-4.333 0-7.7-1.617-10.1-4.85-2.4-3.233-3.6-7.4-3.6-12.5zm18.6.05c0-3.1-.4-5.375-1.2-6.825-.8-1.45-2.033-2.175-3.7-2.175-1.667 0-2.9.725-3.7 2.175-.8 1.45-1.2 3.725-1.2 6.825 0 6.267 1.633 9.4 4.9 9.4 3.267 0 4.9-3.133 4.9-9.4zm21.3 12.5v-8.4h-8.15v-7.2h8.15v-8.4h8.1v8.4h8.1v7.2h-8.1v8.4h-8.1zM43.708 128.544h1.265V144h-3.956v-7.889l-8.234 8.165h-1.265V128.82h3.956v7.797l8.234-8.073zm3.519 7.866c-.03-2.177.767-4.044 2.392-5.6 1.625-1.557 3.565-2.312 5.819-2.266 1.518 0 2.883.356 4.094 1.07 1.211.713 2.162 1.713 2.852 3.001l-3.013 2.047c-.981-1.656-2.3-2.484-3.956-2.484-1.211 0-2.204.391-2.979 1.173-.774.782-1.161 1.81-1.161 3.082 0 1.242.383 2.262 1.15 3.059.797.767 1.794 1.15 2.99 1.15 1.656 0 2.975-.828 3.956-2.484l3.013 2.047c-.69 1.288-1.64 2.288-2.852 3.002-1.211.713-2.584 1.069-4.117 1.069-2.239.03-4.174-.728-5.808-2.277-1.633-1.549-2.426-3.412-2.38-5.589zM64.638 144v-15.18h13.225V144h-3.956v-11.615h-5.313V144h-3.956zm16.261 0v-15.18h3.956v4.715h2.392c1.671 0 3.067.49 4.186 1.472 1.12.981 1.679 2.239 1.679 3.772 0 1.564-.552 2.825-1.656 3.783-1.104.959-2.507 1.438-4.209 1.438h-6.348zm3.956-3.45h2.415c.552 0 .993-.161 1.322-.483.33-.322.495-.751.495-1.288s-.165-.97-.495-1.3c-.33-.33-.77-.494-1.322-.494h-2.415v3.565zM95.113 144v-15.18h3.956V144h-3.956zm10.258 0v-11.615h-4.554v-3.565h13.064v3.565h-4.554V144h-3.956zm19.596 0l-.552-1.265h-5.451l-.552 1.265h-4.255l6.9-15.456h1.265l6.9 15.456h-4.255zm-1.955-4.439l-1.311-3.519-1.334 3.519h2.645zm7.774 4.439v-15.18h3.956v5.543h5.543v-5.543h3.956V144h-3.956v-6.072h-5.543V144h-3.956zm28.681-15.456h1.265V144h-3.956v-7.889l-8.234 8.165h-1.265V128.82h3.956v7.797l8.234-8.073zm16.491 0h1.265V144h-3.956v-7.889l-8.234 8.165h-1.265V128.82h3.956v7.797l8.234-8.073zm-8.993-5.267v-.207h3.105v.322c0 .92.391 1.38 1.173 1.38s1.173-.46 1.173-1.38v-.322h3.105v.207c0 1.257-.399 2.285-1.196 3.082-.797.797-1.825 1.196-3.082 1.196s-2.285-.399-3.082-1.196c-.797-.797-1.196-1.825-1.196-3.082zM43.731 174.492c0 1.303-.487 2.38-1.46 3.231-.974.852-2.197 1.277-3.669 1.277h-7.084v-15.18h5.474c1.472 0 2.695.418 3.669 1.253.973.836 1.46 1.913 1.46 3.232 0 1.027-.307 1.878-.92 2.553 1.687.69 2.53 1.901 2.53 3.634zm-6.992-7.337h-1.426v2.668h1.426c.475 0 .847-.123 1.115-.368.269-.245.403-.567.403-.966s-.134-.72-.403-.966c-.268-.245-.64-.368-1.115-.368zm1.61 8.51c1.012 0 1.518-.445 1.518-1.334 0-.89-.506-1.334-1.518-1.334h-3.036v2.668h3.036zm28.152-12.121h1.265V179H63.81v-6.371l-3.151 3.68h-1.265l-3.128-3.657V179H52.31v-15.456h1.265l6.463 7.889 6.463-7.889zM70.802 179v-15.18h10.534v3.565h-6.578v2.093h4.692v3.312h-4.692v2.645h6.854V179h-10.81zm12.489-7.59c-.03-2.177.767-4.044 2.392-5.6 1.625-1.557 3.565-2.312 5.819-2.266 1.518 0 2.883.356 4.094 1.07 1.211.713 2.162 1.713 2.852 3.001l-3.013 2.047c-.981-1.656-2.3-2.484-3.956-2.484-1.211 0-2.204.391-2.978 1.173-.775.782-1.162 1.81-1.162 3.082 0 1.242.383 2.262 1.15 3.059.797.767 1.794 1.15 2.99 1.15 1.656 0 2.975-.828 3.956-2.484l3.013 2.047c-.69 1.288-1.64 2.288-2.852 3.001-1.211.714-2.584 1.07-4.117 1.07-2.239.03-4.174-.728-5.807-2.277-1.634-1.549-2.427-3.412-2.381-5.589zm23.552-7.59h5.543V179h-3.956v-4.462h-1.288L104.06 179h-4.186l3.588-5.198c-.92-.46-1.633-1.096-2.139-1.909-.506-.813-.759-1.725-.759-2.737 0-1.564.583-2.844 1.748-3.841 1.165-.997 2.676-1.495 4.531-1.495zm1.587 7.268v-3.818h-1.748c-.613 0-1.115.176-1.507.529-.39.353-.586.813-.586 1.38s.195 1.027.587 1.38c.39.353.893.529 1.506.529h1.748zm18.4 11.155V179h-11.408v-15.18h3.956v11.615h5.083V163.82h3.956v11.615h2.139v6.808h-3.726z"/>
    </g>
</svg>
