<svg xmlns="http://www.w3.org/2000/svg" width="129" height="115" viewBox="0 0 129 115">
    <g fill="#FFF" fill-rule="nonzero">
        <path d="M0 0h64v64H0V0zm2 2v60h60V2H2z"/>
        <path d="M35.85 36c0 3.3-1.242 6.058-3.725 8.275-2.483 2.217-5.542 3.325-9.175 3.325-2.833 0-5.35-.7-7.55-2.1-2.2-1.4-3.867-3.333-5-5.8l5.95-4.2c1 1.5 1.975 2.575 2.925 3.225.95.65 2.058.975 3.325.975 1.333 0 2.408-.325 3.225-.975.817-.65 1.225-1.542 1.225-2.675 0-2.267-1.9-3.4-5.7-3.4h-4.7v-2.2l5.85-8.7h-9.4V14h22.25v2.25L28.8 26c2.1.8 3.8 2.083 5.1 3.85 1.3 1.767 1.95 3.817 1.95 6.15zm4.5-5.75c0-5.033 1.192-9.1 3.575-12.2 2.383-3.1 5.758-4.65 10.125-4.65s7.742 1.55 10.125 4.65c2.383 3.1 3.575 7.167 3.575 12.2 0 5.1-1.2 9.267-3.6 12.5-2.4 3.233-5.767 4.85-10.1 4.85-4.333 0-7.7-1.617-10.1-4.85-2.4-3.233-3.6-7.4-3.6-12.5zm18.6.05c0-3.1-.4-5.375-1.2-6.825-.8-1.45-2.033-2.175-3.7-2.175-1.667 0-2.9.725-3.7 2.175-.8 1.45-1.2 3.725-1.2 6.825 0 6.267 1.633 9.4 4.9 9.4 3.267 0 4.9-3.133 4.9-9.4zm13.8-.05c0-5.033 1.192-9.1 3.575-12.2 2.383-3.1 5.758-4.65 10.125-4.65s7.742 1.55 10.125 4.65c2.383 3.1 3.575 7.167 3.575 12.2 0 5.1-1.2 9.267-3.6 12.5-2.4 3.233-5.767 4.85-10.1 4.85-4.333 0-7.7-1.617-10.1-4.85-2.4-3.233-3.6-7.4-3.6-12.5zm18.6.05c0-3.1-.4-5.375-1.2-6.825-.8-1.45-2.033-2.175-3.7-2.175-1.667 0-2.9.725-3.7 2.175-.8 1.45-1.2 3.725-1.2 6.825 0 6.267 1.633 9.4 4.9 9.4 3.267 0 4.9-3.133 4.9-9.4zm21.3 12.5v-8.4h-8.15v-7.2h8.15v-8.4h8.1v8.4h8.1v7.2h-8.1v8.4h-8.1zM1.518 114V98.82h13.225V114h-3.956v-11.615H5.474V114H1.518zm16.261 0V98.82h5.957c1.702 0 3.105.48 4.209 1.438 1.104.958 1.656 2.219 1.656 3.783 0 1.533-.56 2.79-1.679 3.772-1.12.981-2.515 1.472-4.186 1.472h-2.001V114h-3.956zm3.956-8.165h2.024c.552 0 .993-.165 1.322-.494.33-.33.495-.763.495-1.3s-.165-.966-.495-1.288c-.33-.322-.77-.483-1.322-.483h-2.024v3.565zm9.223.575c-.046-2.162.747-4.025 2.38-5.589 1.634-1.564 3.562-2.323 5.785-2.277 2.223-.046 4.16.713 5.808 2.277 1.648 1.564 2.449 3.427 2.403 5.589.046 2.177-.755 4.04-2.404 5.589-1.648 1.549-3.584 2.308-5.807 2.277-2.239.03-4.17-.728-5.796-2.277-1.625-1.549-2.415-3.412-2.369-5.589zm12.328 0c0-1.242-.395-2.258-1.184-3.047-.79-.79-1.775-1.185-2.956-1.185-1.227 0-2.223.391-2.99 1.173-.767.782-1.15 1.802-1.15 3.059 0 1.257.383 2.285 1.15 3.082.767.767 1.763 1.15 2.99 1.15 1.196 0 2.185-.391 2.967-1.173s1.173-1.802 1.173-3.059zm6.302 7.59V98.82h10.534v3.565h-6.578v2.093h4.692v3.312h-4.692v2.645h6.854V114h-10.81zm27.692 0h-4.692l-5.773-7.567V114h-3.956V98.82h3.956v6.877l5.014-6.877h4.6l-5.221 7.222L77.28 114zm4.83 0v-11.615h-4.554V98.82H90.62v3.565h-4.554V114H82.11zm9.476-7.59c-.046-2.162.747-4.025 2.38-5.589 1.634-1.564 3.562-2.323 5.785-2.277 2.223-.046 4.16.713 5.807 2.277 1.649 1.564 2.45 3.427 2.404 5.589.046 2.177-.755 4.04-2.404 5.589-1.648 1.549-3.584 2.308-5.807 2.277-2.239.03-4.17-.728-5.796-2.277-1.625-1.549-2.415-3.412-2.369-5.589zm12.328 0c0-1.242-.395-2.258-1.184-3.047-.79-.79-1.775-1.185-2.956-1.185-1.227 0-2.223.391-2.99 1.173-.767.782-1.15 1.802-1.15 3.059 0 1.257.383 2.285 1.15 3.082.767.767 1.763 1.15 2.99 1.15 1.196 0 2.185-.391 2.967-1.173s1.173-1.802 1.173-3.059zm18.515 3.082c0 1.303-.487 2.38-1.46 3.231-.974.852-2.197 1.277-3.669 1.277h-7.084V98.82h5.474c1.472 0 2.695.418 3.669 1.254.973.835 1.46 1.912 1.46 3.231 0 1.027-.307 1.878-.92 2.553 1.687.69 2.53 1.901 2.53 3.634zm-6.992-7.337h-1.426v2.668h1.426c.475 0 .847-.123 1.115-.368.269-.245.403-.567.403-.966s-.134-.72-.403-.966c-.268-.245-.64-.368-1.115-.368zm1.61 8.51c1.012 0 1.518-.445 1.518-1.334 0-.89-.506-1.334-1.518-1.334h-3.036v2.668h3.036z"/>
    </g>
</svg>
