<svg xmlns="http://www.w3.org/2000/svg" width="280" height="280" viewBox="0 0 280 280">
    <g fill="none" fill-rule="nonzero">
        <path fill="#FFF" d="M0 0h280v280H0z"/>
        <path fill="#F04100" d="M30 30h64v64H30V30zm2 2v60h60V32H32z"/>
        <path fill="#212121" d="M66.5 65.9c0 3.367-1.267 6.158-3.8 8.375-2.533 2.217-5.667 3.325-9.4 3.325-2.9 0-5.475-.7-7.725-2.1-2.25-1.4-3.942-3.333-5.075-5.8l5.95-4.2c1 1.5 1.992 2.575 2.975 3.225.983.65 2.158.975 3.525.975 1.433 0 2.583-.325 3.45-.975.867-.65 1.3-1.558 1.3-2.725 0-2.233-1.9-3.35-5.7-3.35h-7.85V44H64.6v7.75H52.3v3.85c1.167-.233 2.217-.35 3.15-.35 2.867-.067 5.442.917 7.725 2.95 2.283 2.033 3.392 4.6 3.325 7.7zm4.5-5.65c0-5.033 1.192-9.1 3.575-12.2 2.383-3.1 5.758-4.65 10.125-4.65s7.742 1.55 10.125 4.65c2.383 3.1 3.575 7.167 3.575 12.2 0 5.1-1.2 9.267-3.6 12.5-2.4 3.233-5.767 4.85-10.1 4.85-4.333 0-7.7-1.617-10.1-4.85-2.4-3.233-3.6-7.4-3.6-12.5zm18.6.05c0-3.1-.4-5.375-1.2-6.825-.8-1.45-2.033-2.175-3.7-2.175-1.667 0-2.9.725-3.7 2.175-.8 1.45-1.2 3.725-1.2 6.825 0 6.267 1.633 9.4 4.9 9.4 3.267 0 4.9-3.133 4.9-9.4zm13.8-.05c0-5.033 1.192-9.1 3.575-12.2 2.383-3.1 5.758-4.65 10.125-4.65s7.742 1.55 10.125 4.65c2.383 3.1 3.575 7.167 3.575 12.2 0 5.1-1.2 9.267-3.6 12.5-2.4 3.233-5.767 4.85-10.1 4.85-4.333 0-7.7-1.617-10.1-4.85-2.4-3.233-3.6-7.4-3.6-12.5zm18.6.05c0-3.1-.4-5.375-1.2-6.825-.8-1.45-2.033-2.175-3.7-2.175-1.667 0-2.9.725-3.7 2.175-.8 1.45-1.2 3.725-1.2 6.825 0 6.267 1.633 9.4 4.9 9.4 3.267 0 4.9-3.133 4.9-9.4zm21.3 12.5v-8.4h-8.15v-7.2h8.15v-8.4h8.1v8.4h8.1v7.2h-8.1v8.4h-8.1zM42.88 139.469c0 1.487-.533 2.66-1.599 3.519-1.065.859-2.533 1.288-4.404 1.288-1.41 0-2.653-.318-3.726-.954a5.98 5.98 0 0 1-2.415-2.68l2.737-1.932c.859 1.288 1.986 1.932 3.381 1.932.66 0 1.184-.119 1.576-.356.39-.238.586-.587.586-1.047 0-.383-.153-.686-.46-.908-.307-.223-.736-.334-1.288-.334h-2.139v-3.174h1.679c.506 0 .905-.119 1.196-.356.291-.238.437-.549.437-.932 0-.414-.157-.744-.472-.989-.314-.245-.732-.368-1.253-.368-1.196 0-2.124.644-2.783 1.932l-2.737-1.932c1.135-2.423 3.067-3.634 5.796-3.634 1.656 0 2.955.402 3.898 1.207.944.806 1.415 1.936 1.415 3.393 0 1.242-.46 2.239-1.38 2.99 1.303.72 1.955 1.832 1.955 3.335zM54.472 144l-.552-1.265h-5.451L47.917 144h-4.255l6.9-15.456h1.265l6.9 15.456h-4.255zm-1.955-4.439l-1.311-3.519-1.334 3.519h2.645zM74.712 144H70.02l-5.773-7.567V144h-3.956v-15.18h3.956v6.877l5.014-6.877h4.6l-5.221 7.222L74.712 144zm2.875-15.18h11.086V144h-3.956v-11.615h-3.381c-.015 3.082-.222 5.505-.621 7.268s-.943 2.967-1.633 3.611c-.69.644-1.61.981-2.76 1.012a4.673 4.673 0 0 1-1.564-.276v-3.358c.153.03.36.046.621.046.782 0 1.345-.652 1.69-1.955.346-1.303.518-3.542.518-6.716v-3.197zm35.512 7.59c.03 2.162-.759 4.025-2.369 5.589-1.61 1.564-3.504 2.323-5.681 2.277-1.932 0-3.622-.598-5.072-1.794-1.449-1.196-2.334-2.714-2.656-4.554h-1.656V144h-3.956v-15.18h3.956v5.543h1.771c.445-1.717 1.365-3.116 2.76-4.197 1.395-1.082 3.013-1.622 4.853-1.622 2.177-.046 4.075.713 5.692 2.277 1.618 1.564 2.404 3.427 2.358 5.589zm-5.198 3.059c.767-.797 1.15-1.817 1.15-3.059 0-1.242-.383-2.258-1.15-3.047-.767-.79-1.717-1.185-2.852-1.185-1.135 0-2.085.395-2.852 1.184-.767.79-1.15 1.806-1.15 3.048s.383 2.258 1.15 3.048c.767.79 1.717 1.184 2.852 1.184 1.135 0 2.085-.391 2.852-1.173zm15.778-10.649h3.956V144h-3.956v-5.267c-.874.322-1.825.483-2.852.483-1.886 0-3.37-.54-4.45-1.621-1.082-1.082-1.622-2.596-1.622-4.543v-4.232h3.956v3.841c0 .997.23 1.733.69 2.208.46.475 1.204.713 2.231.713.797 0 1.48-.107 2.047-.322v-6.44zm6.992 15.18v-15.18h10.534v3.565h-6.578v2.093h4.692v3.312h-4.692v2.645h6.854V144h-10.81zm13.271 0v-15.18h3.956v5.543h5.543v-5.543h3.956V144h-3.956v-6.072h-5.543V144h-3.956zm28.681-15.456h1.265V144h-3.956v-7.889l-8.234 8.165h-1.265V128.82h3.956v7.797l8.234-8.073zm16.491 0h1.265V144h-3.956v-7.889l-8.234 8.165h-1.265V128.82h3.956v7.797l8.234-8.073zm-8.993-5.267v-.207h3.105v.322c0 .92.391 1.38 1.173 1.38s1.173-.46 1.173-1.38v-.322h3.105v.207c0 1.257-.399 2.285-1.196 3.082-.797.797-1.825 1.196-3.082 1.196s-2.285-.399-3.082-1.196c-.797-.797-1.196-1.825-1.196-3.082zm-136.39 51.215c0 1.303-.487 2.38-1.46 3.231-.974.852-2.197 1.277-3.669 1.277h-7.084v-15.18h5.474c1.472 0 2.695.418 3.669 1.253.973.836 1.46 1.913 1.46 3.232 0 1.027-.307 1.878-.92 2.553 1.687.69 2.53 1.901 2.53 3.634zm-6.992-7.337h-1.426v2.668h1.426c.475 0 .847-.123 1.115-.368.269-.245.403-.567.403-.966s-.134-.72-.403-.966c-.268-.245-.64-.368-1.115-.368zm1.61 8.51c1.012 0 1.518-.445 1.518-1.334 0-.89-.506-1.334-1.518-1.334h-3.036v2.668h3.036zm28.152-12.121h1.265V179H63.81v-6.371l-3.151 3.68h-1.265l-3.128-3.657V179H52.31v-15.456h1.265l6.463 7.889 6.463-7.889zM70.802 179v-15.18h10.534v3.565h-6.578v2.093h4.692v3.312h-4.692v2.645h6.854V179h-10.81zm12.489-7.59c-.03-2.177.767-4.044 2.392-5.6 1.625-1.557 3.565-2.312 5.819-2.266 1.518 0 2.883.356 4.094 1.07 1.211.713 2.162 1.713 2.852 3.001l-3.013 2.047c-.981-1.656-2.3-2.484-3.956-2.484-1.211 0-2.204.391-2.978 1.173-.775.782-1.162 1.81-1.162 3.082 0 1.242.383 2.262 1.15 3.059.797.767 1.794 1.15 2.99 1.15 1.656 0 2.975-.828 3.956-2.484l3.013 2.047c-.69 1.288-1.64 2.288-2.852 3.001-1.211.714-2.584 1.07-4.117 1.07-2.239.03-4.174-.728-5.807-2.277-1.634-1.549-2.427-3.412-2.381-5.589zm23.552-7.59h5.543V179h-3.956v-4.462h-1.288L104.06 179h-4.186l3.588-5.198c-.92-.46-1.633-1.096-2.139-1.909-.506-.813-.759-1.725-.759-2.737 0-1.564.583-2.844 1.748-3.841 1.165-.997 2.676-1.495 4.531-1.495zm1.587 7.268v-3.818h-1.748c-.613 0-1.115.176-1.507.529-.39.353-.586.813-.586 1.38s.195 1.027.587 1.38c.39.353.893.529 1.506.529h1.748zm18.4 11.155V179h-11.408v-15.18h3.956v11.615h5.083V163.82h3.956v11.615h2.139v6.808h-3.726z"/>
    </g>
</svg>
