<svg xmlns="http://www.w3.org/2000/svg" width="108" height="58" viewBox="0 0 108 58">
    <g fill="none" fill-rule="nonzero">
        <g fill="#000">
            <path d="M0 42.544v-1.275c.453.024.897-.14 1.227-.452.315-.33.481-.775.457-1.23v-7.285h6.992v10.242H6.58v-8.63H3.814v5.647a3.256 3.256 0 0 1-.744 2.224 2.57 2.57 0 0 1-2.047.848A4.108 4.108 0 0 1 0 42.544zm18.84 0l-.98-2.193h-4.582l-.96 2.193H9.96l4.66-10.242h1.906l4.672 10.242H18.84zm-3.261-7.648l-1.595 3.703h3.178l-1.583-3.703zm6.91 7.648V32.302h5.936v1.612H24.61V36.4h1.271a3.636 3.636 0 0 1 2.492.835 3.12 3.12 0 0 1 0 4.461 3.636 3.636 0 0 1-2.492.829l-3.394.019zm4.34-2.059c.26-.271.395-.638.375-1.013a1.385 1.385 0 0 0-.368-1.007 1.27 1.27 0 0 0-.966-.383h-1.272v2.78h1.272c.358.015.707-.121.96-.377zm5.587.746a5.068 5.068 0 0 1-1.506-3.824 5.068 5.068 0 0 1 1.506-3.824 5.35 5.35 0 0 1 3.903-1.466 5.343 5.343 0 0 1 3.91 1.46 5.068 5.068 0 0 1 1.493 3.823 5.106 5.106 0 0 1-1.494 3.825 5.363 5.363 0 0 1-3.915 1.478 5.35 5.35 0 0 1-3.897-1.472zm1.513-6.335a3.954 3.954 0 0 0 0 5.06 3.4 3.4 0 0 0 4.78 0 3.954 3.954 0 0 0 0-5.06 3.4 3.4 0 0 0-4.78 0zm9.534 7.648V32.302h3.23a3.623 3.623 0 0 1 2.491.84 3.12 3.12 0 0 1 0 4.462 3.623 3.623 0 0 1-2.492.835h-1.125v4.092l-2.104.013zm4.208-6.157c.26-.27.399-.637.382-1.013a1.41 1.41 0 0 0-.382-1.007 1.27 1.27 0 0 0-.972-.383h-1.132v2.785h1.125c.366.02.723-.119.98-.382zm11.003 6.157l-.98-2.193h-4.576l-.997 2.193h-2.346l4.672-10.242h1.907l4.665 10.242h-2.345zm-3.261-7.648l-1.576 3.722h3.14l-1.564-3.722zm10.055-.982v8.63h-2.033v-8.63h-2.702v-1.612h7.43v1.612h-2.695zm4.99 7.317a5.062 5.062 0 0 1-1.5-3.824 5.062 5.062 0 0 1 1.5-3.824 5.956 5.956 0 0 1 7.818 0 5.106 5.106 0 0 1 1.494 3.824 5.106 5.106 0 0 1-1.494 3.824 5.975 5.975 0 0 1-7.818 0zm1.52-6.335a3.934 3.934 0 0 0 0 5.06 3.394 3.394 0 0 0 4.773 0 3.954 3.954 0 0 0 0-5.06 3.394 3.394 0 0 0-4.774 0zm9.533 7.648V32.302h3.23c.905-.04 1.794.26 2.491.84a3.12 3.12 0 0 1 0 4.462 3.636 3.636 0 0 1-2.492.835H83.61v4.092l-2.098.013zm4.19-6.157a1.558 1.558 0 0 0 0-2.02 1.27 1.27 0 0 0-.967-.383h-1.131v2.785h1.131a1.27 1.27 0 0 0 .966-.382zm11.809-4.085h1.271v10.242H96.76v-6.437l-5.562 6.437h-1.271V32.302h2.028v6.443l5.555-6.443zm9.992 0v10.242h-2.104v-4.092h-.934l-2.009 4.092h-2.3l2.376-4.302a2.988 2.988 0 0 1-1.468-1.09 2.944 2.944 0 0 1-.534-1.778 2.846 2.846 0 0 1 .947-2.231 3.636 3.636 0 0 1 2.492-.835l3.534-.006zm-4.532 2.065c-.249.274-.38.636-.362 1.007-.019.373.114.739.368 1.013.253.26.605.399.966.382h1.43v-2.785h-1.43a1.27 1.27 0 0 0-.972.383zM0 57.26V49.3h1.068v7.96H0zm4.481 0L1.1 53.163 4.24 49.3h1.353l-3.178 3.862 3.414 4.099H4.48zm3.026-1.038a4.47 4.47 0 0 1 0-5.89 3.903 3.903 0 0 1 2.904-1.128 3.903 3.903 0 0 1 2.937 1.148 4.47 4.47 0 0 1 0 5.889 3.903 3.903 0 0 1-2.93 1.122 3.916 3.916 0 0 1-2.911-1.141zm.8-5.182a3.526 3.526 0 0 0 0 4.462 2.767 2.767 0 0 0 2.104.86 2.73 2.73 0 0 0 2.098-.86 3.52 3.52 0 0 0 0-4.462 2.73 2.73 0 0 0-2.098-.86 2.774 2.774 0 0 0-2.103.86zm8.9-1.74v3.512h4.118V49.3h1.068v7.96h-1.068v-3.55h-4.119v3.55h-1.074V49.3h1.074zm10.06.899v7.062h-1.08v-7.062h-2.199V49.3h5.48v.899h-2.2zm3.815 7.062V49.3h2.243a2.411 2.411 0 0 1 1.742.637c.88.926.88 2.382 0 3.308-.475.434-1.1.662-1.742.638h-1.163v3.403l-1.08-.025zm3.54-5.68a1.347 1.347 0 0 0-.362-.98 1.225 1.225 0 0 0-.935-.37h-1.163v2.67h1.132c.348.01.686-.123.934-.37.24-.256.37-.597.362-.95h.032zm3.515 4.64a4.47 4.47 0 0 1 0-5.87 4.3 4.3 0 0 1 5.81 0 4.47 4.47 0 0 1 0 5.89 3.884 3.884 0 0 1-2.918 1.122 3.941 3.941 0 0 1-2.892-1.141zm.807-5.181a3.5 3.5 0 0 0 0 4.462 2.994 2.994 0 0 0 4.202 0 3.545 3.545 0 0 0 0-4.462 2.994 2.994 0 0 0-4.208 0h.006zm7.062 6.22v-.681c.353.019.699-.11.953-.357.245-.274.371-.634.35-1V49.3h4.977v7.96h-1.138V50.2h-2.752v4.977c.028.56-.148 1.11-.496 1.55-.324.385-.807.6-1.31.58a2.656 2.656 0 0 1-.61-.045h.026zm12.903-7.96v7.96H57.77v-3.403h-1.055l-1.722 3.404h-1.227l1.907-3.48c-.5-.098-.95-.369-1.272-.765a2.254 2.254 0 0 1-.457-1.434 2.177 2.177 0 0 1 .635-1.657 2.405 2.405 0 0 1 1.742-.638l2.587.013zm-3.814 2.282c-.015.36.113.71.356.975.248.247.586.38.935.37h1.398V50.23h-1.398a1.27 1.27 0 0 0-.935.37 1.366 1.366 0 0 0-.368.98h.012zm10.437-.542a3.48 3.48 0 0 0 0 4.462 2.818 2.818 0 0 0 2.136.86 2.9 2.9 0 0 0 2.193-.854l.692.701a4.3 4.3 0 0 1-5.822 0 4.432 4.432 0 0 1 0-5.89 4.3 4.3 0 0 1 5.822.033l-.68.694a2.888 2.888 0 0 0-2.193-.866 2.824 2.824 0 0 0-2.16.86h.012zm6.598 6.22V49.3h2.3a2.202 2.202 0 0 1 1.577.56c.42.386.65.935.636 1.505a1.856 1.856 0 0 1-.865 1.683c.386.146.715.412.94.758.236.368.356.8.344 1.237a2.113 2.113 0 0 1-.635 1.612 2.354 2.354 0 0 1-1.685.638l-2.612-.032zm3.813-2.3a1.34 1.34 0 0 0-.362-.975 1.231 1.231 0 0 0-.94-.376h-1.418v2.715h1.417c.353.015.696-.122.941-.376a1.36 1.36 0 0 0 .369-.988h-.007zm-.432-3.5a1.277 1.277 0 0 0-.318-.892 1.117 1.117 0 0 0-.858-.337h-1.112v2.453h1.144c.318.01.627-.111.852-.337.211-.245.319-.563.299-.886h-.007zm9.268 5.8l-.878-2.109h-3.756l-.903 2.11h-1.27l3.527-7.961h1.01l3.528 7.96h-1.258zm-2.784-6.577l-1.488 3.493h2.969l-1.481-3.493zm5.44 6.578V49.3h2.25a2.399 2.399 0 0 1 1.736.637c.89.922.89 2.386 0 3.308a2.424 2.424 0 0 1-1.736.638h-1.137v3.403l-1.113-.025zm3.54-5.68a1.366 1.366 0 0 0-.355-.98 1.27 1.27 0 0 0-.935-.37h-1.137v2.67h1.137c.35.01.687-.123.935-.37a1.36 1.36 0 0 0 .362-.95h-.006zm2.797 5.68V49.3h1.068v7.96h-1.068zm4.482 0l-3.382-4.099 3.146-3.862h1.348l-3.14 3.862 3.413 4.099h-1.385zm8.53-7.961h.705v7.96h-1.08V51.36l-4.628 5.902h-.718V49.3h1.074v5.902l4.647-5.902z"/>
        </g>
        <path fill="#000" d="M20.08 9.688v14.627h4.652V4.08zM22.507 4.08H16.8L0 24.314h5.708L17.854 9.688l4.653-5.609zM51.962 19.816a5.615 5.615 0 0 1-5.23-5.61 5.615 5.615 0 0 1 5.23-5.608h19.653l3.744-4.5H51.962c-5.4.236-9.655 4.693-9.655 10.112 0 5.419 4.256 9.876 9.655 10.112h6.515l3.75-4.5-10.265-.006z"/>
        <path fill="#F04100" d="M40.037 24.315L31.698 14.2l8.34-10.12h-5.632l-8.34 10.12 8.34 10.115z"/>
        <g>
            <path fill="#000" d="M107.502 24.315V0h-6.312l-2.237 1.275-.299 1.134a1.102 1.102 0 0 1-.528.676l-1.945 1.051-4.277 2.314h-.032l-2.136-.038c-1.754.86-2.822 3.11-3.178 4.003l.083.044.737.637-2.841 6.361-2.631-.956 1.792-6.858 1.201-.102a9.304 9.304 0 0 1 3.452-4.754l-.051-.638a1.078 1.078 0 0 1 .426-.956l.451-.338.744.95.305-.242-.738-.937.566-.42.718.923.312-.242-.718-.911.559-.42.705.904.306-.242-.731-.943L92.933 0H80.99L60.72 24.315h46.782zM92.164 6.673l4.278-2.32.102 1.09-3.502 2.205-.878-.981v.006z"/>
            <path fill="#F04100" d="M85.166 24.207l2.663-1.918 2.657 1.918.426-2.237 15.859.319-9.897-2.563 10.113-2.135-12.776.319 4.259-3.416-8.937 2.562.547-2.9-4.78 3.556-.985 1.135-.96-.829-1.17 1.173-.108-1.491-1.061-.32v-1.497l-2.447-2.345v3.518l-3.833 1.708 4.468 1.07-3.616 4.373 4.15-1.491.21 1.6 4.157-1.817z"/>
        </g>
    </g>
</svg>
