<svg xmlns="http://www.w3.org/2000/svg" width="100" height="19" viewBox="0 0 100 19">
    <g fill="#212121" fill-rule="evenodd">
        <path d="M18.798 8.166s.469-5.296.513-5.816c.072-.833-.598-2.35-2.215-2.35h-4.77v.002H8.999 3.747c-1.616 0-2.4 1.099-2.502 2.148-.06.622-1.163 13.426-1.234 14.164-.115 1.186.704 2.53 2.19 2.53H15.474c1.761 0 2.446-.933 2.595-2.373.09-.861.526-6.074.526-6.074h-8.022l-.347 4.028h-2.03L9.068 4.42h2.03l-.322 3.745h8.021M31.18 1.618c-.286.825-2.62 8.144-2.62 8.144l1.037-9.76h-8.018l-1.68 18.842h6.042c1.519 0 2.038-.862 2.29-1.553.302-.826 2.528-6.982 2.528-6.982l-.819 8.535h8.024L39.618.002H33.32c-1.39 0-1.937 1.03-2.14 1.616M71.818.002l-.75 8.594h-2.035l.751-8.594h-8.022s-.77 9.097-.851 9.976c-.097 1.049.496 2.536 2.273 2.536h7.54l-.167 1.911H60.522l-.386 4.42H76.1c1.08 0 2.125-.708 2.267-2.218C78.46 15.656 79.84.002 79.84.002h-8.022M89.087 9.096l.408-4.674h2.01l-.409 4.674h-2.01zM92.754.003H81.859l-1.646 18.841h8.023l.509-5.83h2.872l-.534.001h5.455c1.378 0 2.294-.704 2.442-2.32.058-.627.692-7.769.734-8.4C99.81.902 98.704.003 97.33.003h-4.576zM50.428 14.925h-2.047l.408-4.675h2.048l-.409 4.675zm-1.296-8.593l.167-1.911h10.049L59.734 0H41.662l-1.646 18.843H56.026c1.017 0 2.12-.604 2.263-2.18.108-1.182.602-6.784.692-7.8.12-1.359-.742-2.532-2.43-2.532h-7.42z"/>
    </g>
</svg>
