<svg width="20" height="20" viewBox="0 0 20 20" fill="none" xmlns="http://www.w3.org/2000/svg">
<path fill-rule="evenodd" clip-rule="evenodd" d="M7.62685 5.46879C7.85691 5.18565 8.19642 5 8.63636 5H8.64301H8.64964H8.65626H8.66287H8.66945H8.67603H8.68259H8.68913H8.69566H8.70217H8.70867H8.71515H8.72162H8.72807H8.73451H8.74093H8.74734H8.75374H8.76012H8.76648H8.77284H8.77917H8.78549H8.7918H8.7981H8.80438H8.81064H8.8169H8.82313H8.82936H8.83557H8.84177H8.84795H8.85412H8.86028H8.86642H8.87255H8.87866H8.88477H8.89086H8.89693H8.903H8.90905H8.91508H8.92111H8.92712H8.93312H8.9391H8.94508H8.95104H8.95699H8.96292H8.96884H8.97476H8.98065H8.98654H8.99241H8.99828H9.00413H9.00996H9.01579H9.0216H9.02741H9.0332H9.03897H9.04474H9.0505H9.05624H9.06197H9.06769H9.0734H9.0791H9.08479H9.09047H9.09613H9.10178H9.10743H9.11306H9.11868H9.12429H9.12989H9.13548H9.14106H9.14663H9.15218H9.15773H9.16327H9.16879H9.17431H9.17981H9.18531H9.1908H9.19627H9.20174H9.20719H9.21264H9.21808H9.2235H9.22892H9.23433H9.23972H9.24511H9.25049H9.25586H9.26122H9.26657H9.27191H9.27725H9.28257H9.28789H9.29319H9.29849H9.30378H9.30906H9.31433H9.31959H9.32485H9.33009H9.33533H9.34056H9.34578H9.35099H9.35619H9.36139H9.36658H9.37176H9.37693H9.38209H9.38725H9.3924H9.39754H9.40267H9.4078H9.41292H9.41803H9.42313H9.42823H9.43332H9.4384H9.44347H9.44854H9.4536H9.45865H9.4637H9.46874H9.47377H9.4788H9.48382H9.48883H9.49384H9.49884H9.50383H9.50882H9.5138H9.51878H9.52375H9.52871H9.53367H9.53862H9.54356H9.5485H9.55343H9.55836H9.56328H9.5682H9.57311H9.57801H9.58291H9.58781H9.5927H9.59758H9.60246H9.60733H9.6122H9.61706H9.62192H9.62677H9.63162H9.63647H9.64131H9.64614H9.65097H9.6558H9.66062H9.66543H9.67025H9.67506H9.67986H9.68466H9.68945H9.69425H9.69903H9.70382H9.7086H9.71337H9.71815H9.72291H9.72768H9.73244H9.7372H9.74195H9.74671H9.75145H9.7562H9.76094H9.76568H9.77041H9.77515H9.77988H9.7846H9.78933H9.79405H9.79877H9.80348H9.8082H9.81291H9.81762H9.82232H9.82703H9.83173H9.83643H9.84112H9.84582H9.85051H9.8552H9.85989H9.86458H9.86927H9.87395H9.87863H9.88331H9.88799H9.89267H9.89735H9.90202H9.90669H9.91137H9.91604H9.92071H9.92538H9.93005H9.93471H9.93938H9.94404H9.94871H9.95337H9.95804H9.9627H9.96736H9.97202H9.97669H9.98135H9.98601H9.99067H9.99533H9.99999H10.0047H10.0093H10.014H10.0186H10.0233H10.028H10.0326H10.0373H10.0419H10.0466H10.0513H10.0559H10.0606H10.0653H10.0699H10.0746H10.0793H10.0839H10.0886H10.0933H10.098H10.1026H10.1073H10.112H10.1167H10.1214H10.126H10.1307H10.1354H10.1401H10.1448H10.1495H10.1542H10.1589H10.1636H10.1683H10.173H10.1777H10.1824H10.1871H10.1918H10.1965H10.2012H10.2059H10.2107H10.2154H10.2201H10.2248H10.2296H10.2343H10.239H10.2438H10.2485H10.2533H10.258H10.2628H10.2675H10.2723H10.2771H10.2818H10.2866H10.2914H10.2962H10.301H10.3057H10.3105H10.3153H10.3201H10.3249H10.3297H10.3346H10.3394H10.3442H10.349H10.3538H10.3587H10.3635H10.3684H10.3732H10.3781H10.3829H10.3878H10.3927H10.3975H10.4024H10.4073H10.4122H10.4171H10.422H10.4269H10.4318H10.4367H10.4416H10.4466H10.4515H10.4564H10.4614H10.4663H10.4713H10.4762H10.4812H10.4862H10.4912H10.4962H10.5011H10.5061H10.5112H10.5162H10.5212H10.5262H10.5312H10.5363H10.5413H10.5464H10.5514H10.5565H10.5616H10.5667H10.5718H10.5769H10.582H10.5871H10.5922H10.5973H10.6024H10.6076H10.6127H10.6179H10.6231H10.6282H10.6334H10.6386H10.6438H10.649H10.6542H10.6594H10.6647H10.6699H10.6751H10.6804H10.6857H10.6909H10.6962H10.7015H10.7068H10.7121H10.7174H10.7227H10.7281H10.7334H10.7388H10.7441H10.7495H10.7549H10.7603H10.7657H10.7711H10.7765H10.7819H10.7873H10.7928H10.7982H10.8037H10.8092H10.8147H10.8202H10.8257H10.8312H10.8367H10.8423H10.8478H10.8534H10.8589H10.8645H10.8701H10.8757H10.8813H10.8869H10.8926H10.8982H10.9039H10.9095H10.9152H10.9209H10.9266H10.9323H10.938H10.9437H10.9495H10.9552H10.961H10.9668H10.9726H10.9784H10.9842H10.99H10.9959H11.0017H11.0076H11.0134H11.0193H11.0252H11.0311H11.0371H11.043H11.0489H11.0549H11.0609H11.0669H11.0729H11.0789H11.0849H11.0909H11.097H11.1031H11.1091H11.1152H11.1213H11.1274H11.1336H11.1397H11.1459H11.152H11.1582H11.1644H11.1706H11.1769H11.1831H11.1893H11.1956H11.2019H11.2082H11.2145H11.2208H11.2272H11.2335H11.2399H11.2462H11.2526H11.2591H11.2655H11.2719H11.2784H11.2848H11.2913H11.2978H11.3043H11.3109H11.3174H11.324H11.3305H11.3371H11.3437H11.3503H11.357H11.3636C11.8036 5 12.1431 5.18565 12.3731 5.46879C12.586 5.73083 12.6858 6.05062 12.7357 6.31695C12.7722 6.51141 12.7865 6.70155 12.7902 6.86363H13.0909H14.0909V7.86363V14.9545V15.9545H13.0909H6.90909H5.90909V14.9545V7.86363V7.86272H5V6.86272H5.90909V6.86363H6.90909H7.20979C7.21353 6.70155 7.22778 6.51141 7.26424 6.31695C7.31418 6.05062 7.41395 5.73083 7.62685 5.46879ZM11.7529 6.50124C11.7757 6.62304 11.7863 6.74866 11.7898 6.86363H8.21015C8.2137 6.74866 8.22427 6.62304 8.24711 6.50124C8.2824 6.31302 8.33888 6.17826 8.40296 6.09939C8.4499 6.04162 8.50812 6 8.63636 6H8.64301H8.64964H8.65626H8.66287H8.66945H8.67603H8.68259H8.68913H8.69566H8.70217H8.70867H8.71515H8.72162H8.72807H8.73451H8.74093H8.74734H8.75374H8.76012H8.76648H8.77284H8.77917H8.78549H8.7918H8.7981H8.80438H8.81064H8.8169H8.82313H8.82936H8.83557H8.84177H8.84795H8.85412H8.86028H8.86642H8.87255H8.87866H8.88477H8.89086H8.89693H8.903H8.90905H8.91508H8.92111H8.92712H8.93312H8.9391H8.94508H8.95104H8.95699H8.96292H8.96884H8.97476H8.98065H8.98654H8.99241H8.99828H9.00413H9.00996H9.01579H9.0216H9.02741H9.0332H9.03897H9.04474H9.0505H9.05624H9.06197H9.06769H9.0734H9.0791H9.08479H9.09047H9.09613H9.10178H9.10743H9.11306H9.11868H9.12429H9.12989H9.13548H9.14106H9.14663H9.15218H9.15773H9.16327H9.16879H9.17431H9.17981H9.18531H9.1908H9.19627H9.20174H9.20719H9.21264H9.21808H9.2235H9.22892H9.23433H9.23972H9.24511H9.25049H9.25586H9.26122H9.26657H9.27191H9.27725H9.28257H9.28789H9.29319H9.29849H9.30378H9.30906H9.31433H9.31959H9.32485H9.33009H9.33533H9.34056H9.34578H9.35099H9.35619H9.36139H9.36658H9.37176H9.37693H9.38209H9.38725H9.3924H9.39754H9.40267H9.4078H9.41292H9.41803H9.42313H9.42823H9.43332H9.4384H9.44347H9.44854H9.4536H9.45865H9.4637H9.46874H9.47377H9.4788H9.48382H9.48883H9.49384H9.49884H9.50383H9.50882H9.5138H9.51878H9.52375H9.52871H9.53367H9.53862H9.54356H9.5485H9.55343H9.55836H9.56328H9.5682H9.57311H9.57801H9.58291H9.58781H9.5927H9.59758H9.60246H9.60733H9.6122H9.61706H9.62192H9.62677H9.63162H9.63647H9.64131H9.64614H9.65097H9.6558H9.66062H9.66543H9.67025H9.67506H9.67986H9.68466H9.68945H9.69425H9.69903H9.70382H9.7086H9.71337H9.71815H9.72291H9.72768H9.73244H9.7372H9.74195H9.74671H9.75145H9.7562H9.76094H9.76568H9.77041H9.77515H9.77988H9.7846H9.78933H9.79405H9.79877H9.80348H9.8082H9.81291H9.81762H9.82232H9.82703H9.83173H9.83643H9.84112H9.84582H9.85051H9.8552H9.85989H9.86458H9.86927H9.87395H9.87863H9.88331H9.88799H9.89267H9.89735H9.90202H9.90669H9.91137H9.91604H9.92071H9.92538H9.93005H9.93471H9.93938H9.94404H9.94871H9.95337H9.95804H9.9627H9.96736H9.97202H9.97669H9.98135H9.98601H9.99067H9.99533H9.99999H10.0047H10.0093H10.014H10.0186H10.0233H10.028H10.0326H10.0373H10.0419H10.0466H10.0513H10.0559H10.0606H10.0653H10.0699H10.0746H10.0793H10.0839H10.0886H10.0933H10.098H10.1026H10.1073H10.112H10.1167H10.1214H10.126H10.1307H10.1354H10.1401H10.1448H10.1495H10.1542H10.1589H10.1636H10.1683H10.173H10.1777H10.1824H10.1871H10.1918H10.1965H10.2012H10.2059H10.2107H10.2154H10.2201H10.2248H10.2296H10.2343H10.239H10.2438H10.2485H10.2533H10.258H10.2628H10.2675H10.2723H10.2771H10.2818H10.2866H10.2914H10.2962H10.301H10.3057H10.3105H10.3153H10.3201H10.3249H10.3297H10.3346H10.3394H10.3442H10.349H10.3538H10.3587H10.3635H10.3684H10.3732H10.3781H10.3829H10.3878H10.3927H10.3975H10.4024H10.4073H10.4122H10.4171H10.422H10.4269H10.4318H10.4367H10.4416H10.4466H10.4515H10.4564H10.4614H10.4663H10.4713H10.4762H10.4812H10.4862H10.4912H10.4962H10.5011H10.5061H10.5112H10.5162H10.5212H10.5262H10.5312H10.5363H10.5413H10.5464H10.5514H10.5565H10.5616H10.5667H10.5718H10.5769H10.582H10.5871H10.5922H10.5973H10.6024H10.6076H10.6127H10.6179H10.6231H10.6282H10.6334H10.6386H10.6438H10.649H10.6542H10.6594H10.6647H10.6699H10.6751H10.6804H10.6857H10.6909H10.6962H10.7015H10.7068H10.7121H10.7174H10.7227H10.7281H10.7334H10.7388H10.7441H10.7495H10.7549H10.7603H10.7657H10.7711H10.7765H10.7819H10.7873H10.7928H10.7982H10.8037H10.8092H10.8147H10.8202H10.8257H10.8312H10.8367H10.8423H10.8478H10.8534H10.8589H10.8645H10.8701H10.8757H10.8813H10.8869H10.8926H10.8982H10.9039H10.9095H10.9152H10.9209H10.9266H10.9323H10.938H10.9437H10.9495H10.9552H10.961H10.9668H10.9726H10.9784H10.9842H10.99H10.9959H11.0017H11.0076H11.0134H11.0193H11.0252H11.0311H11.0371H11.043H11.0489H11.0549H11.0609H11.0669H11.0729H11.0789H11.0849H11.0909H11.097H11.1031H11.1091H11.1152H11.1213H11.1274H11.1336H11.1397H11.1459H11.152H11.1582H11.1644H11.1706H11.1769H11.1831H11.1893H11.1956H11.2019H11.2082H11.2145H11.2208H11.2272H11.2335H11.2399H11.2462H11.2526H11.2591H11.2655H11.2719H11.2784H11.2848H11.2913H11.2978H11.3043H11.3109H11.3174H11.324H11.3305H11.3371H11.3437H11.3503H11.357H11.3636C11.4919 6 11.5501 6.04162 11.597 6.09939C11.6611 6.17826 11.7176 6.31302 11.7529 6.50124ZM13.0909 7.86363H6.90909V14.9545H13.0909V7.86363ZM14.0909 7.86273H15.0009V6.86273H14.0909V7.86273ZM8.13637 13.6818V9.13637H9.13637V13.6818H8.13637ZM9.5 9.13637V13.6818H10.5V9.13637H9.5ZM10.8636 9.13637V13.6818H11.8636V9.13637H10.8636Z" fill="#D0021B"/>
</svg>
