<svg width="20" height="20" viewBox="0 0 20 20" fill="none" xmlns="http://www.w3.org/2000/svg">
<path fill-rule="evenodd" clip-rule="evenodd" d="M5.8499 13.3082C5.85203 13.3317 5.8658 13.4836 5.99407 13.6119C6.12234 13.7402 6.27425 13.7539 6.29777 13.7561L6.29961 13.7562C6.34529 13.7607 6.38149 13.7579 6.39629 13.7565C6.4291 13.7535 6.45517 13.7478 6.46446 13.7457C6.48746 13.7406 6.50847 13.7345 6.52085 13.7308C6.54881 13.7225 6.58271 13.7113 6.6177 13.6994C6.68952 13.6749 6.78792 13.6398 6.90165 13.5986C7.13011 13.5157 7.43152 13.4039 7.73076 13.2919C8.03036 13.1799 8.32919 13.0673 8.55303 12.9827L8.82349 12.8804L8.89928 12.8516L8.91928 12.844L8.92442 12.8421L8.92573 12.8416L8.92606 12.8415L8.92615 12.8414L8.74869 12.374L8.92618 12.8414L9.02642 12.8034L9.10223 12.7275L13.093 8.73682L13.093 8.73679L13.093 8.73682L13.2013 8.62848C13.2041 8.62572 13.2069 8.62294 13.2096 8.62016L13.4465 8.38326L13.4194 8.35617C13.8039 7.7484 13.7312 6.93452 13.2013 6.40468C12.6715 5.87484 11.8576 5.80215 11.2499 6.18662L11.2227 6.15947L10.8692 6.51302L6.87843 10.5037L6.80262 10.5796L6.76455 10.6798L7.23199 10.8573L6.76454 10.6798L6.76451 10.6799L6.76438 10.6802L6.76389 10.6816L6.76193 10.6867L6.75434 10.7067L6.72561 10.7825L6.62328 11.0529C6.53871 11.2768 6.42609 11.5756 6.31403 11.8752C6.20211 12.1745 6.09024 12.4759 6.00738 12.7043C5.96613 12.8181 5.93107 12.9164 5.90661 12.9883C5.8947 13.0233 5.88351 13.0572 5.87516 13.0851C5.87147 13.0975 5.86536 13.1185 5.86026 13.1415C5.8582 13.1508 5.85252 13.1769 5.84949 13.2097C5.84812 13.2245 5.84523 13.2607 5.84972 13.3064L5.8499 13.3082ZM12.0125 6.94928C12.1835 6.92623 12.3628 6.9804 12.4942 7.11179C12.6256 7.24318 12.6798 7.42256 12.6568 7.59351L12.0125 6.94928ZM7.38045 12.3553C7.5887 12.2774 7.79672 12.1992 7.97931 12.1304L7.4756 11.6267C7.40677 11.8092 7.32856 12.0173 7.25067 12.2255L7.17336 12.4326L7.38045 12.3553ZM8.83936 11.5762L8.02977 10.7666L11.2227 7.57368L12.0323 8.38326L8.83936 11.5762Z" fill="#004CBA"/>
</svg>
