<svg width="24" height="24" viewBox="0 0 24 24" fill="none" xmlns="http://www.w3.org/2000/svg">
<circle cx="12" cy="12" r="11" stroke="#17181A" stroke-width="2"/>
<mask id="path-3-inside-1" fill="white">
<path fill-rule="evenodd" clip-rule="evenodd" d="M2.65625 19.5302C4.94582 16.9551 8.28372 15.3329 12.0005 15.3329C15.717 15.3329 19.0547 16.9549 21.3442 19.5296C19.1445 22.256 15.7759 24 12 24C8.22436 24 4.85598 22.2563 2.65625 19.5302Z"/>
</mask>
<path fill-rule="evenodd" clip-rule="evenodd" d="M2.65625 19.5302C4.94582 16.9551 8.28372 15.3329 12.0005 15.3329C15.717 15.3329 19.0547 16.9549 21.3442 19.5296C19.1445 22.256 15.7759 24 12 24C8.22436 24 4.85598 22.2563 2.65625 19.5302Z" fill="#17181A"/>
<path d="M2.65625 19.5302L1.16161 18.2013L0.0357506 19.4676L1.09979 20.7862L2.65625 19.5302ZM21.3442 19.5296L22.9008 20.7855L23.9647 19.4668L22.8388 18.2006L21.3442 19.5296ZM4.15089 20.8591C6.07701 18.6928 8.87866 17.3329 12.0005 17.3329V13.3329C7.68878 13.3329 3.81463 15.2174 1.16161 18.2013L4.15089 20.8591ZM12.0005 17.3329C15.1221 17.3329 17.9236 18.6926 19.8497 20.8586L22.8388 18.2006C20.1858 15.2171 16.3119 13.3329 12.0005 13.3329V17.3329ZM19.7877 18.2738C17.9513 20.5498 15.1457 22 12 22V26C16.4061 26 20.3377 23.9622 22.9008 20.7855L19.7877 18.2738ZM12 22C8.85449 22 6.04908 20.55 4.21271 18.2743L1.09979 20.7862C3.66288 23.9625 7.59422 26 12 26V22Z" fill="#17181A" mask="url(#path-3-inside-1)"/>
<circle cx="12" cy="9" r="4" fill="#17181A" stroke="#17181A" stroke-width="2"/>
</svg>
