<svg xmlns="http://www.w3.org/2000/svg" width="180" height="120" viewBox="0 0 180 120">
    <g fill="none" fill-rule="nonzero">
        <path stroke="#F2F2F2" d="M.5.5h179v119H.5z" opacity=".2"/>
        <g fill="#F2F2F2">
            <path d="M122.069 80.843l.389-2.767h-4.615c-1.501 0-2.59-1.125-2.424-2.508l.867-6.86c.078-.63.4-1.227.912-1.688a3.248 3.248 0 0 1 2.135-.821h12.098l1.957.011c.778 0 1.49.304 1.935.821.39.461.556 1.058.478 1.687l-.834 6.872c-.189 1.384-1.568 2.508-3.069 2.508h-4.603l-.367 2.767-4.86-.022zm5.682-6.647h2.19a.403.403 0 0 0 .378-.327l.523-3.812h-2.547l-.544 4.139zm-7.35-.012h2.513l.3-2.07.233-2.069h-2.535l-.511 4.14zM19.48 80.786L20.86 70H16l2.435-3.88h11.642L29.6 70h-3.947l-1.38 10.786zM139.715 80.786L141.094 70h-4.248l.478-3.88h14.356L149.345 70h-3.459l-1.39 10.786zM52.894 80.786l-.255-2.553-4.682.056-.823 2.497h-4.903l5.037-13.935c.144-.416.623-.72 1.1-.72h7.028c.5 0 .868.293.9.71l1.535 13.957h-4.937v-.012zm-3.569-6.22h2.913l-.444-4.048h-.968l-1.501 4.049zM66.66 80.786l.679-5.218H64.58l-.667 5.218h-4.837l1.857-14.666h4.837l-.723 5.523h2.758l.711-5.523h5.104l-1.857 14.666zM94.726 80.786l.667-5.218h-2.747l-.667 5.218h-4.837l1.846-14.666h4.837l-.712 5.523h2.747l.712-5.523h5.115L99.83 80.786zM76.857 80.843c-1.012 0-1.935-.394-2.524-1.091a2.805 2.805 0 0 1-.645-2.216l1.034-8.053c.1-.82.522-1.608 1.19-2.204a4.282 4.282 0 0 1 2.813-1.091h5.226c1.646 0 3.48.73 3.236 2.778l-.312 2.542h-4.803l.2-1.44h-.311c-.256 0-2.18-.011-2.18-.011h-.311l-.033.315c-.012.146-.278 2.07-.5 3.61-.201 1.428-.323 2.317-.334 2.384l-.034.304h2.747l.211-1.428h4.826l-.278 2.316c-.245 1.822-2.035 3.318-3.992 3.318h-5.226v-.033zM101.464 80.843l1.846-14.666h11.842l-.467 3.846h-7.005l-.245 1.833 6.994-.034-.422 3.318-6.994.034-.256 1.833h7.016l-.478 3.836zM29.888 80.786l.345-2.463 1.312-12.191 9.663.01c.778 0 1.479.304 1.923.822.39.46.556 1.057.479 1.687l-.834 6.872c-.19 1.383-1.568 2.508-3.07 2.508h-4.603l-.367 2.767h-4.848v-.012zm6.127-10.054l-.445 3.407h2.135c.211 0 .4-.168.434-.382L38.66 70h-2.546l-.1.732zM150.601 80.775l1.501-11.933.356-2.722h4.848l-.411 3.037h4.614c1.501 0 2.591 1.125 2.424 2.508l-.834 6.59c-.078.63-.4 1.227-.911 1.688a3.248 3.248 0 0 1-2.135.82H150.6v.012zm5.315-3.858h2.18c.333 0 .333 0 .811-3.554l.045-.315h-2.524l-.512 3.87zM88.1 56.039c-3.2-1.461-5.371-4.054-6.007-6.822-.318-1.56.248-2.593.612-3.166.396-.62.884-.658.884-.658s-.496-.237-1.163-.329c-.837-.122-1.93-.03-2.612 1.01A9.878 9.878 0 0 0 79 49.936c.016 2.63 1.023 5.674 4.093 8.099.86.627 1.814 1.124 2.845 1.46.14.046.287.084.426.123.45.122.892.214 1.318.275.031 0 .062.008.093.015l.396.046c.193.015.387.038.58.038.102 0 .195.008.296.008h.1c.186 0 .372-.008.558-.015h.008a6.86 6.86 0 0 0 .558-.046c.024 0 .04-.008.062-.008l.458-.069c.093-.015.186-.03.271-.046.016 0 .031-.007.047-.007 1.697-.344 3.116-1.11 4.193-1.89A10.095 10.095 0 0 0 97 56.277c-2.488 1.162-5.806 1.177-8.9-.237M82.632 44.406c1.74-2.163 4.417-3.582 7.442-3.582 2.244 0 4.301.767 5.926 2.034a10.226 10.226 0 0 0-6.916-2.679 10.14 10.14 0 0 0-8.448 4.485 3.567 3.567 0 0 1 1.996-.258"/>
            <path d="M88.574 55.274a10.03 10.03 0 0 0 4.027 1.228 6.335 6.335 0 0 0 1.618-.618c1.944-1.197 7.69-9.045 7.69-9.045s-3.129-.633-4.484.343c-1.363.976-2.377 2.532-3.887 4.202-1.51 1.678-2.169 2.73-3.5 3.059-.992.252-1.929.206-2.765.023.402.274.828.541 1.3.808"/>
            <path d="M97.888 55.636c1.204-.864 4.021-4.647 4.021-4.647s-2.165-1.116-4.121 0c-1.964 1.124-1.902 1.406-3.858 2.989-1.948 1.582-3.4 1.757-4.479 1.68-.062 0-.116-.014-.178-.014 2.817 1.276 6.473 1.49 8.615-.008M102 40.173s-3.184-.857-5.663 1.246c-1.775 1.523-5.61 11.704-8.623 12.277a4.601 4.601 0 0 1-1.441.077l.015.015c.504.046 1.093.03 1.774-.1 3.014-.573 6.996-9.974 8.84-11.42 1.844-1.438 4.052-1.078 4.052-1.078l-1.72 3.281L102 40.173z"/>
        </g>
    </g>
</svg>
