<svg xmlns="http://www.w3.org/2000/svg" width="180" height="120" viewBox="0 0 180 120">
    <g fill="none" fill-rule="evenodd">
        <path fill-rule="nonzero" stroke="#F2F2F2" d="M.5.5h179v119H.5z" opacity=".2"/>
        <g fill="#F2F2F2">
            <path d="M64.16 50.083h4.96V64.83h5.058v4.657H64.16V50.083M80.846 50.083v11.449c0 .203.01.457.035.762.024.304.076.623.157.956.143.519.394.998.746 1.441.353.444.9.676 1.638.693.756-.017 1.309-.25 1.664-.693.352-.443.593-.922.721-1.441.08-.333.132-.652.157-.956a9.98 9.98 0 0 0 .034-.762V50.083h4.963v11.559c0 2.902-.686 5.022-2.06 6.361-1.372 1.34-3.159 2.011-5.359 2.011l-.24.027c-2.183-.018-3.967-.698-5.347-2.038-1.38-1.339-2.071-3.46-2.071-6.361V50.083h4.962M93.808 50.083h4.961v7.76l4.841-7.76h5.782l-6.406 9.398 6.574 10.006h-6.142l-4.649-7.928v7.928h-4.96V50.083"/>
            <path d="M110.581 66.986c-1.542-2.051-2.312-4.445-2.312-7.18 0-2.716.758-5.104 2.275-7.164 1.517-2.061 3.778-3.091 6.782-3.091h.24c3.002 0 5.263 1.03 6.78 3.09 1.517 2.06 2.276 4.45 2.276 7.165 0 2.735-.76 5.12-2.276 7.152-1.517 2.034-3.778 3.058-6.78 3.077l-.24.028c-2.955 0-5.204-1.026-6.745-3.077zm7.346-1.622c.176-.026.353-.077.53-.153.77-.24 1.473-.78 2.107-1.621.634-.84.953-2.1.953-3.784 0-1.68-.322-2.942-.964-3.783-.643-.841-1.341-1.38-2.097-1.623a6.15 6.15 0 0 0-.517-.135 2.198 2.198 0 0 0-.494-.058c-.176 0-.36.019-.554.058a2.6 2.6 0 0 0-.554.165c-.738.258-1.417.807-2.035 1.648-.618.842-.927 2.084-.927 3.728 0 1.645.31 2.888.927 3.73.618.838 1.297 1.39 2.035 1.648a2.887 2.887 0 0 0 1.084.222c.16 0 .33-.015.506-.042zM128.877 69.487h4.962V50.083h-4.962zM136.875 50.083h4.96V64.83h5.058v4.657h-10.018V50.083M34 72.878V47h25.751v25.878H34zm23.001-21.166c.085-.169.126-.547.123-.72-.034-.865-.722-1.425-1.528-1.39a1.497 1.497 0 0 0-1.292.832L51.08 55.82c-.23.465-.385 1.033-.385 1.387 0 .32.064.64.155.96l3.513 8.39H40.785c-.523.012-.92-.507-.915-.966V51.105c-.056-2.023-2.922-1.989-2.969.009l.017 15.454a2.954 2.954 0 0 0 2.952 2.966h18.537L53.93 57.927c-.151-.413-.198-.839.125-1.382L57 51.712zm-10.24 9.749c0 1.475-1.983 1.391-1.983 0V51.097c0-2.023-2.942-2.023-2.942 0v10.479c0 2.359 1.772 3.98 3.936 3.98 2.163 0 3.93-1.583 3.93-3.98v-10.48c-.033-2.038-2.941-2.022-2.941 0v10.365z"/>
        </g>
    </g>
</svg>
