<svg xmlns="http://www.w3.org/2000/svg" xmlns:xlink="http://www.w3.org/1999/xlink" width="180" height="120" viewBox="0 0 180 120">
    <defs>
        <path id="a" d="M22.852 10.209C18.227 5.654 10.783 2.056.038 7.272 13.732-2.986 33.189-1.9 45.656 10.547a36.462 36.462 0 0 1 2.092 2.325c-.147.155-.294.312-.441.46-4.291 4.31-8.986 5.697-12.6 6.023-.096.008-.187.02-.284.028-.108.007-.206.007-.312.014a22.591 22.591 0 0 1-5.257-.364s-1.373-3.463-4.31-6.99a25.545 25.545 0 0 0-1.692-1.834z"/>
        <path id="c" d="M12.531 23.007c-1.625 6.29-1.014 14.547 8.868 21.26C5.684 37.517-3.106 20.094 1.422 3.056c.275-1.018.61-2.004.964-2.977.208.05.417.099.618.153C8.874 1.8 12.422 5.178 14.511 8.15c.055.08.111.153.166.233.06.09.11.175.168.264a22.647 22.647 0 0 1 2.314 4.742s-2.307 2.923-3.887 7.234a25.772 25.772 0 0 0-.74 2.384z"/>
        <path id="e" d="M15.69 18.422C21.941 16.688 28.774 12.03 29.637.1c2.021 17.009-8.646 33.345-25.64 37.936-1.018.27-2.038.474-3.056.652-.06-.205-.124-.411-.178-.613C-.817 32.2.331 27.432 1.855 24.134c.042-.088.077-.173.12-.26.046-.097.095-.184.143-.278a22.595 22.595 0 0 1 2.943-4.379s3.68.54 8.198-.245c.789-.139 1.604-.319 2.431-.55z"/>
        <path id="g" d="M11.584 2.935C26.9-4.833 34.399 5.872 34.399 5.872c-5.92 2.505-10.486 8.26-12.89 16.06-1.99 6.454-4.948 8.795-5.912 9.411C11.654 19.564 1.073 17.427.034 17.245c3.964-9.552 11.55-14.31 11.55-14.31z"/>
        <path id="i" d="M27.322 17.892c-.002-3.954 1.093-9.188 5.477-14.118l.05-.076c-.717-.767-3.221-2.655-9.665-1.183C15.238 4.33 6.472 4.12 1.346.236c0 0-5.506 11.857 8.867 21.26 0 0 7.896 4.196 18.125 2.868-.184-.51-1.016-3.001-1.016-6.472"/>
        <path id="k" d="M20.518.278c-1.13 1.375-6.502 7.013-15.467 7.02-1.442 0-2.975-.146-4.595-.481l-.075-.019c-.296 1.087-.54 4.164 3.835 8.89 5.541 5.985 9.743 13.695 8.949 20.084 0 0 13.003-1.152 13.946-18.323 0 0-.321-8.956-6.593-17.17"/>
    </defs>
    <g fill="none" fill-rule="evenodd">
        <path fill-rule="nonzero" stroke="#F2F2F2" d="M.5.5h179v119H.5z" opacity=".2"/>
        <g transform="translate(69.433 15)">
            <mask id="b" fill="#fff">
                <use xlink:href="#a"/>
            </mask>
            <path fill="#F2F2F2" d="M-14.411 90h70.014V0H-14.41z" mask="url(#b)"/>
        </g>
        <g transform="translate(55 37.771)">
            <mask id="d" fill="#fff">
                <use xlink:href="#c"/>
            </mask>
            <path fill="#F2F2F2" d="M.022 67.229h70.014v-90H.022z" mask="url(#d)"/>
        </g>
        <g transform="translate(95.052 46.084)">
            <mask id="f" fill="#fff">
                <use xlink:href="#e"/>
            </mask>
            <path fill="#F2F2F2" d="M-40.03 58.916h70.015v-90H-40.03z" mask="url(#f)"/>
        </g>
        <g transform="translate(57.887 19.337)">
            <mask id="h" fill="#fff">
                <use xlink:href="#g"/>
            </mask>
            <path fill="#F2F2F2" d="M-2.865 85.663H67.15v-90H-2.865z" mask="url(#h)"/>
        </g>
        <g transform="translate(66.186 60.542)">
            <mask id="j" fill="#fff">
                <use xlink:href="#i"/>
            </mask>
            <path fill="#F2F2F2" d="M27.322 17.892c-.002-3.954 1.093-9.188 5.477-14.118l.05-.076c-.717-.767-3.221-2.655-9.665-1.183C15.238 4.33 6.472 4.12 1.346.236c0 0-5.506 11.857 8.867 21.26 0 0 7.896 4.196 18.125 2.868-.184-.51-1.016-3.001-1.016-6.472" mask="url(#j)"/>
        </g>
        <g transform="translate(97.577 28.735)">
            <mask id="l" fill="#fff">
                <use xlink:href="#k"/>
            </mask>
            <path fill="#F2F2F2" d="M20.518.278c-1.13 1.375-6.502 7.013-15.467 7.02-1.442 0-2.975-.146-4.595-.481l-.075-.019c-.296 1.087-.54 4.164 3.835 8.89 5.541 5.985 9.743 13.695 8.949 20.084 0 0 13.003-1.152 13.946-18.323 0 0-.321-8.956-6.593-17.17" mask="url(#l)"/>
        </g>
        <path fill="#F2F2F2" d="M95.797 55.216a7.275 7.275 0 0 1-10.308.512c-2.988-2.717-3.22-7.356-.517-10.358a7.276 7.276 0 0 1 10.31-.51c2.987 2.718 3.218 7.354.515 10.356zM61.752 99.864c.173.04.387.054.68.054 1.082 0 1.75-.549 1.75-1.471 0-.83-.575-1.324-1.589-1.324-.414 0-.694.04-.841.08v2.661zm-2.016-4.092c.627-.107 1.508-.188 2.75-.188 1.255 0 2.15.241 2.75.723.575.455.962 1.203.962 2.086 0 .883-.294 1.632-.828 2.14-.694.655-1.722.95-2.924.95-.267 0-.508-.014-.694-.04v3.223h-2.016v-8.894zM69.722 100.185c0 1.765.828 3.01 2.19 3.01 1.375 0 2.163-1.311 2.163-3.063 0-1.619-.775-3.01-2.176-3.01-1.376 0-2.177 1.311-2.177 3.063zm6.502-.12c0 2.955-1.789 4.748-4.42 4.748-2.67 0-4.231-2.02-4.231-4.588 0-2.702 1.722-4.72 4.379-4.72 2.763 0 4.272 2.072 4.272 4.56zM84.701 104.412c-.373.187-1.215.4-2.309.4-3.111 0-4.713-1.952-4.713-4.52 0-3.076 2.19-4.788 4.913-4.788 1.055 0 1.856.214 2.216.401l-.413 1.618a4.39 4.39 0 0 0-1.71-.334c-1.615 0-2.87.976-2.87 2.983 0 1.805 1.068 2.942 2.884 2.942.614 0 1.295-.133 1.696-.294l.306 1.592M91.11 100.92l-.881-2.594c-.2-.588-.334-1.123-.468-1.645h-.027c-.133.535-.28 1.083-.453 1.632l-.882 2.608h2.71zm-2.951.91l-.935 2.836h-1.201l3.057-9.015h1.402l3.07 9.015h-1.24l-.962-2.836h-3.191zM96.53 96.641h-2.737v-.99h6.662v.99h-2.75v8.025h-1.176V96.64M102.23 100.212c0 1.926 1.042 3.651 2.87 3.651 1.844 0 2.885-1.699 2.885-3.745 0-1.792-.935-3.664-2.87-3.664-1.924 0-2.885 1.779-2.885 3.758zm6.983-.147c0 3.102-1.883 4.748-4.179 4.748-2.376 0-4.045-1.846-4.045-4.574 0-2.862 1.776-4.735 4.179-4.735 2.456 0 4.045 1.886 4.045 4.56zM118.8 100.707c-.068-1.257-.148-2.769-.135-3.892h-.04a51.328 51.328 0 0 1-1.134 3.424l-1.59 4.373h-.88l-1.456-4.293c-.427-1.27-.788-2.434-1.041-3.504h-.027a119.804 119.804 0 0 1-.173 3.985l-.24 3.866h-1.109l.628-9.015h1.481l1.536 4.36c.374 1.11.681 2.1.908 3.036h.04c.227-.909.547-1.899.948-3.036l1.602-4.36h1.482l.561 9.015h-1.135l-.227-3.96"/>
    </g>
</svg>
