<svg xmlns="http://www.w3.org/2000/svg" width="180" height="120" viewBox="0 0 180 120">
    <g fill="none" fill-rule="evenodd">
        <path fill-rule="nonzero" stroke="#F2F2F2" d="M.5.5h179v119H.5z" opacity=".2"/>
        <g fill="#F2F2F2">
            <path d="M91.606 49.366c2.842 0 5.224 2.382 5.224 5.266 0 2.93-2.382 5.31-5.224 5.31a5.317 5.317 0 0 1-5.316-5.31c0-2.884 2.383-5.266 5.316-5.266M80.884 44.287a5.237 5.237 0 0 1 5.268 5.262c0 2.931-2.336 5.312-5.268 5.312a5.319 5.319 0 0 1-5.318-5.312c0-2.927 2.385-5.262 5.318-5.262M78.044 32.477c2.886 0 5.268 2.381 5.268 5.31 0 2.928-2.382 5.31-5.268 5.31a5.319 5.319 0 0 1-5.318-5.31 5.318 5.318 0 0 1 5.318-5.31M85.556 23a5.316 5.316 0 0 1 5.315 5.31c0 2.931-2.38 5.265-5.315 5.265a5.238 5.238 0 0 1-5.269-5.265c0-2.928 2.337-5.31 5.269-5.31M97.564 23a5.317 5.317 0 0 1 5.313 5.31c0 2.931-2.382 5.265-5.313 5.265a5.238 5.238 0 0 1-5.271-5.265c0-2.928 2.336-5.31 5.27-5.31M105.121 32.477a5.316 5.316 0 0 1 5.314 5.31 5.317 5.317 0 0 1-5.314 5.31 5.316 5.316 0 0 1-5.312-5.31 5.316 5.316 0 0 1 5.312-5.31M102.462 44.287c2.935 0 5.318 2.335 5.318 5.262a5.316 5.316 0 0 1-10.63 0c0-2.927 2.383-5.262 5.312-5.262M62.693 60.125c-.917-2.152-2.062-3.616-2.062-3.616s10.218.688 14.845 1.557c14.71 2.7 15.26 16.343 15.26 16.343s-2.383-.094-8.708-.094c-8.705 0-16.54-7.553-19.335-14.19M120.517 60.125c.916-2.152 2.063-3.616 2.063-3.616s-10.218.688-14.846 1.557c-14.706 2.7-15.26 16.343-15.26 16.343s2.386-.094 8.708-.094c8.706 0 16.54-7.553 19.335-14.19M117.52 72.424h-.499v-.617h.556c.131 0 .226.029.286.086.06.056.091.129.091.217 0 .06-.016.116-.047.167a.266.266 0 0 1-.137.113.71.71 0 0 1-.25.034zm.319.287a.584.584 0 0 0-.141-.093c.17-.025.294-.082.375-.173.08-.09.12-.202.12-.335a.55.55 0 0 0-.073-.28.391.391 0 0 0-.196-.178.973.973 0 0 0-.356-.05h-.779v1.865h.232v-.829h.27c.06 0 .103.003.13.01a.34.34 0 0 1 .105.049.537.537 0 0 1 .118.124c.044.06.1.146.168.258l.233.388h.292l-.305-.508a1.261 1.261 0 0 0-.193-.248z"/>
            <path d="M117.41 74.164a1.56 1.56 0 1 1-.002-3.12 1.56 1.56 0 0 1 .001 3.12zm0-3.33a1.772 1.772 0 1 0-.003 3.545 1.772 1.772 0 0 0 .002-3.545zM46.032 91.719c-1 .022-3.026-.327-3.026-2.856 0-2.534 2.026-2.88 3.026-2.858v5.714zm3.436-5.714c1-.023 3.024.324 3.024 2.858 0 2.53-2.024 2.878-3.024 2.856v-5.714zm-3.722 10.573h4.007v-2.002c2.45.021 6.744-.694 6.744-5.713 0-4.965-4.293-5.802-6.744-5.719V81.57h-4.007v1.574c-2.454-.083-6.746.754-6.746 5.719 0 5.019 4.292 5.734 6.746 5.713v2.002zM65.745 93.556c-1.862 0-3.557-1.367-3.557-4.124 0-2.757 1.695-4.124 3.557-4.124 1.86 0 3.554 1.367 3.554 4.124 0 2.757-1.693 4.124-3.554 4.124zm0 3.431c5.231 0 7.687-3.738 7.687-7.555 0-3.818-2.456-7.554-7.687-7.554-5.234 0-7.685 3.736-7.685 7.554 0 3.817 2.45 7.555 7.685 7.555zM86.13 91.863c-.735.755-1.9 1.551-3.392 1.551-2.288 0-3.657-1.695-3.657-3.856 0-2.35 1.45-4.108 3.657-4.108 1.535 0 2.657.855 3.393 1.713V83.02c-1.204-.818-2.657-1.142-3.923-1.142-3.885 0-7.255 2.776-7.255 7.554 0 4.574 3.064 7.555 7.316 7.555 1.224 0 2.575-.184 3.862-1.063v-4.061M94.204 85.694l1.636 5.269h-3.272l1.636-5.269zm-7.52 10.884h4.292l.796-2.471h4.864l.797 2.471h4.29l-5.087-14.292h-4.864l-5.088 14.292zM102.884 96.578h4.004V85.717h4.582v-3.431h-8.586v14.292M117.3 85.431h1.14c1.718 0 1.965.918 1.965 1.633 0 .614-.184 1.655-1.965 1.655h-1.14V85.43zm-4.008 11.147h4.007v-4.715h2.023c4.047 0 5.21-2.818 5.21-4.8 0-1.96-1.143-4.777-5.21-4.777h-6.03v14.292zM133.313 93.556c-1.856 0-3.558-1.367-3.558-4.124 0-2.757 1.702-4.124 3.558-4.124 1.86 0 3.557 1.367 3.557 4.124 0 2.757-1.697 4.124-3.557 4.124zm0 3.431c5.232 0 7.686-3.738 7.686-7.555 0-3.818-2.454-7.554-7.686-7.554-5.232 0-7.684 3.736-7.684 7.554 0 3.817 2.452 7.555 7.684 7.555z"/>
        </g>
    </g>
</svg>
