<svg xmlns="http://www.w3.org/2000/svg" width="88" height="77" viewBox="0 0 88 77">
    <g fill="none" fill-rule="evenodd">
        <path d="M-21 0h130v77H-21z"/>
        <g fill="#ECECEB" fill-rule="nonzero">
            <path d="M43.283 3.917a.287.287 0 0 0-.326.203l-1.712 5.168 2.105 2.637.181-7.7a.298.298 0 0 0-.248-.308zm-.106 7.508l-1.73-2.175 1.683-5.073a.115.115 0 0 1 .124-.086c.06.01.101.064.096.125l-.173 7.209zM35.296 10.424a.315.315 0 0 0-.373.144.29.29 0 0 0 .095.376l4.314 3.205h.048l3.137-1.194-7.221-2.531zm-.173.375a.116.116 0 0 1 0-.144.115.115 0 0 1 .106-.067l6.762 2.387-2.582.962-4.286-3.138zM37.811 19.847a.29.29 0 0 0 .153.356c.044.01.09.01.134 0 .098 0 .189-.05.24-.135l4.352-6.333-3.243.885-1.636 5.227zm4.448-5.775L38.194 20a.114.114 0 0 1-.153 0 .116.116 0 0 1-.058-.135l1.607-5.101 2.67-.693zM48.553 20.761a.28.28 0 0 0 .2-.472l-4.638-6.111L44 17.537l4.4 3.166a.305.305 0 0 0 .153.058zm-4.266-6.112l4.352 5.775a.135.135 0 0 1 0 .174.124.124 0 0 1-.162 0l-4.324-3.119.134-2.83zM52.188 9.798a.278.278 0 0 0-.287-.24h-5.414L44.66 12.32l7.317-2.194a.298.298 0 0 0 .21-.328zm-7.136 2.233l1.53-2.348h5.319c.062-.001.115.044.124.106a.125.125 0 0 1-.095.134l-6.878 2.108z"/>
            <path d="M38.863 14.668c-.344 1.069-2.018 6.276-2.64 8.182l-.267.827 5.174-3.773 2.554-1.77 2.554 1.77 5.175 3.773-.268-.827-2.64-8.182 5.806-4.35L56.1 8.99h-9.364L44 .809 43.694 0l-3.061 8.99h-9.364l1.779 1.318 5.815 4.36zm4.496-2.002l-2.41-3.262 2.735-8.028.316 11.31 2.458-3.282h8.303l-10.589 3.85 6.418 9.22-6.867-4.89v-4.042l-6.897 8.894 2.564-7.998-6.696-5.063 10.665 3.291zM42.25 75.402c.14-.454.365-.879.66-1.251a4.75 4.75 0 0 0-1.187 1.886l-.162.694h5.978v-.607h-5.452l.163-.722zM43.57 73.43V57.47a4.748 4.748 0 0 1-1.34-2.059v-.067h-.143l-.507.134.105.52a4.603 4.603 0 0 0 1.358 2.07v15.9c.154-.2.33-.381.527-.539zM51.652 76.086h-2.171l-.077-.414c-.507-2.647-.956-5.169-1.262-7.2v-.192c-.259-1.55-.526-3.128-.813-4.813v3.648c.105.578.2 1.155.296 1.733v.183c.335 2.03.756 4.562 1.253 7.209l.077.413h3.242l.43-.048.077-.413v-.145h-1.052v.039zM59.084 57.5l.125-.164-.125.106zM51.117 64.487c.066.443.143.896.21 1.367.316-2.079.593-3.725 1.08-6.294a6.634 6.634 0 0 1 1.158-2.773 6.203 6.203 0 0 0-1.683 3.312c-.316 1.742-.555 3.05-.765 4.389zM55.335 70.744v-7.315c-.185 1.04-.357 2.04-.517 3.003v6.843h.517v-2.531zM54.589 75.075V73.91l-.536.058v2.763h5.577v-.607h-5.041v-1.049zM63.035 60.34v10.115a2.795 2.795 0 0 1-.412 1.511c.626-.52.979-1.301.957-2.117V59.733a5.037 5.037 0 0 1 .9-3.022 4.828 4.828 0 0 0-1.445 3.628zM61.571 76.25l-.411-.058V73.15l-.163.048-.382.096v3.504l.43.067c.124.008.249.008.373 0a5.725 5.725 0 0 0 4.209-2.03c.076-.087.134-.174.2-.26a5.722 5.722 0 0 1-3.892 1.694 1.901 1.901 0 0 1-.364-.02zM69.28 68.28V58.25h-.171a1.703 1.703 0 0 0-1.244.905c.213-.156.458-.262.718-.308h.172v17.864h5.471v-.596h-4.945V68.28zM60.357 34.303v15.189a4.128 4.128 0 0 0-1.225 2.339v.683h6.122v-.606h-5.605v-.684a4.137 4.137 0 0 1 1.224-2.329V33.687a3.846 3.846 0 0 1-.574-.712 3.236 3.236 0 0 1-.65-1.626v-.077h-.517v.683c.062.588.284 1.148.641 1.617.167.265.363.51.584.731zM70.591 28.586c.257.93.913 1.696 1.789 2.089h1.435v.414c.247.038.496.057.746.058h.096c.456-.012.909-.08 1.348-.203v-.27h.698c.313-.146.603-.337.861-.567.154-.127.292-.273.412-.433l-.058.048a4.562 4.562 0 0 1-3.041.962h-.23a5.155 5.155 0 0 1-.995-.173 3.462 3.462 0 0 1-2.65-2.473v-.164a1.491 1.491 0 0 1 0-.857l-.19.212a1.2 1.2 0 0 0-.154 1.194l-.067.163zM68.793 34.342v15.053c.16-.19.337-.367.526-.529v-15.12a4.926 4.926 0 0 1-.65-.713 3.002 3.002 0 0 1-.756-1.665v-.096h-.516v.702c.057.638.32 1.239.746 1.713.195.24.413.458.65.655zM73.25 52.524v-.597h-5.337v-.703a3.1 3.1 0 0 1 .689-1.588 3.857 3.857 0 0 0-1.205 2.195v.693h5.853zM74.503 36.71c-.086.27-.19.548-.277.818v.058c-.134.375-.268.76-.392 1.145v.905l.689-2.012c.076-.212.153-.423.22-.635v-.058c.401-1.18.813-2.374 1.234-3.58v-1.107-.972h-.498v1.568c.02.37.02.739 0 1.107l-.976 2.763zM80.491 33.803l.192-.231-.192.164zM81.362 51.927h-5.366v-8.951l-.526 1.51v8.038h5.882zM13.114 34.053H11.65v.597h.957c.392 1.386 1.913 3.677 3.147 3.686h.689v-.596h-.182c-1.263-.01-2.745-2.3-3.147-3.687zM12.588 42.85v5.66h.057a.548.548 0 0 0 .46-.549v-5.707a.548.548 0 0 0-.412-.472 2.776 2.776 0 0 0-.736-.077h-.316v.645c.18.008.36.03.536.067.21.05.371.22.41.433z"/>
            <path d="M15.677 51.08a6.852 6.852 0 0 1-3.5.837H5.48l.555-1.02a11.02 11.02 0 0 1 1.214-1.925V33.687c-.465-.6-.872-1.245-1.214-1.924l-.297-.482h-.822l.554 1.02c.34.696.75 1.354 1.225 1.964V49.53a11.203 11.203 0 0 0-1.225 1.925l-.554 1.02h6.743a6.72 6.72 0 0 0 3.491-.837 3.834 3.834 0 0 0 1.244-1.126 4.088 4.088 0 0 1-.718.568zM53.986 52.514a6.197 6.197 0 0 0 3.31-.847c.45-.27.839-.635 1.138-1.068-.19.173-.394.327-.612.462a6.235 6.235 0 0 1-3.32.847h-5.94v-.684a4.137 4.137 0 0 1 1.225-2.329V33.687a3.845 3.845 0 0 1-.584-.712 3.226 3.226 0 0 1-.64-1.626v-.077h-.526v.683c.065.589.29 1.148.65 1.617.165.26.361.5.583.712v15.208a4.128 4.128 0 0 0-1.224 2.339v.683h5.95-.01z"/>
            <path d="M54.043 41.696v.596c.162-.013.325.007.479.058a.52.52 0 0 1 .344.462v5.679h.105a.558.558 0 0 0 .412-.559v-1.154-4.553a.53.53 0 0 0-.335-.472 1.902 1.902 0 0 0-.641-.077h-.364v.02zM30.437 52.514v-.606h-9.958v-.684a4.137 4.137 0 0 1 1.224-2.329V33.687a3.845 3.845 0 0 1-.583-.712 3.12 3.12 0 0 1-.65-1.626v-.077h-.527v.683a3.09 3.09 0 0 0 .65 1.617c.17.258.365.497.584.712v15.208a4.147 4.147 0 0 0-1.234 2.339v.683h10.522-.028z"/>
            <path d="M29.757 42.745h-3.826v.568h3.826zM27.27 34.044h-1.32v.606h.833c.373 1.415 1.77 3.677 3.003 3.686h.689v-.606h-.172c-1.273-.01-2.67-2.271-3.033-3.686zM28.476 46.142a7.398 7.398 0 0 0-1.53 2.416h.324a7.613 7.613 0 0 1 1.206-2.416zM1.014 75.075A11.11 11.11 0 0 1 2.18 73.15V57.798a11.564 11.564 0 0 1-1.158-1.925l-.2-.433H0l.507.963c.32.679.708 1.324 1.157 1.925v15.41a10.6 10.6 0 0 0-1.167 1.924l-.45.963h7.08v-.588H.563l.45-.962zM7.432 61.6c-.2.693-.392 1.357-.574 2.002h.345l.23-.799c.21-.75.44-1.511.678-2.33.24-.817.421-1.472.641-2.203H8.35v-.741-2.06h-.478v3.349h.402c-.21.742-.421 1.473-.641 2.205a2.165 2.165 0 0 0-.2.577zM8.609 72.245c-.354-1.347-.766-2.887-1.167-4.437l-.24-.905h-.765v.597h.259c.248.963.507 1.925.755 2.888.249.962.44 1.684.65 2.454l1.005 3.85h5.51v-.654H9.613l-1.004-3.793zM12.913 58.318c.245-.191.478-.397.698-.616.168-.173.325-.356.469-.549a5.898 5.898 0 0 1-1.071.857c-.029.106-.067.212-.096.308zM75.862 55.43v.693c.063.594.292 1.158.66 1.627.183.254.388.493.612.712v15.15c.158-.208.334-.4.526-.578V57.875a4.304 4.304 0 0 1-.612-.703 3.235 3.235 0 0 1-.698-1.645v-.097h-.488zM82.5 76.037h-6.122v-.683c.079-.622.33-1.21.727-1.694a4.04 4.04 0 0 0-1.243 2.29v.694h6.112a6.995 6.995 0 0 0 3.654-.847c.492-.275.914-.66 1.234-1.126a3.301 3.301 0 0 1-.718.53 6.957 6.957 0 0 1-3.644.837zM83.58 66.412a.528.528 0 0 0-.41-.48 2.853 2.853 0 0 0-.68-.078h-.353v.597c.174.003.347.026.516.067a.557.557 0 0 1 .42.482v5.65c.068.004.135.004.202 0a.598.598 0 0 0 .315-.607v-2.406c0-1.078 0-2.156-.01-3.225zM16.797 76.037v-.683a4.176 4.176 0 0 1 1.233-2.339v-15.15a4.922 4.922 0 0 1-.583-.712 3.313 3.313 0 0 1-.65-1.626v-.087h-.536v.683c.069.595.3 1.158.67 1.627.163.258.356.497.573.712V73.65a4.108 4.108 0 0 0-1.243 2.33v.683h6.466v-.626h-5.93zM22.411 68.212h-.124v.597a6.566 6.566 0 0 0 3.023-.693 3.66 3.66 0 0 0 1.358-1.174 3.74 3.74 0 0 1-.842.577 6.917 6.917 0 0 1-3.415.693zM23.588 58.838a.568.568 0 0 0-.354-.578 2.624 2.624 0 0 0-.68-.067h-.277v.596c.15.003.297.025.44.068.228.097.37.329.354.577v5.39a.537.537 0 0 0 .498-.51V60.09l.019-1.251zM29.652 76.037v-.683a4.166 4.166 0 0 1 1.225-2.339v-15.16a4.108 4.108 0 0 1-1.225-2.328v-.087h-.526v.683a4.118 4.118 0 0 0 1.234 2.34V73.65a4.108 4.108 0 0 0-1.224 2.33v.683h10.521v-.626H29.652z"/>
            <path d="M37.63 70.263a7.437 7.437 0 0 0-1.521 2.406h.325a7.333 7.333 0 0 1 1.196-2.406zM36.434 58.202h-1.32v.597h.794c.363 1.405 1.76 3.677 3.003 3.687h.68v-.597h-.163c-1.244-.01-2.63-2.281-2.994-3.687zM38.92 66.903h-3.825v.597h3.826v-.597zM35.2 45.574V35.46a5.095 5.095 0 0 1 .9-3.042 4.829 4.829 0 0 0-1.426 3.638v10.116a2.804 2.804 0 0 1-.411 1.52c.615-.525.96-1.304.937-2.117zM32.589 48.914l-.383.087v3.513l.43.058c.122.007.243.007.364 0a5.725 5.725 0 0 0 4.218-2.022c.077-.086.134-.182.201-.269a5.655 5.655 0 0 1-3.893 1.694 2.652 2.652 0 0 1-.363 0l-.43-.067v-3.042l-.144.048zM40.356 52.437h5.461v-.606h-4.945V33.967H40.7c-.54.104-1 .461-1.234.962.209-.165.456-.274.717-.318h.173v17.826zM60.26 31.3c.074.484.268.941.565 1.329.176.286.4.54.66.75V49.01a3.854 3.854 0 0 0-1.224 2.05v.222h5.165v-.962-1.376h-.67V31.078h-4.495v.222zM71.682 27.787a2.98 2.98 0 0 0 2.343 2.05c.208.05.419.086.632.106.172.01.344.01.516 0a4.05 4.05 0 0 0 2.697-.962c.384-.332.66-.77.794-1.261.066-.24.107-.484.125-.732v-.23h-.259a3.34 3.34 0 0 0-1.061.25 4.563 4.563 0 0 0-1.31.712 1.533 1.533 0 0 1-1.914 0 5.5 5.5 0 0 0-2.382-.962h-.124l-.067.076a.675.675 0 0 0-.086.164.968.968 0 0 0 0 .558c.041.073.073.15.096.231zM76.522 40.579v10.713h4.907v-.212a3.509 3.509 0 0 0-1.043-1.82 2.185 2.185 0 0 0-.316-.278v-.068V33.37c.162-.121.31-.26.44-.414.31-.335.568-.715.766-1.126.083-.177.122-.372.114-.568v-.192h-4.81v.202a8.494 8.494 0 0 0 0 .856v.096c.019.376.019.752 0 1.127l-.804 2.339-.469 1.347-.765 2.233c-.287.837-.574 1.675-.88 2.512h-.182V31.07h-4.964v.202c.086.505.307.978.64 1.366.209.288.46.542.747.751v15.612a3.67 3.67 0 0 0-1.34 2.079v.212h4.907v-.193a8.339 8.339 0 0 0 0-.847v-.058-.693c-.01-.355.052-.709.182-1.04l.87-2.52 1.914-5.39.086.028zM6.696 31.387a8.94 8.94 0 0 0 1.262 1.983v15.602a9.403 9.403 0 0 0-1.262 2.04l-.173.318h5.912a6.234 6.234 0 0 0 3.252-.78c.51-.284.935-.699 1.234-1.203.263-.462.398-.987.392-1.52v-1.925-3.85a3.117 3.117 0 0 0-1.913-2.705 8.076 8.076 0 0 0-3.711-.597h-.21v-.096V33.688h-.154v-.193h2.43v.077c.2 1.194 1.635 3.426 2.63 3.58h.316V31.08H6.56l.135.202v.106zm4.782 10.963v-1.193h.785a3.3 3.3 0 0 1 .89.096.961.961 0 0 1 .736.962v5.669c.004.514-.36.956-.861 1.05h-1.55V42.35zM53.709 38.721V31.09h-4.496v.212c.062.48.243.936.526 1.328.179.284.402.537.66.75V49.01a3.855 3.855 0 0 0-1.186 2.05v.222h5.443a5.759 5.759 0 0 0 3.07-.78 3.142 3.142 0 0 0 1.33-1.578 3.01 3.01 0 0 0 .248-1.126v-5.679a3.12 3.12 0 0 0-1.674-2.724 6.66 6.66 0 0 0-3.338-.683l-.583.01zm1.626 2.484c.39.132.651.5.65.914v5.679c.02.505-.322.951-.813 1.058h-1.607v-.154l.201-.086V46.2v-5.101h.517c.354-.027.71.008 1.052.106zM21.225 31.3c.064.487.259.946.565 1.329.176.286.399.54.66.75V49.01a3.855 3.855 0 0 0-1.187 2.05v.222h9.441v-6.044h-.22a1.04 1.04 0 0 0-.574.24 6.485 6.485 0 0 0-1.99 3.35v.077h-2.2v-3.177-3.59h4.315v-.212-2.136H25.71v-.096-6.007h-.114v-.192h2.266v.077c.182 1.203 1.56 3.475 2.516 3.58h.268V31.09h-9.431v.212h.01zM14.003 73.785a4.786 4.786 0 0 0-.956-.731v-.048a453.71 453.71 0 0 1-1.11-3.542l-.181-.597c-.306-.963-.67-2.185-1.043-3.32l-.057-.155c-.058-.173-.086-.27 0-.385.42-1.232.813-2.531 1.157-3.677v-.057c.249-.838.526-1.762.832-2.695l.345-1.04a5.808 5.808 0 0 0 1.559-1.386 1.39 1.39 0 0 0 .325-.712v-.231H9.173V57.615h.545v.125c-.162.568-.335 1.136-.497 1.704l-.306 1.059c-.354 1.193-.66 2.271-.957 3.35v.067H6.246v-.097V55.17h-4.61l.134.27c.31.726.72 1.406 1.214 2.021V73.15a9.54 9.54 0 0 0-1.167 1.925l-.143.308h5.835v-.212a3.79 3.79 0 0 0-1.052-1.925.757.757 0 0 0-.154-.134v-.068-5.515V66.258H7.93v.078c.468 1.828.956 3.715 1.387 5.303l.956 3.763h4.658v-.221c-.028-.491-.583-1.069-.928-1.396zM87.589 66.21a3.08 3.08 0 0 0-1.856-2.772 7.107 7.107 0 0 0-3.405-.645h-.622V55.17h-4.783v.26c.093.475.296.92.594 1.3.193.287.432.54.707.75v15.622a3.786 3.786 0 0 0-1.253 2.06v.221h5.615a6.414 6.414 0 0 0 3.396-.78 3.134 3.134 0 0 0 1.53-1.925c.061-.216.094-.44.096-.664V68.27l-.02-2.06zm-4.075 6.642c-.142.056-.29.094-.44.115h-.096c-.12.01-.242.01-.363 0h-.899v-.096-3.301-3.119V65.2h.822a3.28 3.28 0 0 1 .823.086c.435.117.74.51.746.963v5.554c.036.439-.2.856-.593 1.049zM25.989 55.902a5.711 5.711 0 0 0-2.765-.732h-5.672v.27c.1.471.314.911.622 1.28.178.284.398.54.65.76v15.574a3.855 3.855 0 0 0-1.176 2.05v.221h5.49v-.962-1.454h-.956v-.096-1.992-3.369h.593a6.421 6.421 0 0 0 3.051-.558c.606-.3 1.1-.79 1.406-1.396.227-.43.342-.91.335-1.395v-5.554a3.102 3.102 0 0 0-1.578-2.647zm-1.665 8.2c-.008.54-.421.986-.956 1.03H22v-.096-7.209l-.096-.077h-.095v-.193h.956c.285-.01.569.026.842.106.42.158.69.57.67 1.02v1.926c.057 1.155.057 2.32.047 3.494z"/>
            <path d="M30.35 55.392v.048c.183.789.608 1.5 1.215 2.03v15.584a3.971 3.971 0 0 0-1.186 2.05v.221h9.48V69.3h-.22c-.243.034-.47.142-.651.308a6.477 6.477 0 0 0-1.913 3.282v.087h-2.22v-.097-2.617V66.23h4.324v-.203-2.165h-4.333v-.096-3.716-2.069l-.411-.231h-.077v-.193h2.621v.087c.191 1.203 1.598 3.513 2.544 3.58h.24v-6.053H30.35v.22zM59.008 73.622h-.268v-16.69H58.912c.269-.237.501-.513.689-.818.158-.232.29-.48.392-.741l.096-.241h-.259a8.66 8.66 0 0 0-1.233-.096 6.66 6.66 0 0 0-2.727.539A5.118 5.118 0 0 0 53 59.53c-.63 3.35-.956 5.12-1.396 8.45v.087h-.277v-.087a118.49 118.49 0 0 0-.373-2.54c-.287-1.926-.564-3.504-1.024-5.91-.746-3.716-3.453-4.495-5.586-4.495a8.699 8.699 0 0 0-1.243.096h-.249l.058.164v.077c.26.574.63 1.09 1.09 1.52l.057.058h.163v16.584h-.115a3.926 3.926 0 0 0-1.119 1.54l-.124.298h4.897v-.587V73.535h-.746v-3.696-4.466V59.935h.287v.077c.564 2.887 1.043 5.775 1.416 8.017l.067.309c.325 1.925.727 4.34 1.195 6.853v.173h2.87v-.174c.45-2.415.851-4.812 1.176-6.737l.106-.645c.181-1.116.382-2.3.602-3.532.249-1.444.517-2.945.823-4.495v-.077h.287v.087c.048 1.174 0 7.026 0 10.52v3.185h-.746v1.839h4.897l.02-.26a5.39 5.39 0 0 0-1.005-1.453zM73.327 73.285a.853.853 0 0 0-.163-.145V57.548l.144-.135c.393-.398.717-.86.956-1.367.077-.177.122-.365.134-.558v-.212H70.266c-1.148 0-1.913 0-2.42.048-.484.03-.956.162-1.387.386a4.134 4.134 0 0 0-2.257 3.955v10.087a3.28 3.28 0 0 1-2.325 3.167h-.143v2.714h.268a5.23 5.23 0 0 0 3.826-1.867c.465-.52.794-1.148.956-1.829.213-.947.3-1.917.259-2.887v-.895V60.195c.064-.49.212-.967.44-1.406a2.163 2.163 0 0 1 1.635-1.183h1.177v.24l-.488.077v17.508h4.505v-.221a3.714 3.714 0 0 0-.985-1.925zM41.56 33.688V51.205h4.497v-.192a3.692 3.692 0 0 0-1.1-1.925.758.758 0 0 0-.134-.126V33.283l.153-.135c.314-.344.581-.729.794-1.145.138-.238.22-.505.239-.78v-.211H39.457c-2.196.199-3.822 2.14-3.645 4.35 0 3.09.048 10.097.048 10.097a3.28 3.28 0 0 1-2.286 3.147h-.144v2.705h.316a5.23 5.23 0 0 0 3.826-1.867c.289-.314.522-.676.689-1.069a9.497 9.497 0 0 0 .488-3.638v-.866V35.978c.013-.1.032-.2.057-.298.062-.331.162-.654.297-.963a2.203 2.203 0 0 1 1.721-1.376h1.263v.24l-.526.106z"/>
        </g>
    </g>
</svg>
