<svg xmlns="http://www.w3.org/2000/svg" width="116" height="30" viewBox="0 0 116 30">
    <g fill="none" fill-rule="evenodd">
        <path d="M-7-24h130v77H-7z"/>
        <g fill="#F2F2F2">
            <path d="M97.273.006h-5.265l-3.306 8.123 3.84 9.927h5.62L93.694 7.95z"/>
            <path fill-rule="nonzero" d="M83.978.006h4.634v18.047h-4.634z"/>
            <path d="M79.96 18.056l3.928-9.927L80.585.006h-5.26L78.9 7.95l-4.471 10.097zM110.388 7.95l4.189-7.944h-5.265l-4.195 8.123 4.73 9.927h5.622z"/>
            <path fill-rule="nonzero" d="M100.392.006h4.634v18.047h-4.634z"/>
            <path d="M49.448 18.047V0h-4.721v5.776h-4.91V0h-4.643v18.047h4.642V9.835l4.91.01v8.202zM67.648 18.047l-.015-9.718-4.814 6.474-4.908-6.474.02 9.718h-4.738L53.187 0h4.19l5.442 7.4L68.255 0h4.114l.009 18.047zM38.54 23.647h-2.055V27.6h-1.311v-5.015h3.366zM41.648 26.63a.84.84 0 0 0 .622-.236c.159-.166.276-.368.343-.588.065-.223.1-.453.105-.685a2.05 2.05 0 0 0-.29-1.089.898.898 0 0 0-.838-.438c-.733 0-1.102.535-1.102 1.603-.013.363.09.72.29 1.02.196.28.521.436.858.41l.012.002zm-1.145-3.318c.155-.241.352-.453.581-.624.273-.172.592-.254.913-.235a1.868 1.868 0 0 1 1.454.644c.197.241.35.516.45.812.116.363.172.742.166 1.123a4.179 4.179 0 0 1-.221 1.333c-.135.39-.377.734-.698.99a1.835 1.835 0 0 1-1.163.377 1.5 1.5 0 0 1-1.384-.785h-.026v2.594H39.25v-6.956h1.256l-.003.727zM47.654 27.509c-.165.494-.29.882-.418 1.144-.082.22-.201.426-.352.606a.915.915 0 0 1-.445.294 2.72 2.72 0 0 1-.712.07l-.581-.014v-1.08c.084.016.17.023.255.021.203.012.406-.036.582-.138.157-.169.251-.387.267-.618l-1.825-5.209h1.453l1.061 3.689h.02l1.012-3.689h1.387l-1.704 4.924zM54.565 27.6h-1.317v-3.932h-1.852V27.6h-1.308v-5.015h4.477zM60.22 27.6h-1.314v-3.932H57.06V27.6H55.75v-5.015h4.469zM64.15 25.159c-.269.15-.566.242-.872.27-.161.028-.32.069-.474.124a.678.678 0 0 0-.29.223.629.629 0 0 0-.108.4.56.56 0 0 0 .183.46.658.658 0 0 0 .413.146c.194 0 .386-.042.561-.126.173-.073.323-.193.433-.347a.794.794 0 0 0 .172-.512l-.018-.638zm1.265 1.456c-.013.193.016.387.084.567.037.1.115.178.213.215v.203h-1.413a3.214 3.214 0 0 1-.125-.588 3.269 3.269 0 0 1-.657.532 1.938 1.938 0 0 1-.94.203 1.727 1.727 0 0 1-.747-.162 1.266 1.266 0 0 1-.555-.485 1.508 1.508 0 0 1-.212-.818c-.007-.281.056-.56.183-.811.12-.22.299-.402.515-.527.231-.137.489-.224.755-.256l1.163-.182c.291-.041.454-.174.454-.388a.448.448 0 0 0-.247-.47 1.41 1.41 0 0 0-.61-.113.736.736 0 0 0-.582.194.914.914 0 0 0-.207.5H61.23c.02-.407.162-.799.407-1.123a1.47 1.47 0 0 1 .767-.52c.344-.095.7-.14 1.055-.133.295.003.588.042.873.118.291.075.557.228.77.444.223.236.339.556.32.882l-.006 2.718zM71.419 27.6h-1.312v-5.015h1.312v1.9l1.636-1.9h1.625l-1.776 1.941L74.75 27.6h-1.578l-1.213-2.15-.54.562zM77.498 23.57a.982.982 0 0 0-.93.45c-.184.328-.274.7-.262 1.077-.012.37.079.737.261 1.059a.97.97 0 0 0 .93.459c.366.039.723-.13.928-.439.183-.324.276-.693.267-1.067a2.108 2.108 0 0 0-.267-1.083.979.979 0 0 0-.927-.444v-.011zm0 4.162a2.756 2.756 0 0 1-1.268-.294 2.247 2.247 0 0 1-.924-.882 2.895 2.895 0 0 1-.352-1.47 3.192 3.192 0 0 1 .206-1.177c.122-.316.311-.6.555-.833.238-.211.513-.376.812-.485a3.038 3.038 0 0 1 1.94 0 2.287 2.287 0 0 1 1.364 1.318c.138.376.206.775.199 1.176.005.393-.063.783-.2 1.15-.121.315-.311.597-.556.827-.234.22-.511.388-.814.49-.309.114-.634.17-.962.169v.011zM85.72 24.174L84.471 27.6h-1.096l-1.25-3.426h-.04c0 .047.02.132.028.24.01.11 0 .224 0 .357V27.6h-1.218v-5h1.788l1.207 3.412h.04l1.207-3.412h1.79v5h-1.22v-2.83c0-.111.014-.229.02-.346.006-.118 0-.195.02-.25h-.029zM92.604 27.6h-1.311v-3.926h-1.85V27.6h-1.31v-5.015h4.47zM96.523 25.159c-.27.15-.566.245-.872.276a2.327 2.327 0 0 0-.466.118.713.713 0 0 0-.29.223.647.647 0 0 0-.117.4.52.52 0 0 0 .192.46c.12.095.267.147.419.146a1.44 1.44 0 0 0 .561-.12c.171-.08.32-.2.433-.353a.839.839 0 0 0 .163-.512l-.023-.638zm1.282 1.456c-.014.192.01.385.07.567.037.1.114.178.212.215v.203H96.68a2.9 2.9 0 0 1-.122-.588 3.122 3.122 0 0 1-.666.526 1.915 1.915 0 0 1-.94.203 1.638 1.638 0 0 1-.732-.162c-.233-.1-.43-.268-.564-.485a1.451 1.451 0 0 1-.212-.812c-.007-.28.057-.56.186-.808.116-.223.292-.408.506-.536a2.16 2.16 0 0 1 .762-.256l1.163-.182c.308-.032.459-.174.459-.388a.46.46 0 0 0-.247-.47 1.439 1.439 0 0 0-.602-.113.725.725 0 0 0-.605.203 1.1 1.1 0 0 0-.206.497h-1.253c.013-.4.147-.787.384-1.108.2-.257.476-.444.787-.536a3.93 3.93 0 0 1 1.059-.132c.294.003.587.042.872.118.29.078.553.231.767.444.227.235.346.554.329.882v2.718zM103.41 27.6H102.1v-1.985h-1.843V27.6h-1.311v-5.015h1.31v1.97h1.844v-1.97h1.311zM109.073 27.6h-1.31v-3.024l-1.757 3.024h-1.404v-5.015h1.308v3.018l1.756-3.018h1.407zM114.737 27.606h-1.317v-3.018l-1.756 3.018h-1.399v-5.009h1.317v3.012l1.753-3.012h1.402zM114.071 20.712c0 .364-.17.706-.46.923-.149.103-.314.18-.488.23-.19.044-.385.067-.581.067a2.132 2.132 0 0 1-.753-.132 1.233 1.233 0 0 1-.564-.415 1.142 1.142 0 0 1-.204-.673h.91a.592.592 0 0 0 .172.442.578.578 0 0 0 .439.17.598.598 0 0 0 .442-.171.612.612 0 0 0 .183-.441h.904z"/>
            <path fill-rule="nonzero" d="M23.574 0a13.26 13.26 0 0 0-8.94 3.48A13.264 13.264 0 0 0 5.706 0H0v14.809C-.073 20.147 2.7 25.11 7.257 27.802a14.487 14.487 0 0 0 14.75 0c4.558-2.69 7.33-7.655 7.256-12.993V0h-5.69zm2.064 14.803c-.098 6.078-4.997 10.954-11.006 10.954S3.724 20.881 3.627 14.803V3.673h2.079c3.536.011 6.79 1.96 8.5 5.092l.428.77.424-.77c1.713-3.137 4.973-5.086 8.516-5.091h2.064v11.129z"/>
            <path fill-rule="nonzero" d="M8.967 10.215a4.663 4.663 0 0 1 1.355 3.314v1.292c.004.565.113 1.125.323 1.65.22.527.54 1.006.942 1.408.229.23.48.436.75.615.273.174.566.315.872.418l.646.235V13.53c-.02-4.54-3.653-8.216-8.14-8.235h-.5v3.55h.49c1.225-.003 2.4.49 3.262 1.37zM17.82 7.709a8.21 8.21 0 0 0-2.387 5.82v5.627l.631-.235a4 4 0 0 0 1.62-1.033A4.416 4.416 0 0 0 18.93 14.8v-1.27a4.71 4.71 0 0 1 1.366-3.304 4.54 4.54 0 0 1 3.265-1.37h.477V5.294h-.465A8.027 8.027 0 0 0 17.82 7.71z"/>
            <path fill-rule="nonzero" d="M20.53 13.53v1.29a5.85 5.85 0 0 1-1.69 4.177 6.276 6.276 0 0 1-1.962 1.332 6.044 6.044 0 0 1-2.308.471 5.736 5.736 0 0 1-4.105-1.765 5.964 5.964 0 0 1-1.277-1.932 5.876 5.876 0 0 1-.45-2.285v-1.289c.001-1.696-1.355-3.074-3.032-3.079h-.492v4.359c.09 5.197 4.28 9.362 9.418 9.362 5.138 0 9.328-4.165 9.418-9.362V10.45a4.633 4.633 0 0 1-3.52 3.08z"/>
        </g>
    </g>
</svg>
