<svg width="24" height="24" viewBox="0 0 24 24" fill="none" xmlns="http://www.w3.org/2000/svg">
<path fill-rule="evenodd" clip-rule="evenodd" d="M3.16994 19.9007C3.17318 19.9363 3.19391 20.1645 3.38649 20.3571C3.57906 20.5496 3.80723 20.5704 3.84286 20.5736L3.84564 20.5739C3.91458 20.5806 3.96944 20.5763 3.99232 20.5742C4.0429 20.5695 4.0839 20.5607 4.10026 20.557C4.13957 20.5483 4.17796 20.5373 4.20532 20.5291C4.26482 20.5114 4.34087 20.4863 4.4251 20.4577C4.59634 20.3993 4.83362 20.3148 5.11132 20.2141C5.6682 20.0121 6.40414 19.739 7.13625 19.4652C7.86888 19.1911 8.59978 18.9157 9.14738 18.7088C9.42121 18.6053 9.6493 18.519 9.80895 18.4585L9.99428 18.3882L10.0431 18.3697L10.0557 18.3649L10.0589 18.3637L10.0597 18.3634L10.0599 18.3633L9.79372 17.6621L10.06 18.3633L10.2103 18.3062L10.3241 18.1925L20.0919 8.42464L20.799 7.71754C21.8729 6.64359 21.8729 4.90239 20.799 3.82845L19.9151 2.94456C18.8412 1.87062 17.1 1.87062 16.026 2.94456L15.8492 3.12134L15.3189 3.65167L5.55108 13.4195L5.43736 13.5332L5.38026 13.6836L6.08141 13.9498L5.38023 13.6836L5.38016 13.6839L5.37985 13.6847L5.37864 13.6879L5.37387 13.7004L5.35533 13.7493L5.28507 13.9346C5.22457 14.0943 5.13822 14.3223 5.03476 14.5962C4.82786 15.1438 4.5524 15.8747 4.27839 16.6073C4.00458 17.3394 3.73141 18.0753 3.52944 18.6322C3.42873 18.9099 3.34422 19.1472 3.2859 19.3185C3.25721 19.4027 3.23218 19.4787 3.21443 19.5382C3.20626 19.5656 3.19523 19.604 3.18651 19.6433C3.18289 19.6596 3.17403 19.7006 3.16936 19.7512C3.16724 19.7741 3.16291 19.829 3.16968 19.8979L3.16994 19.9007ZM16.9099 4.182L17.0867 4.00522C17.5748 3.51707 18.3663 3.51707 18.8544 4.00522L19.7383 4.88911C20.2265 5.37726 20.2265 6.16872 19.7383 6.65688L19.5616 6.83365L16.9099 4.182ZM8.61721 17.3056L8.76461 17.2499L6.49365 14.9789L6.43794 15.1263C6.23138 15.6731 5.95656 16.4023 5.68334 17.1328C5.4915 17.6457 5.30083 18.1582 5.13528 18.6083C5.58531 18.4427 6.09785 18.2521 6.61078 18.0602C7.34129 17.787 8.0705 17.5122 8.61721 17.3056ZM10.0156 16.3796L7.36396 13.7279L15.8492 5.24266L18.5009 7.89431L10.0156 16.3796Z" fill="#17181A"/>
</svg>
