<svg width="102" height="37" viewBox="0 0 102 37" fill="none" xmlns="http://www.w3.org/2000/svg">
<path d="M51.4461 22.3086H54.6127V8.45475H50.7534L46.8941 15.1244L42.9952 8.45475H38.9182V22.3086H42.0848V12.8286L45.9441 19.1618H47.7055L51.4461 12.789V22.3086Z" fill="white"/>
<path d="M62.5288 19.4784C61.8757 19.4784 61.1632 19.2607 60.708 18.9243V22.1107C61.0643 22.269 61.8361 22.4669 62.608 22.4669C64.1715 22.4669 65.3788 21.7742 66.586 19.1024L71.4151 8.45475H68.0902L65.0225 15.4806L61.2028 8.45475H57.5415L63.4392 19.0826C63.2611 19.3597 63.0038 19.4784 62.5288 19.4784Z" fill="white"/>
<path d="M73.9397 13.4025C74.8105 12.2547 76.4334 11.2057 78.5313 11.2255C80.0552 11.2453 80.8666 11.6015 80.8666 12.6109C80.8666 13.3828 80.2927 13.9567 78.8281 13.9567H76.8292V16.5691H78.8479C80.7677 16.5691 81.5593 16.965 81.5593 17.9347C81.5593 19.0628 80.2531 19.5378 78.749 19.5378C76.3344 19.5774 74.573 18.6868 73.6824 17.3608V20.8836C74.4147 21.7149 76.3146 22.5263 78.7687 22.5065C82.9249 22.4669 84.8249 20.6461 84.8249 18.1524C84.8249 16.3316 83.8353 15.2827 81.5989 15.0056C83.202 14.4317 84.1124 13.5015 84.1124 11.8193C84.1124 9.30577 82.0541 8.25684 78.5313 8.25684C76.4136 8.25684 74.8897 8.75162 73.9397 9.30577V13.4025Z" fill="white"/>
<path d="M95.8337 8.45475H92.3307L86.7891 22.3086H89.9557L91.064 19.4784H97.0014L98.0899 22.3086H101.435L95.8337 8.45475ZM92.2317 16.5098L94.0525 11.8588L95.8535 16.5098H92.2317Z" fill="white"/>
<path d="M4.18619 20.7524C6.22252 19.3935 8.11564 17.7286 9.78052 15.832C11.586 13.8196 13.2626 11.6933 14.7919 9.47692C15.5618 8.35516 16.307 7.22625 17.0292 6.06376L18.077 4.32503L18.5763 3.44837L18.8294 3.00613L18.9593 2.7809L19.0975 2.61871C19.2843 2.29798 19.5261 2.00428 19.8062 1.75811C20.0862 1.51194 20.3976 1.31926 20.7189 1.19331C21.0402 1.06735 21.3636 1.01113 21.6666 1.02874C21.9695 1.04636 22.2447 1.1373 22.4732 1.29522C22.794 1.52386 23.0099 1.87362 23.093 2.2992L23.1171 2.58565L23.0825 2.62624L23.0821 3.17157C23.0688 3.53822 23.0494 3.89975 23.0114 4.25923C22.9417 4.96667 22.832 5.6818 22.6827 6.40078C22.3938 7.77864 22.0079 9.16232 21.5283 10.5403C21.0581 11.9034 20.5392 13.2391 19.9646 14.5553L19.9115 14.6782L19.8702 14.7267C20.1453 14.7791 19.4937 14.6721 19.5562 14.6834C19.5391 14.6714 19.5232 14.6578 19.5085 14.6428C19.4602 14.6996 19.4602 14.6996 19.5085 14.6428L19.5431 14.6022C19.5431 14.6022 19.5119 14.0578 19.5319 14.3127L19.5734 14.264L20.0924 14.0904C22.8093 13.2823 25.4849 13.1059 27.9165 13.5747C28.0793 13.6014 28.2044 13.6241 28.3792 13.661L28.9256 13.8186C29.3652 13.9555 29.7466 14.1948 30.048 14.5228C30.2265 14.7308 30.3651 14.9762 30.4591 15.2509C30.5506 15.5553 30.5914 15.8872 30.5798 16.2354C30.5288 16.8104 30.3501 17.4054 30.0576 17.9743C29.6345 18.7744 29.1011 19.5317 28.48 20.2137C27.9591 20.8058 27.411 21.3721 26.8393 21.9095C24.6814 23.9016 22.4193 25.7474 20.0749 27.4287C18.2511 28.7585 16.5444 29.2364 16.2805 28.5777C16.0166 27.9189 17.174 26.4273 18.9026 25.1003C21.0545 23.4773 23.1267 21.7086 25.0995 19.8112C25.5503 19.3686 25.981 18.9036 26.3891 18.4186C26.7229 18.0484 27.0072 17.6366 27.2291 17.2023C27.3327 17.0806 27.2798 17.0217 27.3188 17.097C27.3579 17.1722 27.3616 17.3012 27.3487 17.3042C27.3358 17.3073 27.271 17.2381 27.127 17.2134L26.8837 17.1599L26.5071 17.1054C24.5262 16.792 22.3626 16.9972 20.1791 17.7056L19.7889 17.8489C19.6551 17.9013 19.5207 17.9459 19.3865 17.9822C19.2116 18.0327 19.0375 18.067 18.8661 18.0846C18.1559 18.1671 17.5119 17.9933 17.0382 17.5912C16.5664 17.1905 16.2879 16.5891 16.2465 15.881C16.2237 15.5275 16.2629 15.1539 16.3625 14.7762C16.4084 14.5931 16.4681 14.4099 16.5407 14.2282L16.6477 13.9694C17.1393 12.7505 17.5796 11.5437 17.9562 10.3388C18.331 9.16071 18.6263 7.98042 18.8394 6.80792C18.9412 6.25196 19.0119 5.70015 19.0512 5.15497C19.0639 4.88583 19.0757 4.62978 19.0745 4.37686L19.069 4.00823C19.069 4.00823 19.0284 3.7775 19.1079 4.26522C19.1637 4.51893 19.2796 4.73797 19.4475 4.90582C19.6155 5.07367 19.8309 5.1859 20.0775 5.23431C20.324 5.28272 20.5953 5.26596 20.8711 5.18525C21.147 5.10454 21.4202 4.96202 21.6702 4.76833C21.9967 4.52142 22.2729 4.19716 22.4648 3.83562L22.375 3.94097L22.2501 4.18452L21.9882 4.6613L21.4706 5.62008L20.3995 7.50707C19.6519 8.75991 18.8726 10.0138 18.0635 11.2421C16.4258 13.7401 14.6192 16.1443 12.6639 18.428C10.6004 20.868 8.23694 23.0237 5.68087 24.7971C5.10507 25.1416 4.51346 25.4303 3.91552 25.6588C3.40527 25.8324 2.89491 25.939 2.39767 25.9756C1.5115 25.9626 1.04898 25.6943 1.10461 25.2657L1.33324 23.3749C1.40016 23.1242 1.51855 22.8762 1.67952 22.6495C1.84049 22.4228 2.03984 22.2233 2.26216 22.0666C2.53084 21.8148 2.81907 21.5903 3.12049 21.3981C3.46664 21.1571 3.82297 20.9413 4.18619 20.7524Z" fill="white"/>
</svg>
