<svg xmlns="http://www.w3.org/2000/svg" width="100" height="15" viewBox="0 0 100 15">
    <g fill="#212121" fill-rule="nonzero">
        <path d="M13.347 2.948h-3.4L4.474 9.983v1.707H7.42V8.483l2.526 3.207h3.421L9.842 7.345l3.515-4.383a7.185 7.185 0 0 1 1.485 4.383c0 4.034-3.316 7.293-7.42 7.293C3.315 14.638 0 11.379 0 7.345 0 3.31 3.316.052 7.421.052a7.45 7.45 0 0 1 5.926 2.896zM4.474 8.793L7.42 5.017V2.948H4.474v2.949h-3v2.896h3zM19 10.655a.155.155 0 0 1 0-.207l1-1.138c.053-.051.105-.051.21 0 .58.466 1.369.88 2.316.88.948 0 1.474-.414 1.474-1.035 0-.517-.316-.827-1.368-.983l-.527-.051c-1.79-.259-2.79-1.087-2.79-2.638 0-1.604 1.211-2.69 3.159-2.69 1.158 0 2.263.362 3 .931.052.052.105.104 0 .207l-.79 1.19c-.052.051-.105.051-.158.051-.684-.413-1.315-.672-2.052-.672-.79 0-1.21.414-1.21.931 0 .517.368.828 1.368.983l.473.052c1.842.258 2.79 1.086 2.79 2.637 0 1.552-1.21 2.742-3.474 2.742-1.368 0-2.737-.57-3.421-1.19zM33.474 11.69c-.106 0-.158-.052-.158-.104l-1.527-5.43-1.578 5.43c0 .052-.053.104-.158.104h-1.316c-.053 0-.105-.052-.158-.104l-2.316-8.483c0-.051 0-.103.105-.103h1.685c.105 0 .158.052.158.103l1.263 5.483 1.579-5.483c0-.051.052-.103.158-.103h1.157c.053 0 .106.052.158.103l1.58 5.483 1.21-5.483c0-.103.052-.103.158-.103h1.684c.105 0 .105.052.105.103L35 11.586c0 .052-.053.104-.158.104h-1.368zM38.053 3.103c0-.051.052-.103.105-.103h1.684c.105-.052.158 0 .158.103v8.483c0 .052-.053.104-.105.104H38.21c-.053 0-.106-.052-.106-.104V3.103h-.052zM41.21 10.655a.155.155 0 0 1 0-.207l1-1.138c.053-.051.106-.051.211 0 .579.466 1.368.88 2.316.88.947 0 1.474-.414 1.474-1.035 0-.517-.316-.827-1.369-.983l-.474-.051c-1.79-.259-2.79-1.087-2.79-2.638 0-1.604 1.211-2.69 3.159-2.69 1.158 0 2.263.362 3 .931.052.052.105.104 0 .207l-.79 1.19c-.105.051-.158.051-.263 0-.684-.414-1.316-.673-2.052-.673-.79 0-1.21.414-1.21.931 0 .518.367.828 1.367.983l.474.052c1.842.258 2.79 1.086 2.79 2.638 0 1.551-1.21 2.741-3.474 2.741-1.368.052-2.684-.517-3.368-1.138zM49 10.655a.155.155 0 0 1 0-.207l1-1.138c.053-.051.105-.051.21 0 .58.466 1.369.88 2.316.88.948 0 1.474-.414 1.474-1.035 0-.517-.316-.827-1.368-.983l-.527-.051c-1.79-.259-2.79-1.087-2.79-2.638 0-1.604 1.211-2.69 3.159-2.69 1.158 0 2.263.362 3 .931.052.052.105.104 0 .207l-.79 1.19c-.052.051-.105.051-.158.051-.684-.413-1.315-.672-2.052-.672-.79 0-1.21.414-1.21.931 0 .517.368.828 1.368.983l.473.052c1.842.258 2.79 1.086 2.79 2.637 0 1.552-1.21 2.742-3.474 2.742-1.368 0-2.737-.57-3.421-1.19zM60.316 3.103c0-.051.052-.103.105-.103h1.684c.053 0 .106.052.106.103V6.88l2.947-3.776C65.21 3 65.263 3 65.368 3h1.895c.053 0 .105.103.053.155l-2.684 3.31 2.947 5.121c.053.104 0 .155-.053.155H65.58c-.105 0-.158 0-.21-.103l-2-3.672-1.158 1.448v2.224c0 .052-.053.103-.106.103h-1.684c-.053 0-.105-.051-.105-.103V3.103zM73.368 11.69c-.105 0-.157-.052-.21-.104L71.632 8.38h-1.21c-.054 0-.054 0-.054.052v3.103c0 .052-.052.104-.105.104H68.58c-.053 0-.105-.052-.105-.104v-8.43c0-.052.052-.104.105-.104h3.526c1.842 0 3 1.138 3 2.69 0 1.138-.579 2.017-1.579 2.43l1.737 3.466c.053.052 0 .155-.105.155h-1.79v-.051zm-.105-6c0-.673-.474-1.087-1.21-1.087h-1.58c-.052 0-.052 0-.052.052v2.017c0 .052 0 .052.053.052h1.579c.736.052 1.21-.362 1.21-1.034zM76.579 9.724c-.21-.62-.263-1.086-.263-2.38 0-1.292.052-1.81.263-2.378.474-1.397 1.684-2.121 3.263-2.121 1.58 0 2.79.724 3.263 2.12.21.621.263 1.087.263 2.38s-.052 1.81-.263 2.38c-.473 1.396-1.684 2.12-3.263 2.12S77 11.12 76.58 9.725zm4.632-.517c.105-.31.157-.724.157-1.862 0-1.138-.052-1.552-.157-1.862-.211-.62-.685-.983-1.422-.983-.736 0-1.21.362-1.42.983-.106.31-.158.724-.158 1.862 0 1.138.052 1.552.157 1.862.21.62.685.983 1.421.983.737 0 1.211-.362 1.422-.983zM84.684 3.103c0-.051.053-.103.105-.103h1.58c.105 0 .157.052.21.103l3.158 5.483h.052V3.103c0-.051.053-.103.106-.103h1.473c.053 0 .106.052.106.103v8.483c0 .052-.053.104-.106.104H89.79c-.105 0-.157-.052-.21-.104L86.42 6.103h-.053v5.483c0 .052-.052.104-.105.104H84.79c-.052 0-.105-.052-.105-.104V3.103zM93.21 9.724c-.21-.62-.263-1.086-.263-2.38 0-1.292.053-1.81.264-2.378.473-1.397 1.684-2.121 3.263-2.121s2.79.724 3.263 2.12c.21.621.263 1.087.263 2.38s-.053 1.81-.263 2.38c-.474 1.396-1.684 2.12-3.263 2.12-1.58 0-2.79-.724-3.263-2.12zm4.632-.517c.105-.31.158-.724.158-1.862 0-1.138-.053-1.552-.158-1.862-.21-.62-.684-.983-1.42-.983-.738 0-1.211.362-1.422.983-.105.31-.158.724-.158 1.862 0 1.138.053 1.552.158 1.862.21.62.684.983 1.421.983.79 0 1.263-.362 1.421-.983z"/>
    </g>
</svg>
