<svg xmlns="http://www.w3.org/2000/svg" width="397" height="110" viewBox="0 0 397 110">
    <g fill="none" fill-rule="evenodd">
        <path fill="#212121" d="M79.96 89.927H69.567V110H54.373V89.927H0L51.974 0h17.592v74.672h19.19l-8.795 15.255zM27.987 74.672h27.187V26.496L27.986 74.672z"/>
        <path fill="#F04100" fill-rule="nonzero" d="M220.27.001l-8.8 15.254H139.93c-.133.002-.266 0-.4 0-16.865 0-31.584 17.308-31.584 39.745 0 22.437 14.72 39.745 31.584 39.745.134 0 .267-.002.4-.004h25.678L156.805 110H139.531c-25.834 0-46.777-24.624-46.777-55s20.943-55 46.777-55c.134 0 .267 0 .4.002h80.34zM254.275 15.255V.002h53.953l-8.802 15.253z"/>
        <path fill="#212121" d="M256.674 89.927h-10.395V110h-15.193V89.927h-54.373L228.688 0h17.591v74.672h19.19l-8.795 15.255zm-51.975-15.255h27.187V26.496L204.7 74.672z"/>
        <path fill="#212121" fill-rule="nonzero" d="M291.453 102.651c-.037-2 .694-3.734 2.192-5.202 1.498-1.467 3.283-2.182 5.355-2.145 2.072-.037 3.862.678 5.37 2.145 1.507 1.468 2.242 3.202 2.205 5.202.037 2-.698 3.735-2.206 5.202-1.507 1.468-3.297 2.183-5.369 2.146-2.072.037-3.857-.678-5.355-2.146-1.498-1.467-2.229-3.201-2.192-5.202zm9.49 2.104c.499-.561.749-1.262.749-2.104 0-.841-.255-1.537-.763-2.089a2.48 2.48 0 0 0-1.901-.827c-.795 0-1.443.27-1.942.813-.5.542-.75 1.243-.75 2.103 0 .879.25 1.585.75 2.118.5.532 1.147.799 1.942.799.777 0 1.415-.271 1.914-.813zm8.157 4.907V95.64h4.744v9.984h3.607V95.64h4.745v9.984h3.607V95.64h4.745v14.022H309.1zm36.847-14.358h1.526v14.358H342.7v-6.31L335.403 110h-1.526V95.64h4.773v6.31l7.297-6.646zm19.505 7.572c0 2.094-.693 3.8-2.08 5.118-1.388 1.318-3.173 1.977-5.356 1.977-2.349 0-4.212-.776-5.59-2.328-1.378-1.552-2.067-3.655-2.067-6.31v-1.935c.018-1.701.17-3.127.457-4.276.287-1.15.8-2.174 1.54-3.071.74-.897 1.758-1.594 3.052-2.09 1.295-.495 2.932-.845 4.911-1.05 1.554-.132 2.59-.263 3.108-.394.462-.13.721-.196.777-.196v4.347c-.019 0-.287.056-.805.168-.536.112-1.609.224-3.218.337-2.09.15-3.52.546-4.287 1.191-.768.645-1.189 1.847-1.263 3.604 1.073-1.42 2.6-2.131 4.579-2.131 1.83 0 3.33.659 4.494 1.977 1.166 1.318 1.748 3.005 1.748 5.062zm-5.66 1.963c.518-.524.777-1.169.777-1.935 0-.767-.254-1.407-.763-1.921s-1.142-.771-1.9-.771c-.759 0-1.392.257-1.901.77-.509.515-.763 1.155-.763 1.922 0 .747.259 1.383.777 1.907a2.555 2.555 0 0 0 1.887.785c.758 0 1.387-.253 1.886-.757zm23.252 4.823h-5.577l-4.717-7.01v7.01h-4.773V95.64h4.773v6.366l4.661-6.366h5.3l-4.884 6.422 5.217 7.6zM397 101.53v8.132h-4.356v-1.15c-1.036.991-2.368 1.487-3.996 1.487-1.46 0-2.622-.416-3.482-1.248-.86-.832-1.29-1.865-1.29-3.1 0-1.308.486-2.331 1.457-3.07.97-.738 2.298-1.108 3.981-1.108h2.914v-.224c0-1.196-.703-1.795-2.11-1.795-.61 0-1.169.131-1.678.393-.508.262-1.105.701-1.79 1.318l-2.22-3.057c1.832-1.87 3.922-2.804 6.272-2.804 1.96 0 3.5.537 4.62 1.612C396.44 97.991 397 99.53 397 101.53zm-4.772 3v-.112h-2.248c-.85 0-1.276.355-1.276 1.066 0 .336.125.603.374.799.25.196.597.294 1.04.294.63 0 1.139-.187 1.527-.56.388-.374.583-.87.583-1.487z"/>
    </g>
</svg>
