<?xml version="1.0" encoding="utf-8"?>
<!-- Generator: Adobe Illustrator 16.2.0, SVG Export Plug-In . SVG Version: 6.00 Build 0)  -->
<!DOCTYPE svg PUBLIC "-//W3C//DTD SVG 1.1//EN" "http://www.w3.org/Graphics/SVG/1.1/DTD/svg11.dtd">
<svg version="1.1" id="Слой_1" xmlns="http://www.w3.org/2000/svg" xmlns:xlink="http://www.w3.org/1999/xlink" x="0px" y="0px"
	 width="24px" height="24px" viewBox="0 0 24 24" enable-background="new 0 0 24 24" xml:space="preserve">
<g transform="translate(2 3)">
	<g>
		<path id="a_1_" fill="#39B54A" d="M7.486,11.65c-1.359-0.412-2.95,0.35-3.109,0.433l-3.62,2.187
			c-0.236,0.142-0.542,0.064-0.686-0.17c-0.143-0.236-0.067-0.545,0.17-0.688l0,0l3.637-2.202c0.009-0.009,0.021-0.015,0.03-0.019
			c0.083-0.041,2.061-1.049,3.865-0.504l3.653,1.108c0.195,0.06,0.336,0.229,0.354,0.433c0.063,0.653-0.273,1.69-1.448,1.879
			c-1.185,0.19-3.01,0.078-3.089,0.074c-0.275-0.018-0.484-0.254-0.467-0.529c0.017-0.273,0.254-0.482,0.529-0.467
			c0.017,0,1.796,0.109,2.868-0.062c0.291-0.046,0.471-0.181,0.559-0.416c0.008-0.021,0.015-0.044,0.02-0.067L7.486,11.65z
			 M19.939,10.813c0.119,0.222,0.058,0.492-0.14,0.643l-7.229,5.306c-0.699,0.511-1.572,0.722-2.427,0.589l-5.827-0.935
			l-1.355,1.133c-0.211,0.177-0.525,0.147-0.702-0.063l0,0c-0.177-0.209-0.15-0.522,0.059-0.7c0.001,0,0.002-0.002,0.003-0.002
			L3.85,15.5c0.111-0.09,0.256-0.129,0.398-0.107l6.048,0.965c0.593,0.093,1.195-0.055,1.679-0.406l6.779-4.977l-0.02-0.013
			c-0.264-0.162-0.566-0.162-0.928,0c-1.269,0.562-3.957,1.861-3.986,1.874c-0.248,0.119-0.545,0.016-0.664-0.23
			c0-0.002-0.002-0.002-0.002-0.004c-0.119-0.246-0.018-0.543,0.229-0.664c0.001,0,0.002,0,0.005-0.002
			c0.028-0.012,2.733-1.313,4.014-1.886C18.758,9.45,19.652,10.287,19.939,10.813L19.939,10.813z M10.699,10.238
			c-0.772,0.001-1.513-0.307-2.057-0.854c-1.135-1.138-1.135-2.979,0-4.118c0.544-0.547,1.285-0.854,2.057-0.853
			c0.771-0.002,1.513,0.305,2.057,0.853c1.135,1.138,1.135,2.98,0,4.118C12.204,9.936,11.477,10.238,10.699,10.238z M9.349,5.975
			c-0.744,0.749-0.744,1.957,0,2.706c0.36,0.363,0.839,0.562,1.35,0.562c0.511,0,0.99-0.2,1.35-0.562
			c0.744-0.749,0.744-1.958,0-2.706c-0.355-0.361-0.843-0.563-1.35-0.562C10.188,5.413,9.709,5.613,9.349,5.975z M14.111,4.547
			c-0.604,0.002-1.182-0.237-1.604-0.666c-0.886-0.889-0.886-2.326,0-3.215C12.932,0.238,13.509-0.001,14.111,0
			c0.605,0,1.177,0.237,1.604,0.666c0.887,0.889,0.887,2.326,0,3.215C15.291,4.309,14.713,4.549,14.111,4.547z M13.214,1.374
			c-0.495,0.499-0.495,1.304,0,1.803c0.24,0.241,0.56,0.375,0.902,0.375c0.34,0,0.659-0.134,0.901-0.375
			c0.493-0.499,0.493-1.304,0-1.803c-0.238-0.24-0.563-0.375-0.901-0.375C13.775,0.999,13.455,1.133,13.214,1.374z"/>
	</g>
</g>
</svg>
