<svg xmlns="http://www.w3.org/2000/svg" width="202" height="116" viewBox="0 0 202 116">
    <g fill="none" fill-rule="nonzero">
        <path fill="#F04100" d="M0 0h64v64H0V0zm2 2v60h60V2H2z"/>
        <path fill="#212121" d="M10.96 31.1c-.04-2.84 1-5.275 3.12-7.305 2.12-2.03 4.65-3.015 7.59-2.955 1.98 0 3.76.465 5.34 1.395 1.58.93 2.82 2.235 3.72 3.915l-3.93 2.67c-1.28-2.16-3-3.24-5.16-3.24-1.58 0-2.875.51-3.885 1.53-1.01 1.02-1.515 2.36-1.515 4.02 0 1.62.5 2.95 1.5 3.99 1.04 1 2.34 1.5 3.9 1.5 2.16 0 3.88-1.08 5.16-3.24l3.93 2.67c-.9 1.68-2.14 2.985-3.72 3.915-1.58.93-3.37 1.395-5.37 1.395-2.92.04-5.445-.95-7.575-2.97-2.13-2.02-3.165-4.45-3.105-7.29zm39.87 5.25h2.79v8.88h-5.16V41H37.45v4.23h-5.16v-8.88h1.65c1.32-1.02 1.98-4.78 1.98-11.28V21.2h14.91v15.15zm-11.37 0h6.21v-10.5h-4.86c-.04 4.82-.49 8.32-1.35 10.5zM68.38 41l-.72-1.65h-7.11L59.83 41h-5.55l9-20.16h1.65l9 20.16h-5.55zm-2.55-5.79l-1.71-4.59-1.74 4.59h3.45zm9.36-1.8v-4.32h7.8v4.32h-7.8zm17.4-12.21h1.65V41h-5.16V27.32l-3.36 1.11-1.23-4.56 8.1-2.67zm19.95 13.14c0 2.02-.76 3.695-2.28 5.025-1.52 1.33-3.4 1.995-5.64 1.995-1.74 0-3.285-.42-4.635-1.26-1.35-.84-2.365-2-3.045-3.48l3.57-2.52c.6.9 1.195 1.545 1.785 1.935.59.39 1.295.585 2.115.585.86 0 1.55-.195 2.07-.585.52-.39.78-.935.78-1.635 0-1.34-1.14-2.01-3.42-2.01h-4.71V21.2h12.27v4.65h-7.38v2.31c.7-.14 1.33-.21 1.89-.21 1.72-.04 3.265.55 4.635 1.77 1.37 1.22 2.035 2.76 1.995 4.62zm2.1-.93v-4.32h13.2v4.32h-13.2zm24.42 3.27h6.12V41l-15.15.03v-1.05l7.11-7.77c1.58-1.72 2.37-3.18 2.37-4.38 0-.7-.19-1.25-.57-1.65-.38-.4-.88-.6-1.5-.6s-1.115.21-1.485.63c-.37.42-.555 1-.555 1.74 0 .42.04.86.12 1.32h-5.19c-.14-.54-.21-1.1-.21-1.68-.04-1.76.655-3.335 2.085-4.725 1.43-1.39 3.205-2.065 5.325-2.025 2.06 0 3.785.62 5.175 1.86 1.39 1.24 2.085 2.79 2.085 4.65 0 1.3-.34 2.535-1.02 3.705-.68 1.17-1.78 2.555-3.3 4.155l-1.41 1.47zm9.15-5.73c0-3.02.715-5.46 2.145-7.32 1.43-1.86 3.455-2.79 6.075-2.79s4.645.93 6.075 2.79c1.43 1.86 2.145 4.3 2.145 7.32 0 3.06-.72 5.56-2.16 7.5-1.44 1.94-3.46 2.91-6.06 2.91-2.6 0-4.62-.97-6.06-2.91-1.44-1.94-2.16-4.44-2.16-7.5zm11.16.03c0-1.86-.24-3.225-.72-4.095-.48-.87-1.22-1.305-2.22-1.305-1 0-1.74.435-2.22 1.305-.48.87-.72 2.235-.72 4.095 0 3.76.98 5.64 2.94 5.64s2.94-1.88 2.94-5.64zm8.28-.03c0-3.02.715-5.46 2.145-7.32 1.43-1.86 3.455-2.79 6.075-2.79s4.645.93 6.075 2.79c1.43 1.86 2.145 4.3 2.145 7.32 0 3.06-.72 5.56-2.16 7.5-1.44 1.94-3.46 2.91-6.06 2.91-2.6 0-4.62-.97-6.06-2.91-1.44-1.94-2.16-4.44-2.16-7.5zm11.16.03c0-1.86-.24-3.225-.72-4.095-.48-.87-1.22-1.305-2.22-1.305-1 0-1.74.435-2.22 1.305-.48.87-.72 2.235-.72 4.095 0 3.76.98 5.64 2.94 5.64s2.94-1.88 2.94-5.64zm22.95-2.76c0 1.1-.22 2.08-.66 2.94-.42.86-1.1 1.93-2.04 3.21L194.11 41h-6.09l4.41-5.97c-1.6-.22-2.985-.965-4.155-2.235-1.17-1.27-1.755-2.815-1.755-4.635-.04-2.04.72-3.78 2.28-5.22 1.56-1.44 3.34-2.14 5.34-2.1 2.06 0 3.845.705 5.355 2.115 1.51 1.41 2.265 3.165 2.265 5.265zm-5.1-.03c0-.74-.245-1.36-.735-1.86s-1.085-.75-1.785-.75-1.295.25-1.785.75-.735 1.12-.735 1.86.245 1.35.735 1.83 1.085.72 1.785.72c.72 0 1.32-.245 1.8-.735s.72-1.095.72-1.815zM11.596 94V80.14H20.5v2.562h-6.069V94h-2.835zm10.206-6.93c-.028-1.974.69-3.675 2.152-5.103 1.464-1.428 3.196-2.121 5.198-2.079 2.002-.042 3.741.651 5.218 2.079 1.478 1.428 2.202 3.129 2.174 5.103.028 1.974-.696 3.675-2.173 5.103-1.478 1.428-3.217 2.121-5.219 2.079-2.002.042-3.734-.651-5.198-2.079-1.463-1.428-2.18-3.129-2.152-5.103zm11.823 0c0-1.316-.423-2.404-1.27-3.265-.848-.862-1.908-1.292-3.182-1.292-1.288 0-2.352.427-3.192 1.281-.84.854-1.26 1.946-1.26 3.276 0 1.33.42 2.422 1.26 3.276.84.854 1.904 1.281 3.192 1.281 1.274 0 2.334-.427 3.182-1.281.847-.854 1.27-1.946 1.27-3.276zm4.515 0c-.028-1.988.693-3.692 2.163-5.113 1.47-1.422 3.213-2.111 5.229-2.069 1.316 0 2.51.304 3.58.913a6.656 6.656 0 0 1 2.531 2.531l-2.142 1.512c-.994-1.554-2.317-2.331-3.969-2.331-1.288 0-2.355.434-3.202 1.302-.848.868-1.271 1.96-1.271 3.276 0 1.316.423 2.401 1.27 3.255.848.854 1.915 1.281 3.203 1.281 1.652 0 2.975-.777 3.969-2.331l2.142 1.512a6.487 6.487 0 0 1-2.52 2.53c-1.078.61-2.282.914-3.612.914-2.03.042-3.776-.647-5.24-2.069-1.463-1.42-2.173-3.125-2.131-5.113zM57.187 94V82.702h-4.431V80.14h11.718v2.562h-4.452V94h-2.835zm15.036 0V80.14h5.208c1.456 0 2.653.413 3.591 1.239.938.826 1.407 1.904 1.407 3.234 0 1.316-.469 2.394-1.407 3.234-.938.84-2.135 1.26-3.591 1.26h-2.373V94h-2.835zm2.835-7.371h2.373c.658 0 1.172-.185 1.544-.556.37-.372.556-.858.556-1.46 0-.588-.192-1.064-.578-1.428-.385-.364-.892-.546-1.522-.546h-2.373v3.99zm26.46-6.741h.945V94h-2.835v-8.589l-8.127 8.841h-.924V80.14h2.835v8.505l8.106-8.757zm3.318 7.182c-.028-1.988.693-3.692 2.163-5.113 1.47-1.422 3.213-2.111 5.229-2.069 1.316 0 2.51.304 3.58.913a6.656 6.656 0 0 1 2.531 2.531l-2.142 1.512c-.994-1.554-2.317-2.331-3.969-2.331-1.288 0-2.355.434-3.203 1.302-.847.868-1.27 1.96-1.27 3.276 0 1.316.423 2.401 1.27 3.255.848.854 1.915 1.281 3.203 1.281 1.652 0 2.975-.777 3.969-2.331l2.142 1.512a6.487 6.487 0 0 1-2.52 2.53c-1.078.61-2.282.914-3.612.914-2.03.042-3.776-.647-5.24-2.069-1.463-1.42-2.173-3.125-2.131-5.113zm15.12 0c-.028-1.974.69-3.675 2.153-5.103s3.195-2.121 5.197-2.079c2.002-.042 3.741.651 5.218 2.079 1.478 1.428 2.202 3.129 2.174 5.103.028 1.974-.696 3.675-2.174 5.103-1.477 1.428-3.216 2.121-5.218 2.079-2.002.042-3.734-.651-5.197-2.079-1.464-1.428-2.181-3.129-2.153-5.103zm11.823 0c0-1.316-.423-2.404-1.27-3.265-.848-.862-1.908-1.292-3.182-1.292-1.288 0-2.352.427-3.192 1.281-.84.854-1.26 1.946-1.26 3.276 0 1.33.42 2.422 1.26 3.276.84.854 1.904 1.281 3.192 1.281 1.274 0 2.334-.427 3.181-1.281.848-.854 1.271-1.946 1.271-3.276zm3.78 9.471l10.983-18.921h3.003l-10.983 18.921h-3.003zm28.287-16.653h.924V94h-2.835v-7.392l-3.486 4.368h-.924l-3.486-4.368V94h-2.835V79.888h.924l5.859 7.497 5.859-7.497zm16.821 7.182c.042 1.974-.668 3.675-2.131 5.103-1.464 1.428-3.203 2.121-5.219 2.079-1.33 0-2.534-.304-3.612-.913a6.487 6.487 0 0 1-2.52-2.531l2.142-1.512c.994 1.554 2.317 2.331 3.969 2.331 1.092 0 2.033-.311 2.825-.934.79-.624 1.298-1.453 1.522-2.489h-5.46v-2.415h5.418c-.252-.994-.77-1.788-1.554-2.383-.784-.596-1.701-.893-2.751-.893-1.652 0-2.975.777-3.969 2.331l-2.142-1.512a6.656 6.656 0 0 1 2.53-2.53c1.072-.61 2.265-.914 3.581-.914 2.03-.042 3.776.647 5.24 2.069 1.463 1.42 2.173 3.125 2.131 5.113zM195.283 94h-3.423l-5.943-7.224V94h-2.835V80.14h2.835v6.426l5.292-6.426h3.381l-5.313 6.531L195.283 94zm-179.718 7.14h.945V115h-2.835v-10.5l-2.625.84-.672-2.499 5.187-1.701zm3.654 0h9.744v.756L22.621 115h-3.087l5.628-11.298h-5.943v-2.562zm11.403 6.825c0-2.128.469-3.836 1.407-5.124.938-1.302 2.303-1.953 4.095-1.953 1.792 0 3.15.651 4.074 1.953.938 1.288 1.407 2.996 1.407 5.124 0 2.142-.476 3.892-1.428 5.25s-2.303 2.037-4.053 2.037c-1.764 0-3.122-.679-4.074-2.037-.952-1.358-1.428-3.108-1.428-5.25zm8.064.021c0-2.982-.854-4.473-2.562-4.473-1.722 0-2.583 1.491-2.583 4.473 0 3.094.861 4.641 2.583 4.641 1.708 0 2.562-1.547 2.562-4.641zm10.101 4.599h5.166V115l-10.227.021v-.609l4.956-5.376c.7-.77 1.2-1.417 1.502-1.942.3-.526.451-1.04.451-1.544 0-.602-.175-1.092-.525-1.47-.35-.378-.819-.567-1.407-.567-.588 0-1.06.196-1.418.588-.357.392-.535.903-.535 1.533 0 .21.035.546.105 1.008h-2.856a4.36 4.36 0 0 1-.147-1.176c0-1.232.458-2.303 1.376-3.213.917-.91 2.089-1.365 3.517-1.365 1.386 0 2.534.423 3.444 1.27.91.848 1.365 1.901 1.365 3.161 0 .938-.252 1.813-.756 2.625-.532.84-1.274 1.757-2.226 2.751l-1.785 1.89zm17.157-2.142c0 1.4-.511 2.551-1.533 3.454-1.022.904-2.282 1.355-3.78 1.355-1.148 0-2.173-.28-3.077-.84a5.469 5.469 0 0 1-2.068-2.31l1.974-1.386c.826 1.274 1.855 1.911 3.087 1.911.728 0 1.323-.192 1.785-.578.462-.385.693-.906.693-1.564 0-1.33-.945-1.995-2.835-1.995h-3.234v-7.35h8.19v2.562h-5.46v2.52a8.053 8.053 0 0 1 1.575-.168c1.274 0 2.373.395 3.297 1.186.924.792 1.386 1.859 1.386 3.203zm1.68-.987v-2.373h9.072v2.373h-9.072zm15.813 3.129h5.166V115l-10.227.021v-.609l4.956-5.376c.7-.77 1.2-1.417 1.502-1.942.3-.526.451-1.04.451-1.544 0-.602-.175-1.092-.525-1.47-.35-.378-.819-.567-1.407-.567-.588 0-1.06.196-1.417.588-.358.392-.536.903-.536 1.533 0 .21.035.546.105 1.008h-2.856a4.36 4.36 0 0 1-.147-1.176c0-1.232.458-2.303 1.376-3.213.917-.91 2.089-1.365 3.517-1.365 1.386 0 2.534.423 3.444 1.27.91.848 1.365 1.901 1.365 3.161 0 .938-.252 1.813-.756 2.625-.532.84-1.274 1.757-2.226 2.751l-1.785 1.89zm7.434-4.62c0-2.128.469-3.836 1.407-5.124.938-1.302 2.303-1.953 4.095-1.953 1.792 0 3.15.651 4.074 1.953.938 1.288 1.407 2.996 1.407 5.124 0 2.142-.476 3.892-1.428 5.25s-2.303 2.037-4.053 2.037c-1.764 0-3.122-.679-4.074-2.037-.952-1.358-1.428-3.108-1.428-5.25zm8.064.021c0-2.982-.854-4.473-2.562-4.473-1.722 0-2.583 1.491-2.583 4.473 0 3.094.861 4.641 2.583 4.641 1.708 0 2.562-1.547 2.562-4.641zm5.271-.021c0-2.128.469-3.836 1.407-5.124.938-1.302 2.303-1.953 4.095-1.953 1.792 0 3.15.651 4.074 1.953.938 1.288 1.407 2.996 1.407 5.124 0 2.142-.476 3.892-1.428 5.25s-2.303 2.037-4.053 2.037c-1.764 0-3.122-.679-4.074-2.037-.952-1.358-1.428-3.108-1.428-5.25zm8.064.021c0-2.982-.854-4.473-2.562-4.473-1.722 0-2.583 1.491-2.583 4.473 0 3.094.861 4.641 2.583 4.641 1.708 0 2.562-1.547 2.562-4.641zm15.099-2.121c0 .77-.154 1.456-.462 2.058-.28.588-.763 1.351-1.449 2.289L122.014 115h-3.36l3.213-4.452h-.105c-1.176.028-2.24-.423-3.192-1.355-.952-.93-1.414-2.047-1.386-3.349-.028-1.372.472-2.548 1.502-3.528 1.029-.98 2.222-1.456 3.58-1.428 1.386 0 2.583.476 3.591 1.428s1.512 2.135 1.512 3.549zm-3.486 1.638c.448-.448.672-1.001.672-1.659 0-.658-.22-1.214-.662-1.67a2.178 2.178 0 0 0-1.627-.682c-.63 0-1.169.224-1.617.672-.448.448-.672 1.008-.672 1.68 0 .658.224 1.211.672 1.659.448.448.987.672 1.617.672.644 0 1.183-.224 1.617-.672z"/>
    </g>
</svg>
