<svg xmlns="http://www.w3.org/2000/svg" width="216" height="64" viewBox="0 0 216 64">
    <g fill="none" fill-rule="nonzero">
        <path fill="#F04100" d="M0 0h64v64H0V0zm2 2v60h60V2H2z"/>
        <path fill="#212121" d="M11.98 41V21.2h17.25V41h-5.16V25.85h-6.93V41h-5.16zm21.21 0V21.2h14.19v4.65h-9.03v2.91h4.08c1.96 0 3.565.545 4.815 1.635 1.25 1.09 1.875 2.545 1.875 4.365 0 1.84-.635 3.34-1.905 4.5C45.945 40.42 44.35 41 42.43 41h-9.24zm5.16-4.35h3.75c.62 0 1.105-.165 1.455-.495.35-.33.525-.795.525-1.395 0-1.24-.66-1.86-1.98-1.86h-3.75v3.75zm21.48-5.7c0-3.02.715-5.46 2.145-7.32 1.43-1.86 3.455-2.79 6.075-2.79s4.645.93 6.075 2.79c1.43 1.86 2.145 4.3 2.145 7.32 0 3.06-.72 5.56-2.16 7.5-1.44 1.94-3.46 2.91-6.06 2.91-2.6 0-4.62-.97-6.06-2.91-1.44-1.94-2.16-4.44-2.16-7.5zm11.16.03c0-1.86-.24-3.225-.72-4.095-.48-.87-1.22-1.305-2.22-1.305-1 0-1.74.435-2.22 1.305-.48.87-.72 2.235-.72 4.095 0 3.76.98 5.64 2.94 5.64s2.94-1.88 2.94-5.64zm22.29 3.42c0 1.98-.745 3.635-2.235 4.965-1.49 1.33-3.325 1.995-5.505 1.995-1.7 0-3.21-.42-4.53-1.26-1.32-.84-2.32-2-3-3.48l3.57-2.52c.6.9 1.185 1.545 1.755 1.935.57.39 1.235.585 1.995.585.8 0 1.445-.195 1.935-.585.49-.39.735-.925.735-1.605 0-1.36-1.14-2.04-3.42-2.04h-2.82v-1.32l3.51-5.22h-5.64V21.2h13.35v1.35l-3.93 5.85c1.26.48 2.28 1.25 3.06 2.31.78 1.06 1.17 2.29 1.17 3.69zm2.1-.99v-4.32h13.2v4.32h-13.2zm31.71.33v4.32h-2.31V41h-5.16v-2.94h-9.78v-1.35l5.91-15.51h5.31l-4.83 12.54h3.39v-4.86h5.16v4.86h2.31zm17.88 0v4.32h-2.31V41h-5.16v-2.94h-9.78v-1.35l5.91-15.51h5.31l-4.83 12.54h3.39v-4.86h5.16v4.86h2.31zm1.77-2.79c0-3.02.715-5.46 2.145-7.32 1.43-1.86 3.455-2.79 6.075-2.79s4.645.93 6.075 2.79c1.43 1.86 2.145 4.3 2.145 7.32 0 3.06-.72 5.56-2.16 7.5-1.44 1.94-3.46 2.91-6.06 2.91-2.6 0-4.62-.97-6.06-2.91-1.44-1.94-2.16-4.44-2.16-7.5zm11.16.03c0-1.86-.24-3.225-.72-4.095-.48-.87-1.22-1.305-2.22-1.305-1 0-1.74.435-2.22 1.305-.48.87-.72 2.235-.72 4.095 0 3.76.98 5.64 2.94 5.64s2.94-1.88 2.94-5.64zm7.68 2.43v-4.32h13.2v4.32h-13.2zm15.6-2.46c0-3.02.715-5.46 2.145-7.32 1.43-1.86 3.455-2.79 6.075-2.79s4.645.93 6.075 2.79c1.43 1.86 2.145 4.3 2.145 7.32 0 3.06-.72 5.56-2.16 7.5-1.44 1.94-3.46 2.91-6.06 2.91-2.6 0-4.62-.97-6.06-2.91-1.44-1.94-2.16-4.44-2.16-7.5zm11.16.03c0-1.86-.24-3.225-.72-4.095-.48-.87-1.22-1.305-2.22-1.305-1 0-1.74.435-2.22 1.305-.48.87-.72 2.235-.72 4.095 0 3.76.98 5.64 2.94 5.64s2.94-1.88 2.94-5.64zm17.1 5.7h6.12V41l-15.15.03v-1.05l7.11-7.77c1.58-1.72 2.37-3.18 2.37-4.38 0-.7-.19-1.25-.57-1.65-.38-.4-.88-.6-1.5-.6s-1.115.21-1.485.63c-.37.42-.555 1-.555 1.74 0 .42.04.86.12 1.32h-5.19c-.14-.54-.21-1.1-.21-1.68-.04-1.76.655-3.335 2.085-4.725 1.43-1.39 3.205-2.065 5.325-2.025 2.06 0 3.785.62 5.175 1.86 1.39 1.24 2.085 2.79 2.085 4.65 0 1.3-.34 2.535-1.02 3.705-.68 1.17-1.78 2.555-3.3 4.155l-1.41 1.47z"/>
    </g>
</svg>
