<svg xmlns="http://www.w3.org/2000/svg" width="209" height="64" viewBox="0 0 209 64">
    <g fill="none" fill-rule="nonzero">
        <path fill="#F04100" d="M0 0h64v64H0V0zm2 2v60h60V2H2z"/>
        <path fill="#212121" d="M10.96 31.1c-.04-2.84 1-5.275 3.12-7.305 2.12-2.03 4.65-3.015 7.59-2.955 1.98 0 3.76.465 5.34 1.395 1.58.93 2.82 2.235 3.72 3.915l-3.93 2.67c-1.28-2.16-3-3.24-5.16-3.24-1.58 0-2.875.51-3.885 1.53-1.01 1.02-1.515 2.36-1.515 4.02 0 1.62.5 2.95 1.5 3.99 1.04 1 2.34 1.5 3.9 1.5 2.16 0 3.88-1.08 5.16-3.24l3.93 2.67c-.9 1.68-2.14 2.985-3.72 3.915-1.58.93-3.37 1.395-5.37 1.395-2.92.04-5.445-.95-7.575-2.97-2.13-2.02-3.165-4.45-3.105-7.29zm39.87 5.25h2.79v8.88h-5.16V41H37.45v4.23h-5.16v-8.88h1.65c1.32-1.02 1.98-4.78 1.98-11.28V21.2h14.91v15.15zm-11.37 0h6.21v-10.5h-4.86c-.04 4.82-.49 8.32-1.35 10.5zM68.38 41l-.72-1.65h-7.11L59.83 41h-5.55l9-20.16h1.65l9 20.16h-5.55zm-2.55-5.79l-1.71-4.59-1.74 4.59h3.45zm9.36-1.8v-4.32h7.8v4.32h-7.8zm19.32 3.27h6.12V41l-15.15.03v-1.05l7.11-7.77c1.58-1.72 2.37-3.18 2.37-4.38 0-.7-.19-1.25-.57-1.65-.38-.4-.88-.6-1.5-.6s-1.115.21-1.485.63c-.37.42-.555 1-.555 1.74 0 .42.04.86.12 1.32h-5.19c-.14-.54-.21-1.1-.21-1.68-.04-1.76.655-3.335 2.085-4.725 1.43-1.39 3.205-2.065 5.325-2.025 2.06 0 3.785.62 5.175 1.86 1.39 1.24 2.085 2.79 2.085 4.65 0 1.3-.34 2.535-1.02 3.705-.68 1.17-1.78 2.555-3.3 4.155l-1.41 1.47zm25.26-2.94v4.32h-2.31V41h-5.16v-2.94h-9.78v-1.35l5.91-15.51h5.31l-4.83 12.54h3.39v-4.86h5.16v4.86h2.31zm1.17-.33v-4.32h13.2v4.32h-13.2zm24.42 3.27h6.12V41l-15.15.03v-1.05l7.11-7.77c1.58-1.72 2.37-3.18 2.37-4.38 0-.7-.19-1.25-.57-1.65-.38-.4-.88-.6-1.5-.6s-1.115.21-1.485.63c-.37.42-.555 1-.555 1.74 0 .42.04.86.12 1.32h-5.19c-.14-.54-.21-1.1-.21-1.68-.04-1.76.655-3.335 2.085-4.725 1.43-1.39 3.205-2.065 5.325-2.025 2.06 0 3.785.62 5.175 1.86 1.39 1.24 2.085 2.79 2.085 4.65 0 1.3-.34 2.535-1.02 3.705-.68 1.17-1.78 2.555-3.3 4.155l-1.41 1.47zm9.15-5.73c0-3.02.715-5.46 2.145-7.32 1.43-1.86 3.455-2.79 6.075-2.79s4.645.93 6.075 2.79c1.43 1.86 2.145 4.3 2.145 7.32 0 3.06-.72 5.56-2.16 7.5-1.44 1.94-3.46 2.91-6.06 2.91-2.6 0-4.62-.97-6.06-2.91-1.44-1.94-2.16-4.44-2.16-7.5zm11.16.03c0-1.86-.24-3.225-.72-4.095-.48-.87-1.22-1.305-2.22-1.305-1 0-1.74.435-2.22 1.305-.48.87-.72 2.235-.72 4.095 0 3.76.98 5.64 2.94 5.64s2.94-1.88 2.94-5.64zm8.28-.03c0-3.02.715-5.46 2.145-7.32 1.43-1.86 3.455-2.79 6.075-2.79s4.645.93 6.075 2.79c1.43 1.86 2.145 4.3 2.145 7.32 0 3.06-.72 5.56-2.16 7.5-1.44 1.94-3.46 2.91-6.06 2.91-2.6 0-4.62-.97-6.06-2.91-1.44-1.94-2.16-4.44-2.16-7.5zm11.16.03c0-1.86-.24-3.225-.72-4.095-.48-.87-1.22-1.305-2.22-1.305-1 0-1.74.435-2.22 1.305-.48.87-.72 2.235-.72 4.095 0 3.76.98 5.64 2.94 5.64s2.94-1.88 2.94-5.64zm22.95-2.76c0 1.1-.22 2.08-.66 2.94-.42.86-1.1 1.93-2.04 3.21L200.41 41h-6.09l4.41-5.97c-1.6-.22-2.985-.965-4.155-2.235-1.17-1.27-1.755-2.815-1.755-4.635-.04-2.04.72-3.78 2.28-5.22 1.56-1.44 3.34-2.14 5.34-2.1 2.06 0 3.845.705 5.355 2.115 1.51 1.41 2.265 3.165 2.265 5.265zm-5.1-.03c0-.74-.245-1.36-.735-1.86s-1.085-.75-1.785-.75-1.295.25-1.785.75-.735 1.12-.735 1.86.245 1.35.735 1.83 1.085.72 1.785.72c.72 0 1.32-.245 1.8-.735s.72-1.095.72-1.815z"/>
    </g>
</svg>
