<svg xmlns="http://www.w3.org/2000/svg" width="180" height="120" viewBox="0 0 180 120">
    <g fill="none" fill-rule="nonzero">
        <path stroke="#F2F2F2" d="M.5.5h179v119H.5z" opacity=".2"/>
        <g fill="#F2F2F2">
            <path d="M67.86 63.85h7.163v2.366h-3.407v16.618H67.86V63.85M79.27 75.707l.644-9.491h.215l.644 9.491H79.27zm-4.159 7.127h3.677l.348-5.042h1.77l.35 5.042h3.676L82.973 63.85H77.07L75.11 82.834zM90.31 76.19v3.578c0 .483.37.623.585.623.354 0 .6-.296.6-.623V75.35c0-.591-.107-1.245-1.508-1.245h-1.525V72.02h1.586c1.063 0 1.448-.249 1.448-1.416v-3.765c0-.327-.247-.622-.6-.622-.216 0-.586.124-.586.622v3.096h-3.757v-2.692c0-1.322.154-3.392 2.787-3.392h3.11c2.633 0 2.803 2.07 2.803 3.392v3.035c0 2.07-1.432 2.63-2.556 2.583v.186c2.525-.062 2.556 1.899 2.556 2.568v3.828c0 1.338-.17 3.392-2.803 3.392h-3.11c-2.633 0-2.787-2.054-2.787-3.392V76.19h3.757M97.716 63.85h8.7v18.984h-3.757V66.216h-1.186v16.618h-3.757V63.85M112.637 74.291v-8.075h.492c.4 0 .693.342.693.949v6.177c0 .607-.292.95-.693.95h-.492zm-3.757 8.543h3.757v-6.458h2.155c2.618 0 2.787-2.054 2.787-3.392v-5.742c0-1.322-.17-3.392-2.787-3.392h-5.912v18.984zM124.985 79.768c0 .327-.246.623-.6.623a.58.58 0 0 1-.585-.623v-12.93c0-.498.37-.622.585-.622.354 0 .6.295.6.622v12.93zm-4.942-.326c0 1.338.17 3.392 2.787 3.392h3.126c2.617 0 2.786-2.054 2.786-3.392v-12.2c0-1.322-.169-3.392-2.786-3.392h-3.126c-2.618 0-2.787 2.07-2.787 3.392v12.2zM140.968 63.85h4.897v18.984h-3.757V70.93h-.139l-1.94 11.904h-3.003l-1.924-11.904h-.139v11.904h-3.757V63.85h4.881l2.448 13.35 2.433-13.35M62.992 37.896c-1.15-5.088-4.033-9.227-4.43-9.896-.629.95-2.927 4.606-4.096 8.651-1.277 4.528-1.464 8.543-1.024 12.48.437 3.952 2.09 8.013 2.09 8.013.877 2.116 2.192 4.404 3.048 5.524 1.255-1.65 4.139-6.567 5.038-12.977.5-3.58.522-6.707-.626-11.795zm-4.43 23.496c-.565-1.074-1.443-3.112-1.526-6.286-.022-3.05 1.19-5.68 1.544-6.224.316.544 1.36 2.832 1.484 5.96.085 3.049-.919 5.46-1.502 6.55zm4.095-14.86c-.043 1.945-.272 3.999-.565 5.228.105-2.116-.146-5.088-.626-7.422-.48-2.318-1.84-6.208-2.926-7.998-1.002 1.712-2.237 5.073-2.884 7.983-.65 2.91-.668 6.441-.668 7.5-.173-.887-.604-4.077-.482-7.267.102-2.63.711-5.353 1.045-6.598 1.275-4.154 2.718-6.815 2.99-7.235.27.42 2.087 3.703 3.03 7.142.937 3.439 1.126 6.738 1.086 8.667z"/>
            <path d="M60.512 63.85h-8.744v5.929c.008 0 .014-.016.022-.016a5.234 5.234 0 0 1 7.463 0c2.06 2.07 2.06 5.446 0 7.531-.01.016-.019.016-.028.031-.01 0-.021.016-.03.032a10.474 10.474 0 0 1-7.427 3.08 10.418 10.418 0 0 1-7.452-3.112c-3.628-3.656-4.058-9.336-1.292-13.475.372-.56.802-1.089 1.292-1.587a10.418 10.418 0 0 1 7.452-3.112V44.898C41.402 44.898 33 53.378 33 63.85c0 10.472 8.402 18.968 18.768 18.968 5.405 0 10.273-2.318 13.698-6.006V63.85h-4.954"/>
        </g>
    </g>
</svg>
