<?xml version="1.0" encoding="utf-8"?>
<!-- Generator: Adobe Illustrator 16.2.0, SVG Export Plug-In . SVG Version: 6.00 Build 0)  -->
<!DOCTYPE svg PUBLIC "-//W3C//DTD SVG 1.1//EN" "http://www.w3.org/Graphics/SVG/1.1/DTD/svg11.dtd">
<svg version="1.1" id="Слой_1" xmlns="http://www.w3.org/2000/svg" xmlns:xlink="http://www.w3.org/1999/xlink" x="0px" y="0px"
	 width="24px" height="24px" viewBox="0 0 24 24" enable-background="new 0 0 24 24" xml:space="preserve">
<path fill="#ED1C24" d="M11.986,12"/>
<g>
	<path fill="#ED1C24" d="M12.493,23.068l-0.995-0.042c-0.001-0.028-0.167-2.862-1.517-5.744c-0.637-1.357-1.452-2.51-2.241-3.625
		C6.316,11.645,4.97,9.744,4.97,7.036c0-3.604,3.163-6.536,7.05-6.536s7.051,2.932,7.051,6.536c0,1.97-1.241,3.978-2.556,6.102
		c-0.742,1.2-1.509,2.44-2.135,3.777C12.929,20.021,12.498,23.039,12.493,23.068z M12.021,1.5c-3.336,0-6.05,2.483-6.05,5.536
		c0,2.39,1.199,4.083,2.587,6.044c0.814,1.15,1.656,2.34,2.33,3.778c0.578,1.232,0.95,2.442,1.189,3.457
		c0.305-1.103,0.754-2.448,1.398-3.824c0.65-1.39,1.434-2.655,2.19-3.879c1.291-2.088,2.406-3.891,2.406-5.577
		C18.071,3.983,15.356,1.5,12.021,1.5z"/>
	<path fill="#ED1C24" d="M11.945,10.295c-1.59,0-2.884-1.294-2.884-2.885c0-1.59,1.294-2.884,2.884-2.884
		c1.59,0,2.884,1.293,2.884,2.884C14.829,9.001,13.535,10.295,11.945,10.295z M11.945,5.527c-1.039,0-1.884,0.845-1.884,1.884
		c0,1.039,0.845,1.885,1.884,1.885s1.884-0.846,1.884-1.885C13.829,6.372,12.984,5.527,11.945,5.527z"/>
</g>
</svg>
