<?xml version="1.0" encoding="utf-8"?>
<!-- Generator: Adobe Illustrator 16.2.0, SVG Export Plug-In . SVG Version: 6.00 Build 0)  -->
<!DOCTYPE svg PUBLIC "-//W3C//DTD SVG 1.1//EN" "http://www.w3.org/Graphics/SVG/1.1/DTD/svg11.dtd">
<svg version="1.1" id="Слой_1" xmlns="http://www.w3.org/2000/svg" xmlns:xlink="http://www.w3.org/1999/xlink" x="0px" y="0px"
	 width="24px" height="24px" viewBox="0 0 24 24" enable-background="new 0 0 24 24" xml:space="preserve">
<g transform="translate(4 2)">
	<g>
		<path id="a_1_" fill="#39B54A" d="M14.457,2.547c-1.904-0.34-3.658-1.375-4.533-1.961c-1.162-0.783-2.685-0.783-3.848,0
			c-0.875,0.586-2.628,1.621-4.531,1.96C0.421,2.742-0.399,3.717-0.401,4.857V9.57c0,1.558,0.438,3.077,1.301,4.514
			c0.676,1.124,1.612,2.198,2.782,3.193c1.968,1.673,3.917,2.545,3.999,2.582l0.32,0.142l0.319-0.142
			c0.081-0.036,2.03-0.908,4-2.582c1.17-0.994,2.104-2.069,2.779-3.192c0.864-1.438,1.301-2.956,1.301-4.514V4.855
			C16.398,3.716,15.578,2.743,14.457,2.547z M15.291,9.611c0,2.499-1.268,4.847-3.768,6.982c-1.099,0.929-2.297,1.728-3.579,2.382
			c-1.494-0.758-7.346-4.058-7.346-9.365V4.54c0-0.408,0.295-0.756,0.701-0.829c2.352-0.42,4.468-1.664,5.52-2.368
			c0.68-0.457,1.57-0.457,2.252,0c1.051,0.704,3.166,1.949,5.518,2.368c0.406,0.073,0.701,0.421,0.701,0.828V9.611L15.291,9.611z
			 M6.784,11.501l-2.683-2.5l-1.074,1.141l3.858,3.594l6.137-6.848l-1.172-1.04L6.784,11.501L6.784,11.501z"/>
	</g>
</g>
</svg>
