<?xml version="1.0" encoding="utf-8"?>
<!-- Generator: Adobe Illustrator 16.2.0, SVG Export Plug-In . SVG Version: 6.00 Build 0)  -->
<!DOCTYPE svg PUBLIC "-//W3C//DTD SVG 1.1//EN" "http://www.w3.org/Graphics/SVG/1.1/DTD/svg11.dtd">
<svg version="1.1" id="Слой_1" xmlns="http://www.w3.org/2000/svg" xmlns:xlink="http://www.w3.org/1999/xlink" x="0px" y="0px"
	 width="24px" height="24px" viewBox="0 0 24 24" enable-background="new 0 0 24 24" xml:space="preserve">
<g transform="translate(2 2)">
	<g>
		<path id="a_1_" fill="#ED1C24" d="M18.868,7.046C18.379,6.632,17.76,6.403,17.117,6.4H12.87V3.376
			c0-1.271-0.376-2.187-1.122-2.726c-1.177-0.852-2.797-0.366-2.866-0.342c-0.2,0.061-0.338,0.245-0.34,0.454v3.383
			c0,1.104-0.533,2.04-1.589,2.786c-0.788,0.557-1.593,0.8-1.678,0.828L5.157,7.787C4.976,7.485,4.649,7.3,4.296,7.301H1.156
			c-0.548-0.003-0.995,0.437-1,0.984v9.1c0,0.541,0.449,0.984,1,0.984h3.149c0.306,0,0.586-0.14,0.768-0.354
			c0.521,0.55,1.242,0.857,1.997,0.859h8.401c1.855,0,3.042-0.956,3.251-2.628l1.088-6.649C19.961,8.64,19.604,7.675,18.868,7.046z
			 M4.474,17.408c0,0.015-0.013,0.026-0.029,0.026H1.146c-0.017,0-0.029-0.014-0.029-0.026v-9.07c0-0.015,0.013-0.027,0.029-0.027
			h3.301c0.017,0,0.03,0.012,0.03,0.027v9.069L4.474,17.408L4.474,17.408z M18.858,9.444l-1.073,6.657c0,0.004,0,0.012-0.004,0.02
			c-0.148,1.191-0.91,1.795-2.27,1.795H7.186c-0.854,0-1.595-0.632-1.728-1.469c-0.005-0.026-0.012-0.056-0.02-0.082V8.735
			l0.209-0.047c0.007,0,0.011-0.004,0.02-0.004c0.04-0.013,0.989-0.279,1.947-0.956c1.311-0.923,2-2.162,2-3.58V1.153
			c0.417-0.068,1.13-0.104,1.647,0.279c0.471,0.347,0.713,1.005,0.713,1.951v3.495c0,0.263,0.217,0.478,0.48,0.478h4.693
			c0.396,0,0.792,0.148,1.109,0.418C18.73,8.175,18.963,8.816,18.858,9.444L18.858,9.444z"/>
	</g>
</g>
</svg>
