<?xml version="1.0" encoding="utf-8"?>
<!-- Generator: Adobe Illustrator 16.2.0, SVG Export Plug-In . SVG Version: 6.00 Build 0)  -->
<!DOCTYPE svg PUBLIC "-//W3C//DTD SVG 1.1//EN" "http://www.w3.org/Graphics/SVG/1.1/DTD/svg11.dtd">
<svg version="1.1" id="Слой_1" xmlns="http://www.w3.org/2000/svg" xmlns:xlink="http://www.w3.org/1999/xlink" x="0px" y="0px"
	 width="24px" height="24px" viewBox="0 0 24 24" enable-background="new 0 0 24 24" xml:space="preserve">
<g transform="translate(2 2)">
	<g>
		<path id="a_1_" fill="#39B54A" d="M19.009,7.007c-0.497-0.421-1.126-0.653-1.778-0.656h-4.315V3.279
			c0-1.291-0.382-2.222-1.14-2.769C10.58-0.356,8.934,0.138,8.864,0.162C8.661,0.224,8.521,0.411,8.519,0.623V4.06
			c0,1.121-0.542,2.072-1.614,2.83C6.104,7.456,5.286,7.703,5.2,7.731L5.08,7.76C4.896,7.453,4.564,7.265,4.206,7.266H1.015
			C0.459,7.263,0.005,7.71,0,8.266v9.245c0,0.55,0.456,1,1.015,1h3.2c0.311,0,0.595-0.142,0.78-0.36
			c0.529,0.558,1.262,0.871,2.029,0.873h8.535c1.885,0,3.09-0.971,3.303-2.67l1.104-6.755C20.119,8.626,19.756,7.646,19.009,7.007z
			 M4.386,17.533c0,0.016-0.013,0.027-0.03,0.027h-3.35c-0.017,0-0.03-0.013-0.03-0.027V8.32c0-0.016,0.013-0.028,0.03-0.028H4.36
			c0.017,0,0.03,0.012,0.03,0.028v9.212L4.386,17.533L4.386,17.533z M18.999,9.443l-1.09,6.762c0,0.004,0,0.012-0.005,0.02
			c-0.15,1.211-0.924,1.824-2.305,1.824H7.141c-0.867,0-1.62-0.643-1.755-1.492c-0.005-0.027-0.012-0.057-0.02-0.084v-7.75
			l0.212-0.048c0.008,0,0.012-0.004,0.02-0.004C5.638,8.658,6.603,8.387,7.576,7.7c1.332-0.938,2.032-2.196,2.032-3.636V1.02
			c0.423-0.069,1.148-0.105,1.673,0.283c0.479,0.353,0.725,1.021,0.725,1.982v3.55c0,0.267,0.221,0.486,0.488,0.486h4.768
			c0.402,0,0.805,0.15,1.127,0.424C18.869,8.154,19.105,8.805,18.999,9.443L18.999,9.443z"/>
	</g>
</g>
</svg>
