<?xml version="1.0" encoding="UTF-8"?>
<svg width="275px" height="237px" viewBox="0 0 275 237" version="1.1" xmlns="http://www.w3.org/2000/svg" xmlns:xlink="http://www.w3.org/1999/xlink">
    <!-- Generator: Sketch 50.2 (55047) - http://www.bohemiancoding.com/sketch -->
    <title>Group 2@3x</title>
    <desc>Created with Sketch.</desc>
    <defs>
        <polygon id="path-1" points="0.484 0.779 219.897945 0.779 219.897945 173.302 0.484 173.302"></polygon>
    </defs>
    <g id="Page-1" stroke="none" stroke-width="1" fill="none" fill-rule="evenodd">
        <g id="logo_vertical">
            <g id="Group-2">
                <g id="Group-4" transform="translate(28.000000, 0.000000)">
                    <mask id="mask-2" fill="white">
                        <use xlink:href="#path-1"></use>
                    </mask>
                    <g id="Clip-2"></g>
                    <polyline id="Fill-1" fill="#D8232A" mask="url(#mask-2)" points="117.754 150.037 41.869 150.037 93.085 62.444 63.275 62.444 0.484 173.302 117.695 173.302 117.754 150.037"></polyline>
                    <path d="M214.758,115.96 L161.132,22.567 C144.394,-6.582 102.301,-6.459 85.735,22.789 L71.206,48.441 L101.272,48.441 L102.848,45.746 C115.966,22.585 130.055,20.923 143.309,44.007 L165.142,83.114 L97.477,83.114 L83.796,107.955 L179.01,107.955 L185.784,120.087 C195.253,136.579 190.331,150.037 171.314,150.037 L131.289,150.037 L131.231,173.302 L181.561,173.302 C210.989,173.302 229.411,141.48 214.758,115.96" id="Fill-3" fill="#3AAB47" mask="url(#mask-2)"></path>
                </g>
                <path d="M20.29,218.757 L28.71,218.757 L25.026,208.407 C24.909,208.115 24.676,207.53 24.5,207.53 C24.324,207.53 24.091,208.115 23.974,208.407 L20.29,218.757 Z M15.145,200.104 C16.431,197.063 18.186,195.134 24.5,195.134 C28.418,195.134 31.926,195.544 33.855,200.104 L49,236.532 L35.084,236.532 L31.867,228.112 L17.133,228.112 L13.917,236.532 L0,236.532 L15.145,200.104 Z" id="Fill-7" fill="#1A1919"></path>
                <polyline id="Fill-8" fill="#1A1919" points="92.033 236.532 78.818 236.532 78.818 220.277 63.967 220.277 63.967 236.532 50.752 236.532 50.752 195.603 63.967 195.603 63.967 210.103 78.818 210.103 78.818 195.603 92.033 195.603 92.033 236.532"></polyline>
                <path d="M111.677,226.358 L126.061,226.358 L119.512,208.583 C119.396,208.231 119.22,207.53 118.869,207.53 C118.519,207.53 118.343,208.231 118.226,208.583 L111.677,226.358 Z M109.455,199.754 C110.273,197.707 111.97,195.134 118.869,195.134 C125.769,195.134 127.465,197.707 128.283,199.754 L139.275,226.358 L143.369,226.358 L143.369,236.532 L94.369,236.532 L94.369,226.358 L98.404,226.358 L109.455,199.754 Z" id="Fill-9" fill="#1A1919"></path>
                <path d="M144.535,226.358 L156.756,226.358 C160.966,226.358 162.837,225.832 163.831,225.423 C166.755,224.253 167.397,221.973 167.34,220.277 L145.88,220.277 L145.88,211.038 L167.34,211.038 C166.871,208.642 165.352,207.589 164.357,207.062 C162.369,206.01 160.147,205.776 157.516,205.776 L145.062,205.776 L145.062,195.603 L164.649,195.603 C170.906,195.603 174.648,197.59 176.753,199.695 C180.612,203.612 180.904,210.22 180.904,215.716 C180.904,224.019 180.027,229.574 176.11,233.024 C172.719,236.006 167.807,236.532 164.649,236.532 L144.535,236.532 L144.535,226.358" id="Fill-10" fill="#1A1919"></path>
                <path d="M216.045,236.532 L203.648,220.686 C202.654,219.4 201.251,217.353 201.251,215.6 C201.251,214.079 202.245,212.267 203.122,211.038 L214.115,195.603 L229.785,195.603 L215.577,212.5 C214.057,214.313 213.881,215.19 213.881,215.541 C213.881,216.886 215.168,218.289 216.045,219.225 L231.949,236.532 L216.045,236.532 Z M186.75,236.532 L199.965,236.532 L199.965,195.603 L186.75,195.603 L186.75,236.532 Z" id="Fill-11" fill="#1A1919"></path>
                <path d="M244.693,223.844 C246.447,226.533 248.786,226.826 252.119,226.826 C255.569,226.826 257.732,226.533 259.545,223.844 C261.065,221.622 261.065,219.342 261.065,216.067 C261.065,212.5 261.124,210.571 259.545,208.29 C257.732,205.601 255.569,205.309 252.119,205.309 C248.728,205.309 246.447,205.601 244.693,208.29 C243.231,210.454 243.173,212.676 243.173,216.067 C243.173,219.283 243.349,221.798 244.693,223.844 Z M270.012,199.345 C274.455,203.437 274.631,210.571 274.631,216.067 C274.631,221.446 274.455,228.639 270.012,232.79 C265.685,236.824 258.2,237 252.119,237 C246.038,237 238.554,236.824 234.227,232.79 C229.783,228.639 229.607,221.446 229.607,216.067 C229.607,210.571 229.783,203.437 234.227,199.345 C238.612,195.31 245.921,195.134 252.119,195.134 C258.317,195.134 265.626,195.31 270.012,199.345 Z" id="Fill-12" fill="#1A1919"></path>
            </g>
        </g>
    </g>
</svg>