<?xml version="1.0" encoding="UTF-8"?>
<svg width="269px" height="57px" viewBox="0 0 269 57" version="1.1" xmlns="http://www.w3.org/2000/svg" xmlns:xlink="http://www.w3.org/1999/xlink">
    <!-- Generator: Sketch 50.2 (55047) - http://www.bohemiancoding.com/sketch -->
    <title>Group</title>
    <desc>Created with Sketch.</desc>
    <defs></defs>
    <g id="RealEstate-Living" stroke="none" stroke-width="1" fill="none" fill-rule="evenodd">
        <g id="Artboard" transform="translate(-27.000000, -43.000000)">
            <g id="Group" transform="translate(27.000000, 43.000000)">
                <polyline id="Fill-5" fill="#D8232A" points="38.835 49.232 13.974 49.232 30.753 20.535 20.987 20.535 0.415 56.855 38.816 56.855 38.835 49.232"></polyline>
                <path d="M70.617,38.068 L53.047,7.47 C47.564,-2.08 33.773,-2.04 28.345,7.543 L23.585,15.947 L33.436,15.947 L33.952,15.064 C38.25,7.476 42.866,6.931 47.208,14.494 L54.361,27.307 L32.192,27.307 L27.71,35.445 L58.905,35.445 L61.124,39.42 C64.226,44.823 62.614,49.232 56.383,49.232 L43.27,49.232 L43.251,56.855 L59.74,56.855 C69.382,56.855 75.418,46.429 70.617,38.068" id="Fill-6" fill="#3AAB47"></path>
                <path d="M104.785,29.595 L110.213,29.595 L107.838,22.923 C107.763,22.734 107.612,22.357 107.499,22.357 C107.386,22.357 107.235,22.734 107.16,22.923 L104.785,29.595 Z M101.469,17.571 C102.298,15.611 103.429,14.367 107.499,14.367 C110.024,14.367 112.285,14.631 113.529,17.571 L123.291,41.052 L114.32,41.052 L112.248,35.624 L102.75,35.624 L100.677,41.052 L91.707,41.052 L101.469,17.571 Z" id="Fill-13" fill="#1A1919"></path>
                <polyline id="Fill-14" fill="#1A1919" points="151.034 41.052 142.517 41.052 142.517 30.574 132.943 30.574 132.943 41.052 124.426 41.052 124.426 14.669 132.943 14.669 132.943 24.016 142.517 24.016 142.517 14.669 151.034 14.669 151.034 41.052"></polyline>
                <path d="M163.703,34.494 L172.975,34.494 L168.753,23.036 C168.678,22.81 168.564,22.357 168.339,22.357 C168.112,22.357 167.999,22.81 167.924,23.036 L163.703,34.494 Z M162.271,17.345 C162.799,16.026 163.892,14.367 168.339,14.367 C172.786,14.367 173.879,16.026 174.406,17.345 L181.492,34.494 L184.131,34.494 L184.131,41.052 L152.547,41.052 L152.547,34.494 L155.147,34.494 L162.271,17.345 Z" id="Fill-15" fill="#1A1919"></path>
                <path d="M184.889,34.494 L192.766,34.494 C195.479,34.494 196.686,34.154 197.326,33.891 C199.21,33.137 199.625,31.667 199.587,30.574 L185.755,30.574 L185.755,24.619 L199.587,24.619 C199.286,23.074 198.306,22.395 197.665,22.056 C196.384,21.377 194.951,21.227 193.256,21.227 L185.228,21.227 L185.228,14.669 L197.854,14.669 C201.887,14.669 204.299,15.95 205.655,17.307 C208.143,19.832 208.331,24.092 208.331,27.635 C208.331,32.986 207.766,36.566 205.24,38.79 C203.055,40.713 199.889,41.052 197.854,41.052 L184.889,41.052 L184.889,34.494" id="Fill-16" fill="#1A1919"></path>
                <path d="M230.986,41.052 L222.996,30.838 C222.355,30.009 221.451,28.689 221.451,27.559 C221.451,26.579 222.092,25.411 222.657,24.619 L229.742,14.669 L239.844,14.669 L230.685,25.561 C229.705,26.729 229.592,27.295 229.592,27.521 C229.592,28.388 230.421,29.293 230.986,29.895 L241.238,41.052 L230.986,41.052 Z M212.104,41.052 L220.622,41.052 L220.622,14.669 L212.104,14.669 L212.104,41.052 Z" id="Fill-17" fill="#1A1919"></path>
                <path d="M249.458,32.873 C250.589,34.606 252.097,34.795 254.244,34.795 C256.468,34.795 257.862,34.606 259.031,32.873 C260.011,31.441 260.011,29.971 260.011,27.86 C260.011,25.561 260.049,24.317 259.031,22.847 C257.862,21.114 256.468,20.925 254.244,20.925 C252.059,20.925 250.589,21.114 249.458,22.847 C248.516,24.242 248.479,25.675 248.479,27.86 C248.479,29.934 248.591,31.554 249.458,32.873 Z M265.777,17.081 C268.642,19.719 268.755,24.317 268.755,27.86 C268.755,31.328 268.642,35.964 265.777,38.64 C262.988,41.24 258.164,41.353 254.244,41.353 C250.325,41.353 245.501,41.24 242.712,38.64 C239.848,35.964 239.734,31.328 239.734,27.86 C239.734,24.317 239.848,19.719 242.712,17.081 C245.538,14.48 250.249,14.367 254.244,14.367 C258.239,14.367 262.951,14.48 265.777,17.081 Z" id="Fill-18" fill="#1A1919"></path>
            </g>
        </g>
    </g>
</svg>