<svg xmlns="http://www.w3.org/2000/svg" width="136" height="73" viewBox="0 0 136 73">
    <g fill="none" fill-rule="nonzero">
        <g fill="#212121">
            <path d="M0 53.547v-1.605c.57.03 1.129-.176 1.544-.57.397-.413.606-.974.576-1.547v-9.17h8.8v12.892H8.28V42.685H4.8v7.107a4.098 4.098 0 0 1-.936 2.8 3.236 3.236 0 0 1-2.576 1.067A5.17 5.17 0 0 1 0 53.547zm23.712 0l-1.232-2.76h-5.768l-1.208 2.76h-2.968L18.4 40.655h2.4l5.88 12.892h-2.968zm-4.104-9.627L17.6 48.581h4l-1.992-4.66zm8.696 9.627V40.655h7.472v2.03h-4.8v3.129h1.6a4.576 4.576 0 0 1 3.136 1.05 3.928 3.928 0 0 1 0 5.616 4.576 4.576 0 0 1-3.136 1.043l-4.272.024zm5.464-2.591a1.72 1.72 0 0 0 .472-1.276 1.744 1.744 0 0 0-.464-1.267 1.598 1.598 0 0 0-1.216-.482h-1.6v3.498h1.6c.451.02.89-.152 1.208-.473zm7.032.938a6.379 6.379 0 0 1-1.896-4.813 6.379 6.379 0 0 1 1.896-4.813 6.733 6.733 0 0 1 4.912-1.845 6.725 6.725 0 0 1 4.92 1.837 6.379 6.379 0 0 1 1.88 4.813 6.427 6.427 0 0 1-1.88 4.813 6.75 6.75 0 0 1-4.928 1.861 6.734 6.734 0 0 1-4.904-1.853zm1.904-7.974a4.976 4.976 0 0 0 0 6.37 4.28 4.28 0 0 0 6.016 0 4.976 4.976 0 0 0 0-6.37 4.28 4.28 0 0 0-6.016 0zm12 9.627V40.655h4.064a4.56 4.56 0 0 1 3.136 1.06 3.928 3.928 0 0 1 0 5.615 4.56 4.56 0 0 1-3.136 1.05h-1.416v5.15l-2.648.017zM60 45.797c.328-.34.501-.802.48-1.275a1.776 1.776 0 0 0-.48-1.267 1.598 1.598 0 0 0-1.224-.482h-1.424v3.506h1.416c.46.025.91-.15 1.232-.482zm13.848 7.75l-1.232-2.76h-5.76l-1.256 2.76h-2.952l5.88-12.892h2.4L76.8 53.547h-2.952zm-4.104-9.627l-1.984 4.685h3.952l-1.968-4.685zM82.4 42.685v10.862h-2.56V42.685h-3.4v-2.03h9.352v2.03H82.4zm6.28 9.21a6.37 6.37 0 0 1-1.888-4.814 6.37 6.37 0 0 1 1.888-4.813 7.496 7.496 0 0 1 9.84 0 6.427 6.427 0 0 1 1.88 4.813 6.427 6.427 0 0 1-1.88 4.813 7.52 7.52 0 0 1-9.84 0zm1.912-7.975a4.952 4.952 0 0 0 0 6.37 4.272 4.272 0 0 0 6.008 0 4.976 4.976 0 0 0 0-6.37 4.272 4.272 0 0 0-6.008 0zm12 9.627V40.655h4.064a4.576 4.576 0 0 1 3.136 1.06 3.928 3.928 0 0 1 0 5.615 4.576 4.576 0 0 1-3.136 1.05h-1.424v5.15l-2.64.017zm5.272-7.75a1.961 1.961 0 0 0 0-2.542 1.598 1.598 0 0 0-1.216-.482h-1.424v3.506h1.424c.455.02.898-.155 1.216-.482zm14.864-5.142h1.6v12.892h-2.544v-8.102l-7 8.102h-1.6V40.655h2.552v8.11l6.992-8.11zm12.576 0v12.892h-2.648v-5.15h-1.176l-2.528 5.15h-2.896l2.992-5.415a3.76 3.76 0 0 1-1.848-1.372 3.705 3.705 0 0 1-.672-2.238 3.582 3.582 0 0 1 1.192-2.808 4.576 4.576 0 0 1 3.136-1.05l4.448-.009zm-5.704 2.6a1.768 1.768 0 0 0-.456 1.267c-.023.47.144.93.464 1.275.318.327.76.502 1.216.482h1.8v-3.506h-1.8a1.598 1.598 0 0 0-1.224.482zM0 72.07V62.05h1.344v10.02H0zm5.64 0L1.384 66.91l3.952-4.861H7.04l-4 4.861 4.296 5.158H5.64zm3.808-1.308a5.627 5.627 0 0 1 0-7.412 4.913 4.913 0 0 1 3.656-1.42c1.38-.06 2.72.464 3.696 1.444a5.627 5.627 0 0 1 0 7.412 4.913 4.913 0 0 1-3.688 1.412 4.929 4.929 0 0 1-3.664-1.436zm1.008-6.522a4.438 4.438 0 0 0 0 5.615 3.483 3.483 0 0 0 2.648 1.083 3.435 3.435 0 0 0 2.64-1.083 4.43 4.43 0 0 0 0-5.615 3.435 3.435 0 0 0-2.64-1.083 3.491 3.491 0 0 0-2.648 1.083zm11.2-2.19v4.42h5.184v-4.42h1.344v10.02H26.84V67.6h-5.184v4.468h-1.352V62.05h1.352zm12.664 1.131v8.888h-1.36v-8.888h-2.768V62.05h6.896v1.131H34.32zm4.8 8.888V62.05h2.824a3.035 3.035 0 0 1 2.192.802 3.022 3.022 0 0 1 0 4.164 3.075 3.075 0 0 1-2.192.802H40.48v4.284l-1.36-.033zm4.456-7.147a1.695 1.695 0 0 0-.456-1.236 1.542 1.542 0 0 0-1.176-.465H40.48v3.361h1.424c.44.014.864-.154 1.176-.465.303-.323.467-.752.456-1.195h.04zM48 70.762a5.627 5.627 0 0 1 0-7.388 5.413 5.413 0 0 1 7.312 0 5.627 5.627 0 0 1 0 7.412 4.889 4.889 0 0 1-3.672 1.412A4.96 4.96 0 0 1 48 70.762zm1.016-6.522a4.405 4.405 0 0 0 0 5.615 3.769 3.769 0 0 0 5.288 0 4.462 4.462 0 0 0 0-5.615 3.769 3.769 0 0 0-5.296 0h.008zm8.888 7.83v-.859c.445.024.88-.138 1.2-.45.308-.343.467-.797.44-1.259V62.05h6.264v10.02h-1.432V63.18h-3.464v6.265a2.901 2.901 0 0 1-.624 1.95 2.046 2.046 0 0 1-1.648.73 3.343 3.343 0 0 1-.768-.057h.032zm16.24-10.02v10.02h-1.432v-4.284h-1.328l-2.168 4.283h-1.544l2.4-4.38a2.735 2.735 0 0 1-1.6-.962 2.837 2.837 0 0 1-.576-1.805 2.74 2.74 0 0 1 .8-2.086 3.027 3.027 0 0 1 2.192-.802l3.256.016zm-4.8 2.872c-.019.452.142.894.448 1.227.312.31.737.479 1.176.466h1.76V63.22h-1.76a1.598 1.598 0 0 0-1.176.465 1.72 1.72 0 0 0-.464 1.236h.016zm13.136-.682a4.381 4.381 0 0 0 0 5.615 3.547 3.547 0 0 0 2.688 1.083 3.65 3.65 0 0 0 2.76-1.075l.872.883a5.413 5.413 0 0 1-7.328 0 5.579 5.579 0 0 1 0-7.412 5.413 5.413 0 0 1 7.328.04l-.856.874a3.635 3.635 0 0 0-2.76-1.091 3.555 3.555 0 0 0-2.72 1.083h.016zm8.304 7.83V62.05h2.896a2.771 2.771 0 0 1 1.984.706c.527.485.82 1.176.8 1.893a2.336 2.336 0 0 1-1.088 2.118c.485.185.9.519 1.184.955a2.75 2.75 0 0 1 .432 1.556 2.66 2.66 0 0 1-.8 2.03 2.963 2.963 0 0 1-2.12.802l-3.288-.04zm4.8-2.896a1.687 1.687 0 0 0-.456-1.228 1.55 1.55 0 0 0-1.184-.473H92.16v3.417h1.784a1.55 1.55 0 0 0 1.184-.473c.315-.335.483-.783.464-1.243h-.008zm-.544-4.405a1.607 1.607 0 0 0-.4-1.123 1.406 1.406 0 0 0-1.08-.425h-1.4v3.089h1.44c.4.013.789-.141 1.072-.425.266-.308.401-.709.376-1.116h-.008zm11.664 7.3l-1.104-2.655h-4.728l-1.136 2.655h-1.6l4.44-10.019h1.272l4.44 10.02h-1.584zm-3.504-8.278l-1.872 4.396h3.736L103.2 63.79zm6.848 8.278V62.05h2.832a3.02 3.02 0 0 1 2.184.802 2.998 2.998 0 0 1 0 4.164 3.051 3.051 0 0 1-2.184.802h-1.432v4.284l-1.4-.033zm4.456-7.147a1.72 1.72 0 0 0-.448-1.236 1.598 1.598 0 0 0-1.176-.465h-1.432v3.361h1.432c.44.014.864-.154 1.176-.465.3-.324.464-.753.456-1.195h-.008zm3.52 7.147V62.05h1.344v10.02h-1.344zm5.64 0l-4.256-5.158 3.96-4.861h1.696l-3.952 4.861 4.296 5.158h-1.744zM134.4 62.05h.888v10.02h-1.36V64.64l-5.824 7.428h-.904V62.05h1.352v7.428l5.848-7.428z"/>
        </g>
        <path fill="#000" d="M25.272 12.193v18.41h5.856V5.135zM28.328 5.134h-7.184L0 30.604h7.184l15.288-18.41 5.856-7.06zM65.4 24.94c-3.704-.25-6.581-3.336-6.581-7.059 0-3.723 2.877-6.809 6.581-7.06h24.736l4.712-5.663H65.4c-6.795.296-12.152 5.907-12.152 12.727s5.357 12.43 12.152 12.727h8.2l4.72-5.664-12.92-.008z"/>
        <path fill="#F04100" d="M50.392 30.604L39.896 17.873 50.392 5.134h-7.088L32.808 17.873l10.496 12.73z"/>
        <g>
            <path fill="#000" d="M135.304 30.604V0h-7.944l-2.816 1.604-.376 1.428a1.387 1.387 0 0 1-.664.85l-2.448 1.324-5.384 2.912h-.04l-2.688-.048c-2.208 1.083-3.552 3.915-4 5.038l.104.056.928.802-3.576 8.006-3.312-1.203 2.256-8.632 1.512-.128a11.71 11.71 0 0 1 4.344-5.984l-.064-.803c-.04-.467.162-.922.536-1.203l.568-.425.936 1.195.384-.305-.928-1.179.712-.53.904 1.164.392-.305-.904-1.147.704-.53.888 1.14.384-.305-.92-1.188L116.968 0h-15.032L76.424 30.604h58.88zM116 8.399l5.384-2.92.128 1.372-4.408 2.775L116 8.391v.008z"/>
            <path fill="#F04100" d="M107.192 30.467l3.352-2.414 3.344 2.414.536-2.815 19.96.4-12.456-3.224 12.728-2.687-16.08.4 5.36-4.299-11.248 3.225.688-3.65-6.016 4.476-1.24 1.428-1.208-1.043-1.472 1.476-.136-1.877-1.336-.401V19.99l-3.08-2.952v4.428l-4.824 2.15 5.624 1.347-4.552 5.503 5.224-1.877.264 2.014 5.232-2.286z"/>
        </g>
    </g>
</svg>
