<?xml version="1.0" encoding="utf-8"?>
<!-- Generator: Adobe Illustrator 16.2.0, SVG Export Plug-In . SVG Version: 6.00 Build 0)  -->
<!DOCTYPE svg PUBLIC "-//W3C//DTD SVG 1.1//EN" "http://www.w3.org/Graphics/SVG/1.1/DTD/svg11.dtd">
<svg version="1.1" id="Слой_1" xmlns="http://www.w3.org/2000/svg" xmlns:xlink="http://www.w3.org/1999/xlink" x="0px" y="0px"
	 width="24px" height="24px" viewBox="0 0 24 24" enable-background="new 0 0 24 24" xml:space="preserve">
<g>
	<path fill="#ED1C24" d="M18.344,11.396c1.008-1.317,1.364-2.808,1.061-4.429c-0.217-1.149-0.771-2.146-1.648-2.964
		c-1.052-0.984-2.29-1.487-3.68-1.495C12.969,2.5,6.471,2.502,6.471,2.502v9.958H4.489v1.085h1.979v2.896H4.489v1.089h1.988v3.973
		h1.085v-3.976h4.969v-1.089H7.563v-2.896h6.495c0.544,0,1.089-0.089,1.618-0.263C16.763,12.922,17.66,12.289,18.344,11.396z
		 M15.103,12.31c-0.344,0.089-0.7,0.138-1.031,0.141c-1.068,0.006-2.134,0.007-3.2,0.007l-3.306-0.001V3.588h6.432
		c2.05,0,3.862,1.448,4.311,3.443C18.84,9.374,17.433,11.693,15.103,12.31z"/>
</g>
</svg>
