<svg xmlns="http://www.w3.org/2000/svg" xmlns:xlink="http://www.w3.org/1999/xlink" width="24" height="24" viewBox="0 0 24 24">
    <defs>
        <path id="a" d="M19.165 4.932l-3.472 3.111h-4.11V7.028h3.998c.125 0 .24-.045.332-.129L19.83 3.36a.497.497 0 1 0-.664-.74L15.39 6.034h-3.807V5.02h3.521a.499.499 0 0 0 .336-.13L19.837.87a.5.5 0 1 0-.336-.87H4.891a.499.499 0 0 0-.335.129L.163 4.15a.5.5 0 1 0 .336.87h4.16v1.014H.5a.5.5 0 0 0 0 .998h4.16v1.015H.5a.5.5 0 0 0 0 .998h15.39c.124 0 .24-.045.331-.129l3.613-3.24a.496.496 0 0 0 .037-.702.499.499 0 0 0-.705-.042zM13.731.994l-3.306 3.023H6.331L9.637.994h4.094zm1.178 3.028h-3.007L15.208.998h3.007L14.91 4.022zM5.087.994h3.07L4.85 4.017H1.78L5.088.994zm.564 7.049V5.02h4.936v3.023H5.651z"/>
    </defs>
    <g fill="none" fill-rule="evenodd" transform="translate(2 7)">
        <mask id="b" fill="#fff">
            <use xlink:href="#a"/>
        </mask>
        <use fill="#585858" xlink:href="#a"/>
        <g mask="url(#b)">
            <path fill="#ED1C24" d="M-2-7h24v24H-2z"/>
        </g>
    </g>
</svg>
