<svg xmlns="http://www.w3.org/2000/svg" width="130" height="76" viewBox="0 0 130 76">
    <g fill="#F2F2F2" fill-rule="evenodd">
        <path d="M31.007 8.793L49.943 0v20.546l-30.12 13.987v-8.205a10.1 10.1 0 0 0 5.15 1.41c5.673 0 10.3-4.705 10.3-10.472 0-3.478-1.684-6.566-4.266-8.473zM0 13.987L30.122 0v8.206a10.096 10.096 0 0 0-5.148-1.41c-5.675 0-10.302 4.703-10.302 10.47a10.52 10.52 0 0 0 4.264 8.474L0 34.533V13.987z"/>
        <path d="M24.973 11.735c3.004 0 5.44 2.476 5.44 5.53 0 3.055-2.436 5.534-5.44 5.534-3.007 0-5.442-2.479-5.442-5.533 0-3.055 2.435-5.531 5.442-5.531M68.267 71.727h-2.032c-1.491 0-2.184-.267-2.184-1.339s.67-1.297 2.107-1.297h2.109v2.636zm1.096-3.645h-3.566c-1.904 0-2.842.722-2.842 2.273 0 1.299.648 2.009 1.96 2.211l-2.078 3.232h1.214L66 72.63h2.266v3.17h1.096v-7.717zm-15.201 0v7.716h1.48l4.853-6.577v6.577h1.064v-7.716h-1.467l-4.867 6.577v-6.577h-1.063zm-7.568 0h-1.096v7.716h1.096v-3.645h4.705v3.645h1.096v-7.716h-1.096v3.06h-4.705v-3.06zm-7.59 4.506l1.565-3.284 1.48 3.284h-3.045zm-2.64 3.21h1.16l1.022-2.2h3.95l.98 2.2h1.136l-3.438-7.716h-1.138l-3.672 7.716zm-7.782-7.716v7.716h1.096v-6.707h4.705v6.707h1.096v-7.716h-6.897zm-11.082 0v7.716h1.065v-6.771l3.013 6.771h1.106l3.068-6.771v6.771h1.063v-7.716h-1.629L22.131 74.8l-2.98-6.717H17.5zM8.836 71.94c0-1.891 1.129-3.03 3.086-3.03 1.97 0 3.098 1.139 3.098 3.03 0 1.88-1.12 3.03-3.088 3.03-1.967 0-3.096-1.137-3.096-3.03zm-1.14 0c0 2.455 1.598 4.061 4.226 4.061 2.64 0 4.238-1.606 4.238-4.06 0-2.454-1.599-4.058-4.228-4.058-2.638 0-4.237 1.604-4.237 4.057zm-6.172-3.857H.428v7.716h1.096v-2.562l1.511-1.297 3.129 3.86H7.45L3.77 71.291l3.673-3.21H6.036l-4.512 3.965v-3.965zm127.378-9.074h-2.03c-1.494 0-2.185-.265-2.185-1.337 0-1.074.671-1.299 2.11-1.299h2.105v2.636zM130 55.363h-3.566c-1.904 0-2.842.722-2.842 2.273 0 1.296.648 2.008 1.956 2.21l-2.074 3.232h1.213l1.95-3.169h2.265v3.17H130v-7.716zm-12.53 4.506l1.565-3.284 1.479 3.284h-3.043zm-2.641 3.21h1.16l1.024-2.2h3.949l.978 2.2h1.141l-3.44-7.716h-1.137l-3.675 7.715zm-5.95-7.716h-1.097v7.715h1.098v-2.562l1.51-1.296 3.132 3.858h1.287l-3.684-4.507 3.673-3.208h-1.406l-4.512 3.964v-3.964zm-2.363 4.729h-1.139c-.18 1.298-1.246 2.155-2.768 2.155-1.959 0-3.098-1.134-3.098-3.027 0-1.891 1.129-3.028 3.086-3.028 1.481 0 2.482.744 2.693 1.976h1.14c-.158-1.786-1.659-3.005-3.82-3.005-2.643 0-4.24 1.604-4.24 4.057 0 2.453 1.597 4.06 4.227 4.06 2.192 0 3.716-1.267 3.919-3.188zm-15.328 2.986h6.214V62.07h-5.118v-2.434h4.735v-1.01h-4.735v-2.253h5.046v-1.009h-6.142v7.715zm-8.242-7.715v2.488c0 1.923 1.62 2.336 2.928 2.336a8.815 8.815 0 0 0 2.447-.318v3.21h1.097v-7.716H88.32v3.622a10.98 10.98 0 0 1-2.383.245c-.915 0-1.894-.328-1.894-1.38v-2.487h-1.098zm-9.164 0v7.715h1.48l4.854-6.576v6.576h1.064v-7.715h-1.47l-4.864 6.577v-6.577h-1.064zm-6.856 0v7.715h1.098v-6.706h4.725v-1.009h-5.823zm-6.654.902h2.11c1.436 0 2.107.32 2.107 1.406 0 .974-.691 1.326-2.183 1.326h-2.034v-2.732zm0 3.635h2.45c1.904 0 2.865-.7 2.865-2.264 0-1.551-.938-2.273-2.845-2.273h-3.566v7.715h1.096V59.9zm-9.668-4.537l3.367 6.28c-.393.627-.512.734-.956.734-.29 0-.48-.012-.683-.044v.875c.245.042.551.071.851.071.7 0 1.299-.245 1.884-1.424l3.248-6.492H57.06l-2.523 5.27-2.674-5.27h-1.258zm-7.395 0v3.782c0 2.148-.18 3.179-1.044 3.179-.223 0-.415-.022-.51-.042v.872c.245.042.51.074.745.074 1.117 0 1.905-.746 1.905-3.744v-3.112h4.353v6.706h1.097v-7.715h-6.546zm-9.017 0v3.782c0 2.148-.18 3.179-1.043 3.179-.223 0-.414-.022-.51-.042v.872c.244.042.51.074.743.074 1.12 0 1.909-.746 1.909-3.744v-3.112h4.352v6.706h1.096v-7.715h-6.547zm-7.196 4.506l1.566-3.284 1.48 3.284h-3.046zm-2.64 3.21h1.158l1.024-2.2h3.95l.98 2.2h1.138l-3.438-7.716h-1.14l-3.672 7.715zm-6.121-7.716v1.01h2.95v6.705h1.096v-6.706h2.948v-1.009h-6.994zm-6.729 7.715h6.218V62.07h-5.122v-2.434h4.737v-1.01h-4.737v-2.253h5.05v-1.009h-6.146v7.715zM.428 55.363v7.715h1.061v-6.77l3.013 6.77h1.109l3.065-6.77v6.77h1.063v-7.715H8.112l-3.054 6.715-2.983-6.715H.428zm98.986-9.075h-2.032c-1.491 0-2.182-.264-2.182-1.339 0-1.074.67-1.296 2.107-1.296h2.107v2.635zm1.098-3.644h-3.568c-1.904 0-2.84.722-2.84 2.273 0 1.296.648 2.006 1.96 2.212l-2.08 3.23H95.2l1.947-3.167h2.267v3.167h1.098v-7.715zM87.981 47.15l1.566-3.285 1.48 3.285H87.98zm-2.638 3.21h1.159l1.023-2.201h3.949l.98 2.2h1.137l-3.436-7.715h-1.14l-3.672 7.715zm-6.686-7.716h-1.096v7.715h1.096v-3.646h4.704v3.646h1.097v-7.715H83.36v3.06h-4.704v-3.06zm-8.664 0h-1.098v7.715h1.098v-3.646h4.705v3.646h1.094v-7.715h-1.094v3.06h-4.705v-3.06zm-8.708 7.715h6.216v-1.01h-5.12v-2.434h4.737v-1.009h-4.737v-2.253h5.045v-1.01h-6.141v7.716zm-7.571-7.715h-1.096v7.715h1.096v-3.646h4.706v3.646h1.098v-7.715H58.42v3.06h-4.706v-3.06zm-10.26 0v7.715h1.479l4.854-6.579v6.58h1.064v-7.716h-1.467l-4.866 6.577v-6.577h-1.065zm-7.845 0v3.04c0 2.05-.33 2.827-.904 3.664h-.727v3.202h1.075v-2.19h6.24v2.19h1.077v-3.202h-.768v-6.704h-5.993zm4.897 1.009v5.695h-4.62c.551-.837.786-1.679.786-3.56v-2.135h3.834zm-13.458 6.706h6.219v-1.01h-5.122v-2.434h4.738v-1.009h-4.738v-2.253h5.046v-1.01h-6.143v7.716zm-6.694-3.646h2.033c1.49 0 2.171.267 2.171 1.339 0 1.074-.668 1.296-2.107 1.296h-2.097v-2.635zm-3.75-4.07v1.01h2.654v6.706h3.564c1.908 0 2.833-.724 2.833-2.273 0-1.565-.96-2.382-2.864-2.382h-2.437v-3.06h-3.75zm-5.702 4.07h2.033c1.489 0 2.171.267 2.171 1.339 0 1.074-.67 1.296-2.107 1.296h-2.097v-2.635zm-1.098-4.07v7.716h3.566c1.907 0 2.833-.724 2.833-2.273 0-1.565-.959-2.382-2.863-2.382h-2.438v-2.051h4.683v-1.01h-5.78zM1.14 46.502c0-1.891 1.128-3.028 3.087-3.028 1.968 0 3.098 1.137 3.098 3.028 0 1.88-1.118 3.027-3.09 3.027-1.967 0-3.095-1.136-3.095-3.027zM0 46.5c0 2.455 1.597 4.06 4.226 4.06 2.638 0 4.235-1.605 4.235-4.06 0-2.456-1.597-4.06-4.226-4.06-2.638 0-4.235 1.604-4.235 4.06z"/>
    </g>
</svg>
