<?xml version="1.0" encoding="UTF-8"?>
<svg width="24px" height="24px" viewBox="0 0 24 24" version="1.1" xmlns="http://www.w3.org/2000/svg" xmlns:xlink="http://www.w3.org/1999/xlink">
    <!-- Generator: Sketch 50.2 (55047) - http://www.bohemiancoding.com/sketch -->
    <title>Icon / Basic / percentRed</title>
    <desc>Created with Sketch.</desc>
    <defs></defs>
    <g id="Icon-/-Basic-/-percentRed" stroke="none" stroke-width="1" fill="none" fill-rule="evenodd">
        <path d="M19.2356253,4.83104525 C21.0546253,6.63704525 22.0756253,9.09704525 22.0696253,11.6610453 C22.0696253,14.2390453 21.0676253,16.6670453 19.2396253,18.4930453 C17.4286253,20.3090453 14.9686253,21.3290453 12.4016253,21.3250453 C9.83462526,21.3310453 7.37262526,20.3120453 5.56162526,18.4930453 C3.74262526,16.6840453 2.72262526,14.2250453 2.72862526,11.6610453 L2.72862526,11.5540453 L1.87062526,12.4120453 C1.65562526,12.6050453 1.32562526,12.5870453 1.13362526,12.3720453 C0.955625264,12.1750453 0.955625264,11.8730453 1.13262526,11.6750453 L2.88162526,9.92804525 C3.08562526,9.72404525 3.41462526,9.72404525 3.61962526,9.92804525 L5.36462526,11.6750453 C5.56662526,11.8790453 5.56662526,12.2100453 5.36262526,12.4130453 C5.15862526,12.6150453 4.82862526,12.6150453 4.62562526,12.4120453 L3.76662526,11.5540453 L3.76662526,11.6620453 C3.76662526,16.4170453 7.63662526,20.2830453 12.3986253,20.2830453 C17.1586253,20.2830453 21.0296253,16.4170453 21.0296253,11.6620453 C21.0296253,6.90804525 17.1586253,3.04104525 12.3986253,3.04604525 C10.0706253,3.03704525 7.83862526,3.97604525 6.21762526,5.64604525 C6.01662526,5.85004525 5.68662526,5.85404525 5.48062526,5.65504525 C5.27662526,5.45204525 5.27262526,5.12504525 5.47262526,4.91804525 C7.28762526,3.04504525 9.78862526,1.99204525 12.3976253,2.00004525 C14.9636253,1.99404525 17.4246253,3.01304525 19.2356253,4.83104525 Z M15.1656253,8.14604525 C15.3696253,7.94204525 15.6976253,7.94004525 15.9026253,8.14204525 C16.1066253,8.34404525 16.1066253,8.67304525 15.9046253,8.87704525 C15.9046253,8.87804525 15.9046253,8.87804525 15.9026253,8.87904525 L9.50662526,15.2670453 C9.30262526,15.4680453 8.97362526,15.4680453 8.76862526,15.2670453 C8.56362526,15.0650453 8.56362526,14.7360453 8.76662526,14.5320453 C8.76662526,14.5320453 8.76762526,14.5310453 8.76862526,14.5300453 L15.1656253,8.14604525 Z M13.4916253,12.4440453 C14.2306253,11.7290453 15.4116253,11.7490453 16.1256253,12.4900453 C16.8216253,13.2110453 16.8236253,14.3530453 16.1306253,15.0770453 C15.7796253,15.4280453 15.3066253,15.6240453 14.8106253,15.6230453 C13.7826253,15.6220453 12.9486253,14.7870453 12.9506253,13.7570453 C12.9496253,13.2670453 13.1446253,12.7920453 13.4916253,12.4440453 Z M15.3906253,14.3440453 C15.7116253,14.0240453 15.7116253,13.5030453 15.3896253,13.1820453 C15.0696253,12.8600453 14.5486253,12.8600453 14.2276253,13.1820453 C13.9056253,13.5040453 13.9056253,14.0260453 14.2276253,14.3450453 C14.5496253,14.6660453 15.0716253,14.6660453 15.3906253,14.3440453 Z M10.0026253,7.68204525 C11.0326253,7.68304525 11.8656253,8.51904525 11.8626253,9.54904525 C11.8616253,10.5780453 11.0266253,11.4110453 9.99662526,11.4090453 C9.50462526,11.4090453 9.03162526,11.2120453 8.68362526,10.8640453 C8.33162526,10.5150453 8.13362526,10.0400453 8.13562526,9.54504525 C8.13562526,9.04804525 8.33062526,8.58004525 8.68162526,8.22904525 C9.03062526,7.87704525 9.50562526,7.68104525 10.0026253,7.68204525 Z M10.5826253,10.1260453 C10.7366253,9.97204525 10.8236253,9.76304525 10.8226253,9.54604525 C10.8236253,9.32904525 10.7376253,9.12004525 10.5836253,8.96504525 C10.2606253,8.64804525 9.74362526,8.64804525 9.42062526,8.96504525 C9.10362526,9.28704525 9.10362526,9.80404525 9.42062526,10.1260453 C9.74262526,10.4440453 10.2606253,10.4440453 10.5826253,10.1260453 Z" id="a_1_" fill="#ED1C24" fill-rule="nonzero"></path>
        <rect id="Rectangle" x="0" y="0" width="24" height="24"></rect>
    </g>
</svg>