<svg xmlns="http://www.w3.org/2000/svg" width="101" height="19" viewBox="0 0 101 19">
    <g fill="none" fill-rule="evenodd">
        <path d="M-15-29h130v77H-15z"/>
        <g fill="#F2F2F2">
            <path d="M18.986 8.166s.473-5.296.518-5.816C19.577 1.517 18.9 0 17.267 0H12.45v.002H9.09 3.785C2.152.002 1.36 1.101 1.257 2.15 1.197 2.772.083 15.576.011 16.314c-.116 1.186.71 2.53 2.213 2.53H15.627c1.78 0 2.47-.933 2.622-2.373.09-.861.531-6.074.531-6.074h-8.102l-.35 4.028H8.275L9.16 4.42h2.05l-.326 3.745h8.102M31.491 1.618c-.288.825-2.646 8.144-2.646 8.144l1.048-9.76h-8.099l-1.697 18.842h6.104c1.534 0 2.057-.862 2.312-1.553.305-.826 2.553-6.982 2.553-6.982l-.826 8.535h8.104L40.014.002h-6.36c-1.404 0-1.958 1.03-2.163 1.616M72.536.002l-.758 8.594h-2.055l.759-8.594h-8.103s-.777 9.097-.859 9.976c-.098 1.049.5 2.536 2.296 2.536h7.616l-.17 1.911H61.129l-.39 4.42h16.124c1.09 0 2.147-.708 2.29-2.218.093-.971 1.487-16.625 1.487-16.625h-8.103M89.978 9.096l.412-4.674h2.03l-.413 4.674h-2.03zM93.68.003H82.678l-1.662 18.841h8.102l.514-5.83h2.901l-.54.001h5.51c1.392 0 2.318-.704 2.467-2.32.058-.627.699-7.769.741-8.4.097-1.393-1.02-2.292-2.408-2.292h-4.622zM50.933 14.925h-2.068l.412-4.675h2.068l-.412 4.675zm-1.31-8.593l.17-1.911H59.94l.39-4.42H42.079l-1.663 18.843h16.17c1.027 0 2.14-.604 2.286-2.18.109-1.182.608-6.784.699-7.8.12-1.359-.75-2.532-2.455-2.532h-7.493z"/>
        </g>
    </g>
</svg>
