<svg xmlns="http://www.w3.org/2000/svg" width="130" height="20" viewBox="0 0 130 20">
    <g fill="none" fill-rule="evenodd">
        <path d="M9.408-23h111.184v66H9.408z"/>
        <g fill="#F2F2F2" fill-rule="nonzero">
            <path d="M17.35 3.95h-4.418l-7.116 9.245v2.243h3.831v-4.214l3.285 4.214h4.447l-4.584-5.71 4.57-5.76a9.51 9.51 0 0 1 1.93 5.76c0 5.303-4.31 9.585-9.648 9.585C4.311 19.313 0 15.031 0 9.728 0 4.426 4.31.143 9.647.143a9.647 9.647 0 0 1 7.704 3.807zM5.817 11.632l3.831-4.963v-2.72H5.816v3.876h-3.9v3.807h3.9zM24.7 14.079a.206.206 0 0 1 0-.272L26 12.31c.068-.068.137-.068.274 0 .752.612 1.779 1.156 3.01 1.156 1.232 0 1.916-.544 1.916-1.36 0-.68-.41-1.087-1.779-1.291l-.684-.068c-2.326-.34-3.626-1.428-3.626-3.467 0-2.108 1.573-3.535 4.105-3.535 1.505 0 2.942.476 3.9 1.223.068.068.137.136 0 .272l-1.027 1.564c-.068.068-.136.068-.205.068-.89-.544-1.71-.884-2.668-.884-1.027 0-1.574.544-1.574 1.224 0 .68.48 1.087 1.78 1.291l.615.068c2.395.34 3.626 1.428 3.626 3.467 0 2.04-1.574 3.603-4.516 3.603-1.779 0-3.558-.747-4.447-1.563zM43.516 15.438c-.137 0-.205-.068-.205-.136l-1.985-7.137-2.052 7.137c0 .068-.069.136-.206.136h-1.71c-.069 0-.137-.068-.205-.136l-3.01-11.148c0-.068 0-.136.136-.136h2.19c.136 0 .205.068.205.136l1.642 7.206 2.052-7.206c0-.068.069-.136.206-.136h1.505c.068 0 .137.068.205.136l2.053 7.206 1.574-7.206c0-.136.068-.136.205-.136h2.19c.136 0 .136.068.136.136L45.5 15.302c0 .068-.068.136-.205.136h-1.78zM49.468 4.154c0-.068.069-.136.137-.136h2.19c.137-.068.205 0 .205.136v11.148c0 .068-.068.136-.137.136h-2.19c-.068 0-.136-.068-.136-.136V4.154h-.069zM53.574 14.079a.206.206 0 0 1 0-.272l1.3-1.496c.068-.068.137-.068.273 0 .753.612 1.78 1.156 3.01 1.156 1.232 0 1.917-.544 1.917-1.36 0-.68-.41-1.087-1.78-1.291l-.615-.068c-2.326-.34-3.626-1.428-3.626-3.467 0-2.108 1.573-3.535 4.105-3.535 1.505 0 2.942.476 3.9 1.223.068.068.137.136 0 .272l-1.026 1.564c-.137.068-.206.068-.343 0-.889-.544-1.71-.884-2.668-.884-1.026 0-1.574.544-1.574 1.224 0 .68.48 1.088 1.78 1.291l.615.068c2.395.34 3.626 1.428 3.626 3.467 0 2.04-1.573 3.603-4.515 3.603-1.78.068-3.49-.68-4.38-1.495zM63.7 14.079a.206.206 0 0 1 0-.272L65 12.31c.068-.068.137-.068.274 0 .752.612 1.779 1.156 3.01 1.156 1.232 0 1.916-.544 1.916-1.36 0-.68-.41-1.087-1.779-1.291l-.684-.068c-2.326-.34-3.626-1.428-3.626-3.467 0-2.108 1.573-3.535 4.105-3.535 1.505 0 2.942.476 3.9 1.223.068.068.137.136 0 .272l-1.027 1.564c-.068.068-.136.068-.205.068-.89-.544-1.71-.884-2.668-.884-1.027 0-1.574.544-1.574 1.224 0 .68.48 1.087 1.78 1.291l.615.068c2.395.34 3.626 1.428 3.626 3.467 0 2.04-1.574 3.603-4.516 3.603-1.779 0-3.558-.747-4.447-1.563zM78.41 4.154c0-.068.069-.136.137-.136h2.19c.068 0 .137.068.137.136v4.962l3.831-4.962c.069-.136.137-.136.274-.136h2.463c.069 0 .137.136.069.204l-3.49 4.35 3.832 6.73c.068.136 0 .204-.069.204h-2.531c-.137 0-.206 0-.274-.136l-2.6-4.826-1.505 1.903v2.923c0 .068-.069.136-.137.136h-2.19c-.068 0-.136-.068-.136-.136V4.154zM95.379 15.438c-.137 0-.205-.068-.274-.136l-1.984-4.214h-1.574c-.068 0-.068 0-.068.068v4.078c0 .068-.068.136-.137.136h-2.19c-.068 0-.136-.068-.136-.136V4.154c0-.068.068-.136.137-.136h4.584c2.395 0 3.9 1.495 3.9 3.535 0 1.495-.753 2.65-2.053 3.195l2.258 4.554c.069.068 0 .204-.137.204H95.38v-.068zm-.137-7.885c0-.884-.616-1.428-1.574-1.428h-2.052c-.069 0-.069 0-.069.068v2.651c0 .068 0 .068.069.068h2.052c.958.068 1.574-.476 1.574-1.36zM99.553 12.855c-.274-.816-.342-1.427-.342-3.127 0-1.7.068-2.38.342-3.127.615-1.835 2.19-2.787 4.242-2.787s3.626.952 4.242 2.787c.274.816.342 1.428.342 3.127 0 1.7-.068 2.38-.342 3.127-.616 1.836-2.19 2.787-4.242 2.787-2.053 0-3.695-.951-4.242-2.787zm6.02-.68c.138-.408.206-.951.206-2.447 0-1.495-.068-2.04-.205-2.447-.274-.816-.89-1.292-1.848-1.292-.958 0-1.573.476-1.847 1.292-.137.408-.205.952-.205 2.447 0 1.496.068 2.04.205 2.447.274.816.89 1.292 1.847 1.292.958 0 1.574-.476 1.848-1.292zM110.09 4.154c0-.068.068-.136.136-.136h2.053c.137 0 .205.068.274.136l4.105 7.206h.068V4.154c0-.068.069-.136.137-.136h1.916c.068 0 .137.068.137.136v11.148c0 .068-.069.136-.137.136h-2.053c-.137 0-.205-.068-.273-.136l-4.106-7.205h-.068v7.205c0 .068-.068.136-.137.136h-1.916c-.068 0-.137-.068-.137-.136V4.154zM121.174 12.855c-.274-.816-.342-1.427-.342-3.127 0-1.7.068-2.38.342-3.127.615-1.835 2.19-2.787 4.242-2.787s3.626.952 4.242 2.787c.274.816.342 1.428.342 3.127 0 1.7-.068 2.38-.342 3.127-.616 1.836-2.19 2.787-4.242 2.787-2.053 0-3.627-.951-4.242-2.787zm6.02-.68c.138-.408.206-.951.206-2.447 0-1.495-.068-2.04-.205-2.447-.274-.816-.89-1.292-1.848-1.292-.958 0-1.573.476-1.847 1.292-.137.408-.205.952-.205 2.447 0 1.496.068 2.04.205 2.447.274.816.89 1.292 1.847 1.292 1.027 0 1.642-.476 1.848-1.292z"/>
        </g>
    </g>
</svg>
