<?xml version="1.0" encoding="utf-8"?>
<!-- Generator: Adobe Illustrator 16.2.0, SVG Export Plug-In . SVG Version: 6.00 Build 0)  -->
<!DOCTYPE svg PUBLIC "-//W3C//DTD SVG 1.1//EN" "http://www.w3.org/Graphics/SVG/1.1/DTD/svg11.dtd">
<svg version="1.1" id="Слой_1" xmlns="http://www.w3.org/2000/svg" xmlns:xlink="http://www.w3.org/1999/xlink" x="0px" y="0px"
	 width="24px" height="24px" viewBox="0 0 24 24" enable-background="new 0 0 24 24" xml:space="preserve">
<g>
	<path fill="#39B54A" d="M21.032,18.973l-4.836-4.835c0.797-1.188,1.263-2.618,1.263-4.157c0-4.131-3.348-7.481-7.479-7.481
		c-0.001,0-0.002,0-0.002,0C5.847,2.501,2.499,5.85,2.499,9.981c0.001,4.13,3.35,7.48,7.481,7.479c1.539,0,2.968-0.466,4.157-1.263
		l4.836,4.837c0.569,0.567,1.491,0.567,2.061-0.001C21.602,20.464,21.602,19.541,21.032,18.973z M3.5,9.979
		C3.5,6.4,6.401,3.5,9.98,3.5c3.579,0,6.481,2.901,6.481,6.48c0,3.579-2.902,6.48-6.481,6.48C6.401,16.459,3.5,13.559,3.5,9.979z
		 M20.325,20.326c-0.179,0.178-0.468,0.178-0.646,0l-4.749-4.75c0.228-0.202,0.442-0.417,0.645-0.646l4.75,4.749
		C20.503,19.857,20.503,20.146,20.325,20.326z"/>
	<path fill="#39B54A" d="M6.35,6.29c-1.085,1.084-1.671,2.57-1.616,4.103l1-0.033c-0.004-0.11-0.004-0.22,0-0.33
		c0.091-2.496,2.188-4.445,4.684-4.354l0.034-0.999L10.45,4.676C8.918,4.622,7.433,5.206,6.35,6.29z"/>
</g>
</svg>
