<svg xmlns="http://www.w3.org/2000/svg" width="129" height="64" viewBox="0 0 129 64">
    <g fill="none" fill-rule="nonzero">
        <path fill="#F04100" d="M0 0h64v64H0V0zm2 2v60h60V2H2z"/>
        <path fill="#212121" d="M10.96 31.1c-.06-2.82.975-5.25 3.105-7.29s4.645-3.03 7.545-2.97c2.9-.06 5.425.93 7.575 2.97 2.15 2.04 3.195 4.47 3.135 7.29.06 2.84-.985 5.27-3.135 7.29-2.15 2.02-4.675 3.01-7.575 2.97-2.92.04-5.44-.95-7.56-2.97-2.12-2.02-3.15-4.45-3.09-7.29zm16.08 0c0-1.62-.515-2.945-1.545-3.975-1.03-1.03-2.315-1.545-3.855-1.545-1.6 0-2.9.51-3.9 1.53s-1.5 2.35-1.5 3.99c0 1.64.5 2.98 1.5 4.02 1 1 2.3 1.5 3.9 1.5 1.56 0 2.85-.51 3.87-1.53s1.53-2.35 1.53-3.99zm23.88 2.64c0 2.24-.75 4.065-2.25 5.475-1.5 1.41-3.43 2.115-5.79 2.115-2.54 0-4.555-.83-6.045-2.49-1.49-1.66-2.235-3.91-2.235-6.75v-2.07c.02-1.82.185-3.345.495-4.575a8.19 8.19 0 0 1 1.665-3.285c.8-.96 1.9-1.705 3.3-2.235 1.4-.53 3.17-.905 5.31-1.125 1.68-.14 2.8-.28 3.36-.42.5-.14.78-.21.84-.21v4.65c-.02 0-.31.06-.87.18-.58.12-1.74.24-3.48.36-2.26.16-3.805.585-4.635 1.275-.83.69-1.285 1.975-1.365 3.855 1.16-1.52 2.81-2.28 4.95-2.28 1.98 0 3.6.705 4.86 2.115 1.26 1.41 1.89 3.215 1.89 5.415zm-6.12 2.1c.56-.56.84-1.25.84-2.07 0-.82-.275-1.505-.825-2.055-.55-.55-1.235-.825-2.055-.825-.82 0-1.505.275-2.055.825-.55.55-.825 1.235-.825 2.055 0 .8.28 1.48.84 2.04.56.56 1.24.84 2.04.84.82 0 1.5-.27 2.04-.81zM55.93 41V30.32h-3.78V26h8.94v3.78h2.16c1.92 0 3.51.5 4.77 1.5 1.26 1 1.89 2.37 1.89 4.11 0 1.74-.63 3.11-1.89 4.11-1.26 1-2.85 1.5-4.77 1.5h-7.32zm5.16-4.32h2.07c1 0 1.5-.41 1.5-1.23 0-.9-.5-1.35-1.5-1.35h-2.07v2.58zm25.53-1.38h-9.6c.56 1.14 1.68 1.71 3.36 1.71 1.32 0 2.63-.39 3.93-1.17l1.86 3.51c-1.76 1.34-3.75 2.01-5.97 2.01-2.44 0-4.455-.75-6.045-2.25-1.59-1.5-2.385-3.37-2.385-5.61 0-2.2.775-4.06 2.325-5.58 1.55-1.52 3.445-2.28 5.685-2.28 2.12 0 3.845.69 5.175 2.07 1.33 1.38 1.995 3.06 1.995 5.04 0 .86-.11 1.71-.33 2.55zm-9.78-3.36h5.22c-.02-.66-.27-1.2-.75-1.62-.48-.42-1.06-.63-1.74-.63-.66 0-1.23.195-1.71.585-.48.39-.82.945-1.02 1.665zM105.97 41h-6.03l-5.1-7.5V41h-5.16V26h5.16v6.81L99.88 26h5.73l-5.28 6.87 5.64 8.13zm4.65 0V30.32h-4.35V26h13.89v4.32h-4.38V41h-5.16zm11.64-9.6c-.64-.64-.96-1.44-.96-2.4s.32-1.76.96-2.4c.64-.64 1.46-.96 2.46-.96.96 0 1.755.32 2.385.96.63.64.945 1.44.945 2.4s-.315 1.76-.945 2.4c-.63.64-1.425.96-2.385.96-1 0-1.82-.32-2.46-.96zm0 9c-.64-.64-.96-1.44-.96-2.4s.32-1.76.96-2.4c.64-.64 1.46-.96 2.46-.96.96 0 1.755.32 2.385.96.63.64.945 1.44.945 2.4s-.315 1.76-.945 2.4c-.63.64-1.425.96-2.385.96-1 0-1.82-.32-2.46-.96z"/>
    </g>
</svg>
