<svg xmlns="http://www.w3.org/2000/svg" width="122" height="135" viewBox="0 0 122 135">
    <g fill="none" fill-rule="nonzero">
        <path fill="#F04100" d="M0 0h64v64H0V0zm2 2v60h60V2H2z"/>
        <path fill="#212121" d="M24 14h2.75v33h-8.6V24.2l-5.6 1.85-2.05-7.6L24 14zm9.25 16.25c0-5.033 1.192-9.1 3.575-12.2 2.383-3.1 5.758-4.65 10.125-4.65s7.742 1.55 10.125 4.65c2.383 3.1 3.575 7.167 3.575 12.2 0 5.1-1.2 9.267-3.6 12.5-2.4 3.233-5.767 4.85-10.1 4.85-4.333 0-7.7-1.617-10.1-4.85-2.4-3.233-3.6-7.4-3.6-12.5zm18.6.05c0-3.1-.4-5.375-1.2-6.825-.8-1.45-2.033-2.175-3.7-2.175-1.667 0-2.9.725-3.7 2.175-.8 1.45-1.2 3.725-1.2 6.825 0 6.267 1.633 9.4 4.9 9.4 3.267 0 4.9-3.133 4.9-9.4zm13.8-.05c0-5.033 1.192-9.1 3.575-12.2 2.383-3.1 5.758-4.65 10.125-4.65s7.742 1.55 10.125 4.65c2.383 3.1 3.575 7.167 3.575 12.2 0 5.1-1.2 9.267-3.6 12.5-2.4 3.233-5.767 4.85-10.1 4.85-4.333 0-7.7-1.617-10.1-4.85-2.4-3.233-3.6-7.4-3.6-12.5zm18.6.05c0-3.1-.4-5.375-1.2-6.825-.8-1.45-2.033-2.175-3.7-2.175-1.667 0-2.9.725-3.7 2.175-.8 1.45-1.2 3.725-1.2 6.825 0 6.267 1.633 9.4 4.9 9.4 3.267 0 4.9-3.133 4.9-9.4zm21.3 12.5v-8.4H97.4v-7.2h8.15v-8.4h8.1v8.4h8.1v7.2h-8.1v8.4h-8.1zM8.94 101.92h.825V112h-2.58v-5.145l-5.37 5.325H.99V102.1h2.58v5.085l5.37-5.265zm2.295 5.13c-.02-1.42.5-2.637 1.56-3.653 1.06-1.015 2.325-1.507 3.795-1.477.99 0 1.88.232 2.67.698a4.909 4.909 0 0 1 1.86 1.957l-1.965 1.335c-.64-1.08-1.5-1.62-2.58-1.62-.79 0-1.437.255-1.942.765-.506.51-.758 1.18-.758 2.01 0 .81.25 1.475.75 1.995.52.5 1.17.75 1.95.75 1.08 0 1.94-.54 2.58-1.62l1.965 1.335a4.909 4.909 0 0 1-1.86 1.957c-.79.466-1.685.698-2.685.698-1.46.02-2.722-.475-3.787-1.485-1.066-1.01-1.583-2.225-1.553-3.645zM22.59 112v-9.9h8.625v9.9h-2.58v-7.575H25.17V112h-2.58zm10.605 0v-9.9h2.58v3.075h1.56c1.09 0 2 .32 2.73.96.73.64 1.095 1.46 1.095 2.46 0 1.02-.36 1.842-1.08 2.468-.72.625-1.635.937-2.745.937h-4.14zm2.58-2.25h1.575c.36 0 .647-.105.862-.315.216-.21.323-.49.323-.84s-.107-.632-.322-.847c-.216-.216-.503-.323-.863-.323h-1.575v2.325zm6.69 2.25v-9.9h2.58v9.9h-2.58zm6.69 0v-7.575h-2.97V102.1h8.52v2.325h-2.97V112h-2.58zm12.78 0l-.36-.825H58.02l-.36.825h-2.775l4.5-10.08h.825l4.5 10.08h-2.775zm-1.275-2.895l-.855-2.295-.87 2.295h1.725zM65.73 112v-9.9h2.58v3.615h3.615V102.1h2.58v9.9h-2.58v-3.96H68.31V112h-2.58zm18.705-10.08h.825V112h-2.58v-5.145l-5.37 5.325h-.825V102.1h2.58v5.085l5.37-5.265zm10.755 0h.825V112h-2.58v-5.145l-5.37 5.325h-.825V102.1h2.58v5.085l5.37-5.265zm-5.865-3.435v-.135h2.025v.21c0 .6.255.9.765.9s.765-.3.765-.9v-.21h2.025v.135c0 .82-.26 1.49-.78 2.01-.52.52-1.19.78-2.01.78-.82 0-1.49-.26-2.01-.78-.52-.52-.78-1.19-.78-2.01zM8.955 129.06c0 .85-.317 1.552-.953 2.107-.635.556-1.432.833-2.392.833H.99v-9.9h3.57c.96 0 1.757.272 2.393.818.635.545.952 1.247.952 2.107 0 .67-.2 1.225-.6 1.665 1.1.45 1.65 1.24 1.65 2.37zm-4.56-4.785h-.93v1.74h.93c.31 0 .552-.08.728-.24a.813.813 0 0 0 .262-.63c0-.26-.087-.47-.263-.63-.175-.16-.417-.24-.727-.24zm1.05 5.55c.66 0 .99-.29.99-.87 0-.58-.33-.87-.99-.87h-1.98v1.74h1.98zm18.36-7.905h.825V132h-2.58v-4.155l-2.055 2.4h-.825l-2.04-2.385V132h-2.58v-10.08h.825l4.215 5.145 4.215-5.145zM26.61 132v-9.9h6.87v2.325h-4.29v1.365h3.06v2.16h-3.06v1.725h4.47V132h-7.05zm8.145-4.95c-.02-1.42.5-2.637 1.56-3.653 1.06-1.015 2.325-1.507 3.795-1.477.99 0 1.88.232 2.67.698a4.909 4.909 0 0 1 1.86 1.957l-1.965 1.335c-.64-1.08-1.5-1.62-2.58-1.62-.79 0-1.437.255-1.942.765-.506.51-.758 1.18-.758 2.01 0 .81.25 1.475.75 1.995.52.5 1.17.75 1.95.75 1.08 0 1.94-.54 2.58-1.62l1.965 1.335a4.909 4.909 0 0 1-1.86 1.957c-.79.466-1.685.698-2.685.698-1.46.02-2.722-.475-3.788-1.485-1.065-1.01-1.582-2.225-1.552-3.645zm15.36-4.95h3.615v9.9h-2.58v-2.91h-.84L48.3 132h-2.73l2.34-3.39c-.6-.3-1.065-.715-1.395-1.245a3.308 3.308 0 0 1-.495-1.785c0-1.02.38-1.855 1.14-2.505.76-.65 1.745-.975 2.955-.975zm1.035 4.74v-2.49h-1.14c-.4 0-.727.115-.982.345-.256.23-.383.53-.383.9s.127.67.383.9c.255.23.582.345.982.345h1.14zm12 7.275V132h-7.44v-9.9h2.58v7.575h3.315V122.1h2.58v7.575h1.395v4.44h-2.43z"/>
    </g>
</svg>
